<?xml version="1.0" encoding="UTF-8" standalone="no"?>
<svg
   xmlns:dc="http://purl.org/dc/elements/1.1/"
   xmlns:cc="http://creativecommons.org/ns#"
   xmlns:rdf="http://www.w3.org/1999/02/22-rdf-syntax-ns#"
   xmlns:svg="http://www.w3.org/2000/svg"
   xmlns="http://www.w3.org/2000/svg"
   xmlns:xlink="http://www.w3.org/1999/xlink"
   xmlns:sodipodi="http://sodipodi.sourceforge.net/DTD/sodipodi-0.dtd"
   xmlns:inkscape="http://www.inkscape.org/namespaces/inkscape"
   width="210mm"
   height="297mm"
   viewBox="0 0 210 297"
   version="1.1"
   id="svg8"
   inkscape:version="1.0.2 (1.0.2+r75+1)"
   sodipodi:docname="roc-auc.svg"
   inkscape:export-filename="/home/rrtucci/latex_docs/Bayesuvius/roc/roc-auc.png"
   inkscape:export-xdpi="96"
   inkscape:export-ydpi="96">
  <defs
     id="defs2">
    <inkscape:path-effect
       effect="bspline"
       id="path-effect841"
       is_visible="true"
       lpeversion="1"
       weight="33.333333"
       steps="2"
       helper_size="0"
       apply_no_weight="true"
       apply_with_weight="true"
       only_selected="false" />
    <inkscape:path-effect
       effect="bspline"
       id="path-effect837"
       is_visible="true"
       lpeversion="1"
       weight="33.333333"
       steps="2"
       helper_size="0"
       apply_no_weight="true"
       apply_with_weight="true"
       only_selected="false" />
    <g
       id="g3477">
      <symbol
         overflow="visible"
         id="symbol3619">
        <path
           style="stroke:none;"
           d=""
           id="path7782" />
      </symbol>
      <symbol
         overflow="visible"
         id="symbol383">
        <path
           style="stroke:none;"
           d="M 3.734375 -6.125 C 3.796875 -6.359375 3.828125 -6.453125 4.015625 -6.484375 C 4.109375 -6.5 4.421875 -6.5 4.625 -6.5 C 5.328125 -6.5 6.4375 -6.5 6.4375 -5.515625 C 6.4375 -5.171875 6.28125 -4.484375 5.890625 -4.09375 C 5.625 -3.84375 5.109375 -3.515625 4.203125 -3.515625 L 3.09375 -3.515625 Z M 5.171875 -3.390625 C 6.1875 -3.609375 7.359375 -4.3125 7.359375 -5.3125 C 7.359375 -6.171875 6.46875 -6.8125 5.15625 -6.8125 L 2.328125 -6.8125 C 2.125 -6.8125 2.03125 -6.8125 2.03125 -6.609375 C 2.03125 -6.5 2.125 -6.5 2.3125 -6.5 C 2.328125 -6.5 2.515625 -6.5 2.6875 -6.484375 C 2.875 -6.453125 2.953125 -6.453125 2.953125 -6.3125 C 2.953125 -6.28125 2.953125 -6.25 2.921875 -6.125 L 1.578125 -0.78125 C 1.484375 -0.390625 1.46875 -0.3125 0.671875 -0.3125 C 0.5 -0.3125 0.40625 -0.3125 0.40625 -0.109375 C 0.40625 0 0.53125 0 0.546875 0 C 0.828125 0 1.53125 -0.03125 1.796875 -0.03125 C 2.078125 -0.03125 2.796875 0 3.078125 0 C 3.15625 0 3.265625 0 3.265625 -0.203125 C 3.265625 -0.3125 3.1875 -0.3125 2.984375 -0.3125 C 2.625 -0.3125 2.34375 -0.3125 2.34375 -0.484375 C 2.34375 -0.546875 2.359375 -0.59375 2.375 -0.65625 L 3.03125 -3.296875 L 4.21875 -3.296875 C 5.125 -3.296875 5.296875 -2.734375 5.296875 -2.390625 C 5.296875 -2.25 5.21875 -1.9375 5.15625 -1.703125 C 5.09375 -1.421875 5 -1.0625 5 -0.859375 C 5 0.21875 6.203125 0.21875 6.328125 0.21875 C 7.171875 0.21875 7.53125 -0.78125 7.53125 -0.921875 C 7.53125 -1.046875 7.421875 -1.046875 7.40625 -1.046875 C 7.3125 -1.046875 7.296875 -0.984375 7.28125 -0.90625 C 7.03125 -0.171875 6.59375 0 6.375 0 C 6.046875 0 5.96875 -0.21875 5.96875 -0.609375 C 5.96875 -0.921875 6.03125 -1.421875 6.078125 -1.75 C 6.09375 -1.890625 6.109375 -2.078125 6.109375 -2.21875 C 6.109375 -2.984375 5.4375 -3.296875 5.171875 -3.390625 Z M 5.171875 -3.390625 "
           id="path357" />
      </symbol>
      <symbol
         overflow="visible"
         id="symbol8698">
        <path
           style="stroke:none;"
           d=""
           id="path8883" />
      </symbol>
      <symbol
         overflow="visible"
         id="symbol6966">
        <path
           style="stroke:none;"
           d="M 2.328125 -4.4375 C 2.328125 -4.625 2.328125 -4.625 2.125 -4.625 C 1.671875 -4.1875 1.046875 -4.1875 0.765625 -4.1875 L 0.765625 -3.9375 C 0.921875 -3.9375 1.390625 -3.9375 1.765625 -4.125 L 1.765625 -0.578125 C 1.765625 -0.34375 1.765625 -0.25 1.078125 -0.25 L 0.8125 -0.25 L 0.8125 0 C 0.9375 0 1.796875 -0.03125 2.046875 -0.03125 C 2.265625 -0.03125 3.140625 0 3.296875 0 L 3.296875 -0.25 L 3.03125 -0.25 C 2.328125 -0.25 2.328125 -0.34375 2.328125 -0.578125 Z M 2.328125 -4.4375 "
           id="path5455" />
      </symbol>
      <symbol
         overflow="visible"
         id="symbol6537">
        <path
           style="stroke:none;"
           d="M 3.59375 -2.21875 C 3.59375 -2.984375 3.5 -3.546875 3.1875 -4.03125 C 2.96875 -4.34375 2.53125 -4.625 1.984375 -4.625 C 0.359375 -4.625 0.359375 -2.71875 0.359375 -2.21875 C 0.359375 -1.71875 0.359375 0.140625 1.984375 0.140625 C 3.59375 0.140625 3.59375 -1.71875 3.59375 -2.21875 Z M 1.984375 -0.0625 C 1.65625 -0.0625 1.234375 -0.25 1.09375 -0.8125 C 1 -1.21875 1 -1.796875 1 -2.3125 C 1 -2.828125 1 -3.359375 1.09375 -3.734375 C 1.25 -4.28125 1.6875 -4.4375 1.984375 -4.4375 C 2.359375 -4.4375 2.71875 -4.203125 2.84375 -3.796875 C 2.953125 -3.421875 2.96875 -2.921875 2.96875 -2.3125 C 2.96875 -1.796875 2.96875 -1.28125 2.875 -0.84375 C 2.734375 -0.203125 2.265625 -0.0625 1.984375 -0.0625 Z M 1.984375 -0.0625 "
           id="path8099" />
      </symbol>
      <symbol
         overflow="visible"
         id="symbol2220">
        <path
           style="stroke:none;"
           d=""
           id="path7556" />
      </symbol>
      <symbol
         overflow="visible"
         id="symbol6754">
        <path
           style="stroke:none;"
           d="M 1.359375 -4.953125 C 1.359375 -5.0625 1.359375 -5.21875 1.1875 -5.21875 C 1.015625 -5.21875 1.015625 -5.0625 1.015625 -4.953125 L 1.015625 1.46875 C 1.015625 1.578125 1.015625 1.734375 1.171875 1.734375 C 1.359375 1.734375 1.359375 1.578125 1.359375 1.46875 Z M 1.359375 -4.953125 "
           id="path7599" />
      </symbol>
    </g>
    <g
       id="g4688">
      <symbol
         overflow="visible"
         id="symbol4258">
        <path
           style="stroke:none;"
           d=""
           id="path4428" />
      </symbol>
      <symbol
         overflow="visible"
         id="symbol1245">
        <path
           style="stroke:none;"
           d="M 3.734375 -6.125 C 3.796875 -6.359375 3.828125 -6.453125 4.015625 -6.484375 C 4.109375 -6.5 4.421875 -6.5 4.625 -6.5 C 5.328125 -6.5 6.4375 -6.5 6.4375 -5.515625 C 6.4375 -5.171875 6.28125 -4.484375 5.890625 -4.09375 C 5.625 -3.84375 5.109375 -3.515625 4.203125 -3.515625 L 3.09375 -3.515625 Z M 5.171875 -3.390625 C 6.1875 -3.609375 7.359375 -4.3125 7.359375 -5.3125 C 7.359375 -6.171875 6.46875 -6.8125 5.15625 -6.8125 L 2.328125 -6.8125 C 2.125 -6.8125 2.03125 -6.8125 2.03125 -6.609375 C 2.03125 -6.5 2.125 -6.5 2.3125 -6.5 C 2.328125 -6.5 2.515625 -6.5 2.6875 -6.484375 C 2.875 -6.453125 2.953125 -6.453125 2.953125 -6.3125 C 2.953125 -6.28125 2.953125 -6.25 2.921875 -6.125 L 1.578125 -0.78125 C 1.484375 -0.390625 1.46875 -0.3125 0.671875 -0.3125 C 0.5 -0.3125 0.40625 -0.3125 0.40625 -0.109375 C 0.40625 0 0.53125 0 0.546875 0 C 0.828125 0 1.53125 -0.03125 1.796875 -0.03125 C 2.078125 -0.03125 2.796875 0 3.078125 0 C 3.15625 0 3.265625 0 3.265625 -0.203125 C 3.265625 -0.3125 3.1875 -0.3125 2.984375 -0.3125 C 2.625 -0.3125 2.34375 -0.3125 2.34375 -0.484375 C 2.34375 -0.546875 2.359375 -0.59375 2.375 -0.65625 L 3.03125 -3.296875 L 4.21875 -3.296875 C 5.125 -3.296875 5.296875 -2.734375 5.296875 -2.390625 C 5.296875 -2.25 5.21875 -1.9375 5.15625 -1.703125 C 5.09375 -1.421875 5 -1.0625 5 -0.859375 C 5 0.21875 6.203125 0.21875 6.328125 0.21875 C 7.171875 0.21875 7.53125 -0.78125 7.53125 -0.921875 C 7.53125 -1.046875 7.421875 -1.046875 7.40625 -1.046875 C 7.3125 -1.046875 7.296875 -0.984375 7.28125 -0.90625 C 7.03125 -0.171875 6.59375 0 6.375 0 C 6.046875 0 5.96875 -0.21875 5.96875 -0.609375 C 5.96875 -0.921875 6.03125 -1.421875 6.078125 -1.75 C 6.09375 -1.890625 6.109375 -2.078125 6.109375 -2.21875 C 6.109375 -2.984375 5.4375 -3.296875 5.171875 -3.390625 Z M 5.171875 -3.390625 "
           id="path2775" />
      </symbol>
      <symbol
         overflow="visible"
         id="symbol4627">
        <path
           style="stroke:none;"
           d=""
           id="path4138" />
      </symbol>
      <symbol
         overflow="visible"
         id="symbol5716">
        <path
           style="stroke:none;"
           d="M 2.328125 -4.4375 C 2.328125 -4.625 2.328125 -4.625 2.125 -4.625 C 1.671875 -4.1875 1.046875 -4.1875 0.765625 -4.1875 L 0.765625 -3.9375 C 0.921875 -3.9375 1.390625 -3.9375 1.765625 -4.125 L 1.765625 -0.578125 C 1.765625 -0.34375 1.765625 -0.25 1.078125 -0.25 L 0.8125 -0.25 L 0.8125 0 C 0.9375 0 1.796875 -0.03125 2.046875 -0.03125 C 2.265625 -0.03125 3.140625 0 3.296875 0 L 3.296875 -0.25 L 3.03125 -0.25 C 2.328125 -0.25 2.328125 -0.34375 2.328125 -0.578125 Z M 2.328125 -4.4375 "
           id="path5916" />
      </symbol>
      <symbol
         overflow="visible"
         id="symbol5632">
        <path
           style="stroke:none;"
           d=""
           id="path260" />
      </symbol>
      <symbol
         overflow="visible"
         id="symbol7713">
        <path
           style="stroke:none;"
           d="M 1.359375 -4.953125 C 1.359375 -5.0625 1.359375 -5.21875 1.1875 -5.21875 C 1.015625 -5.21875 1.015625 -5.0625 1.015625 -4.953125 L 1.015625 1.46875 C 1.015625 1.578125 1.015625 1.734375 1.171875 1.734375 C 1.359375 1.734375 1.359375 1.578125 1.359375 1.46875 Z M 1.359375 -4.953125 "
           id="path3901" />
      </symbol>
    </g>
  </defs>
  <sodipodi:namedview
     id="base"
     pagecolor="#ffffff"
     bordercolor="#666666"
     borderopacity="1.0"
     inkscape:pageopacity="0.0"
     inkscape:pageshadow="2"
     inkscape:zoom="0.94"
     inkscape:cx="394.22274"
     inkscape:cy="728.53916"
     inkscape:document-units="mm"
     inkscape:current-layer="layer1"
     inkscape:document-rotation="0"
     showgrid="false"
     inkscape:window-width="1694"
     inkscape:window-height="754"
     inkscape:window-x="117"
     inkscape:window-y="120"
     inkscape:window-maximized="0" />
  <metadata
     id="metadata5">
    <rdf:RDF>
      <cc:Work
         rdf:about="">
        <dc:format>image/svg+xml</dc:format>
        <dc:type
           rdf:resource="http://purl.org/dc/dcmitype/StillImage" />
        <dc:title />
      </cc:Work>
    </rdf:RDF>
  </metadata>
  <g
     inkscape:label="Layer 1"
     inkscape:groupmode="layer"
     id="layer1">
    <rect
       style="fill:none;stroke:#000000;stroke-width:0.638;stroke-linecap:square;stroke-miterlimit:4;stroke-dasharray:none;stroke-opacity:1"
       id="rect833"
       width="123.69021"
       height="111.76964"
       x="52.720898"
       y="98.709343" />
    <path
       style="fill:#d5ffe6;stroke:#d24dea;stroke-width:0.565;stroke-linecap:butt;stroke-linejoin:miter;stroke-miterlimit:4;stroke-dasharray:none;stroke-opacity:1"
       d="m 52.720895,210.47897 c 3.598664,-14.54092 7.197372,-29.08201 11.883455,-43.08824 4.686084,-14.00624 10.459318,-27.47701 18.677715,-36.79894 8.218397,-9.32193 18.939965,-14.52285 33.537805,-18.88984 14.59785,-4.36699 38.42585,-8.93502 59.59123,-12.992607"
       id="path839"
       inkscape:path-effect="#path-effect841"
       inkscape:original-d="m 52.720895,210.47897 c 3.598974,-14.54084 7.197683,-29.08193 10.796127,-43.62329 5.77373,-13.47105 11.546964,-26.94182 17.320048,-40.41312 10.6929,-5.11187 21.38511,-10.3733 32.07727,-15.56035 18.46032,-3.77185 42.33144,-8.11498 63.49676,-12.172867" />
    <path
       style="fill:#d5ffe6;fill-opacity:1;stroke:none;stroke-width:1.82286;stroke-linecap:square;stroke-miterlimit:4;stroke-dasharray:none;stroke-opacity:0.00996136"
       d="m 113.8394,155.17485 c 32.54345,-29.37613 59.93532,-54.09837 60.87081,-54.93833 l 1.70089,-1.527177 v 54.938317 54.93832 H 115.54029 54.669476 Z"
       id="path843" />
    <text
       xml:space="preserve"
       style="font-size:8.46667px;line-height:1.25;font-family:sans-serif;stroke-width:0.264583"
       x="53.204483"
       y="219.01242"
       id="text847"><tspan
         sodipodi:role="line"
         id="tspan845"
         x="53.204483"
         y="219.01242"
         style="font-size:8.46667px;stroke-width:0.264583">0</tspan></text>
    <text
       xml:space="preserve"
       style="font-size:8.46667px;line-height:1.25;font-family:sans-serif;stroke-width:0.264583"
       x="171.82408"
       y="219.19556"
       id="text851"><tspan
         id="tspan849"
         x="171.82408"
         y="219.19556"
         style="font-size:8.46667px;stroke-width:0.264583"
         sodipodi:role="line">1</tspan></text>
    <text
       xml:space="preserve"
       style="font-size:8.46667px;line-height:1.25;font-family:sans-serif;stroke-width:0.264583"
       x="65.587852"
       y="128.8257"
       id="text855"><tspan
         sodipodi:role="line"
         id="tspan853"
         x="65.587852"
         y="128.8257"
         style="font-size:8.46667px;stroke-width:0.264583">ROC</tspan></text>
    <text
       xml:space="preserve"
       style="font-size:8.46667px;line-height:1.25;font-family:sans-serif;stroke-width:0.264583"
       x="86.321121"
       y="171.18028"
       id="text859"><tspan
         sodipodi:role="line"
         id="tspan857"
         x="86.321121"
         y="171.18028"
         style="font-size:8.46667px;stroke-width:0.264583">AUC=.85</tspan></text>
    <text
       xml:space="preserve"
       style="font-size:8.46667px;line-height:1.25;font-family:sans-serif;stroke-width:0.264583"
       x="43.806572"
       y="210.18909"
       id="text847-8"><tspan
         sodipodi:role="line"
         id="tspan845-8"
         x="43.806572"
         y="210.18909"
         style="font-size:8.46667px;stroke-width:0.264583">0</tspan></text>
    <text
       xml:space="preserve"
       style="font-size:8.46667px;line-height:1.25;font-family:sans-serif;stroke-width:0.264583"
       x="43.819851"
       y="105.03405"
       id="text851-9"><tspan
         id="tspan849-2"
         x="43.819851"
         y="105.03405"
         style="font-size:8.46667px;stroke-width:0.264583"
         sodipodi:role="line">1</tspan></text>
    <text
       xml:space="preserve"
       style="font-size:7.05556px;line-height:1.25;font-family:sans-serif;text-align:center;text-anchor:middle;stroke-width:0.264583"
       x="109.14195"
       y="220.46358"
       id="text923"
       inkscape:export-xdpi="96"
       inkscape:export-ydpi="96"><tspan
         sodipodi:role="line"
         id="tspan921"
         x="109.14195"
         y="220.46358"
         style="font-size:7.05556px;text-align:center;text-anchor:middle;stroke-width:0.264583">False Positive Rate,</tspan><tspan
         sodipodi:role="line"
         x="109.14195"
         y="229.28302"
         style="font-size:7.05556px;text-align:center;text-anchor:middle;stroke-width:0.264583"
         id="tspan925">1-Specificity</tspan></text>
    <text
       xml:space="preserve"
       style="font-size:7.05556px;line-height:1.25;font-family:sans-serif;text-align:center;text-anchor:middle;stroke-width:0.264583"
       x="-156.96402"
       y="40.388447"
       id="text929"
       transform="rotate(-90)"><tspan
         sodipodi:role="line"
         id="tspan927"
         x="-156.96402"
         y="40.388447"
         style="font-size:7.05556px;text-align:center;text-anchor:middle;stroke-width:0.264583">True Positive Rate</tspan><tspan
         sodipodi:role="line"
         x="-156.96402"
         y="49.207897"
         style="font-size:7.05556px;text-align:center;text-anchor:middle;stroke-width:0.264583"
         id="tspan931">Sensitivity</tspan></text>
    <g
       inkscape:label=""
       transform="matrix(1.4981263,0,0,1.4982942,-42.376322,126.36915)"
       id="g7142">
      <g
         id="g2055">
        <g
           style="fill:#000000;fill-opacity:1"
           id="g756">
          <use
             xlink:href="#symbol383"
             x="91.925003"
             y="81.962997"
             id="use6896"
             width="100%"
             height="100%" />
        </g>
        <g
           style="fill:#000000;fill-opacity:1"
           id="g9985">
          <use
             xlink:href="#symbol6966"
             x="99.489998"
             y="83.761002"
             id="use9291"
             width="100%"
             height="100%" />
        </g>
        <g
           style="fill:#000000;fill-opacity:1"
           id="g7032">
          <use
             xlink:href="#symbol6754"
             x="103.461"
             y="83.761002"
             id="use2215"
             width="100%"
             height="100%" />
        </g>
        <g
           style="fill:#000000;fill-opacity:1"
           id="g6777">
          <use
             xlink:href="#symbol6537"
             x="105.827"
             y="83.761002"
             id="use268"
             width="100%"
             height="100%" />
        </g>
      </g>
    </g>
    <g
       inkscape:label=""
       transform="matrix(1.5314919,0,0,1.5139013,-139.35429,33.207137)"
       id="g7244">
      <g
         id="g3124">
        <g
           style="fill:#000000;fill-opacity:1"
           id="g3847">
          <use
             xlink:href="#symbol1245"
             x="91.925003"
             y="81.962997"
             id="use5949"
             width="100%"
             height="100%" />
        </g>
        <g
           style="fill:#000000;fill-opacity:1"
           id="g6452">
          <use
             xlink:href="#symbol5716"
             x="99.489998"
             y="83.761002"
             id="use513"
             width="100%"
             height="100%" />
        </g>
        <g
           style="fill:#000000;fill-opacity:1"
           id="g3203">
          <use
             xlink:href="#symbol7713"
             x="103.461"
             y="83.761002"
             id="use7111"
             width="100%"
             height="100%" />
        </g>
        <g
           style="fill:#000000;fill-opacity:1"
           id="g3863">
          <use
             xlink:href="#symbol5716"
             x="105.827"
             y="83.761002"
             id="use1206"
             width="100%"
             height="100%" />
        </g>
      </g>
    </g>
  </g>
</svg>
