<?xml version="1.0" encoding="UTF-8" standalone="no"?>
<svg
   xmlns:dc="http://purl.org/dc/elements/1.1/"
   xmlns:cc="http://creativecommons.org/ns#"
   xmlns:rdf="http://www.w3.org/1999/02/22-rdf-syntax-ns#"
   xmlns:svg="http://www.w3.org/2000/svg"
   xmlns="http://www.w3.org/2000/svg"
   xmlns:xlink="http://www.w3.org/1999/xlink"
   xmlns:sodipodi="http://sodipodi.sourceforge.net/DTD/sodipodi-0.dtd"
   xmlns:inkscape="http://www.inkscape.org/namespaces/inkscape"
   width="210mm"
   height="297mm"
   viewBox="0 0 210 297"
   version="1.1"
   id="svg8"
   sodipodi:docname="jack-dots.svg"
   inkscape:version="1.0.2 (1.0.2+r75+1)"
   inkscape:export-filename="/home/rrtucci/latex_docs/Bayesuvius/jack/jack-dots.png"
   inkscape:export-xdpi="96"
   inkscape:export-ydpi="96">
  <defs
     id="defs2">
    <g
       id="g6031">
      <symbol
         overflow="visible"
         id="symbol2862">
        <path
           style="stroke:none;"
           d=""
           id="path4098" />
      </symbol>
      <symbol
         overflow="visible"
         id="symbol5020">
        <path
           style="stroke:none;"
           d="M 1.78125 -1.140625 C 1.390625 -0.484375 1 -0.34375 0.5625 -0.3125 C 0.4375 -0.296875 0.34375 -0.296875 0.34375 -0.109375 C 0.34375 -0.046875 0.40625 0 0.484375 0 C 0.75 0 1.0625 -0.03125 1.328125 -0.03125 C 1.671875 -0.03125 2.015625 0 2.328125 0 C 2.390625 0 2.515625 0 2.515625 -0.1875 C 2.515625 -0.296875 2.4375 -0.3125 2.359375 -0.3125 C 2.140625 -0.328125 1.890625 -0.40625 1.890625 -0.65625 C 1.890625 -0.78125 1.953125 -0.890625 2.03125 -1.03125 L 2.796875 -2.296875 L 5.296875 -2.296875 C 5.3125 -2.09375 5.453125 -0.734375 5.453125 -0.640625 C 5.453125 -0.34375 4.9375 -0.3125 4.734375 -0.3125 C 4.59375 -0.3125 4.5 -0.3125 4.5 -0.109375 C 4.5 0 4.609375 0 4.640625 0 C 5.046875 0 5.46875 -0.03125 5.875 -0.03125 C 6.125 -0.03125 6.765625 0 7.015625 0 C 7.0625 0 7.1875 0 7.1875 -0.203125 C 7.1875 -0.3125 7.09375 -0.3125 6.953125 -0.3125 C 6.34375 -0.3125 6.34375 -0.375 6.3125 -0.671875 L 5.703125 -6.890625 C 5.6875 -7.09375 5.6875 -7.140625 5.515625 -7.140625 C 5.359375 -7.140625 5.3125 -7.0625 5.25 -6.96875 Z M 2.984375 -2.609375 L 4.9375 -5.90625 L 5.265625 -2.609375 Z M 2.984375 -2.609375 "
           id="path5288" />
      </symbol>
    </g>
    <g
       id="g9827">
      <symbol
         overflow="visible"
         id="symbol6603">
        <path
           style="stroke:none;"
           d=""
           id="path1336" />
      </symbol>
      <symbol
         overflow="visible"
         id="symbol2072">
        <path
           style="stroke:none;"
           d="M 1.78125 -1.140625 C 1.390625 -0.484375 1 -0.34375 0.5625 -0.3125 C 0.4375 -0.296875 0.34375 -0.296875 0.34375 -0.109375 C 0.34375 -0.046875 0.40625 0 0.484375 0 C 0.75 0 1.0625 -0.03125 1.328125 -0.03125 C 1.671875 -0.03125 2.015625 0 2.328125 0 C 2.390625 0 2.515625 0 2.515625 -0.1875 C 2.515625 -0.296875 2.4375 -0.3125 2.359375 -0.3125 C 2.140625 -0.328125 1.890625 -0.40625 1.890625 -0.65625 C 1.890625 -0.78125 1.953125 -0.890625 2.03125 -1.03125 L 2.796875 -2.296875 L 5.296875 -2.296875 C 5.3125 -2.09375 5.453125 -0.734375 5.453125 -0.640625 C 5.453125 -0.34375 4.9375 -0.3125 4.734375 -0.3125 C 4.59375 -0.3125 4.5 -0.3125 4.5 -0.109375 C 4.5 0 4.609375 0 4.640625 0 C 5.046875 0 5.46875 -0.03125 5.875 -0.03125 C 6.125 -0.03125 6.765625 0 7.015625 0 C 7.0625 0 7.1875 0 7.1875 -0.203125 C 7.1875 -0.3125 7.09375 -0.3125 6.953125 -0.3125 C 6.34375 -0.3125 6.34375 -0.375 6.3125 -0.671875 L 5.703125 -6.890625 C 5.6875 -7.09375 5.6875 -7.140625 5.515625 -7.140625 C 5.359375 -7.140625 5.3125 -7.0625 5.25 -6.96875 Z M 2.984375 -2.609375 L 4.9375 -5.90625 L 5.265625 -2.609375 Z M 2.984375 -2.609375 "
           id="path6727" />
      </symbol>
      <symbol
         overflow="visible"
         id="symbol2153">
        <path
           style="stroke:none;"
           d=""
           id="path5095" />
      </symbol>
      <symbol
         overflow="visible"
         id="symbol6328">
        <path
           style="stroke:none;"
           d="M 2.265625 -4.359375 C 2.265625 -4.46875 2.171875 -4.625 1.984375 -4.625 C 1.796875 -4.625 1.59375 -4.4375 1.59375 -4.234375 C 1.59375 -4.125 1.671875 -3.96875 1.875 -3.96875 C 2.0625 -3.96875 2.265625 -4.171875 2.265625 -4.359375 Z M 0.84375 -0.8125 C 0.8125 -0.71875 0.78125 -0.640625 0.78125 -0.515625 C 0.78125 -0.1875 1.046875 0.0625 1.4375 0.0625 C 2.125 0.0625 2.4375 -0.890625 2.4375 -1 C 2.4375 -1.09375 2.34375 -1.09375 2.328125 -1.09375 C 2.234375 -1.09375 2.21875 -1.046875 2.1875 -0.96875 C 2.03125 -0.40625 1.734375 -0.125 1.453125 -0.125 C 1.3125 -0.125 1.28125 -0.21875 1.28125 -0.375 C 1.28125 -0.53125 1.328125 -0.65625 1.390625 -0.8125 C 1.46875 -1 1.546875 -1.1875 1.609375 -1.375 C 1.671875 -1.546875 1.9375 -2.171875 1.953125 -2.265625 C 1.984375 -2.328125 2 -2.40625 2 -2.484375 C 2 -2.8125 1.71875 -3.078125 1.34375 -3.078125 C 0.640625 -3.078125 0.328125 -2.125 0.328125 -2 C 0.328125 -1.921875 0.421875 -1.921875 0.453125 -1.921875 C 0.546875 -1.921875 0.546875 -1.953125 0.578125 -2.03125 C 0.75 -2.625 1.0625 -2.875 1.3125 -2.875 C 1.421875 -2.875 1.484375 -2.828125 1.484375 -2.640625 C 1.484375 -2.46875 1.453125 -2.375 1.28125 -1.9375 Z M 0.84375 -0.8125 "
           id="path5488" />
      </symbol>
    </g>
    <g
       id="g8532">
      <symbol
         overflow="visible"
         id="symbol1087">
        <path
           style="stroke:none;"
           d=""
           id="path3979" />
      </symbol>
      <symbol
         overflow="visible"
         id="symbol8829">
        <path
           style="stroke:none;"
           d="M 3.328125 -3.015625 C 3.390625 -3.265625 3.625 -4.1875 4.3125 -4.1875 C 4.359375 -4.1875 4.609375 -4.1875 4.8125 -4.0625 C 4.53125 -4 4.34375 -3.765625 4.34375 -3.515625 C 4.34375 -3.359375 4.453125 -3.171875 4.71875 -3.171875 C 4.9375 -3.171875 5.25 -3.34375 5.25 -3.75 C 5.25 -4.265625 4.671875 -4.40625 4.328125 -4.40625 C 3.75 -4.40625 3.40625 -3.875 3.28125 -3.65625 C 3.03125 -4.3125 2.5 -4.40625 2.203125 -4.40625 C 1.171875 -4.40625 0.59375 -3.125 0.59375 -2.875 C 0.59375 -2.765625 0.703125 -2.765625 0.71875 -2.765625 C 0.796875 -2.765625 0.828125 -2.796875 0.84375 -2.875 C 1.1875 -3.9375 1.84375 -4.1875 2.1875 -4.1875 C 2.375 -4.1875 2.71875 -4.09375 2.71875 -3.515625 C 2.71875 -3.203125 2.546875 -2.546875 2.1875 -1.140625 C 2.03125 -0.53125 1.671875 -0.109375 1.234375 -0.109375 C 1.171875 -0.109375 0.953125 -0.109375 0.734375 -0.234375 C 0.984375 -0.296875 1.203125 -0.5 1.203125 -0.78125 C 1.203125 -1.046875 0.984375 -1.125 0.84375 -1.125 C 0.53125 -1.125 0.296875 -0.875 0.296875 -0.546875 C 0.296875 -0.09375 0.78125 0.109375 1.21875 0.109375 C 1.890625 0.109375 2.25 -0.59375 2.265625 -0.640625 C 2.390625 -0.28125 2.75 0.109375 3.34375 0.109375 C 4.375 0.109375 4.9375 -1.171875 4.9375 -1.421875 C 4.9375 -1.53125 4.859375 -1.53125 4.828125 -1.53125 C 4.734375 -1.53125 4.71875 -1.484375 4.6875 -1.421875 C 4.359375 -0.34375 3.6875 -0.109375 3.375 -0.109375 C 2.984375 -0.109375 2.828125 -0.421875 2.828125 -0.765625 C 2.828125 -0.984375 2.875 -1.203125 2.984375 -1.640625 Z M 3.328125 -3.015625 "
           id="path682" />
      </symbol>
      <symbol
         overflow="visible"
         id="symbol705">
        <path
           style="stroke:none;"
           d=""
           id="path3020" />
      </symbol>
      <symbol
         overflow="visible"
         id="symbol446">
        <path
           style="stroke:none;"
           d="M 2.265625 -4.359375 C 2.265625 -4.46875 2.171875 -4.625 1.984375 -4.625 C 1.796875 -4.625 1.59375 -4.4375 1.59375 -4.234375 C 1.59375 -4.125 1.671875 -3.96875 1.875 -3.96875 C 2.0625 -3.96875 2.265625 -4.171875 2.265625 -4.359375 Z M 0.84375 -0.8125 C 0.8125 -0.71875 0.78125 -0.640625 0.78125 -0.515625 C 0.78125 -0.1875 1.046875 0.0625 1.4375 0.0625 C 2.125 0.0625 2.4375 -0.890625 2.4375 -1 C 2.4375 -1.09375 2.34375 -1.09375 2.328125 -1.09375 C 2.234375 -1.09375 2.21875 -1.046875 2.1875 -0.96875 C 2.03125 -0.40625 1.734375 -0.125 1.453125 -0.125 C 1.3125 -0.125 1.28125 -0.21875 1.28125 -0.375 C 1.28125 -0.53125 1.328125 -0.65625 1.390625 -0.8125 C 1.46875 -1 1.546875 -1.1875 1.609375 -1.375 C 1.671875 -1.546875 1.9375 -2.171875 1.953125 -2.265625 C 1.984375 -2.328125 2 -2.40625 2 -2.484375 C 2 -2.8125 1.71875 -3.078125 1.34375 -3.078125 C 0.640625 -3.078125 0.328125 -2.125 0.328125 -2 C 0.328125 -1.921875 0.421875 -1.921875 0.453125 -1.921875 C 0.546875 -1.921875 0.546875 -1.953125 0.578125 -2.03125 C 0.75 -2.625 1.0625 -2.875 1.3125 -2.875 C 1.421875 -2.875 1.484375 -2.828125 1.484375 -2.640625 C 1.484375 -2.46875 1.453125 -2.375 1.28125 -1.9375 Z M 0.84375 -0.8125 "
           id="path203" />
      </symbol>
    </g>
    <g
       id="g9703">
      <symbol
         overflow="visible"
         id="symbol1796">
        <path
           style="stroke:none;"
           d=""
           id="path5853" />
      </symbol>
      <symbol
         overflow="visible"
         id="symbol1499">
        <path
           style="stroke:none;"
           d="M 3.328125 -3.015625 C 3.390625 -3.265625 3.625 -4.1875 4.3125 -4.1875 C 4.359375 -4.1875 4.609375 -4.1875 4.8125 -4.0625 C 4.53125 -4 4.34375 -3.765625 4.34375 -3.515625 C 4.34375 -3.359375 4.453125 -3.171875 4.71875 -3.171875 C 4.9375 -3.171875 5.25 -3.34375 5.25 -3.75 C 5.25 -4.265625 4.671875 -4.40625 4.328125 -4.40625 C 3.75 -4.40625 3.40625 -3.875 3.28125 -3.65625 C 3.03125 -4.3125 2.5 -4.40625 2.203125 -4.40625 C 1.171875 -4.40625 0.59375 -3.125 0.59375 -2.875 C 0.59375 -2.765625 0.703125 -2.765625 0.71875 -2.765625 C 0.796875 -2.765625 0.828125 -2.796875 0.84375 -2.875 C 1.1875 -3.9375 1.84375 -4.1875 2.1875 -4.1875 C 2.375 -4.1875 2.71875 -4.09375 2.71875 -3.515625 C 2.71875 -3.203125 2.546875 -2.546875 2.1875 -1.140625 C 2.03125 -0.53125 1.671875 -0.109375 1.234375 -0.109375 C 1.171875 -0.109375 0.953125 -0.109375 0.734375 -0.234375 C 0.984375 -0.296875 1.203125 -0.5 1.203125 -0.78125 C 1.203125 -1.046875 0.984375 -1.125 0.84375 -1.125 C 0.53125 -1.125 0.296875 -0.875 0.296875 -0.546875 C 0.296875 -0.09375 0.78125 0.109375 1.21875 0.109375 C 1.890625 0.109375 2.25 -0.59375 2.265625 -0.640625 C 2.390625 -0.28125 2.75 0.109375 3.34375 0.109375 C 4.375 0.109375 4.9375 -1.171875 4.9375 -1.421875 C 4.9375 -1.53125 4.859375 -1.53125 4.828125 -1.53125 C 4.734375 -1.53125 4.71875 -1.484375 4.6875 -1.421875 C 4.359375 -0.34375 3.6875 -0.109375 3.375 -0.109375 C 2.984375 -0.109375 2.828125 -0.421875 2.828125 -0.765625 C 2.828125 -0.984375 2.875 -1.203125 2.984375 -1.640625 Z M 3.328125 -3.015625 "
           id="path792" />
      </symbol>
      <symbol
         overflow="visible"
         id="symbol2386">
        <path
           style="stroke:none;"
           d=""
           id="path7113" />
      </symbol>
      <symbol
         overflow="visible"
         id="symbol1646">
        <path
           style="stroke:none;"
           d="M 3.0625 -4.359375 C 3.0625 -4.46875 2.96875 -4.625 2.78125 -4.625 C 2.578125 -4.625 2.390625 -4.421875 2.390625 -4.234375 C 2.390625 -4.125 2.46875 -3.96875 2.671875 -3.96875 C 2.859375 -3.96875 3.0625 -4.15625 3.0625 -4.359375 Z M 1.578125 0.34375 C 1.46875 0.828125 1.09375 1.21875 0.6875 1.21875 C 0.59375 1.21875 0.515625 1.21875 0.4375 1.1875 C 0.609375 1.09375 0.671875 0.9375 0.671875 0.828125 C 0.671875 0.65625 0.53125 0.578125 0.390625 0.578125 C 0.1875 0.578125 0 0.765625 0 0.984375 C 0 1.25 0.265625 1.421875 0.6875 1.421875 C 1.109375 1.421875 1.921875 1.171875 2.140625 0.328125 L 2.765625 -2.171875 C 2.78125 -2.25 2.796875 -2.3125 2.796875 -2.421875 C 2.796875 -2.796875 2.46875 -3.078125 2.0625 -3.078125 C 1.28125 -3.078125 0.84375 -2.109375 0.84375 -2 C 0.84375 -1.921875 0.9375 -1.921875 0.953125 -1.921875 C 1.03125 -1.921875 1.046875 -1.9375 1.09375 -2.046875 C 1.265625 -2.453125 1.625 -2.875 2.03125 -2.875 C 2.203125 -2.875 2.265625 -2.765625 2.265625 -2.53125 C 2.265625 -2.453125 2.265625 -2.359375 2.25 -2.328125 Z M 1.578125 0.34375 "
           id="path4637" />
      </symbol>
    </g>
    <g
       id="g4075">
      <symbol
         overflow="visible"
         id="symbol5609">
        <path
           style="stroke:none;"
           d=""
           id="path9594" />
      </symbol>
      <symbol
         overflow="visible"
         id="symbol8516">
        <path
           style="stroke:none;"
           d="M 3.328125 -3.015625 C 3.390625 -3.265625 3.625 -4.1875 4.3125 -4.1875 C 4.359375 -4.1875 4.609375 -4.1875 4.8125 -4.0625 C 4.53125 -4 4.34375 -3.765625 4.34375 -3.515625 C 4.34375 -3.359375 4.453125 -3.171875 4.71875 -3.171875 C 4.9375 -3.171875 5.25 -3.34375 5.25 -3.75 C 5.25 -4.265625 4.671875 -4.40625 4.328125 -4.40625 C 3.75 -4.40625 3.40625 -3.875 3.28125 -3.65625 C 3.03125 -4.3125 2.5 -4.40625 2.203125 -4.40625 C 1.171875 -4.40625 0.59375 -3.125 0.59375 -2.875 C 0.59375 -2.765625 0.703125 -2.765625 0.71875 -2.765625 C 0.796875 -2.765625 0.828125 -2.796875 0.84375 -2.875 C 1.1875 -3.9375 1.84375 -4.1875 2.1875 -4.1875 C 2.375 -4.1875 2.71875 -4.09375 2.71875 -3.515625 C 2.71875 -3.203125 2.546875 -2.546875 2.1875 -1.140625 C 2.03125 -0.53125 1.671875 -0.109375 1.234375 -0.109375 C 1.171875 -0.109375 0.953125 -0.109375 0.734375 -0.234375 C 0.984375 -0.296875 1.203125 -0.5 1.203125 -0.78125 C 1.203125 -1.046875 0.984375 -1.125 0.84375 -1.125 C 0.53125 -1.125 0.296875 -0.875 0.296875 -0.546875 C 0.296875 -0.09375 0.78125 0.109375 1.21875 0.109375 C 1.890625 0.109375 2.25 -0.59375 2.265625 -0.640625 C 2.390625 -0.28125 2.75 0.109375 3.34375 0.109375 C 4.375 0.109375 4.9375 -1.171875 4.9375 -1.421875 C 4.9375 -1.53125 4.859375 -1.53125 4.828125 -1.53125 C 4.734375 -1.53125 4.71875 -1.484375 4.6875 -1.421875 C 4.359375 -0.34375 3.6875 -0.109375 3.375 -0.109375 C 2.984375 -0.109375 2.828125 -0.421875 2.828125 -0.765625 C 2.828125 -0.984375 2.875 -1.203125 2.984375 -1.640625 Z M 3.328125 -3.015625 "
           id="path2800" />
      </symbol>
      <symbol
         overflow="visible"
         id="symbol1215">
        <path
           style="stroke:none;"
           d=""
           id="path8542" />
      </symbol>
      <symbol
         overflow="visible"
         id="symbol1050">
        <path
           style="stroke:none;"
           d="M 1.890625 0.484375 C 1.9375 0.5 2.109375 0.5625 2.171875 0.578125 C 2.515625 0.703125 2.609375 0.71875 2.609375 0.90625 C 2.609375 1 2.53125 1.21875 2.296875 1.21875 C 2.1875 1.21875 1.921875 1.203125 1.609375 1.03125 C 1.5625 0.984375 1.546875 0.984375 1.53125 0.984375 C 1.484375 0.984375 1.421875 1.015625 1.421875 1.09375 C 1.421875 1.21875 1.921875 1.421875 2.296875 1.421875 C 2.78125 1.421875 3.046875 0.984375 3.046875 0.65625 C 3.046875 0.390625 2.90625 0.265625 2.765625 0.1875 C 2.703125 0.15625 1.828125 -0.140625 1.75 -0.171875 C 1.078125 -0.40625 0.703125 -0.53125 0.703125 -0.9375 C 0.703125 -1.1875 0.953125 -1.734375 1.546875 -2.046875 C 1.84375 -1.9375 2.140625 -1.9375 2.265625 -1.9375 C 2.515625 -1.9375 2.984375 -1.9375 2.984375 -2.203125 C 2.984375 -2.421875 2.59375 -2.421875 2.34375 -2.421875 C 2.1875 -2.421875 1.96875 -2.421875 1.6875 -2.328125 C 1.5 -2.46875 1.453125 -2.703125 1.453125 -2.859375 C 1.453125 -3.265625 1.734375 -3.75 2.265625 -4 C 2.421875 -3.8125 2.59375 -3.8125 2.765625 -3.8125 C 2.984375 -3.8125 3.453125 -3.8125 3.453125 -4.078125 C 3.453125 -4.296875 3.0625 -4.296875 2.8125 -4.296875 C 2.703125 -4.296875 2.546875 -4.296875 2.359375 -4.265625 C 2.359375 -4.265625 2.328125 -4.390625 2.328125 -4.46875 C 2.328125 -4.546875 2.34375 -4.640625 2.359375 -4.703125 C 2.359375 -4.71875 2.375 -4.75 2.375 -4.765625 C 2.375 -4.8125 2.328125 -4.875 2.265625 -4.875 C 2.09375 -4.875 2.09375 -4.609375 2.09375 -4.484375 C 2.09375 -4.453125 2.09375 -4.3125 2.125 -4.21875 C 1.171875 -3.953125 0.84375 -3.359375 0.84375 -2.90625 C 0.84375 -2.625 0.96875 -2.34375 1.296875 -2.15625 C 0.515625 -1.703125 0.28125 -1.015625 0.28125 -0.71875 C 0.28125 -0.078125 0.953125 0.15625 1.171875 0.234375 Z M 3.1875 -4.0625 C 3.125 -4.046875 3.046875 -4.015625 2.765625 -4.015625 C 2.65625 -4.015625 2.578125 -4.015625 2.484375 -4.0625 C 2.609375 -4.09375 2.671875 -4.09375 2.8125 -4.09375 C 3.03125 -4.09375 3.078125 -4.09375 3.1875 -4.0625 Z M 2.703125 -2.1875 C 2.609375 -2.15625 2.515625 -2.140625 2.28125 -2.140625 C 2.15625 -2.140625 2.0625 -2.140625 1.9375 -2.1875 C 2.125 -2.21875 2.1875 -2.21875 2.34375 -2.21875 C 2.5625 -2.21875 2.578125 -2.21875 2.703125 -2.1875 Z M 2.703125 -2.1875 "
           id="path9334" />
      </symbol>
    </g>
    <g
       id="g9188">
      <symbol
         overflow="visible"
         id="symbol7192">
        <path
           style="stroke:none;"
           d=""
           id="path3021" />
      </symbol>
      <symbol
         overflow="visible"
         id="symbol591">
        <path
           style="stroke:none;"
           d="M 1.78125 -1.140625 C 1.390625 -0.484375 1 -0.34375 0.5625 -0.3125 C 0.4375 -0.296875 0.34375 -0.296875 0.34375 -0.109375 C 0.34375 -0.046875 0.40625 0 0.484375 0 C 0.75 0 1.0625 -0.03125 1.328125 -0.03125 C 1.671875 -0.03125 2.015625 0 2.328125 0 C 2.390625 0 2.515625 0 2.515625 -0.1875 C 2.515625 -0.296875 2.4375 -0.3125 2.359375 -0.3125 C 2.140625 -0.328125 1.890625 -0.40625 1.890625 -0.65625 C 1.890625 -0.78125 1.953125 -0.890625 2.03125 -1.03125 L 2.796875 -2.296875 L 5.296875 -2.296875 C 5.3125 -2.09375 5.453125 -0.734375 5.453125 -0.640625 C 5.453125 -0.34375 4.9375 -0.3125 4.734375 -0.3125 C 4.59375 -0.3125 4.5 -0.3125 4.5 -0.109375 C 4.5 0 4.609375 0 4.640625 0 C 5.046875 0 5.46875 -0.03125 5.875 -0.03125 C 6.125 -0.03125 6.765625 0 7.015625 0 C 7.0625 0 7.1875 0 7.1875 -0.203125 C 7.1875 -0.3125 7.09375 -0.3125 6.953125 -0.3125 C 6.34375 -0.3125 6.34375 -0.375 6.3125 -0.671875 L 5.703125 -6.890625 C 5.6875 -7.09375 5.6875 -7.140625 5.515625 -7.140625 C 5.359375 -7.140625 5.3125 -7.0625 5.25 -6.96875 Z M 2.984375 -2.609375 L 4.9375 -5.90625 L 5.265625 -2.609375 Z M 2.984375 -2.609375 "
           id="path2948" />
      </symbol>
      <symbol
         overflow="visible"
         id="symbol2570">
        <path
           style="stroke:none;"
           d=""
           id="path9811" />
      </symbol>
      <symbol
         overflow="visible"
         id="symbol9895">
        <path
           style="stroke:none;"
           d="M 1.890625 0.484375 C 1.9375 0.5 2.109375 0.5625 2.171875 0.578125 C 2.515625 0.703125 2.609375 0.71875 2.609375 0.90625 C 2.609375 1 2.53125 1.21875 2.296875 1.21875 C 2.1875 1.21875 1.921875 1.203125 1.609375 1.03125 C 1.5625 0.984375 1.546875 0.984375 1.53125 0.984375 C 1.484375 0.984375 1.421875 1.015625 1.421875 1.09375 C 1.421875 1.21875 1.921875 1.421875 2.296875 1.421875 C 2.78125 1.421875 3.046875 0.984375 3.046875 0.65625 C 3.046875 0.390625 2.90625 0.265625 2.765625 0.1875 C 2.703125 0.15625 1.828125 -0.140625 1.75 -0.171875 C 1.078125 -0.40625 0.703125 -0.53125 0.703125 -0.9375 C 0.703125 -1.1875 0.953125 -1.734375 1.546875 -2.046875 C 1.84375 -1.9375 2.140625 -1.9375 2.265625 -1.9375 C 2.515625 -1.9375 2.984375 -1.9375 2.984375 -2.203125 C 2.984375 -2.421875 2.59375 -2.421875 2.34375 -2.421875 C 2.1875 -2.421875 1.96875 -2.421875 1.6875 -2.328125 C 1.5 -2.46875 1.453125 -2.703125 1.453125 -2.859375 C 1.453125 -3.265625 1.734375 -3.75 2.265625 -4 C 2.421875 -3.8125 2.59375 -3.8125 2.765625 -3.8125 C 2.984375 -3.8125 3.453125 -3.8125 3.453125 -4.078125 C 3.453125 -4.296875 3.0625 -4.296875 2.8125 -4.296875 C 2.703125 -4.296875 2.546875 -4.296875 2.359375 -4.265625 C 2.359375 -4.265625 2.328125 -4.390625 2.328125 -4.46875 C 2.328125 -4.546875 2.34375 -4.640625 2.359375 -4.703125 C 2.359375 -4.71875 2.375 -4.75 2.375 -4.765625 C 2.375 -4.8125 2.328125 -4.875 2.265625 -4.875 C 2.09375 -4.875 2.09375 -4.609375 2.09375 -4.484375 C 2.09375 -4.453125 2.09375 -4.3125 2.125 -4.21875 C 1.171875 -3.953125 0.84375 -3.359375 0.84375 -2.90625 C 0.84375 -2.625 0.96875 -2.34375 1.296875 -2.15625 C 0.515625 -1.703125 0.28125 -1.015625 0.28125 -0.71875 C 0.28125 -0.078125 0.953125 0.15625 1.171875 0.234375 Z M 3.1875 -4.0625 C 3.125 -4.046875 3.046875 -4.015625 2.765625 -4.015625 C 2.65625 -4.015625 2.578125 -4.015625 2.484375 -4.0625 C 2.609375 -4.09375 2.671875 -4.09375 2.8125 -4.09375 C 3.03125 -4.09375 3.078125 -4.09375 3.1875 -4.0625 Z M 2.703125 -2.1875 C 2.609375 -2.15625 2.515625 -2.140625 2.28125 -2.140625 C 2.15625 -2.140625 2.0625 -2.140625 1.9375 -2.1875 C 2.125 -2.21875 2.1875 -2.21875 2.34375 -2.21875 C 2.5625 -2.21875 2.578125 -2.21875 2.703125 -2.1875 Z M 2.703125 -2.1875 "
           id="path54" />
      </symbol>
    </g>
  </defs>
  <sodipodi:namedview
     id="base"
     pagecolor="#ffffff"
     bordercolor="#666666"
     borderopacity="1.0"
     inkscape:pageopacity="0.0"
     inkscape:pageshadow="2"
     inkscape:zoom="0.66"
     inkscape:cx="400"
     inkscape:cy="552.83626"
     inkscape:document-units="mm"
     inkscape:current-layer="layer1"
     inkscape:document-rotation="0"
     showgrid="false"
     inkscape:window-width="1694"
     inkscape:window-height="754"
     inkscape:window-x="117"
     inkscape:window-y="120"
     inkscape:window-maximized="0" />
  <metadata
     id="metadata5">
    <rdf:RDF>
      <cc:Work
         rdf:about="">
        <dc:format>image/svg+xml</dc:format>
        <dc:type
           rdf:resource="http://purl.org/dc/dcmitype/StillImage" />
        <dc:title />
      </cc:Work>
    </rdf:RDF>
  </metadata>
  <g
     inkscape:label="Layer 1"
     inkscape:groupmode="layer"
     id="layer1">
    <rect
       style="opacity:0.99;fill:#ff00ff;stroke:#000007;stroke-width:0.219429;stroke-linecap:square"
       id="rect1001"
       width="5.0706344"
       height="16.155262"
       x="86.77713"
       y="126.92192" />
    <path
       style="fill:none;stroke:#000000;stroke-width:0.665732px;stroke-linecap:butt;stroke-linejoin:miter;stroke-opacity:1"
       d="M -2.2571522,143.45978 192.90563,141.45149 h 0.52108"
       id="path837" />
    <path
       sodipodi:type="star"
       style="opacity:0.99;fill:#aaffaa;stroke:#000007;stroke-width:0.264999;stroke-linecap:square"
       id="path833"
       sodipodi:sides="5"
       sodipodi:cx="-5.391416"
       sodipodi:cy="144.11333"
       sodipodi:r1="5.7111535"
       sodipodi:r2="2.570019"
       sodipodi:arg1="1.0595019"
       sodipodi:arg2="1.6878204"
       inkscape:flatsided="false"
       inkscape:rounded="0"
       inkscape:randomized="0"
       d="m -2.5969113,149.09409 -3.0945729,-2.42832 -3.5733712,1.64443 1.3531972,-3.69351 -2.6681798,-2.89032 3.9308947,0.14561 1.9243454,-3.43074 1.0762294,3.78349 3.85749066,0.77001 -3.26574836,2.19272 z"
       inkscape:transform-center-x="-0.20605777"
       inkscape:transform-center-y="-0.34566545" />
    <ellipse
       style="fill:#800000;fill-rule:evenodd;stroke-width:0.264583"
       id="path919-6"
       cx="69.394012"
       cy="142.13586"
       rx="3.6156156"
       ry="3.3004732" />
    <path
       sodipodi:type="star"
       style="opacity:0.99;fill:#aaffaa;stroke:#000007;stroke-width:0.264999;stroke-linecap:square"
       id="path833-2"
       sodipodi:sides="5"
       sodipodi:cx="21.26059"
       sodipodi:cy="142.72008"
       sodipodi:r1="5.7111535"
       sodipodi:r2="2.570019"
       sodipodi:arg1="1.0595019"
       sodipodi:arg2="1.6878204"
       inkscape:flatsided="false"
       inkscape:rounded="0"
       inkscape:randomized="0"
       inkscape:transform-center-x="-0.20605777"
       inkscape:transform-center-y="-0.34566545"
       d="m 24.055094,147.70084 -3.094573,-2.42832 -3.573371,1.64443 1.353197,-3.69351 -2.668179,-2.89032 3.930894,0.14561 1.924346,-3.43074 1.076229,3.78349 3.857491,0.77001 -3.265749,2.19272 z" />
    <path
       sodipodi:type="star"
       style="opacity:0.99;fill:#aaffaa;stroke:#000007;stroke-width:0.264999;stroke-linecap:square"
       id="path833-2-2"
       sodipodi:sides="5"
       sodipodi:cx="135.93502"
       sodipodi:cy="-141.8423"
       sodipodi:r1="5.7111535"
       sodipodi:r2="2.570019"
       sodipodi:arg1="1.0595019"
       sodipodi:arg2="1.6878204"
       inkscape:flatsided="false"
       inkscape:rounded="0"
       inkscape:randomized="0"
       inkscape:transform-center-x="-0.20605777"
       inkscape:transform-center-y="0.34566405"
       d="m 138.72952,-136.86154 -3.09458,-2.42832 -3.57337,1.64443 1.3532,-3.6935 -2.66818,-2.89033 3.9309,0.14562 1.92434,-3.43075 1.07623,3.7835 3.85749,0.77 -3.26575,2.19272 z"
       transform="scale(1,-1)" />
    <path
       sodipodi:type="star"
       style="opacity:0.99;fill:#aaffaa;stroke:#000007;stroke-width:0.264999;stroke-linecap:square"
       id="path833-2-2-6"
       sodipodi:sides="5"
       sodipodi:cx="188.78111"
       sodipodi:cy="-141.99677"
       sodipodi:r1="5.7111535"
       sodipodi:r2="2.570019"
       sodipodi:arg1="1.0595019"
       sodipodi:arg2="1.6878204"
       inkscape:flatsided="false"
       inkscape:rounded="0"
       inkscape:randomized="0"
       inkscape:transform-center-x="-0.20605777"
       inkscape:transform-center-y="0.34566405"
       transform="scale(1,-1)"
       d="m 191.57562,-137.016 -3.09458,-2.42832 -3.57337,1.64443 1.3532,-3.69351 -2.66818,-2.89032 3.9309,0.14561 1.92434,-3.43075 1.07623,3.7835 3.85749,0.77 -3.26575,2.19272 z" />
    <path
       sodipodi:type="star"
       style="opacity:0.99;fill:#aaffaa;stroke:#000007;stroke-width:0.264999;stroke-linecap:square"
       id="path833-2-2-6-4"
       sodipodi:sides="5"
       sodipodi:cx="161.24746"
       sodipodi:cy="-141.81998"
       sodipodi:r1="5.7111535"
       sodipodi:r2="2.570019"
       sodipodi:arg1="1.0595019"
       sodipodi:arg2="1.6878204"
       inkscape:flatsided="false"
       inkscape:rounded="0"
       inkscape:randomized="0"
       inkscape:transform-center-x="-0.20605777"
       inkscape:transform-center-y="0.34566405"
       transform="scale(1,-1)"
       d="m 164.04197,-136.83921 -3.09457,-2.42833 -3.57337,1.64444 1.35319,-3.69351 -2.66817,-2.89032 3.93089,0.14561 1.92435,-3.43075 1.07622,3.7835 3.8575,0.77 -3.26575,2.19272 z" />
    <ellipse
       style="fill:#800000;fill-rule:evenodd;stroke-width:0.264583"
       id="path919"
       cx="61.017372"
       cy="142.2386"
       rx="3.6156156"
       ry="3.3004732" />
    <ellipse
       style="fill:#800000;fill-rule:evenodd;stroke-width:0.264583"
       id="path919-6-8"
       cx="80.151245"
       cy="142.0112"
       rx="3.6156156"
       ry="3.3004732" />
    <ellipse
       style="fill:#800000;fill-rule:evenodd;stroke-width:0.264583"
       id="path919-6-8-7"
       cx="117.57846"
       cy="142.21469"
       rx="3.6156156"
       ry="3.3004732" />
    <ellipse
       style="fill:#800000;fill-rule:evenodd;stroke-width:0.264583"
       id="path919-6-8-7-9"
       cx="126.58688"
       cy="141.98679"
       rx="3.6156156"
       ry="3.3004732" />
    <g
       inkscape:label=""
       transform="matrix(1.7746785,0,0,1.818855,-69.767512,64.626355)"
       id="g1047">
      <g
         id="g1382">
        <g
           style="fill:#000000;fill-opacity:1"
           id="g3675">
          <use
             xlink:href="#symbol5020"
             x="91.925003"
             y="81.962997"
             id="use8399"
             width="100%"
             height="100%" />
        </g>
      </g>
    </g>
    <ellipse
       style="fill:#800000;fill-rule:evenodd;stroke-width:0.264583"
       id="path919-69"
       cx="84.915306"
       cy="189.1951"
       rx="3.6156156"
       ry="3.3004732" />
    <path
       sodipodi:type="star"
       style="opacity:0.99;fill:#aaffaa;stroke:#000007;stroke-width:0.264999;stroke-linecap:square"
       id="path833-9"
       sodipodi:sides="5"
       sodipodi:cx="85.626892"
       sodipodi:cy="172.40414"
       sodipodi:r1="5.7111535"
       sodipodi:r2="2.570019"
       sodipodi:arg1="1.0595019"
       sodipodi:arg2="1.6878204"
       inkscape:flatsided="false"
       inkscape:rounded="0"
       inkscape:randomized="0"
       inkscape:transform-center-x="-0.20605777"
       inkscape:transform-center-y="-0.34566545"
       d="m 88.421397,177.38491 -3.094573,-2.42832 -3.573371,1.64443 1.353197,-3.69351 -2.66818,-2.89032 3.930895,0.14561 1.924345,-3.43075 1.07623,3.7835 3.85749,0.77 -3.265748,2.19272 z" />
    <rect
       style="opacity:0.99;fill:#ff00ff;stroke:#000007;stroke-width:0.219429;stroke-linecap:square"
       id="rect1001-5"
       width="5.0706344"
       height="16.155262"
       x="83.748161"
       y="198.90465" />
    <g
       inkscape:label=""
       transform="matrix(1.6839439,0,0,1.7043375,-60.32523,37.526505)"
       id="g985">
      <g
         id="g8232">
        <g
           style="fill:#000000;fill-opacity:1"
           id="g882">
          <use
             xlink:href="#symbol8516"
             x="91.925003"
             y="81.962997"
             id="use4443"
             width="100%"
             height="100%" />
        </g>
        <g
           style="fill:#000000;fill-opacity:1"
           id="g9418">
          <use
             xlink:href="#symbol1050"
             x="97.619003"
             y="78.347"
             id="use8211"
             width="100%"
             height="100%" />
        </g>
      </g>
    </g>
    <g
       inkscape:label=""
       transform="matrix(1.6839439,0,0,1.7043375,-62.308441,54.142311)"
       id="g1100">
      <g
         id="g3347">
        <g
           style="fill:#000000;fill-opacity:1"
           id="g8567">
          <use
             xlink:href="#symbol591"
             x="91.925003"
             y="81.962997"
             id="use2822"
             width="100%"
             height="100%" />
        </g>
        <g
           style="fill:#000000;fill-opacity:1"
           id="g8748">
          <use
             xlink:href="#symbol9895"
             x="99.397003"
             y="83.457001"
             id="use2823"
             width="100%"
             height="100%" />
        </g>
      </g>
    </g>
  </g>
</svg>
