<?xml version="1.0" encoding="UTF-8" standalone="no"?>
<svg
   xmlns:dc="http://purl.org/dc/elements/1.1/"
   xmlns:cc="http://creativecommons.org/ns#"
   xmlns:rdf="http://www.w3.org/1999/02/22-rdf-syntax-ns#"
   xmlns:svg="http://www.w3.org/2000/svg"
   xmlns="http://www.w3.org/2000/svg"
   xmlns:xlink="http://www.w3.org/1999/xlink"
   xmlns:sodipodi="http://sodipodi.sourceforge.net/DTD/sodipodi-0.dtd"
   xmlns:inkscape="http://www.inkscape.org/namespaces/inkscape"
   width="210mm"
   height="297mm"
   viewBox="0 0 210 297"
   version="1.1"
   id="svg8"
   sodipodi:docname="po-positivity.svg"
   inkscape:version="0.92.4 (5da689c313, 2019-01-14)"
   inkscape:export-filename="C:\Users\rrtuc\Desktop\backed-up\latex-projects\Bayesuvius\pot-out\po-positivity.png"
   inkscape:export-xdpi="96"
   inkscape:export-ydpi="96">
  <defs
     id="defs2">
    <marker
       style="overflow:visible;"
       id="marker1945"
       refX="0.0"
       refY="0.0"
       orient="auto"
       inkscape:stockid="Arrow1Lend"
       inkscape:isstock="true">
      <path
         transform="scale(0.8) rotate(180) translate(12.5,0)"
         style="fill-rule:evenodd;stroke:#000000;stroke-width:1pt;stroke-opacity:1;fill:#000000;fill-opacity:1"
         d="M 0.0,0.0 L 5.0,-5.0 L -12.5,0.0 L 5.0,5.0 L 0.0,0.0 z "
         id="path1943" />
    </marker>
    <marker
       style="overflow:visible;"
       id="Arrow1Lend"
       refX="0.0"
       refY="0.0"
       orient="auto"
       inkscape:stockid="Arrow1Lend"
       inkscape:isstock="true"
       inkscape:collect="always">
      <path
         transform="scale(0.8) rotate(180) translate(12.5,0)"
         style="fill-rule:evenodd;stroke:#000000;stroke-width:1pt;stroke-opacity:1;fill:#000000;fill-opacity:1"
         d="M 0.0,0.0 L 5.0,-5.0 L -12.5,0.0 L 5.0,5.0 L 0.0,0.0 z "
         id="path848" />
    </marker>
    <marker
       style="overflow:visible"
       id="Arrow1Lstart"
       refX="0.0"
       refY="0.0"
       orient="auto"
       inkscape:stockid="Arrow1Lstart"
       inkscape:isstock="true">
      <path
         transform="scale(0.8) translate(12.5,0)"
         style="fill-rule:evenodd;stroke:#000000;stroke-width:1pt;stroke-opacity:1;fill:#000000;fill-opacity:1"
         d="M 0.0,0.0 L 5.0,-5.0 L -12.5,0.0 L 5.0,5.0 L 0.0,0.0 z "
         id="path845" />
    </marker>
    <inkscape:path-effect
       effect="bspline"
       id="path-effect841"
       is_visible="true"
       lpeversion="1"
       weight="33.333333"
       steps="2"
       helper_size="0"
       apply_no_weight="true"
       apply_with_weight="true"
       only_selected="false" />
    <inkscape:path-effect
       effect="bspline"
       id="path-effect837"
       is_visible="true"
       lpeversion="1"
       weight="33.333333"
       steps="2"
       helper_size="0"
       apply_no_weight="true"
       apply_with_weight="true"
       only_selected="false" />
    <marker
       style="overflow:visible"
       id="Arrow1Lstart-5"
       refX="0"
       refY="0"
       orient="auto"
       inkscape:stockid="Arrow1Lstart"
       inkscape:isstock="true">
      <path
         transform="matrix(0.8,0,0,0.8,10,0)"
         style="fill:#000000;fill-opacity:1;fill-rule:evenodd;stroke:#000000;stroke-width:1pt;stroke-opacity:1"
         d="M 0,0 5,-5 -12.5,0 5,5 Z"
         id="path845-8" />
    </marker>
    <marker
       style="overflow:visible"
       id="Arrow1Lend-7"
       refX="0"
       refY="0"
       orient="auto"
       inkscape:stockid="Arrow1Lend"
       inkscape:isstock="true">
      <path
         transform="matrix(-0.8,0,0,-0.8,-10,0)"
         style="fill:#000000;fill-opacity:1;fill-rule:evenodd;stroke:#000000;stroke-width:1pt;stroke-opacity:1"
         d="M 0,0 5,-5 -12.5,0 5,5 Z"
         id="path848-9" />
    </marker>
    <g
       id="g5958">
      <symbol
         overflow="visible"
         id="symbol1825">
        <path
           style="stroke:none;"
           d=""
           id="path7347" />
      </symbol>
      <symbol
         overflow="visible"
         id="symbol2884">
        <path
           style="stroke:none;"
           d="M 4.6875 -3.765625 C 4.703125 -3.8125 4.71875 -3.875 4.71875 -3.9375 C 4.71875 -4.109375 4.609375 -4.203125 4.4375 -4.203125 C 4.34375 -4.203125 4.0625 -4.140625 4.03125 -3.78125 C 3.84375 -4.140625 3.5 -4.40625 3.09375 -4.40625 C 1.96875 -4.40625 0.734375 -3.015625 0.734375 -1.578125 C 0.734375 -0.59375 1.328125 0 2.046875 0 C 2.640625 0 3.109375 -0.46875 3.203125 -0.578125 L 3.21875 -0.5625 C 3.015625 0.3125 2.890625 0.734375 2.890625 0.75 C 2.84375 0.84375 2.515625 1.828125 1.453125 1.828125 C 1.265625 1.828125 0.9375 1.8125 0.65625 1.71875 C 0.953125 1.640625 1.0625 1.375 1.0625 1.203125 C 1.0625 1.046875 0.953125 0.859375 0.6875 0.859375 C 0.46875 0.859375 0.15625 1.03125 0.15625 1.4375 C 0.15625 1.84375 0.515625 2.046875 1.46875 2.046875 C 2.71875 2.046875 3.4375 1.265625 3.59375 0.671875 Z M 3.40625 -1.28125 C 3.34375 -1.015625 3.109375 -0.765625 2.890625 -0.578125 C 2.6875 -0.40625 2.375 -0.21875 2.078125 -0.21875 C 1.578125 -0.21875 1.4375 -0.734375 1.4375 -1.140625 C 1.4375 -1.609375 1.71875 -2.796875 2 -3.296875 C 2.265625 -3.78125 2.6875 -4.1875 3.109375 -4.1875 C 3.765625 -4.1875 3.90625 -3.375 3.90625 -3.328125 C 3.90625 -3.28125 3.890625 -3.21875 3.875 -3.1875 Z M 3.40625 -1.28125 "
           id="path7750" />
      </symbol>
      <symbol
         overflow="visible"
         id="symbol4586">
        <path
           style="stroke:none;"
           d=""
           id="path2136" />
      </symbol>
      <symbol
         overflow="visible"
         id="symbol9913">
        <path
           style="stroke:none;"
           d="M 3.59375 -2.21875 C 3.59375 -2.984375 3.5 -3.546875 3.1875 -4.03125 C 2.96875 -4.34375 2.53125 -4.625 1.984375 -4.625 C 0.359375 -4.625 0.359375 -2.71875 0.359375 -2.21875 C 0.359375 -1.71875 0.359375 0.140625 1.984375 0.140625 C 3.59375 0.140625 3.59375 -1.71875 3.59375 -2.21875 Z M 1.984375 -0.0625 C 1.65625 -0.0625 1.234375 -0.25 1.09375 -0.8125 C 1 -1.21875 1 -1.796875 1 -2.3125 C 1 -2.828125 1 -3.359375 1.09375 -3.734375 C 1.25 -4.28125 1.6875 -4.4375 1.984375 -4.4375 C 2.359375 -4.4375 2.71875 -4.203125 2.84375 -3.796875 C 2.953125 -3.421875 2.96875 -2.921875 2.96875 -2.3125 C 2.96875 -1.796875 2.96875 -1.28125 2.875 -0.84375 C 2.734375 -0.203125 2.265625 -0.0625 1.984375 -0.0625 Z M 1.984375 -0.0625 "
           id="path9592" />
      </symbol>
      <symbol
         overflow="visible"
         id="symbol8265">
        <path
           style="stroke:none;"
           d=""
           id="path971" />
      </symbol>
      <symbol
         overflow="visible"
         id="symbol7791">
        <path
           style="stroke:none;"
           d="M 1.359375 -4.953125 C 1.359375 -5.0625 1.359375 -5.21875 1.1875 -5.21875 C 1.015625 -5.21875 1.015625 -5.0625 1.015625 -4.953125 L 1.015625 1.46875 C 1.015625 1.578125 1.015625 1.734375 1.171875 1.734375 C 1.359375 1.734375 1.359375 1.578125 1.359375 1.46875 Z M 1.359375 -4.953125 "
           id="path882" />
      </symbol>
      <symbol
         overflow="visible"
         id="symbol5121">
        <path
           style="stroke:none;"
           d=""
           id="path4999" />
      </symbol>
      <symbol
         overflow="visible"
         id="symbol2743">
        <path
           style="stroke:none;"
           d="M 1.734375 -0.734375 C 1.671875 -0.5 1.4375 -0.125 1.078125 -0.125 C 1.0625 -0.125 0.84375 -0.125 0.703125 -0.21875 C 0.984375 -0.3125 1.015625 -0.5625 1.015625 -0.609375 C 1.015625 -0.765625 0.890625 -0.859375 0.734375 -0.859375 C 0.53125 -0.859375 0.328125 -0.703125 0.328125 -0.4375 C 0.328125 -0.09375 0.71875 0.0625 1.0625 0.0625 C 1.390625 0.0625 1.671875 -0.125 1.84375 -0.421875 C 2.015625 -0.0625 2.390625 0.0625 2.671875 0.0625 C 3.484375 0.0625 3.90625 -0.796875 3.90625 -1 C 3.90625 -1.09375 3.8125 -1.09375 3.796875 -1.09375 C 3.6875 -1.09375 3.6875 -1.046875 3.65625 -0.96875 C 3.515625 -0.484375 3.09375 -0.125 2.703125 -0.125 C 2.421875 -0.125 2.28125 -0.3125 2.28125 -0.578125 C 2.28125 -0.765625 2.453125 -1.390625 2.640625 -2.171875 C 2.78125 -2.703125 3.09375 -2.875 3.328125 -2.875 C 3.34375 -2.875 3.546875 -2.875 3.703125 -2.78125 C 3.484375 -2.71875 3.390625 -2.515625 3.390625 -2.390625 C 3.390625 -2.25 3.515625 -2.140625 3.671875 -2.140625 C 3.828125 -2.140625 4.0625 -2.265625 4.0625 -2.5625 C 4.0625 -2.953125 3.609375 -3.078125 3.34375 -3.078125 C 2.984375 -3.078125 2.703125 -2.84375 2.5625 -2.578125 C 2.4375 -2.859375 2.109375 -3.078125 1.71875 -3.078125 C 0.9375 -3.078125 0.5 -2.21875 0.5 -2 C 0.5 -1.921875 0.59375 -1.921875 0.609375 -1.921875 C 0.703125 -1.921875 0.703125 -1.9375 0.75 -2.03125 C 0.921875 -2.578125 1.359375 -2.875 1.703125 -2.875 C 1.9375 -2.875 2.125 -2.75 2.125 -2.421875 C 2.125 -2.28125 2.03125 -1.9375 1.96875 -1.6875 Z M 1.734375 -0.734375 "
           id="path6786" />
      </symbol>
    </g>
    <g
       id="g8756">
      <symbol
         overflow="visible"
         id="symbol234">
        <path
           style="stroke:none;"
           d=""
           id="path1666" />
      </symbol>
      <symbol
         overflow="visible"
         id="symbol9960">
        <path
           style="stroke:none;"
           d="M 4.6875 -3.765625 C 4.703125 -3.8125 4.71875 -3.875 4.71875 -3.9375 C 4.71875 -4.109375 4.609375 -4.203125 4.4375 -4.203125 C 4.34375 -4.203125 4.0625 -4.140625 4.03125 -3.78125 C 3.84375 -4.140625 3.5 -4.40625 3.09375 -4.40625 C 1.96875 -4.40625 0.734375 -3.015625 0.734375 -1.578125 C 0.734375 -0.59375 1.328125 0 2.046875 0 C 2.640625 0 3.109375 -0.46875 3.203125 -0.578125 L 3.21875 -0.5625 C 3.015625 0.3125 2.890625 0.734375 2.890625 0.75 C 2.84375 0.84375 2.515625 1.828125 1.453125 1.828125 C 1.265625 1.828125 0.9375 1.8125 0.65625 1.71875 C 0.953125 1.640625 1.0625 1.375 1.0625 1.203125 C 1.0625 1.046875 0.953125 0.859375 0.6875 0.859375 C 0.46875 0.859375 0.15625 1.03125 0.15625 1.4375 C 0.15625 1.84375 0.515625 2.046875 1.46875 2.046875 C 2.71875 2.046875 3.4375 1.265625 3.59375 0.671875 Z M 3.40625 -1.28125 C 3.34375 -1.015625 3.109375 -0.765625 2.890625 -0.578125 C 2.6875 -0.40625 2.375 -0.21875 2.078125 -0.21875 C 1.578125 -0.21875 1.4375 -0.734375 1.4375 -1.140625 C 1.4375 -1.609375 1.71875 -2.796875 2 -3.296875 C 2.265625 -3.78125 2.6875 -4.1875 3.109375 -4.1875 C 3.765625 -4.1875 3.90625 -3.375 3.90625 -3.328125 C 3.90625 -3.28125 3.890625 -3.21875 3.875 -3.1875 Z M 3.40625 -1.28125 "
           id="path2526" />
      </symbol>
      <symbol
         overflow="visible"
         id="symbol3309">
        <path
           style="stroke:none;"
           d=""
           id="path8706" />
      </symbol>
      <symbol
         overflow="visible"
         id="symbol396">
        <path
           style="stroke:none;"
           d="M 2.328125 -4.4375 C 2.328125 -4.625 2.328125 -4.625 2.125 -4.625 C 1.671875 -4.1875 1.046875 -4.1875 0.765625 -4.1875 L 0.765625 -3.9375 C 0.921875 -3.9375 1.390625 -3.9375 1.765625 -4.125 L 1.765625 -0.578125 C 1.765625 -0.34375 1.765625 -0.25 1.078125 -0.25 L 0.8125 -0.25 L 0.8125 0 C 0.9375 0 1.796875 -0.03125 2.046875 -0.03125 C 2.265625 -0.03125 3.140625 0 3.296875 0 L 3.296875 -0.25 L 3.03125 -0.25 C 2.328125 -0.25 2.328125 -0.34375 2.328125 -0.578125 Z M 2.328125 -4.4375 "
           id="path7058" />
      </symbol>
      <symbol
         overflow="visible"
         id="symbol2431">
        <path
           style="stroke:none;"
           d=""
           id="path962" />
      </symbol>
      <symbol
         overflow="visible"
         id="symbol6264">
        <path
           style="stroke:none;"
           d="M 1.359375 -4.953125 C 1.359375 -5.0625 1.359375 -5.21875 1.1875 -5.21875 C 1.015625 -5.21875 1.015625 -5.0625 1.015625 -4.953125 L 1.015625 1.46875 C 1.015625 1.578125 1.015625 1.734375 1.171875 1.734375 C 1.359375 1.734375 1.359375 1.578125 1.359375 1.46875 Z M 1.359375 -4.953125 "
           id="path3862" />
      </symbol>
      <symbol
         overflow="visible"
         id="symbol8763">
        <path
           style="stroke:none;"
           d=""
           id="path3904" />
      </symbol>
      <symbol
         overflow="visible"
         id="symbol1423">
        <path
           style="stroke:none;"
           d="M 1.734375 -0.734375 C 1.671875 -0.5 1.4375 -0.125 1.078125 -0.125 C 1.0625 -0.125 0.84375 -0.125 0.703125 -0.21875 C 0.984375 -0.3125 1.015625 -0.5625 1.015625 -0.609375 C 1.015625 -0.765625 0.890625 -0.859375 0.734375 -0.859375 C 0.53125 -0.859375 0.328125 -0.703125 0.328125 -0.4375 C 0.328125 -0.09375 0.71875 0.0625 1.0625 0.0625 C 1.390625 0.0625 1.671875 -0.125 1.84375 -0.421875 C 2.015625 -0.0625 2.390625 0.0625 2.671875 0.0625 C 3.484375 0.0625 3.90625 -0.796875 3.90625 -1 C 3.90625 -1.09375 3.8125 -1.09375 3.796875 -1.09375 C 3.6875 -1.09375 3.6875 -1.046875 3.65625 -0.96875 C 3.515625 -0.484375 3.09375 -0.125 2.703125 -0.125 C 2.421875 -0.125 2.28125 -0.3125 2.28125 -0.578125 C 2.28125 -0.765625 2.453125 -1.390625 2.640625 -2.171875 C 2.78125 -2.703125 3.09375 -2.875 3.328125 -2.875 C 3.34375 -2.875 3.546875 -2.875 3.703125 -2.78125 C 3.484375 -2.71875 3.390625 -2.515625 3.390625 -2.390625 C 3.390625 -2.25 3.515625 -2.140625 3.671875 -2.140625 C 3.828125 -2.140625 4.0625 -2.265625 4.0625 -2.5625 C 4.0625 -2.953125 3.609375 -3.078125 3.34375 -3.078125 C 2.984375 -3.078125 2.703125 -2.84375 2.5625 -2.578125 C 2.4375 -2.859375 2.109375 -3.078125 1.71875 -3.078125 C 0.9375 -3.078125 0.5 -2.21875 0.5 -2 C 0.5 -1.921875 0.59375 -1.921875 0.609375 -1.921875 C 0.703125 -1.921875 0.703125 -1.9375 0.75 -2.03125 C 0.921875 -2.578125 1.359375 -2.875 1.703125 -2.875 C 1.9375 -2.875 2.125 -2.75 2.125 -2.421875 C 2.125 -2.28125 2.03125 -1.9375 1.96875 -1.6875 Z M 1.734375 -0.734375 "
           id="path3634" />
      </symbol>
    </g>
    <g
       id="g4428">
      <symbol
         overflow="visible"
         id="symbol8806">
        <path
           style="stroke:none;"
           d=""
           id="path4559" />
      </symbol>
      <symbol
         overflow="visible"
         id="symbol5851">
        <path
           style="stroke:none;"
           d="M 4.578125 -3.1875 C 4.578125 -3.984375 4.53125 -4.78125 4.1875 -5.515625 C 3.734375 -6.484375 2.90625 -6.640625 2.5 -6.640625 C 1.890625 -6.640625 1.171875 -6.375 0.75 -5.453125 C 0.4375 -4.765625 0.390625 -3.984375 0.390625 -3.1875 C 0.390625 -2.4375 0.421875 -1.546875 0.84375 -0.78125 C 1.265625 0.015625 2 0.21875 2.484375 0.21875 C 3.015625 0.21875 3.78125 0.015625 4.21875 -0.9375 C 4.53125 -1.625 4.578125 -2.40625 4.578125 -3.1875 Z M 2.484375 0 C 2.09375 0 1.5 -0.25 1.328125 -1.203125 C 1.21875 -1.796875 1.21875 -2.71875 1.21875 -3.3125 C 1.21875 -3.953125 1.21875 -4.609375 1.296875 -5.140625 C 1.484375 -6.328125 2.234375 -6.421875 2.484375 -6.421875 C 2.8125 -6.421875 3.46875 -6.234375 3.65625 -5.25 C 3.765625 -4.6875 3.765625 -3.9375 3.765625 -3.3125 C 3.765625 -2.5625 3.765625 -1.890625 3.65625 -1.25 C 3.5 -0.296875 2.9375 0 2.484375 0 Z M 2.484375 0 "
           id="path4191" />
      </symbol>
    </g>
    <g
       id="g2804">
      <symbol
         overflow="visible"
         id="symbol6302">
        <path
           style="stroke:none;"
           d=""
           id="path6327" />
      </symbol>
      <symbol
         overflow="visible"
         id="symbol8084">
        <path
           style="stroke:none;"
           d="M 2.9375 -6.375 C 2.9375 -6.625 2.9375 -6.640625 2.703125 -6.640625 C 2.078125 -6 1.203125 -6 0.890625 -6 L 0.890625 -5.6875 C 1.09375 -5.6875 1.671875 -5.6875 2.1875 -5.953125 L 2.1875 -0.78125 C 2.1875 -0.421875 2.15625 -0.3125 1.265625 -0.3125 L 0.953125 -0.3125 L 0.953125 0 C 1.296875 -0.03125 2.15625 -0.03125 2.5625 -0.03125 C 2.953125 -0.03125 3.828125 -0.03125 4.171875 0 L 4.171875 -0.3125 L 3.859375 -0.3125 C 2.953125 -0.3125 2.9375 -0.421875 2.9375 -0.78125 Z M 2.9375 -6.375 "
           id="path1572" />
      </symbol>
    </g>
    <g
       id="g9147">
      <symbol
         overflow="visible"
         id="symbol4383">
        <path
           style="stroke:none;"
           d=""
           id="path3261" />
      </symbol>
      <symbol
         overflow="visible"
         id="symbol5336">
        <path
           style="stroke:none;"
           d="M 3.328125 -3.015625 C 3.390625 -3.265625 3.625 -4.1875 4.3125 -4.1875 C 4.359375 -4.1875 4.609375 -4.1875 4.8125 -4.0625 C 4.53125 -4 4.34375 -3.765625 4.34375 -3.515625 C 4.34375 -3.359375 4.453125 -3.171875 4.71875 -3.171875 C 4.9375 -3.171875 5.25 -3.34375 5.25 -3.75 C 5.25 -4.265625 4.671875 -4.40625 4.328125 -4.40625 C 3.75 -4.40625 3.40625 -3.875 3.28125 -3.65625 C 3.03125 -4.3125 2.5 -4.40625 2.203125 -4.40625 C 1.171875 -4.40625 0.59375 -3.125 0.59375 -2.875 C 0.59375 -2.765625 0.703125 -2.765625 0.71875 -2.765625 C 0.796875 -2.765625 0.828125 -2.796875 0.84375 -2.875 C 1.1875 -3.9375 1.84375 -4.1875 2.1875 -4.1875 C 2.375 -4.1875 2.71875 -4.09375 2.71875 -3.515625 C 2.71875 -3.203125 2.546875 -2.546875 2.1875 -1.140625 C 2.03125 -0.53125 1.671875 -0.109375 1.234375 -0.109375 C 1.171875 -0.109375 0.953125 -0.109375 0.734375 -0.234375 C 0.984375 -0.296875 1.203125 -0.5 1.203125 -0.78125 C 1.203125 -1.046875 0.984375 -1.125 0.84375 -1.125 C 0.53125 -1.125 0.296875 -0.875 0.296875 -0.546875 C 0.296875 -0.09375 0.78125 0.109375 1.21875 0.109375 C 1.890625 0.109375 2.25 -0.59375 2.265625 -0.640625 C 2.390625 -0.28125 2.75 0.109375 3.34375 0.109375 C 4.375 0.109375 4.9375 -1.171875 4.9375 -1.421875 C 4.9375 -1.53125 4.859375 -1.53125 4.828125 -1.53125 C 4.734375 -1.53125 4.71875 -1.484375 4.6875 -1.421875 C 4.359375 -0.34375 3.6875 -0.109375 3.375 -0.109375 C 2.984375 -0.109375 2.828125 -0.421875 2.828125 -0.765625 C 2.828125 -0.984375 2.875 -1.203125 2.984375 -1.640625 Z M 3.328125 -3.015625 "
           id="path981" />
      </symbol>
    </g>
  </defs>
  <sodipodi:namedview
     id="base"
     pagecolor="#ffffff"
     bordercolor="#666666"
     borderopacity="1.0"
     inkscape:pageopacity="0.0"
     inkscape:pageshadow="2"
     inkscape:zoom="1.4071094"
     inkscape:cx="391.68508"
     inkscape:cy="667.82912"
     inkscape:document-units="mm"
     inkscape:current-layer="layer1"
     inkscape:document-rotation="0"
     showgrid="false"
     inkscape:window-width="1366"
     inkscape:window-height="754"
     inkscape:window-x="-42"
     inkscape:window-y="33"
     inkscape:window-maximized="0" />
  <metadata
     id="metadata5">
    <rdf:RDF>
      <cc:Work
         rdf:about="">
        <dc:format>image/svg+xml</dc:format>
        <dc:type
           rdf:resource="http://purl.org/dc/dcmitype/StillImage" />
        <dc:title></dc:title>
      </cc:Work>
    </rdf:RDF>
  </metadata>
  <g
     inkscape:label="Layer 1"
     inkscape:groupmode="layer"
     id="layer1">
    <rect
       style="fill:#ccfec7;fill-opacity:0.99396902;fill-rule:evenodd;stroke:#000000;stroke-width:0.965;stroke-miterlimit:4;stroke-dasharray:none;stroke-opacity:1"
       id="rect833"
       width="119.99679"
       height="68.999672"
       x="41.741917"
       y="86.452171" />
    <path
       style="fill:none;stroke:#000000;stroke-width:0.264583px;stroke-linecap:butt;stroke-linejoin:miter;stroke-opacity:1"
       d="m 41.357446,125.18792 c 4.463213,-1.7168 8.926287,-3.43355 13.114546,-6.22665 4.188259,-2.7931 8.163821,-6.72389 12.420863,-11.11145 4.257041,-4.38757 8.826371,-9.262353 14.432463,-13.034244 5.606091,-3.771891 12.159131,-6.404732 18.756822,-9.055514"
       id="path835"
       inkscape:path-effect="#path-effect837"
       inkscape:original-d="m 41.357446,125.18792 c 4.463336,-1.71648 8.926409,-3.43323 13.389216,-5.15024 3.92426,-3.85872 7.889417,-7.80003 11.833727,-11.70045 4.569781,-4.87472 9.139111,-9.749507 13.708269,-14.624659 6.650088,-2.650625 13.195919,-5.301408 19.793482,-7.952509" />
    <path
       style="fill:none;stroke:#000000;stroke-width:0.264583px;stroke-linecap:butt;stroke-linejoin:miter;stroke-opacity:1"
       d="m 107.40519,87.222231 c 2.56274,9.493815 5.12539,18.987319 9.11582,28.374279 3.99044,9.38695 9.37147,18.60384 13.34296,25.12664 3.97149,6.5228 6.52408,10.33349 9.07186,14.13701"
       id="path839"
       inkscape:original-d="m 107.40519,87.222231 c 2.56292,9.493766 5.12557,18.987269 7.68796,28.480509 5.42582,9.27633 10.79941,18.49756 16.19872,27.74595 2.53329,3.80416 5.09624,7.60791 7.64396,11.41147"
       inkscape:path-effect="#path-effect841" />
    <path
       style="fill:#fed1f2;fill-opacity:0.99396902;fill-rule:evenodd;stroke:#000000;stroke-width:0.25041;stroke-miterlimit:4;stroke-dasharray:none;stroke-opacity:1"
       d="m 42.302295,140.02275 v -14.87982 l 3.041693,-1.36585 c 3.842217,-1.72531 7.230249,-3.76929 9.967414,-6.0133 1.21877,-0.99918 5.476799,-5.37061 9.893055,-10.15652 4.264333,-4.62129 8.665843,-9.178882 9.78113,-10.127995 4.164114,-3.543671 8.330143,-6.119583 14.510954,-8.972321 l 3.179155,-1.467329 h 8.643534 8.64353 l 1.15583,4.650837 c 4.16013,16.739698 7.60111,26.336428 13.97831,38.984828 3.06483,6.07871 8.69035,16.19557 12.19684,21.93462 l 1.40079,2.29267 H 90.498411 42.302295 Z"
       id="path1225" />
    <path
       style="fill:none;stroke:#000000;stroke-width:0.265;stroke-linecap:butt;stroke-linejoin:miter;stroke-miterlimit:4;stroke-dasharray:none;stroke-opacity:1;marker-start:url(#Arrow1Lstart);marker-end:url(#Arrow1Lend)"
       d="m 37.653277,125.18792 0.384469,30.26392"
       id="path1227" />
    <path
       style="fill:none;stroke:#000000;stroke-width:0.28789;stroke-linecap:butt;stroke-linejoin:miter;stroke-miterlimit:4;stroke-dasharray:none;stroke-opacity:1;marker-start:url(#Arrow1Lstart-5);marker-end:url(#Arrow1Lend-7)"
       d="m 36.959454,88.380338 0.384469,35.717872"
       id="path1227-6" />
    <g
       inkscape:label=""
       transform="translate(-73.287155,57.749944)"
       id="g1466">
      <g
         id="g3465">
        <g
           style="fill:#000000;fill-opacity:1"
           id="g2911">
          <use
             xlink:href="#symbol2884"
             x="91.925003"
             y="81.962997"
             id="use9444"
             width="100%"
             height="100%" />
        </g>
        <g
           style="fill:#000000;fill-opacity:1"
           id="g7959">
          <use
             xlink:href="#symbol9913"
             x="96.677002"
             y="83.761002"
             id="use6841"
             width="100%"
             height="100%" />
        </g>
        <g
           style="fill:#000000;fill-opacity:1"
           id="g2802">
          <use
             xlink:href="#symbol7791"
             x="100.648"
             y="83.761002"
             id="use5832"
             width="100%"
             height="100%" />
        </g>
        <g
           style="fill:#000000;fill-opacity:1"
           id="g4376">
          <use
             xlink:href="#symbol2743"
             x="103.014"
             y="83.761002"
             id="use8573"
             width="100%"
             height="100%" />
        </g>
      </g>
    </g>
    <g
       inkscape:label=""
       transform="translate(-74.098741,25.047605)"
       id="g1569">
      <g
         id="g5826">
        <g
           style="fill:#000000;fill-opacity:1"
           id="g9436">
          <use
             xlink:href="#symbol9960"
             x="91.925003"
             y="81.962997"
             id="use2144"
             width="100%"
             height="100%" />
        </g>
        <g
           style="fill:#000000;fill-opacity:1"
           id="g1500">
          <use
             xlink:href="#symbol396"
             x="96.677002"
             y="83.761002"
             id="use8155"
             width="100%"
             height="100%" />
        </g>
        <g
           style="fill:#000000;fill-opacity:1"
           id="g384">
          <use
             xlink:href="#symbol6264"
             x="100.648"
             y="83.761002"
             id="use9190"
             width="100%"
             height="100%" />
        </g>
        <g
           style="fill:#000000;fill-opacity:1"
           id="g6293">
          <use
             xlink:href="#symbol1423"
             x="103.014"
             y="83.761002"
             id="use9858"
             width="100%"
             height="100%" />
        </g>
      </g>
    </g>
    <g
       inkscape:label=""
       transform="translate(-66.4926,75.507524)"
       id="g1681">
      <g
         id="g3505">
        <g
           style="fill:#000000;fill-opacity:1"
           id="g604">
          <use
             xlink:href="#symbol5851"
             x="91.925003"
             y="81.962997"
             id="use1795"
             width="100%"
             height="100%" />
        </g>
      </g>
    </g>
    <g
       inkscape:label=""
       transform="translate(-64.864778,6.9495668)"
       id="g1784">
      <g
         id="g3324">
        <g
           style="fill:#000000;fill-opacity:1"
           id="g260">
          <use
             xlink:href="#symbol8084"
             x="91.925003"
             y="81.962997"
             id="use8903"
             width="100%"
             height="100%" />
        </g>
      </g>
    </g>
    <path
       style="fill:none;stroke:#000000;stroke-width:0.442117px;stroke-linecap:butt;stroke-linejoin:miter;stroke-opacity:1"
       d="m 31.399051,155.45184 h 10.342864 v 0"
       id="path1797" />
    <path
       style="fill:none;stroke:#000000;stroke-width:0.442117px;stroke-linecap:butt;stroke-linejoin:miter;stroke-opacity:1"
       d="m 30.717594,86.505268 h 10.342864 v 0"
       id="path1797-0" />
    <g
       inkscape:label=""
       transform="matrix(1.4299359,0,0,1.3523536,-38.029074,54.961172)"
       id="g1920">
      <g
         id="g1690">
        <g
           style="fill:#000000;fill-opacity:1"
           id="g2222">
          <use
             xlink:href="#symbol5336"
             x="91.925003"
             y="81.962997"
             id="use231"
             width="100%"
             height="100%" />
        </g>
      </g>
    </g>
    <path
       style="fill:none;stroke:#000000;stroke-width:0.665;stroke-linecap:butt;stroke-linejoin:miter;stroke-miterlimit:4;stroke-dasharray:none;stroke-opacity:1;marker-end:url(#marker1945)"
       d="M 41.741915,155.45184 H 161.73871 v 0 0"
       id="path1935" />
    <text
       xml:space="preserve"
       style="font-size:11.28890038px;line-height:1.25;font-family:sans-serif;-inkscape-font-specification:'sans-serif, Normal';fill:#ff0000;stroke-width:0.26458299"
       x="92.817741"
       y="81.36647"
       id="text2015"><tspan
         sodipodi:role="line"
         id="tspan2013"
         x="92.817741"
         y="81.36647"
         style="fill:#ff0000;stroke-width:0.26458299">No!</tspan></text>
    <text
       xml:space="preserve"
       style="font-size:11.28890038px;line-height:1.25;font-family:sans-serif;-inkscape-font-specification:'sans-serif, Normal';fill:#ff0000;stroke-width:0.26458299"
       x="142.05022"
       y="169.26509"
       id="text2015-4"><tspan
         sodipodi:role="line"
         id="tspan2013-1"
         x="142.05022"
         y="169.26509"
         style="fill:#ff0000;stroke-width:0.26458299">No!</tspan></text>
    <path
       style="fill:none;stroke:#f00000;stroke-width:0.665;stroke-linecap:butt;stroke-linejoin:miter;stroke-opacity:1;stroke-miterlimit:4;stroke-dasharray:none"
       d="M 92.675696,84.393778 H 109.96276"
       id="path978"
       inkscape:connector-curvature="0" />
    <path
       style="fill:none;stroke:#f40000;stroke-width:0.565;stroke-linecap:butt;stroke-linejoin:miter;stroke-opacity:1;stroke-miterlimit:4;stroke-dasharray:none"
       d="m 138.93583,158.03518 h 23.14882"
       id="path980"
       inkscape:connector-curvature="0" />
  </g>
</svg>
