<?xml version="1.0" encoding="UTF-8" standalone="no"?>
<!-- Created with Inkscape (http://www.inkscape.org/) -->

<svg
   xmlns:dc="http://purl.org/dc/elements/1.1/"
   xmlns:cc="http://creativecommons.org/ns#"
   xmlns:rdf="http://www.w3.org/1999/02/22-rdf-syntax-ns#"
   xmlns:svg="http://www.w3.org/2000/svg"
   xmlns="http://www.w3.org/2000/svg"
   xmlns:xlink="http://www.w3.org/1999/xlink"
   xmlns:sodipodi="http://sodipodi.sourceforge.net/DTD/sodipodi-0.dtd"
   xmlns:inkscape="http://www.inkscape.org/namespaces/inkscape"
   width="210mm"
   height="297mm"
   viewBox="0 0 210 297"
   version="1.1"
   id="svg8"
   inkscape:version="0.92.4 (5da689c313, 2019-01-14)"
   sodipodi:docname="cramer-rao.svg"
   inkscape:export-filename="C:\Users\rrtuc\Desktop\backed-up\latex-projects\Bayesuvius\conventions\cramer-rao.png"
   inkscape:export-xdpi="96"
   inkscape:export-ydpi="96">
  <defs
     id="defs2">
    <marker
       inkscape:isstock="true"
       style="overflow:visible;"
       id="marker1266"
       refX="0.0"
       refY="0.0"
       orient="auto"
       inkscape:stockid="Arrow1Lend">
      <path
         transform="scale(0.8) rotate(180) translate(12.5,0)"
         style="fill-rule:evenodd;stroke:#000000;stroke-width:1pt;stroke-opacity:1;fill:#000000;fill-opacity:1"
         d="M 0.0,0.0 L 5.0,-5.0 L -12.5,0.0 L 5.0,5.0 L 0.0,0.0 z "
         id="path1264" />
    </marker>
    <marker
       inkscape:isstock="true"
       style="overflow:visible"
       id="marker1220"
       refX="0.0"
       refY="0.0"
       orient="auto"
       inkscape:stockid="Arrow1Lstart">
      <path
         transform="scale(0.8) translate(12.5,0)"
         style="fill-rule:evenodd;stroke:#000000;stroke-width:1pt;stroke-opacity:1;fill:#000000;fill-opacity:1"
         d="M 0.0,0.0 L 5.0,-5.0 L -12.5,0.0 L 5.0,5.0 L 0.0,0.0 z "
         id="path1218" />
    </marker>
    <marker
       inkscape:stockid="Arrow1Lend"
       orient="auto"
       refY="0.0"
       refX="0.0"
       id="Arrow1Lend"
       style="overflow:visible;"
       inkscape:isstock="true"
       inkscape:collect="always">
      <path
         id="path833"
         d="M 0.0,0.0 L 5.0,-5.0 L -12.5,0.0 L 5.0,5.0 L 0.0,0.0 z "
         style="fill-rule:evenodd;stroke:#000000;stroke-width:1pt;stroke-opacity:1;fill:#000000;fill-opacity:1"
         transform="scale(0.8) rotate(180) translate(12.5,0)" />
    </marker>
    <marker
       inkscape:stockid="Arrow1Lstart"
       orient="auto"
       refY="0.0"
       refX="0.0"
       id="Arrow1Lstart"
       style="overflow:visible"
       inkscape:isstock="true"
       inkscape:collect="always">
      <path
         id="path830"
         d="M 0.0,0.0 L 5.0,-5.0 L -12.5,0.0 L 5.0,5.0 L 0.0,0.0 z "
         style="fill-rule:evenodd;stroke:#000000;stroke-width:1pt;stroke-opacity:1;fill:#000000;fill-opacity:1"
         transform="scale(0.8) translate(12.5,0)" />
    </marker>
    <g
       id="g2044">
      <symbol
         id="lx-text1863-glyph0-0"
         overflow="visible"
         style="overflow:visible">
        <path
           id="path2038"
           d=""
           style="stroke:none"
           inkscape:connector-curvature="0" />
      </symbol>
      <symbol
         id="lx-text1863-glyph0-1"
         overflow="visible"
         style="overflow:visible">
        <path
           id="path2041"
           d="m 4.53125,-4.984375 c 0,-0.65625 -0.171875,-2.046875 -1.1875,-2.046875 -1.390625,0 -2.921875,2.8125 -2.921875,5.09375 0,0.9375 0.28125,2.046875 1.1875,2.046875 1.40625,0 2.921875,-2.859375 2.921875,-5.09375 z M 1.46875,-3.625 C 1.640625,-4.25 1.84375,-5.046875 2.25,-5.765625 2.515625,-6.25 2.875,-6.8125 3.328125,-6.8125 c 0.484375,0 0.546875,0.640625 0.546875,1.203125 0,0.5 -0.078125,1 -0.3125,1.984375 z m 2,0.328125 C 3.359375,-2.84375 3.15625,-2 2.765625,-1.28125 c -0.34375,0.6875 -0.71875,1.171875 -1.15625,1.171875 -0.328125,0 -0.53125,-0.296875 -0.53125,-1.21875 0,-0.421875 0.0625,-1 0.3125,-1.96875 z m 0,0"
           style="stroke:none"
           inkscape:connector-curvature="0" />
      </symbol>
    </g>
    <g
       id="g2066">
      <symbol
         id="lx-text1869-glyph0-0"
         overflow="visible"
         style="overflow:visible">
        <path
           id="path2054"
           d=""
           style="stroke:none"
           inkscape:connector-curvature="0" />
      </symbol>
      <symbol
         id="lx-text1869-glyph0-1"
         overflow="visible"
         style="overflow:visible">
        <path
           id="path2057"
           d="m 4.53125,-4.984375 c 0,-0.65625 -0.171875,-2.046875 -1.1875,-2.046875 -1.390625,0 -2.921875,2.8125 -2.921875,5.09375 0,0.9375 0.28125,2.046875 1.1875,2.046875 1.40625,0 2.921875,-2.859375 2.921875,-5.09375 z M 1.46875,-3.625 C 1.640625,-4.25 1.84375,-5.046875 2.25,-5.765625 2.515625,-6.25 2.875,-6.8125 3.328125,-6.8125 c 0.484375,0 0.546875,0.640625 0.546875,1.203125 0,0.5 -0.078125,1 -0.3125,1.984375 z m 2,0.328125 C 3.359375,-2.84375 3.15625,-2 2.765625,-1.28125 c -0.34375,0.6875 -0.71875,1.171875 -1.15625,1.171875 -0.328125,0 -0.53125,-0.296875 -0.53125,-1.21875 0,-0.421875 0.0625,-1 0.3125,-1.96875 z m 0,0"
           style="stroke:none"
           inkscape:connector-curvature="0" />
      </symbol>
      <symbol
         id="lx-text1869-glyph1-0"
         overflow="visible"
         style="overflow:visible">
        <path
           id="path2060"
           d=""
           style="stroke:none"
           inkscape:connector-curvature="0" />
      </symbol>
      <symbol
         id="lx-text1869-glyph1-1"
         overflow="visible"
         style="overflow:visible">
        <path
           id="path2063"
           d="m 2.25,-1.734375 c 0.578125,-0.25 0.828125,-0.34375 1,-0.4375 0.140625,-0.046875 0.203125,-0.078125 0.203125,-0.21875 0,-0.109375 -0.09375,-0.21875 -0.21875,-0.21875 -0.046875,0 -0.0625,0 -0.140625,0.0625 L 2.140625,-1.90625 2.25,-2.9375 c 0.015625,-0.125 0,-0.296875 -0.21875,-0.296875 -0.078125,0 -0.21875,0.046875 -0.21875,0.203125 0,0.0625 0.03125,0.265625 0.046875,0.34375 0.015625,0.109375 0.0625,0.625 0.078125,0.78125 L 0.984375,-2.546875 c -0.0625,-0.03125 -0.078125,-0.0625 -0.140625,-0.0625 -0.140625,0 -0.21875,0.109375 -0.21875,0.21875 0,0.140625 0.078125,0.1875 0.140625,0.203125 L 1.8125,-1.734375 c -0.5625,0.25 -0.828125,0.34375 -1,0.421875 -0.125,0.0625 -0.1875,0.09375 -0.1875,0.21875 0,0.125 0.078125,0.21875 0.21875,0.21875 0.046875,0 0.0625,0 0.140625,-0.0625 l 0.953125,-0.625 -0.125,1.109375 c 0,0.15625 0.140625,0.21875 0.21875,0.21875 0.09375,0 0.21875,-0.0625 0.21875,-0.21875 0,-0.0625 -0.03125,-0.265625 -0.03125,-0.328125 -0.015625,-0.125 -0.0625,-0.625 -0.078125,-0.78125 L 2.96875,-1.015625 C 3.15625,-0.875 3.171875,-0.875 3.234375,-0.875 c 0.125,0 0.21875,-0.09375 0.21875,-0.21875 0,-0.140625 -0.09375,-0.171875 -0.15625,-0.203125 z m 0,0"
           style="stroke:none"
           inkscape:connector-curvature="0" />
      </symbol>
    </g>
    <g
       id="g2092">
      <symbol
         id="lx-text1873-glyph0-0"
         overflow="visible"
         style="overflow:visible">
        <path
           id="path2080"
           d=""
           style="stroke:none"
           inkscape:connector-curvature="0" />
      </symbol>
      <symbol
         id="lx-text1873-glyph0-1"
         overflow="visible"
         style="overflow:visible">
        <path
           id="path2083"
           d="M 3.734375,-6.046875 C 3.8125,-6.40625 3.84375,-6.5 4.640625,-6.5 c 0.234375,0 0.3125,0 0.3125,-0.1875 0,-0.125 -0.109375,-0.125 -0.140625,-0.125 -0.296875,0 -1.03125,0.03125 -1.328125,0.03125 -0.296875,0 -1.015625,-0.03125 -1.328125,-0.03125 -0.0625,0 -0.1875,0 -0.1875,0.203125 C 1.96875,-6.5 2.046875,-6.5 2.25,-6.5 c 0.40625,0 0.6875,0 0.6875,0.1875 0,0.046875 0,0.078125 -0.03125,0.15625 l -1.34375,5.375 c -0.09375,0.375 -0.109375,0.46875 -0.90625,0.46875 -0.234375,0 -0.3125,0 -0.3125,0.203125 C 0.34375,0 0.453125,0 0.484375,0 0.78125,0 1.5,-0.03125 1.796875,-0.03125 2.09375,-0.03125 2.828125,0 3.125,0 c 0.078125,0 0.203125,0 0.203125,-0.1875 0,-0.125 -0.078125,-0.125 -0.296875,-0.125 -0.1875,0 -0.234375,0 -0.421875,-0.015625 -0.21875,-0.015625 -0.25,-0.0625 -0.25,-0.171875 0,-0.078125 0.015625,-0.15625 0.03125,-0.234375 z m 0,0"
           style="stroke:none"
           inkscape:connector-curvature="0" />
      </symbol>
      <symbol
         id="lx-text1873-glyph1-0"
         overflow="visible"
         style="overflow:visible">
        <path
           id="path2086"
           d=""
           style="stroke:none"
           inkscape:connector-curvature="0" />
      </symbol>
      <symbol
         id="lx-text1873-glyph1-1"
         overflow="visible"
         style="overflow:visible">
        <path
           id="path2089"
           d="m 3.5625,-3.390625 c 0,-0.734375 -0.28125,-1.515625 -0.96875,-1.515625 -1.046875,0 -2.15625,1.875 -2.15625,3.46875 0,0.828125 0.328125,1.5 0.96875,1.5 1.046875,0 2.15625,-1.890625 2.15625,-3.453125 z m -2.34375,0.84375 c 0.359375,-1.5 0.96875,-2.15625 1.375,-2.15625 0.4375,0 0.4375,0.765625 0.4375,0.890625 0,0.28125 -0.046875,0.6875 -0.1875,1.265625 z m 1.5625,0.25 C 2.578125,-1.53125 2.421875,-1.15625 2.203125,-0.8125 2,-0.453125 1.71875,-0.125 1.40625,-0.125 c -0.375,0 -0.4375,-0.53125 -0.4375,-0.90625 0,-0.453125 0.125,-1 0.1875,-1.265625 z m 0,0"
           style="stroke:none"
           inkscape:connector-curvature="0" />
      </symbol>
    </g>
    <g
       id="g2419">
      <symbol
         id="lx-text1877-glyph0-0"
         overflow="visible"
         style="overflow:visible">
        <path
           id="path2395"
           d=""
           style="stroke:none"
           inkscape:connector-curvature="0" />
      </symbol>
      <symbol
         id="lx-text1877-glyph0-1"
         overflow="visible"
         style="overflow:visible">
        <path
           id="path2398"
           d="M 3.265625,-7.09375 C 3.3125,-7.203125 3.3125,-7.234375 3.3125,-7.28125 c 0,-0.109375 -0.078125,-0.203125 -0.1875,-0.203125 -0.09375,0 -0.171875,0.0625 -0.234375,0.234375 l -1.75,4.578125 C 1.125,-2.609375 1.09375,-2.546875 1.09375,-2.5 c 0,0.03125 0,0.0625 0.046875,0.171875 L 2.890625,2.25 C 2.9375,2.359375 2.984375,2.5 3.125,2.5 c 0.109375,0 0.1875,-0.09375 0.1875,-0.203125 0,-0.03125 0,-0.046875 -0.046875,-0.15625 L 1.5,-2.5 Z m 0,0"
           style="stroke:none"
           inkscape:connector-curvature="0" />
      </symbol>
      <symbol
         id="lx-text1877-glyph0-2"
         overflow="visible"
         style="overflow:visible">
        <path
           id="path2401"
           d="M 2.71875,-2.328125 C 2.765625,-2.4375 2.765625,-2.46875 2.765625,-2.5 c 0,-0.015625 0,-0.046875 -0.046875,-0.15625 L 0.984375,-7.25 c -0.0625,-0.171875 -0.125,-0.234375 -0.234375,-0.234375 -0.109375,0 -0.203125,0.09375 -0.203125,0.203125 0,0.03125 0,0.046875 0.046875,0.15625 L 2.359375,-2.5 0.59375,2.109375 C 0.546875,2.21875 0.546875,2.25 0.546875,2.296875 0.546875,2.40625 0.640625,2.5 0.75,2.5 0.875,2.5 0.921875,2.390625 0.953125,2.296875 Z m 0,0"
           style="stroke:none"
           inkscape:connector-curvature="0" />
      </symbol>
      <symbol
         id="lx-text1877-glyph1-0"
         overflow="visible"
         style="overflow:visible">
        <path
           id="path2404"
           d=""
           style="stroke:none"
           inkscape:connector-curvature="0" />
      </symbol>
      <symbol
         id="lx-text1877-glyph1-1"
         overflow="visible"
         style="overflow:visible">
        <path
           id="path2407"
           d="m 2.046875,-3.984375 h 0.9375 c 0.203125,0 0.3125,0 0.3125,-0.203125 0,-0.109375 -0.109375,-0.109375 -0.28125,-0.109375 h -0.875 C 2.5,-5.71875 2.546875,-5.90625 2.546875,-5.96875 c 0,-0.171875 -0.125,-0.265625 -0.296875,-0.265625 -0.03125,0 -0.3125,0 -0.390625,0.359375 L 1.46875,-4.296875 h -0.9375 c -0.203125,0 -0.296875,0 -0.296875,0.1875 0,0.125 0.078125,0.125 0.28125,0.125 h 0.875 C 0.671875,-1.15625 0.625,-0.984375 0.625,-0.8125 0.625,-0.265625 1,0.109375 1.546875,0.109375 2.5625,0.109375 3.125,-1.34375 3.125,-1.421875 3.125,-1.53125 3.046875,-1.53125 3.015625,-1.53125 2.921875,-1.53125 2.90625,-1.5 2.859375,-1.390625 2.4375,-0.34375 1.90625,-0.109375 1.5625,-0.109375 c -0.203125,0 -0.3125,-0.125 -0.3125,-0.453125 0,-0.25 0.03125,-0.3125 0.0625,-0.484375 z m 0,0"
           style="stroke:none"
           inkscape:connector-curvature="0" />
      </symbol>
      <symbol
         id="lx-text1877-glyph1-2"
         overflow="visible"
         style="overflow:visible">
        <path
           id="path2410"
           d="m 2.03125,-0.015625 c 0,-0.65625 -0.25,-1.046875 -0.640625,-1.046875 -0.328125,0 -0.53125,0.25 -0.53125,0.53125 C 0.859375,-0.265625 1.0625,0 1.390625,0 1.5,0 1.640625,-0.046875 1.734375,-0.125 1.765625,-0.15625 1.78125,-0.15625 1.78125,-0.15625 c 0.015625,0 0.015625,0 0.015625,0.140625 0,0.75 -0.34375,1.34375 -0.671875,1.671875 -0.109375,0.109375 -0.109375,0.125 -0.109375,0.15625 0,0.078125 0.046875,0.109375 0.09375,0.109375 0.109375,0 0.921875,-0.765625 0.921875,-1.9375 z m 0,0"
           style="stroke:none"
           inkscape:connector-curvature="0" />
      </symbol>
      <symbol
         id="lx-text1877-glyph2-0"
         overflow="visible"
         style="overflow:visible">
        <path
           id="path2413"
           d=""
           style="stroke:none"
           inkscape:connector-curvature="0" />
      </symbol>
      <symbol
         id="lx-text1877-glyph2-1"
         overflow="visible"
         style="overflow:visible">
        <path
           id="path2416"
           d="M 1.734375,-0.734375 C 1.671875,-0.5 1.4375,-0.125 1.078125,-0.125 c -0.015625,0 -0.234375,0 -0.375,-0.09375 0.28125,-0.09375 0.3125,-0.34375 0.3125,-0.390625 0,-0.15625 -0.125,-0.25 -0.28125,-0.25 -0.203125,0 -0.40625,0.15625 -0.40625,0.421875 0,0.34375 0.390625,0.5 0.734375,0.5 0.328125,0 0.609375,-0.1875 0.78125,-0.484375 C 2.015625,-0.0625 2.390625,0.0625 2.671875,0.0625 c 0.8125,0 1.234375,-0.859375 1.234375,-1.0625 0,-0.09375 -0.09375,-0.09375 -0.109375,-0.09375 -0.109375,0 -0.109375,0.046875 -0.140625,0.125 -0.140625,0.484375 -0.5625,0.84375 -0.953125,0.84375 -0.28125,0 -0.421875,-0.1875 -0.421875,-0.453125 0,-0.1875 0.171875,-0.8125 0.359375,-1.59375 C 2.78125,-2.703125 3.09375,-2.875 3.328125,-2.875 c 0.015625,0 0.21875,0 0.375,0.09375 -0.21875,0.0625 -0.3125,0.265625 -0.3125,0.390625 0,0.140625 0.125,0.25 0.28125,0.25 0.15625,0 0.390625,-0.125 0.390625,-0.421875 0,-0.390625 -0.453125,-0.515625 -0.71875,-0.515625 -0.359375,0 -0.640625,0.234375 -0.78125,0.5 -0.125,-0.28125 -0.453125,-0.5 -0.84375,-0.5 C 0.9375,-3.078125 0.5,-2.21875 0.5,-2 c 0,0.078125 0.09375,0.078125 0.109375,0.078125 0.09375,0 0.09375,-0.015625 0.140625,-0.109375 C 0.921875,-2.578125 1.359375,-2.875 1.703125,-2.875 1.9375,-2.875 2.125,-2.75 2.125,-2.421875 2.125,-2.28125 2.03125,-1.9375 1.96875,-1.6875 Z m 0,0"
           style="stroke:none"
           inkscape:connector-curvature="0" />
      </symbol>
    </g>
  </defs>
  <sodipodi:namedview
     id="base"
     pagecolor="#ffffff"
     bordercolor="#666666"
     borderopacity="1.0"
     inkscape:pageopacity="0.0"
     inkscape:pageshadow="2"
     inkscape:zoom="0.85559921"
     inkscape:cx="586.11204"
     inkscape:cy="752.17692"
     inkscape:document-units="mm"
     inkscape:current-layer="layer1"
     showgrid="false"
     inkscape:window-width="1281"
     inkscape:window-height="739"
     inkscape:window-x="76"
     inkscape:window-y="-9"
     inkscape:window-maximized="1" />
  <metadata
     id="metadata5">
    <rdf:RDF>
      <cc:Work
         rdf:about="">
        <dc:format>image/svg+xml</dc:format>
        <dc:type
           rdf:resource="http://purl.org/dc/dcmitype/StillImage" />
        <dc:title></dc:title>
      </cc:Work>
    </rdf:RDF>
  </metadata>
  <g
     inkscape:label="Layer 1"
     inkscape:groupmode="layer"
     id="layer1">
    <ellipse
       style="opacity:0.72000002;fill:#ffd5d5;fill-opacity:1;stroke:#f80008;stroke-width:0.26458332;stroke-miterlimit:4;stroke-dasharray:0.79374994, 0.79374993999999999;stroke-dashoffset:0;stroke-opacity:1"
       id="path826"
       cx="102.79313"
       cy="139.2063"
       rx="56.074001"
       ry="56.110001" />
    <path
       style="fill:none;stroke:#000000;stroke-width:0.26458332px;stroke-linecap:butt;stroke-linejoin:miter;stroke-opacity:1;marker-start:url(#Arrow1Lstart);marker-end:url(#Arrow1Lend)"
       d="M 67.357227,97.321721 100.52297,142.45448"
       id="path1156"
       inkscape:connector-curvature="0" />
    <path
       style="fill:none;stroke:#000000;stroke-width:0.26458332px;stroke-linecap:butt;stroke-linejoin:miter;stroke-opacity:1;marker-start:url(#marker1220);marker-end:url(#marker1266)"
       d="m 100.52297,142.45448 h 31.45616"
       id="path1210"
       inkscape:connector-curvature="0" />
    <g
       style="display:inline"
       id="lx-text1863"
       transform="matrix(1.4133802,0,0,1.4014121,89.595368,153.75916)">
      <defs
         id="defs2046">
        <g
           id="g2278">
          <symbol
             id="symbol2272"
             overflow="visible"
             style="overflow:visible">
            <path
               id="path2270"
               d=""
               style="stroke:none"
               inkscape:connector-curvature="0" />
          </symbol>
          <symbol
             id="symbol2276"
             overflow="visible"
             style="overflow:visible">
            <path
               id="path2274"
               d="m 4.53125,-4.984375 c 0,-0.65625 -0.171875,-2.046875 -1.1875,-2.046875 -1.390625,0 -2.921875,2.8125 -2.921875,5.09375 0,0.9375 0.28125,2.046875 1.1875,2.046875 1.40625,0 2.921875,-2.859375 2.921875,-5.09375 z M 1.46875,-3.625 C 1.640625,-4.25 1.84375,-5.046875 2.25,-5.765625 2.515625,-6.25 2.875,-6.8125 3.328125,-6.8125 c 0.484375,0 0.546875,0.640625 0.546875,1.203125 0,0.5 -0.078125,1 -0.3125,1.984375 z m 2,0.328125 C 3.359375,-2.84375 3.15625,-2 2.765625,-1.28125 c -0.34375,0.6875 -0.71875,1.171875 -1.15625,1.171875 -0.328125,0 -0.53125,-0.296875 -0.53125,-1.21875 0,-0.421875 0.0625,-1 0.3125,-1.96875 z m 0,0"
               style="stroke:none"
               inkscape:connector-curvature="0" />
          </symbol>
        </g>
      </defs>
      <g
         id="lx-text1863-surface1"
         transform="translate(4.50084)">
        <g
           id="g2050"
           style="fill:#000000;fill-opacity:1">
          <use
             id="use2048"
             y="0"
             x="0"
             xlink:href="#lx-text1863-glyph0-1"
             width="100%"
             height="100%" />
        </g>
      </g>
    </g>
    <g
       style="display:inline"
       id="lx-text1869"
       transform="matrix(1.4603673,0,0,1.4320347,129.19605,153.50217)">
      <defs
         id="defs2068">
        <g
           id="g2301">
          <symbol
             id="symbol2287"
             overflow="visible"
             style="overflow:visible">
            <path
               id="path2285"
               d=""
               style="stroke:none"
               inkscape:connector-curvature="0" />
          </symbol>
          <symbol
             id="symbol2291"
             overflow="visible"
             style="overflow:visible">
            <path
               id="path2289"
               d="m 4.53125,-4.984375 c 0,-0.65625 -0.171875,-2.046875 -1.1875,-2.046875 -1.390625,0 -2.921875,2.8125 -2.921875,5.09375 0,0.9375 0.28125,2.046875 1.1875,2.046875 1.40625,0 2.921875,-2.859375 2.921875,-5.09375 z M 1.46875,-3.625 C 1.640625,-4.25 1.84375,-5.046875 2.25,-5.765625 2.515625,-6.25 2.875,-6.8125 3.328125,-6.8125 c 0.484375,0 0.546875,0.640625 0.546875,1.203125 0,0.5 -0.078125,1 -0.3125,1.984375 z m 2,0.328125 C 3.359375,-2.84375 3.15625,-2 2.765625,-1.28125 c -0.34375,0.6875 -0.71875,1.171875 -1.15625,1.171875 -0.328125,0 -0.53125,-0.296875 -0.53125,-1.21875 0,-0.421875 0.0625,-1 0.3125,-1.96875 z m 0,0"
               style="stroke:none"
               inkscape:connector-curvature="0" />
          </symbol>
          <symbol
             id="symbol2295"
             overflow="visible"
             style="overflow:visible">
            <path
               id="path2293"
               d=""
               style="stroke:none"
               inkscape:connector-curvature="0" />
          </symbol>
          <symbol
             id="symbol2299"
             overflow="visible"
             style="overflow:visible">
            <path
               id="path2297"
               d="m 2.25,-1.734375 c 0.578125,-0.25 0.828125,-0.34375 1,-0.4375 0.140625,-0.046875 0.203125,-0.078125 0.203125,-0.21875 0,-0.109375 -0.09375,-0.21875 -0.21875,-0.21875 -0.046875,0 -0.0625,0 -0.140625,0.0625 L 2.140625,-1.90625 2.25,-2.9375 c 0.015625,-0.125 0,-0.296875 -0.21875,-0.296875 -0.078125,0 -0.21875,0.046875 -0.21875,0.203125 0,0.0625 0.03125,0.265625 0.046875,0.34375 0.015625,0.109375 0.0625,0.625 0.078125,0.78125 L 0.984375,-2.546875 c -0.0625,-0.03125 -0.078125,-0.0625 -0.140625,-0.0625 -0.140625,0 -0.21875,0.109375 -0.21875,0.21875 0,0.140625 0.078125,0.1875 0.140625,0.203125 L 1.8125,-1.734375 c -0.5625,0.25 -0.828125,0.34375 -1,0.421875 -0.125,0.0625 -0.1875,0.09375 -0.1875,0.21875 0,0.125 0.078125,0.21875 0.21875,0.21875 0.046875,0 0.0625,0 0.140625,-0.0625 l 0.953125,-0.625 -0.125,1.109375 c 0,0.15625 0.140625,0.21875 0.21875,0.21875 0.09375,0 0.21875,-0.0625 0.21875,-0.21875 0,-0.0625 -0.03125,-0.265625 -0.03125,-0.328125 -0.015625,-0.125 -0.0625,-0.625 -0.078125,-0.78125 L 2.96875,-1.015625 C 3.15625,-0.875 3.171875,-0.875 3.234375,-0.875 c 0.125,0 0.21875,-0.09375 0.21875,-0.21875 0,-0.140625 -0.09375,-0.171875 -0.15625,-0.203125 z m 0,0"
               style="stroke:none"
               inkscape:connector-curvature="0" />
          </symbol>
        </g>
      </defs>
      <g
         id="lx-text1869-surface1">
        <g
           id="g2072"
           style="fill:#000000;fill-opacity:1">
          <use
             id="use2070"
             y="0"
             x="0"
             xlink:href="#lx-text1869-glyph0-1"
             width="100%"
             height="100%" />
        </g>
        <g
           id="g2076"
           style="fill:#000000;fill-opacity:1">
          <use
             id="use2074"
             y="-3.615"
             x="4.954"
             xlink:href="#lx-text1869-glyph1-1"
             width="100%"
             height="100%" />
        </g>
      </g>
    </g>
    <g
       style="display:inline"
       id="lx-text1873"
       transform="matrix(1.4759559,0,0,1.5345599,109.6031,138.57583)">
      <defs
         id="defs2094">
        <g
           id="g2326">
          <symbol
             id="symbol2312"
             overflow="visible"
             style="overflow:visible">
            <path
               id="path2310"
               d=""
               style="stroke:none"
               inkscape:connector-curvature="0" />
          </symbol>
          <symbol
             id="symbol2316"
             overflow="visible"
             style="overflow:visible">
            <path
               id="path2314"
               d="M 3.734375,-6.046875 C 3.8125,-6.40625 3.84375,-6.5 4.640625,-6.5 c 0.234375,0 0.3125,0 0.3125,-0.1875 0,-0.125 -0.109375,-0.125 -0.140625,-0.125 -0.296875,0 -1.03125,0.03125 -1.328125,0.03125 -0.296875,0 -1.015625,-0.03125 -1.328125,-0.03125 -0.0625,0 -0.1875,0 -0.1875,0.203125 C 1.96875,-6.5 2.046875,-6.5 2.25,-6.5 c 0.40625,0 0.6875,0 0.6875,0.1875 0,0.046875 0,0.078125 -0.03125,0.15625 l -1.34375,5.375 c -0.09375,0.375 -0.109375,0.46875 -0.90625,0.46875 -0.234375,0 -0.3125,0 -0.3125,0.203125 C 0.34375,0 0.453125,0 0.484375,0 0.78125,0 1.5,-0.03125 1.796875,-0.03125 2.09375,-0.03125 2.828125,0 3.125,0 c 0.078125,0 0.203125,0 0.203125,-0.1875 0,-0.125 -0.078125,-0.125 -0.296875,-0.125 -0.1875,0 -0.234375,0 -0.421875,-0.015625 -0.21875,-0.015625 -0.25,-0.0625 -0.25,-0.171875 0,-0.078125 0.015625,-0.15625 0.03125,-0.234375 z m 0,0"
               style="stroke:none"
               inkscape:connector-curvature="0" />
          </symbol>
          <symbol
             id="symbol2320"
             overflow="visible"
             style="overflow:visible">
            <path
               id="path2318"
               d=""
               style="stroke:none"
               inkscape:connector-curvature="0" />
          </symbol>
          <symbol
             id="symbol2324"
             overflow="visible"
             style="overflow:visible">
            <path
               id="path2322"
               d="m 3.5625,-3.390625 c 0,-0.734375 -0.28125,-1.515625 -0.96875,-1.515625 -1.046875,0 -2.15625,1.875 -2.15625,3.46875 0,0.828125 0.328125,1.5 0.96875,1.5 1.046875,0 2.15625,-1.890625 2.15625,-3.453125 z m -2.34375,0.84375 c 0.359375,-1.5 0.96875,-2.15625 1.375,-2.15625 0.4375,0 0.4375,0.765625 0.4375,0.890625 0,0.28125 -0.046875,0.6875 -0.1875,1.265625 z m 1.5625,0.25 C 2.578125,-1.53125 2.421875,-1.15625 2.203125,-0.8125 2,-0.453125 1.71875,-0.125 1.40625,-0.125 c -0.375,0 -0.4375,-0.53125 -0.4375,-0.90625 0,-0.453125 0.125,-1 0.1875,-1.265625 z m 0,0"
               style="stroke:none"
               inkscape:connector-curvature="0" />
          </symbol>
        </g>
      </defs>
      <g
         id="lx-text1873-surface1">
        <g
           id="g2098"
           style="fill:#000000;fill-opacity:1">
          <use
             id="use2096"
             y="0"
             x="0"
             xlink:href="#lx-text1873-glyph0-1"
             width="100%"
             height="100%" />
        </g>
        <g
           id="g2102"
           style="fill:#000000;fill-opacity:1">
          <use
             id="use2100"
             y="1.495"
             x="4.3800001"
             xlink:href="#lx-text1873-glyph1-1"
             width="100%"
             height="100%" />
        </g>
      </g>
    </g>
    <g
       id="g2918"
       inkscape:transform-center-x="-17.317298"
       inkscape:transform-center-y="-13.363357"
       transform="translate(-49.787233,29.686797)">
      <g
         transform="matrix(1.387326,0,0,1.4368029,127.5845,80.249085)"
         id="lx-text1877"
         style="display:inline">
        <defs
           id="defs2421">
          <g
             id="g2804">
            <symbol
               style="overflow:visible"
               overflow="visible"
               id="symbol2774">
              <path
                 inkscape:connector-curvature="0"
                 style="stroke:none"
                 d=""
                 id="path2772" />
            </symbol>
            <symbol
               style="overflow:visible"
               overflow="visible"
               id="symbol2778">
              <path
                 inkscape:connector-curvature="0"
                 style="stroke:none"
                 d="M 3.265625,-7.09375 C 3.3125,-7.203125 3.3125,-7.234375 3.3125,-7.28125 c 0,-0.109375 -0.078125,-0.203125 -0.1875,-0.203125 -0.09375,0 -0.171875,0.0625 -0.234375,0.234375 l -1.75,4.578125 C 1.125,-2.609375 1.09375,-2.546875 1.09375,-2.5 c 0,0.03125 0,0.0625 0.046875,0.171875 L 2.890625,2.25 C 2.9375,2.359375 2.984375,2.5 3.125,2.5 c 0.109375,0 0.1875,-0.09375 0.1875,-0.203125 0,-0.03125 0,-0.046875 -0.046875,-0.15625 L 1.5,-2.5 Z m 0,0"
                 id="path2776" />
            </symbol>
            <symbol
               style="overflow:visible"
               overflow="visible"
               id="symbol2782">
              <path
                 inkscape:connector-curvature="0"
                 style="stroke:none"
                 d="M 2.71875,-2.328125 C 2.765625,-2.4375 2.765625,-2.46875 2.765625,-2.5 c 0,-0.015625 0,-0.046875 -0.046875,-0.15625 L 0.984375,-7.25 c -0.0625,-0.171875 -0.125,-0.234375 -0.234375,-0.234375 -0.109375,0 -0.203125,0.09375 -0.203125,0.203125 0,0.03125 0,0.046875 0.046875,0.15625 L 2.359375,-2.5 0.59375,2.109375 C 0.546875,2.21875 0.546875,2.25 0.546875,2.296875 0.546875,2.40625 0.640625,2.5 0.75,2.5 0.875,2.5 0.921875,2.390625 0.953125,2.296875 Z m 0,0"
                 id="path2780" />
            </symbol>
            <symbol
               style="overflow:visible"
               overflow="visible"
               id="symbol2786">
              <path
                 inkscape:connector-curvature="0"
                 style="stroke:none"
                 d=""
                 id="path2784" />
            </symbol>
            <symbol
               style="overflow:visible"
               overflow="visible"
               id="symbol2790">
              <path
                 inkscape:connector-curvature="0"
                 style="stroke:none"
                 d="m 2.046875,-3.984375 h 0.9375 c 0.203125,0 0.3125,0 0.3125,-0.203125 0,-0.109375 -0.109375,-0.109375 -0.28125,-0.109375 h -0.875 C 2.5,-5.71875 2.546875,-5.90625 2.546875,-5.96875 c 0,-0.171875 -0.125,-0.265625 -0.296875,-0.265625 -0.03125,0 -0.3125,0 -0.390625,0.359375 L 1.46875,-4.296875 h -0.9375 c -0.203125,0 -0.296875,0 -0.296875,0.1875 0,0.125 0.078125,0.125 0.28125,0.125 h 0.875 C 0.671875,-1.15625 0.625,-0.984375 0.625,-0.8125 0.625,-0.265625 1,0.109375 1.546875,0.109375 2.5625,0.109375 3.125,-1.34375 3.125,-1.421875 3.125,-1.53125 3.046875,-1.53125 3.015625,-1.53125 2.921875,-1.53125 2.90625,-1.5 2.859375,-1.390625 2.4375,-0.34375 1.90625,-0.109375 1.5625,-0.109375 c -0.203125,0 -0.3125,-0.125 -0.3125,-0.453125 0,-0.25 0.03125,-0.3125 0.0625,-0.484375 z m 0,0"
                 id="path2788" />
            </symbol>
            <symbol
               style="overflow:visible"
               overflow="visible"
               id="symbol2794">
              <path
                 inkscape:connector-curvature="0"
                 style="stroke:none"
                 d="m 2.03125,-0.015625 c 0,-0.65625 -0.25,-1.046875 -0.640625,-1.046875 -0.328125,0 -0.53125,0.25 -0.53125,0.53125 C 0.859375,-0.265625 1.0625,0 1.390625,0 1.5,0 1.640625,-0.046875 1.734375,-0.125 1.765625,-0.15625 1.78125,-0.15625 1.78125,-0.15625 c 0.015625,0 0.015625,0 0.015625,0.140625 0,0.75 -0.34375,1.34375 -0.671875,1.671875 -0.109375,0.109375 -0.109375,0.125 -0.109375,0.15625 0,0.078125 0.046875,0.109375 0.09375,0.109375 0.109375,0 0.921875,-0.765625 0.921875,-1.9375 z m 0,0"
                 id="path2792" />
            </symbol>
            <symbol
               style="overflow:visible"
               overflow="visible"
               id="symbol2798">
              <path
                 inkscape:connector-curvature="0"
                 style="stroke:none"
                 d=""
                 id="path2796" />
            </symbol>
            <symbol
               style="overflow:visible"
               overflow="visible"
               id="symbol2802">
              <path
                 inkscape:connector-curvature="0"
                 style="stroke:none"
                 d="M 1.734375,-0.734375 C 1.671875,-0.5 1.4375,-0.125 1.078125,-0.125 c -0.015625,0 -0.234375,0 -0.375,-0.09375 0.28125,-0.09375 0.3125,-0.34375 0.3125,-0.390625 0,-0.15625 -0.125,-0.25 -0.28125,-0.25 -0.203125,0 -0.40625,0.15625 -0.40625,0.421875 0,0.34375 0.390625,0.5 0.734375,0.5 0.328125,0 0.609375,-0.1875 0.78125,-0.484375 C 2.015625,-0.0625 2.390625,0.0625 2.671875,0.0625 c 0.8125,0 1.234375,-0.859375 1.234375,-1.0625 0,-0.09375 -0.09375,-0.09375 -0.109375,-0.09375 -0.109375,0 -0.109375,0.046875 -0.140625,0.125 -0.140625,0.484375 -0.5625,0.84375 -0.953125,0.84375 -0.28125,0 -0.421875,-0.1875 -0.421875,-0.453125 0,-0.1875 0.171875,-0.8125 0.359375,-1.59375 C 2.78125,-2.703125 3.09375,-2.875 3.328125,-2.875 c 0.015625,0 0.21875,0 0.375,0.09375 -0.21875,0.0625 -0.3125,0.265625 -0.3125,0.390625 0,0.140625 0.125,0.25 0.28125,0.25 0.15625,0 0.390625,-0.125 0.390625,-0.421875 0,-0.390625 -0.453125,-0.515625 -0.71875,-0.515625 -0.359375,0 -0.640625,0.234375 -0.78125,0.5 -0.125,-0.28125 -0.453125,-0.5 -0.84375,-0.5 C 0.9375,-3.078125 0.5,-2.21875 0.5,-2 c 0,0.078125 0.09375,0.078125 0.109375,0.078125 0.09375,0 0.09375,-0.015625 0.140625,-0.109375 C 0.921875,-2.578125 1.359375,-2.875 1.703125,-2.875 1.9375,-2.875 2.125,-2.75 2.125,-2.421875 2.125,-2.28125 2.03125,-1.9375 1.96875,-1.6875 Z m 0,0"
                 id="path2800" />
            </symbol>
          </g>
        </defs>
        <g
           id="lx-text1877-surface1">
          <g
             style="fill:#000000;fill-opacity:1"
             id="g2425">
            <use
               height="100%"
               width="100%"
               xlink:href="#lx-text1877-glyph0-1"
               x="0"
               y="0"
               id="use2423" />
          </g>
          <g
             style="fill:#000000;fill-opacity:1"
             id="g2429">
            <use
               height="100%"
               width="100%"
               xlink:href="#lx-text1877-glyph1-1"
               x="3.875"
               y="0"
               id="use2427" />
          </g>
          <g
             style="fill:#000000;fill-opacity:1"
             id="g2433">
            <use
               height="100%"
               width="100%"
               xlink:href="#lx-text1877-glyph2-1"
               x="7.4720001"
               y="1.495"
               id="use2431" />
          </g>
          <g
             style="fill:#000000;fill-opacity:1"
             id="g2437">
            <use
               height="100%"
               width="100%"
               xlink:href="#lx-text1877-glyph1-2"
               x="12.488"
               y="0"
               id="use2435" />
          </g>
          <g
             style="fill:#000000;fill-opacity:1"
             id="g2441">
            <use
               height="100%"
               width="100%"
               xlink:href="#lx-text1877-glyph1-1"
               x="16.919365"
               y="0"
               id="use2439" />
          </g>
          <g
             style="fill:#000000;fill-opacity:1"
             id="g2445">
            <use
               height="100%"
               width="100%"
               xlink:href="#lx-text1877-glyph2-1"
               x="20.514"
               y="1.495"
               id="use2443" />
          </g>
          <g
             style="fill:#000000;fill-opacity:1"
             id="g2449">
            <use
               height="100%"
               width="100%"
               xlink:href="#lx-text1877-glyph0-2"
               x="25.528999"
               y="0"
               id="use2447" />
          </g>
        </g>
      </g>
      <path
         inkscape:connector-curvature="0"
         id="path2865"
         d="m 138.22915,84.244621 h 4.32932"
         style="fill:none;stroke:#000000;stroke-width:0.26458332px;stroke-linecap:butt;stroke-linejoin:miter;stroke-opacity:1" />
      <path
         inkscape:connector-curvature="0"
         id="path2865-7"
         d="m 156.08584,84.096203 h 4.32932"
         style="fill:none;stroke:#000000;stroke-width:0.26458332px;stroke-linecap:butt;stroke-linejoin:miter;stroke-opacity:1" />
    </g>
  </g>
</svg>
