<?xml version="1.0" encoding="UTF-8" standalone="no"?>
<svg
   xmlns:dc="http://purl.org/dc/elements/1.1/"
   xmlns:cc="http://creativecommons.org/ns#"
   xmlns:rdf="http://www.w3.org/1999/02/22-rdf-syntax-ns#"
   xmlns:svg="http://www.w3.org/2000/svg"
   xmlns="http://www.w3.org/2000/svg"
   xmlns:xlink="http://www.w3.org/1999/xlink"
   xmlns:sodipodi="http://sodipodi.sourceforge.net/DTD/sodipodi-0.dtd"
   xmlns:inkscape="http://www.inkscape.org/namespaces/inkscape"
   id="svg8"
   version="1.1"
   viewBox="0 0 297 210"
   height="210mm"
   width="297mm"
   inkscape:version="1.0 (1.0+r73+1)"
   sodipodi:docname="util-node.svg"
   inkscape:export-filename="/home/rrtucci/latex_docs/Bayesuvius/dtree/util-node.png"
   inkscape:export-xdpi="96"
   inkscape:export-ydpi="96">
  <defs
     id="defs2">
    <marker
       inkscape:stockid="Arrow1Lstart"
       orient="auto"
       refY="0.0"
       refX="0.0"
       id="marker1263"
       style="overflow:visible"
       inkscape:isstock="true">
      <path
         id="path1261"
         d="M 0.0,0.0 L 5.0,-5.0 L -12.5,0.0 L 5.0,5.0 L 0.0,0.0 z "
         style="fill-rule:evenodd;stroke:#000000;stroke-width:1pt;stroke-opacity:1;fill:#000000;fill-opacity:1"
         transform="scale(0.8) translate(12.5,0)" />
    </marker>
    <marker
       inkscape:isstock="true"
       style="overflow:visible"
       id="marker1219"
       refX="0.0"
       refY="0.0"
       orient="auto"
       inkscape:stockid="Arrow1Lstart"
       inkscape:collect="always">
      <path
         transform="scale(0.8) translate(12.5,0)"
         style="fill-rule:evenodd;stroke:#000000;stroke-width:1pt;stroke-opacity:1;fill:#000000;fill-opacity:1"
         d="M 0.0,0.0 L 5.0,-5.0 L -12.5,0.0 L 5.0,5.0 L 0.0,0.0 z "
         id="path1217" />
    </marker>
    <marker
       inkscape:collect="always"
       inkscape:stockid="Arrow1Lstart"
       orient="auto"
       refY="0"
       refX="0"
       id="marker1219-7"
       style="overflow:visible"
       inkscape:isstock="true">
      <path
         id="path1217-5"
         d="M 0,0 5,-5 -12.5,0 5,5 Z"
         style="fill:#000000;fill-opacity:1;fill-rule:evenodd;stroke:#000000;stroke-width:1pt;stroke-opacity:1"
         transform="matrix(0.8,0,0,0.8,10,0)" />
    </marker>
    <marker
       inkscape:isstock="true"
       style="overflow:visible"
       id="marker1263-3"
       refX="0"
       refY="0"
       orient="auto"
       inkscape:stockid="Arrow1Lstart">
      <path
         transform="matrix(0.8,0,0,0.8,10,0)"
         style="fill:#000000;fill-opacity:1;fill-rule:evenodd;stroke:#000000;stroke-width:1pt;stroke-opacity:1"
         d="M 0,0 5,-5 -12.5,0 5,5 Z"
         id="path1261-5" />
    </marker>
    <marker
       inkscape:isstock="true"
       style="overflow:visible"
       id="marker1219-7-9"
       refX="0"
       refY="0"
       orient="auto"
       inkscape:stockid="Arrow1Lstart"
       inkscape:collect="always">
      <path
         transform="matrix(0.8,0,0,0.8,10,0)"
         style="fill:#000000;fill-opacity:1;fill-rule:evenodd;stroke:#000000;stroke-width:1pt;stroke-opacity:1"
         d="M 0,0 5,-5 -12.5,0 5,5 Z"
         id="path1217-5-1" />
    </marker>
    <marker
       inkscape:stockid="Arrow1Lstart"
       orient="auto"
       refY="0"
       refX="0"
       id="marker1263-3-2"
       style="overflow:visible"
       inkscape:isstock="true">
      <path
         id="path1261-5-7"
         d="M 0,0 5,-5 -12.5,0 5,5 Z"
         style="fill:#000000;fill-opacity:1;fill-rule:evenodd;stroke:#000000;stroke-width:1pt;stroke-opacity:1"
         transform="matrix(0.8,0,0,0.8,10,0)" />
    </marker>
    <marker
       inkscape:collect="always"
       inkscape:stockid="Arrow1Lstart"
       orient="auto"
       refY="0"
       refX="0"
       id="marker1219-3"
       style="overflow:visible"
       inkscape:isstock="true">
      <path
         id="path1217-6"
         d="M 0,0 5,-5 -12.5,0 5,5 Z"
         style="fill:#000000;fill-opacity:1;fill-rule:evenodd;stroke:#000000;stroke-width:1pt;stroke-opacity:1"
         transform="matrix(0.8,0,0,0.8,10,0)" />
    </marker>
    <marker
       inkscape:isstock="true"
       style="overflow:visible"
       id="marker1263-0"
       refX="0"
       refY="0"
       orient="auto"
       inkscape:stockid="Arrow1Lstart">
      <path
         transform="matrix(0.8,0,0,0.8,10,0)"
         style="fill:#000000;fill-opacity:1;fill-rule:evenodd;stroke:#000000;stroke-width:1pt;stroke-opacity:1"
         d="M 0,0 5,-5 -12.5,0 5,5 Z"
         id="path1261-6" />
    </marker>
    <g
       id="g5052">
      <symbol
         overflow="visible"
         id="symbol1636">
        <path
           style="stroke:none;"
           d=""
           id="path7524" />
      </symbol>
      <symbol
         overflow="visible"
         id="symbol652">
        <path
           style="stroke:none;"
           d="M 6.328125 -5.765625 C 6.4375 -6.171875 6.609375 -6.46875 7.40625 -6.5 C 7.453125 -6.5 7.578125 -6.515625 7.578125 -6.703125 C 7.578125 -6.703125 7.578125 -6.8125 7.453125 -6.8125 C 7.125 -6.8125 6.765625 -6.78125 6.4375 -6.78125 C 6.09375 -6.78125 5.71875 -6.8125 5.390625 -6.8125 C 5.328125 -6.8125 5.21875 -6.8125 5.21875 -6.609375 C 5.21875 -6.5 5.3125 -6.5 5.390625 -6.5 C 5.96875 -6.484375 6.078125 -6.28125 6.078125 -6.0625 C 6.078125 -6.03125 6.046875 -5.875 6.046875 -5.859375 L 5.140625 -2.296875 C 4.8125 -0.953125 3.65625 -0.09375 2.65625 -0.09375 C 1.984375 -0.09375 1.453125 -0.53125 1.453125 -1.390625 C 1.453125 -1.40625 1.453125 -1.71875 1.5625 -2.15625 L 2.515625 -6.046875 C 2.609375 -6.40625 2.625 -6.5 3.359375 -6.5 C 3.625 -6.5 3.703125 -6.5 3.703125 -6.703125 C 3.703125 -6.8125 3.59375 -6.8125 3.5625 -6.8125 C 3.28125 -6.8125 2.5625 -6.78125 2.28125 -6.78125 C 2 -6.78125 1.28125 -6.8125 1 -6.8125 C 0.921875 -6.8125 0.8125 -6.8125 0.8125 -6.609375 C 0.8125 -6.5 0.890625 -6.5 1.09375 -6.5 C 1.109375 -6.5 1.296875 -6.5 1.46875 -6.484375 C 1.640625 -6.453125 1.734375 -6.453125 1.734375 -6.3125 C 1.734375 -6.265625 1.625 -5.84375 1.5625 -5.609375 L 1.34375 -4.734375 C 1.25 -4.34375 0.78125 -2.46875 0.734375 -2.265625 C 0.671875 -2 0.671875 -1.84375 0.671875 -1.6875 C 0.671875 -0.484375 1.578125 0.21875 2.625 0.21875 C 3.875 0.21875 5.109375 -0.90625 5.4375 -2.21875 Z M 6.328125 -5.765625 "
           id="path9710" />
      </symbol>
    </g>
    <g
       id="g8908">
      <symbol
         overflow="visible"
         id="symbol1769">
        <path
           style="stroke:none;"
           d=""
           id="path7209" />
      </symbol>
      <symbol
         overflow="visible"
         id="symbol4995">
        <path
           style="stroke:none;"
           d="M 3.484375 -0.5625 C 3.59375 -0.15625 3.953125 0.109375 4.375 0.109375 C 4.71875 0.109375 4.953125 -0.125 5.109375 -0.4375 C 5.28125 -0.796875 5.40625 -1.40625 5.40625 -1.421875 C 5.40625 -1.53125 5.328125 -1.53125 5.296875 -1.53125 C 5.1875 -1.53125 5.1875 -1.484375 5.15625 -1.34375 C 5.015625 -0.78125 4.828125 -0.109375 4.40625 -0.109375 C 4.203125 -0.109375 4.09375 -0.234375 4.09375 -0.5625 C 4.09375 -0.78125 4.21875 -1.25 4.296875 -1.609375 L 4.578125 -2.6875 C 4.609375 -2.828125 4.703125 -3.203125 4.75 -3.359375 C 4.796875 -3.59375 4.890625 -3.96875 4.890625 -4.03125 C 4.890625 -4.203125 4.75 -4.296875 4.609375 -4.296875 C 4.5625 -4.296875 4.296875 -4.28125 4.21875 -3.953125 C 4.03125 -3.21875 3.59375 -1.46875 3.46875 -0.953125 C 3.453125 -0.90625 3.0625 -0.109375 2.328125 -0.109375 C 1.8125 -0.109375 1.71875 -0.5625 1.71875 -0.921875 C 1.71875 -1.484375 2 -2.265625 2.25 -2.953125 C 2.375 -3.265625 2.421875 -3.40625 2.421875 -3.59375 C 2.421875 -4.03125 2.109375 -4.40625 1.609375 -4.40625 C 0.65625 -4.40625 0.296875 -2.953125 0.296875 -2.875 C 0.296875 -2.765625 0.390625 -2.765625 0.40625 -2.765625 C 0.515625 -2.765625 0.515625 -2.796875 0.5625 -2.953125 C 0.8125 -3.8125 1.203125 -4.1875 1.578125 -4.1875 C 1.671875 -4.1875 1.828125 -4.171875 1.828125 -3.859375 C 1.828125 -3.625 1.71875 -3.328125 1.65625 -3.1875 C 1.28125 -2.1875 1.078125 -1.578125 1.078125 -1.09375 C 1.078125 -0.140625 1.765625 0.109375 2.296875 0.109375 C 2.953125 0.109375 3.3125 -0.34375 3.484375 -0.5625 Z M 3.484375 -0.5625 "
           id="path119" />
      </symbol>
    </g>
    <g
       id="g3230">
      <symbol
         overflow="visible"
         id="symbol2606">
        <path
           style="stroke:none;"
           d=""
           id="path9999" />
      </symbol>
      <symbol
         overflow="visible"
         id="symbol7370">
        <path
           style="stroke:none;"
           d="M 0.875 -0.59375 C 0.84375 -0.4375 0.78125 -0.203125 0.78125 -0.15625 C 0.78125 0.015625 0.921875 0.109375 1.078125 0.109375 C 1.203125 0.109375 1.375 0.03125 1.453125 -0.171875 C 1.453125 -0.1875 1.578125 -0.65625 1.640625 -0.90625 L 1.859375 -1.796875 C 1.90625 -2.03125 1.96875 -2.25 2.03125 -2.46875 C 2.0625 -2.640625 2.140625 -2.9375 2.15625 -2.96875 C 2.296875 -3.28125 2.828125 -4.1875 3.78125 -4.1875 C 4.234375 -4.1875 4.3125 -3.8125 4.3125 -3.484375 C 4.3125 -3.234375 4.25 -2.953125 4.171875 -2.65625 L 3.890625 -1.5 L 3.6875 -0.75 C 3.65625 -0.546875 3.5625 -0.203125 3.5625 -0.15625 C 3.5625 0.015625 3.703125 0.109375 3.84375 0.109375 C 4.15625 0.109375 4.21875 -0.140625 4.296875 -0.453125 C 4.4375 -1.015625 4.8125 -2.46875 4.890625 -2.859375 C 4.921875 -2.984375 5.453125 -4.1875 6.546875 -4.1875 C 6.96875 -4.1875 7.078125 -3.84375 7.078125 -3.484375 C 7.078125 -2.921875 6.65625 -1.78125 6.453125 -1.25 C 6.375 -1.015625 6.328125 -0.90625 6.328125 -0.703125 C 6.328125 -0.234375 6.671875 0.109375 7.140625 0.109375 C 8.078125 0.109375 8.453125 -1.34375 8.453125 -1.421875 C 8.453125 -1.53125 8.359375 -1.53125 8.328125 -1.53125 C 8.234375 -1.53125 8.234375 -1.5 8.1875 -1.34375 C 8.03125 -0.8125 7.71875 -0.109375 7.171875 -0.109375 C 7 -0.109375 6.921875 -0.203125 6.921875 -0.4375 C 6.921875 -0.6875 7.015625 -0.921875 7.109375 -1.140625 C 7.296875 -1.671875 7.71875 -2.765625 7.71875 -3.34375 C 7.71875 -3.984375 7.3125 -4.40625 6.5625 -4.40625 C 5.828125 -4.40625 5.3125 -3.96875 4.9375 -3.4375 C 4.9375 -3.5625 4.90625 -3.90625 4.625 -4.140625 C 4.375 -4.359375 4.0625 -4.40625 3.8125 -4.40625 C 2.90625 -4.40625 2.421875 -3.765625 2.25 -3.53125 C 2.203125 -4.109375 1.78125 -4.40625 1.328125 -4.40625 C 0.875 -4.40625 0.6875 -4.015625 0.59375 -3.84375 C 0.421875 -3.484375 0.296875 -2.90625 0.296875 -2.875 C 0.296875 -2.765625 0.390625 -2.765625 0.40625 -2.765625 C 0.515625 -2.765625 0.515625 -2.78125 0.578125 -3 C 0.75 -3.703125 0.953125 -4.1875 1.3125 -4.1875 C 1.46875 -4.1875 1.609375 -4.109375 1.609375 -3.734375 C 1.609375 -3.515625 1.578125 -3.40625 1.453125 -2.890625 Z M 0.875 -0.59375 "
           id="path4742" />
      </symbol>
    </g>
    <g
       id="g1375">
      <symbol
         overflow="visible"
         id="symbol4556">
        <path
           style="stroke:none;"
           d=""
           id="path4597" />
      </symbol>
      <symbol
         overflow="visible"
         id="symbol3849">
        <path
           style="stroke:none;"
           d="M 2.296875 -3.5 C 2.359375 -3.703125 2.453125 -4.09375 2.453125 -4.140625 C 2.453125 -4.3125 2.328125 -4.40625 2.15625 -4.40625 C 2.140625 -4.40625 1.859375 -4.390625 1.765625 -4.046875 L 0.328125 1.71875 C 0.296875 1.84375 0.296875 1.859375 0.296875 1.890625 C 0.296875 2.03125 0.40625 2.15625 0.578125 2.15625 C 0.78125 2.15625 0.90625 1.96875 0.921875 1.9375 C 0.96875 1.859375 1.09375 1.328125 1.46875 -0.203125 C 1.796875 0.0625 2.25 0.109375 2.4375 0.109375 C 3.140625 0.109375 3.53125 -0.34375 3.765625 -0.625 C 3.859375 -0.171875 4.234375 0.109375 4.671875 0.109375 C 5.015625 0.109375 5.25 -0.125 5.40625 -0.4375 C 5.578125 -0.796875 5.703125 -1.40625 5.703125 -1.421875 C 5.703125 -1.53125 5.609375 -1.53125 5.578125 -1.53125 C 5.484375 -1.53125 5.46875 -1.484375 5.4375 -1.34375 C 5.28125 -0.703125 5.09375 -0.109375 4.6875 -0.109375 C 4.421875 -0.109375 4.390625 -0.375 4.390625 -0.5625 C 4.390625 -0.78125 4.5 -1.25 4.578125 -1.609375 L 4.859375 -2.6875 C 4.890625 -2.828125 5 -3.203125 5.03125 -3.359375 C 5.078125 -3.59375 5.1875 -3.96875 5.1875 -4.03125 C 5.1875 -4.203125 5.046875 -4.296875 4.890625 -4.296875 C 4.84375 -4.296875 4.578125 -4.28125 4.5 -3.953125 L 4.03125 -2.078125 C 3.921875 -1.578125 3.8125 -1.171875 3.78125 -1.0625 C 3.765625 -1.015625 3.296875 -0.109375 2.484375 -0.109375 C 1.984375 -0.109375 1.75 -0.4375 1.75 -0.984375 C 1.75 -1.265625 1.8125 -1.546875 1.890625 -1.828125 Z M 2.296875 -3.5 "
           id="path6379" />
      </symbol>
    </g>
    <g
       id="g8877">
      <symbol
         overflow="visible"
         id="symbol5855">
        <path
           style="stroke:none;"
           d=""
           id="path4237" />
      </symbol>
      <symbol
         overflow="visible"
         id="symbol6253">
        <path
           style="stroke:none;"
           d="M 5.15625 -3.71875 C 5.296875 -3.71875 5.65625 -3.71875 5.65625 -4.0625 C 5.65625 -4.296875 5.4375 -4.296875 5.265625 -4.296875 L 2.984375 -4.296875 C 1.484375 -4.296875 0.375 -2.65625 0.375 -1.46875 C 0.375 -0.59375 0.96875 0.109375 1.875 0.109375 C 3.046875 0.109375 4.375 -1.09375 4.375 -2.625 C 4.375 -2.796875 4.375 -3.28125 4.0625 -3.71875 Z M 1.890625 -0.109375 C 1.390625 -0.109375 1 -0.46875 1 -1.1875 C 1 -1.484375 1.109375 -2.296875 1.46875 -2.890625 C 1.890625 -3.578125 2.484375 -3.71875 2.828125 -3.71875 C 3.65625 -3.71875 3.734375 -3.0625 3.734375 -2.75 C 3.734375 -2.28125 3.53125 -1.46875 3.203125 -0.953125 C 2.8125 -0.375 2.265625 -0.109375 1.890625 -0.109375 Z M 1.890625 -0.109375 "
           id="path5148" />
      </symbol>
    </g>
    <g
       id="g2452">
      <symbol
         overflow="visible"
         id="symbol3741">
        <path
           style="stroke:none;"
           d=""
           id="path182" />
      </symbol>
      <symbol
         overflow="visible"
         id="symbol148">
        <path
           style="stroke:none;"
           d="M 5.15625 -3.71875 C 5.296875 -3.71875 5.65625 -3.71875 5.65625 -4.0625 C 5.65625 -4.296875 5.4375 -4.296875 5.265625 -4.296875 L 2.984375 -4.296875 C 1.484375 -4.296875 0.375 -2.65625 0.375 -1.46875 C 0.375 -0.59375 0.96875 0.109375 1.875 0.109375 C 3.046875 0.109375 4.375 -1.09375 4.375 -2.625 C 4.375 -2.796875 4.375 -3.28125 4.0625 -3.71875 Z M 1.890625 -0.109375 C 1.390625 -0.109375 1 -0.46875 1 -1.1875 C 1 -1.484375 1.109375 -2.296875 1.46875 -2.890625 C 1.890625 -3.578125 2.484375 -3.71875 2.828125 -3.71875 C 3.65625 -3.71875 3.734375 -3.0625 3.734375 -2.75 C 3.734375 -2.28125 3.53125 -1.46875 3.203125 -0.953125 C 2.8125 -0.375 2.265625 -0.109375 1.890625 -0.109375 Z M 1.890625 -0.109375 "
           id="path7628" />
      </symbol>
      <symbol
         overflow="visible"
         id="symbol8231">
        <path
           style="stroke:none;"
           d=""
           id="path4313" />
      </symbol>
      <symbol
         overflow="visible"
         id="symbol3223">
        <path
           style="stroke:none;"
           d="M 4.921875 -4 C 5 -4.265625 5.109375 -4.5 5.671875 -4.515625 C 5.703125 -4.515625 5.8125 -4.515625 5.8125 -4.65625 C 5.8125 -4.703125 5.765625 -4.765625 5.703125 -4.765625 C 5.484375 -4.765625 5.21875 -4.734375 4.984375 -4.734375 C 4.75 -4.734375 4.453125 -4.765625 4.25 -4.765625 C 4.21875 -4.765625 4.109375 -4.765625 4.109375 -4.609375 C 4.109375 -4.515625 4.203125 -4.515625 4.265625 -4.515625 C 4.59375 -4.5 4.703125 -4.390625 4.703125 -4.21875 C 4.703125 -4.1875 4.703125 -4.15625 4.703125 -4.125 C 4.59375 -3.671875 4.078125 -1.578125 4 -1.359375 C 3.609375 -0.46875 2.78125 -0.109375 2.21875 -0.109375 C 1.75 -0.109375 1.25 -0.34375 1.25 -1.03125 C 1.25 -1.203125 1.28125 -1.375 1.3125 -1.53125 L 2 -4.21875 C 2.0625 -4.453125 2.0625 -4.515625 2.609375 -4.515625 C 2.71875 -4.515625 2.8125 -4.515625 2.8125 -4.65625 C 2.8125 -4.6875 2.796875 -4.765625 2.703125 -4.765625 C 2.5 -4.765625 2 -4.734375 1.796875 -4.734375 C 1.671875 -4.734375 1.421875 -4.734375 1.3125 -4.734375 C 1.171875 -4.75 1 -4.765625 0.875 -4.765625 C 0.828125 -4.765625 0.71875 -4.765625 0.71875 -4.609375 C 0.71875 -4.515625 0.8125 -4.515625 0.953125 -4.515625 C 0.953125 -4.515625 1.09375 -4.515625 1.21875 -4.5 C 1.359375 -4.484375 1.375 -4.46875 1.375 -4.390625 C 1.375 -4.359375 1.296875 -4.078125 1.265625 -3.9375 L 1.109375 -3.3125 L 0.703125 -1.71875 C 0.640625 -1.4375 0.640625 -1.375 0.640625 -1.234375 C 0.640625 -0.375 1.359375 0.140625 2.1875 0.140625 C 3.15625 0.140625 4.078125 -0.640625 4.3125 -1.546875 Z M 4.921875 -4 "
           id="path9001" />
      </symbol>
    </g>
    <g
       id="g1460">
      <symbol
         overflow="visible"
         id="symbol2024">
        <path
           style="stroke:none;"
           d=""
           id="path678" />
      </symbol>
      <symbol
         overflow="visible"
         id="symbol1995">
        <path
           style="stroke:none;"
           d="M 2.296875 -3.5 C 2.359375 -3.703125 2.453125 -4.09375 2.453125 -4.140625 C 2.453125 -4.3125 2.328125 -4.40625 2.15625 -4.40625 C 2.140625 -4.40625 1.859375 -4.390625 1.765625 -4.046875 L 0.328125 1.71875 C 0.296875 1.84375 0.296875 1.859375 0.296875 1.890625 C 0.296875 2.03125 0.40625 2.15625 0.578125 2.15625 C 0.78125 2.15625 0.90625 1.96875 0.921875 1.9375 C 0.96875 1.859375 1.09375 1.328125 1.46875 -0.203125 C 1.796875 0.0625 2.25 0.109375 2.4375 0.109375 C 3.140625 0.109375 3.53125 -0.34375 3.765625 -0.625 C 3.859375 -0.171875 4.234375 0.109375 4.671875 0.109375 C 5.015625 0.109375 5.25 -0.125 5.40625 -0.4375 C 5.578125 -0.796875 5.703125 -1.40625 5.703125 -1.421875 C 5.703125 -1.53125 5.609375 -1.53125 5.578125 -1.53125 C 5.484375 -1.53125 5.46875 -1.484375 5.4375 -1.34375 C 5.28125 -0.703125 5.09375 -0.109375 4.6875 -0.109375 C 4.421875 -0.109375 4.390625 -0.375 4.390625 -0.5625 C 4.390625 -0.78125 4.5 -1.25 4.578125 -1.609375 L 4.859375 -2.6875 C 4.890625 -2.828125 5 -3.203125 5.03125 -3.359375 C 5.078125 -3.59375 5.1875 -3.96875 5.1875 -4.03125 C 5.1875 -4.203125 5.046875 -4.296875 4.890625 -4.296875 C 4.84375 -4.296875 4.578125 -4.28125 4.5 -3.953125 L 4.03125 -2.078125 C 3.921875 -1.578125 3.8125 -1.171875 3.78125 -1.0625 C 3.765625 -1.015625 3.296875 -0.109375 2.484375 -0.109375 C 1.984375 -0.109375 1.75 -0.4375 1.75 -0.984375 C 1.75 -1.265625 1.8125 -1.546875 1.890625 -1.828125 Z M 2.296875 -3.5 "
           id="path8339" />
      </symbol>
      <symbol
         overflow="visible"
         id="symbol6028">
        <path
           style="stroke:none;"
           d=""
           id="path7830" />
      </symbol>
      <symbol
         overflow="visible"
         id="symbol9571">
        <path
           style="stroke:none;"
           d="M 4.921875 -4 C 5 -4.265625 5.109375 -4.5 5.671875 -4.515625 C 5.703125 -4.515625 5.8125 -4.515625 5.8125 -4.65625 C 5.8125 -4.703125 5.765625 -4.765625 5.703125 -4.765625 C 5.484375 -4.765625 5.21875 -4.734375 4.984375 -4.734375 C 4.75 -4.734375 4.453125 -4.765625 4.25 -4.765625 C 4.21875 -4.765625 4.109375 -4.765625 4.109375 -4.609375 C 4.109375 -4.515625 4.203125 -4.515625 4.265625 -4.515625 C 4.59375 -4.5 4.703125 -4.390625 4.703125 -4.21875 C 4.703125 -4.1875 4.703125 -4.15625 4.703125 -4.125 C 4.59375 -3.671875 4.078125 -1.578125 4 -1.359375 C 3.609375 -0.46875 2.78125 -0.109375 2.21875 -0.109375 C 1.75 -0.109375 1.25 -0.34375 1.25 -1.03125 C 1.25 -1.203125 1.28125 -1.375 1.3125 -1.53125 L 2 -4.21875 C 2.0625 -4.453125 2.0625 -4.515625 2.609375 -4.515625 C 2.71875 -4.515625 2.8125 -4.515625 2.8125 -4.65625 C 2.8125 -4.6875 2.796875 -4.765625 2.703125 -4.765625 C 2.5 -4.765625 2 -4.734375 1.796875 -4.734375 C 1.671875 -4.734375 1.421875 -4.734375 1.3125 -4.734375 C 1.171875 -4.75 1 -4.765625 0.875 -4.765625 C 0.828125 -4.765625 0.71875 -4.765625 0.71875 -4.609375 C 0.71875 -4.515625 0.8125 -4.515625 0.953125 -4.515625 C 0.953125 -4.515625 1.09375 -4.515625 1.21875 -4.5 C 1.359375 -4.484375 1.375 -4.46875 1.375 -4.390625 C 1.375 -4.359375 1.296875 -4.078125 1.265625 -3.9375 L 1.109375 -3.3125 L 0.703125 -1.71875 C 0.640625 -1.4375 0.640625 -1.375 0.640625 -1.234375 C 0.640625 -0.375 1.359375 0.140625 2.1875 0.140625 C 3.15625 0.140625 4.078125 -0.640625 4.3125 -1.546875 Z M 4.921875 -4 "
           id="path1809" />
      </symbol>
    </g>
    <g
       id="g4397">
      <symbol
         overflow="visible"
         id="symbol240">
        <path
           style="stroke:none;"
           d=""
           id="path3717" />
      </symbol>
      <symbol
         overflow="visible"
         id="symbol2869">
        <path
           style="stroke:none;"
           d="M 2.296875 -3.5 C 2.359375 -3.703125 2.453125 -4.09375 2.453125 -4.140625 C 2.453125 -4.3125 2.328125 -4.40625 2.15625 -4.40625 C 2.140625 -4.40625 1.859375 -4.390625 1.765625 -4.046875 L 0.328125 1.71875 C 0.296875 1.84375 0.296875 1.859375 0.296875 1.890625 C 0.296875 2.03125 0.40625 2.15625 0.578125 2.15625 C 0.78125 2.15625 0.90625 1.96875 0.921875 1.9375 C 0.96875 1.859375 1.09375 1.328125 1.46875 -0.203125 C 1.796875 0.0625 2.25 0.109375 2.4375 0.109375 C 3.140625 0.109375 3.53125 -0.34375 3.765625 -0.625 C 3.859375 -0.171875 4.234375 0.109375 4.671875 0.109375 C 5.015625 0.109375 5.25 -0.125 5.40625 -0.4375 C 5.578125 -0.796875 5.703125 -1.40625 5.703125 -1.421875 C 5.703125 -1.53125 5.609375 -1.53125 5.578125 -1.53125 C 5.484375 -1.53125 5.46875 -1.484375 5.4375 -1.34375 C 5.28125 -0.703125 5.09375 -0.109375 4.6875 -0.109375 C 4.421875 -0.109375 4.390625 -0.375 4.390625 -0.5625 C 4.390625 -0.78125 4.5 -1.25 4.578125 -1.609375 L 4.859375 -2.6875 C 4.890625 -2.828125 5 -3.203125 5.03125 -3.359375 C 5.078125 -3.59375 5.1875 -3.96875 5.1875 -4.03125 C 5.1875 -4.203125 5.046875 -4.296875 4.890625 -4.296875 C 4.84375 -4.296875 4.578125 -4.28125 4.5 -3.953125 L 4.03125 -2.078125 C 3.921875 -1.578125 3.8125 -1.171875 3.78125 -1.0625 C 3.765625 -1.015625 3.296875 -0.109375 2.484375 -0.109375 C 1.984375 -0.109375 1.75 -0.4375 1.75 -0.984375 C 1.75 -1.265625 1.8125 -1.546875 1.890625 -1.828125 Z M 2.296875 -3.5 "
           id="path8699" />
      </symbol>
      <symbol
         overflow="visible"
         id="symbol1054">
        <path
           style="stroke:none;"
           d=""
           id="path8804" />
      </symbol>
      <symbol
         overflow="visible"
         id="symbol3129">
        <path
           style="stroke:none;"
           d="M 2.953125 -1.125 C 2.90625 -0.984375 2.84375 -0.71875 2.84375 -0.71875 C 2.703125 -0.5 2.421875 -0.125 2 -0.125 C 1.515625 -0.125 1.515625 -0.578125 1.515625 -0.703125 C 1.515625 -1.109375 1.703125 -1.609375 1.90625 -2.125 C 1.953125 -2.265625 2 -2.359375 2 -2.46875 C 2 -2.84375 1.6875 -3.078125 1.34375 -3.078125 C 0.640625 -3.078125 0.328125 -2.125 0.328125 -2 C 0.328125 -1.921875 0.421875 -1.921875 0.453125 -1.921875 C 0.546875 -1.921875 0.546875 -1.953125 0.578125 -2.03125 C 0.734375 -2.59375 1.046875 -2.875 1.3125 -2.875 C 1.4375 -2.875 1.484375 -2.796875 1.484375 -2.640625 C 1.484375 -2.46875 1.4375 -2.328125 1.359375 -2.171875 C 0.984375 -1.203125 0.984375 -1 0.984375 -0.8125 C 0.984375 -0.703125 0.984375 -0.375 1.25 -0.15625 C 1.453125 0.015625 1.71875 0.0625 1.96875 0.0625 C 2.40625 0.0625 2.640625 -0.171875 2.875 -0.390625 C 3.03125 0.0625 3.484375 0.0625 3.578125 0.0625 C 3.8125 0.0625 4 -0.0625 4.125 -0.296875 C 4.28125 -0.578125 4.375 -0.96875 4.375 -1 C 4.375 -1.09375 4.28125 -1.09375 4.265625 -1.09375 C 4.15625 -1.09375 4.15625 -1.0625 4.109375 -0.875 C 4.015625 -0.546875 3.890625 -0.125 3.59375 -0.125 C 3.421875 -0.125 3.359375 -0.28125 3.359375 -0.46875 C 3.359375 -0.578125 3.421875 -0.84375 3.46875 -1.015625 C 3.515625 -1.203125 3.59375 -1.484375 3.625 -1.640625 L 3.78125 -2.265625 C 3.828125 -2.4375 3.90625 -2.75 3.90625 -2.78125 C 3.90625 -2.921875 3.796875 -3 3.671875 -3 C 3.421875 -3 3.359375 -2.796875 3.3125 -2.578125 Z M 2.953125 -1.125 "
           id="path8135" />
      </symbol>
    </g>
    <g
       id="g559">
      <symbol
         overflow="visible"
         id="symbol6977">
        <path
           style="stroke:none;"
           d=""
           id="path6648" />
      </symbol>
      <symbol
         overflow="visible"
         id="symbol5360">
        <path
           style="stroke:none;"
           d="M 5.15625 -3.71875 C 5.296875 -3.71875 5.65625 -3.71875 5.65625 -4.0625 C 5.65625 -4.296875 5.4375 -4.296875 5.265625 -4.296875 L 2.984375 -4.296875 C 1.484375 -4.296875 0.375 -2.65625 0.375 -1.46875 C 0.375 -0.59375 0.96875 0.109375 1.875 0.109375 C 3.046875 0.109375 4.375 -1.09375 4.375 -2.625 C 4.375 -2.796875 4.375 -3.28125 4.0625 -3.71875 Z M 1.890625 -0.109375 C 1.390625 -0.109375 1 -0.46875 1 -1.1875 C 1 -1.484375 1.109375 -2.296875 1.46875 -2.890625 C 1.890625 -3.578125 2.484375 -3.71875 2.828125 -3.71875 C 3.65625 -3.71875 3.734375 -3.0625 3.734375 -2.75 C 3.734375 -2.28125 3.53125 -1.46875 3.203125 -0.953125 C 2.8125 -0.375 2.265625 -0.109375 1.890625 -0.109375 Z M 1.890625 -0.109375 "
           id="path7332" />
      </symbol>
      <symbol
         overflow="visible"
         id="symbol8768">
        <path
           style="stroke:none;"
           d=""
           id="path7815" />
      </symbol>
      <symbol
         overflow="visible"
         id="symbol7784">
        <path
           style="stroke:none;"
           d="M 2.953125 -1.125 C 2.90625 -0.984375 2.84375 -0.71875 2.84375 -0.71875 C 2.703125 -0.5 2.421875 -0.125 2 -0.125 C 1.515625 -0.125 1.515625 -0.578125 1.515625 -0.703125 C 1.515625 -1.109375 1.703125 -1.609375 1.90625 -2.125 C 1.953125 -2.265625 2 -2.359375 2 -2.46875 C 2 -2.84375 1.6875 -3.078125 1.34375 -3.078125 C 0.640625 -3.078125 0.328125 -2.125 0.328125 -2 C 0.328125 -1.921875 0.421875 -1.921875 0.453125 -1.921875 C 0.546875 -1.921875 0.546875 -1.953125 0.578125 -2.03125 C 0.734375 -2.59375 1.046875 -2.875 1.3125 -2.875 C 1.4375 -2.875 1.484375 -2.796875 1.484375 -2.640625 C 1.484375 -2.46875 1.4375 -2.328125 1.359375 -2.171875 C 0.984375 -1.203125 0.984375 -1 0.984375 -0.8125 C 0.984375 -0.703125 0.984375 -0.375 1.25 -0.15625 C 1.453125 0.015625 1.71875 0.0625 1.96875 0.0625 C 2.40625 0.0625 2.640625 -0.171875 2.875 -0.390625 C 3.03125 0.0625 3.484375 0.0625 3.578125 0.0625 C 3.8125 0.0625 4 -0.0625 4.125 -0.296875 C 4.28125 -0.578125 4.375 -0.96875 4.375 -1 C 4.375 -1.09375 4.28125 -1.09375 4.265625 -1.09375 C 4.15625 -1.09375 4.15625 -1.0625 4.109375 -0.875 C 4.015625 -0.546875 3.890625 -0.125 3.59375 -0.125 C 3.421875 -0.125 3.359375 -0.28125 3.359375 -0.46875 C 3.359375 -0.578125 3.421875 -0.84375 3.46875 -1.015625 C 3.515625 -1.203125 3.59375 -1.484375 3.625 -1.640625 L 3.78125 -2.265625 C 3.828125 -2.4375 3.90625 -2.75 3.90625 -2.78125 C 3.90625 -2.921875 3.796875 -3 3.671875 -3 C 3.421875 -3 3.359375 -2.796875 3.3125 -2.578125 Z M 2.953125 -1.125 "
           id="path3768" />
      </symbol>
    </g>
  </defs>
  <sodipodi:namedview
     id="base"
     pagecolor="#ffffff"
     bordercolor="#666666"
     borderopacity="1.0"
     inkscape:pageopacity="0.0"
     inkscape:pageshadow="2"
     inkscape:zoom="1.16"
     inkscape:cx="350.45705"
     inkscape:cy="372.15104"
     inkscape:document-units="mm"
     inkscape:current-layer="layer1"
     inkscape:document-rotation="0"
     showgrid="false"
     inkscape:window-width="1853"
     inkscape:window-height="1018"
     inkscape:window-x="67"
     inkscape:window-y="34"
     inkscape:window-maximized="1" />
  <metadata
     id="metadata5">
    <rdf:RDF>
      <cc:Work
         rdf:about="">
        <dc:format>image/svg+xml</dc:format>
        <dc:type
           rdf:resource="http://purl.org/dc/dcmitype/StillImage" />
        <dc:title />
      </cc:Work>
    </rdf:RDF>
  </metadata>
  <g
     inkscape:label="Layer 1"
     inkscape:groupmode="layer"
     id="layer1">
    <rect
       style="opacity:0.04;stroke:#000000;stroke-width:0;stroke-miterlimit:4;stroke-dasharray:none;stroke-opacity:1"
       id="rect1213"
       width="34.081921"
       height="68.298477"
       x="124.31701"
       y="76.843468" />
    <ellipse
       style="fill:#0000ff;stroke:#00fef2;stroke-width:0;stroke-miterlimit:4;stroke-dasharray:none"
       id="path833"
       cx="40.324188"
       cy="102.59195"
       rx="6.385201"
       ry="6.1830096" />
    <ellipse
       style="fill:#800080;stroke:#00fef2;stroke-width:0;stroke-miterlimit:4;stroke-dasharray:none"
       id="path835"
       cx="137.75761"
       cy="98.755882"
       rx="5.2300668"
       ry="5.0393791" />
    <ellipse
       style="fill:#ffcc00;stroke:#00fef2;stroke-width:0;stroke-miterlimit:4;stroke-dasharray:none"
       id="path837"
       cx="138.13741"
       cy="120.00838"
       rx="4.3881526"
       ry="4.3740392" />
    <ellipse
       ry="4.3740392"
       rx="4.3881526"
       cy="136.57051"
       cx="138.7151"
       id="path837-3"
       style="fill:#ffcc00;stroke:#00fef2;stroke-width:0;stroke-miterlimit:4;stroke-dasharray:none" />
    <path
       style="fill:none;stroke:#000000;stroke-width:0.7;stroke-linecap:butt;stroke-linejoin:miter;stroke-miterlimit:4;stroke-dasharray:none;stroke-opacity:1;marker-start:url(#marker1219)"
       d="M 33.460189,102.58247 C 5.2547317,87.418144 5.211395,87.372516 5.211395,87.372516"
       id="path1215" />
    <path
       style="fill:none;stroke:#000000;stroke-width:0.7;stroke-linecap:butt;stroke-linejoin:miter;stroke-miterlimit:4;stroke-dasharray:none;stroke-opacity:1;marker-start:url(#marker1263)"
       d="M 33.460189,102.58247 C 5.4998887,121.66642 5.5410477,121.90663 5.5410477,121.90663"
       id="path1259" />
    <path
       id="path1215-6"
       d="M 74.610967,117.08777 C 46.405505,101.92345 46.362168,101.87782 46.362168,101.87782"
       style="fill:none;stroke:#000000;stroke-width:0.7;stroke-linecap:butt;stroke-linejoin:miter;stroke-miterlimit:4;stroke-dasharray:none;stroke-opacity:1;marker-start:url(#marker1219-7)" />
    <path
       id="path1259-2"
       d="M 74.281314,82.553671 C 46.321009,101.63761 46.362168,101.87782 46.362168,101.87782"
       style="fill:none;stroke:#000000;stroke-width:0.7;stroke-linecap:butt;stroke-linejoin:miter;stroke-miterlimit:4;stroke-dasharray:none;stroke-opacity:1;marker-start:url(#marker1263-3)" />
    <path
       style="fill:none;stroke:#000000;stroke-width:0.619;stroke-linecap:butt;stroke-linejoin:miter;stroke-miterlimit:4;stroke-dasharray:none;stroke-opacity:1;marker-start:url(#marker1219-7-9)"
       d="M 171.8806,113.05233 C 143.67514,97.888004 143.63181,97.842374 143.63181,97.842374"
       id="path1215-6-0" />
    <path
       style="fill:none;stroke:#000000;stroke-width:0.619;stroke-linecap:butt;stroke-linejoin:miter;stroke-miterlimit:4;stroke-dasharray:none;stroke-opacity:1;marker-start:url(#marker1263-3-2)"
       d="m 171.55095,78.518234 c -27.9603,19.08393 -27.91914,19.32414 -27.91914,19.32414"
       id="path1259-2-9" />
    <path
       id="path1215-2"
       d="M 131.78952,98.56535 C 103.58406,83.40103 103.54072,83.35541 103.54072,83.35541"
       style="fill:none;stroke:#000000;stroke-width:0.7;stroke-linecap:butt;stroke-linejoin:miter;stroke-miterlimit:4;stroke-dasharray:none;stroke-opacity:1;marker-start:url(#marker1219-3)" />
    <path
       id="path1259-6"
       d="m 131.78952,98.56535 c -27.9603,19.08394 -27.91914,19.32415 -27.91914,19.32415"
       style="fill:none;stroke:#000000;stroke-width:0.7;stroke-linecap:butt;stroke-linejoin:miter;stroke-opacity:1;marker-start:url(#marker1263-0);stroke-miterlimit:4;stroke-dasharray:none" />
    <g
       id="g2498"
       transform="translate(-54.848823,9.7009733)"
       inkscape:label="">
      <g
         id="g1072">
        <g
           style="fill:#000000;fill-opacity:1"
           id="g6082">
          <use
             xlink:href="#symbol652"
             x="91.925003"
             y="81.962997"
             id="use5297"
             width="100%"
             height="100%" />
        </g>
        <path
           style="fill:none;stroke:#000000;stroke-width:0.398;stroke-linecap:butt;stroke-linejoin:miter;stroke-miterlimit:10;stroke-opacity:1"
           d="M 7.8125e-4,0.00153125 H 7.8875"
           transform="matrix(1,0,0,-1,91.925,83.357)"
           id="path9385" />
      </g>
    </g>
    <g
       id="g2573"
       transform="translate(43.019294,6.6057121)"
       inkscape:label="">
      <g
         id="g4967">
        <g
           style="fill:#000000;fill-opacity:1"
           id="g5298">
          <use
             xlink:href="#symbol4995"
             x="91.925003"
             y="81.962997"
             id="use5994"
             width="100%"
             height="100%" />
        </g>
        <path
           style="fill:none;stroke:#000000;stroke-width:0.398;stroke-linecap:butt;stroke-linejoin:miter;stroke-miterlimit:10;stroke-opacity:1"
           d="M 7.8125e-4,0.00153125 H 5.703906"
           transform="matrix(1,0,0,-1,91.925,83.357)"
           id="path3797" />
      </g>
    </g>
    <g
       id="g3281"
       transform="translate(53.568804,39.94027)"
       inkscape:label="">
      <g
         id="g3599">
        <g
           style="fill:#000000;fill-opacity:1"
           id="g5458">
          <use
             xlink:href="#symbol2869"
             x="91.925003"
             y="81.962997"
             id="use5674"
             width="100%"
             height="100%" />
        </g>
        <g
           style="fill:#000000;fill-opacity:1"
           id="g8516">
          <use
             xlink:href="#symbol3129"
             x="97.928001"
             y="83.457001"
             id="use8106"
             width="100%"
             height="100%" />
        </g>
        <path
           style="fill:none;stroke:#000000;stroke-width:0.398;stroke-linecap:butt;stroke-linejoin:miter;stroke-miterlimit:10;stroke-opacity:1"
           d="M 7.8125e-4,-0.001875 H 11.211719"
           transform="matrix(1,0,0,-1,91.925,85.295)"
           id="path2415" />
      </g>
    </g>
    <g
       id="g3456"
       transform="translate(53.267832,56.166077)"
       inkscape:label="">
      <g
         id="g2400">
        <g
           style="fill:#000000;fill-opacity:1"
           id="g5162">
          <use
             xlink:href="#symbol5360"
             x="91.925003"
             y="81.962997"
             id="use4804"
             width="100%"
             height="100%" />
        </g>
        <g
           style="fill:#000000;fill-opacity:1"
           id="g9073">
          <use
             xlink:href="#symbol7784"
             x="97.617996"
             y="83.457001"
             id="use9975"
             width="100%"
             height="100%" />
        </g>
        <path
           style="fill:none;stroke:#000000;stroke-width:0.398;stroke-linecap:butt;stroke-linejoin:miter;stroke-miterlimit:10;stroke-opacity:1"
           d="M 7.8125e-4,4.375e-4 H 10.899219"
           transform="matrix(1,0,0,-1,91.925,84.852)"
           id="path2566" />
      </g>
    </g>
    <text
       xml:space="preserve"
       style="font-size:12.7px;line-height:1.25;font-family:sans-serif;stroke-width:0.264583;-inkscape-font-specification:'sans-serif, Normal';font-weight:normal;font-style:normal;font-stretch:normal;font-variant:normal;font-variant-ligatures:normal;font-variant-caps:normal;font-variant-numeric:normal;font-variant-east-asian:normal;"
       x="84.202492"
       y="102.5584"
       id="text3526"><tspan
         sodipodi:role="line"
         id="tspan3524"
         x="84.202492"
         y="102.5584"
         style="stroke-width:0.264583;-inkscape-font-specification:'sans-serif, Normal';font-family:sans-serif;font-weight:normal;font-style:normal;font-stretch:normal;font-variant:normal;font-size:12.7px;font-variant-ligatures:normal;font-variant-caps:normal;font-variant-numeric:normal;font-variant-east-asian:normal;">=</tspan></text>
  </g>
</svg>
