<?xml version="1.0" encoding="UTF-8" standalone="no"?>
<svg
   xmlns:dc="http://purl.org/dc/elements/1.1/"
   xmlns:cc="http://creativecommons.org/ns#"
   xmlns:rdf="http://www.w3.org/1999/02/22-rdf-syntax-ns#"
   xmlns:svg="http://www.w3.org/2000/svg"
   xmlns="http://www.w3.org/2000/svg"
   xmlns:xlink="http://www.w3.org/1999/xlink"
   xmlns:sodipodi="http://sodipodi.sourceforge.net/DTD/sodipodi-0.dtd"
   xmlns:inkscape="http://www.inkscape.org/namespaces/inkscape"
   width="210mm"
   height="297mm"
   viewBox="0 0 210 297"
   version="1.1"
   id="svg8"
   sodipodi:docname="svm-why.svg"
   inkscape:version="1.0.2 (1.0.2+r75+1)"
   inkscape:export-filename="/home/rrtucci/latex_docs/Bayesuvius/svm/svm-why.png"
   inkscape:export-xdpi="96"
   inkscape:export-ydpi="96">
  <defs
     id="defs2">
    <marker
       style="overflow:visible"
       id="marker1828"
       refX="0.0"
       refY="0.0"
       orient="auto"
       inkscape:stockid="Arrow1Lstart"
       inkscape:isstock="true">
      <path
         transform="scale(0.8) translate(12.5,0)"
         style="fill-rule:evenodd;stroke:#000000;stroke-width:1pt;stroke-opacity:1;fill:#000000;fill-opacity:1"
         d="M 0.0,0.0 L 5.0,-5.0 L -12.5,0.0 L 5.0,5.0 L 0.0,0.0 z "
         id="path1826" />
    </marker>
    <inkscape:path-effect
       effect="bspline"
       id="path-effect1818"
       is_visible="true"
       lpeversion="1"
       weight="33.333333"
       steps="2"
       helper_size="0"
       apply_no_weight="true"
       apply_with_weight="true"
       only_selected="false" />
    <inkscape:path-effect
       effect="bspline"
       id="path-effect1810"
       is_visible="true"
       lpeversion="1"
       weight="33.333333"
       steps="2"
       helper_size="0"
       apply_no_weight="true"
       apply_with_weight="true"
       only_selected="false" />
    <marker
       style="overflow:visible"
       id="Arrow1Lstart"
       refX="0.0"
       refY="0.0"
       orient="auto"
       inkscape:stockid="Arrow1Lstart"
       inkscape:isstock="true"
       inkscape:collect="always">
      <path
         transform="scale(0.8) translate(12.5,0)"
         style="fill-rule:evenodd;stroke:#000000;stroke-width:1pt;stroke-opacity:1;fill:#000000;fill-opacity:1"
         d="M 0.0,0.0 L 5.0,-5.0 L -12.5,0.0 L 5.0,5.0 L 0.0,0.0 z "
         id="path1261" />
    </marker>
    <inkscape:path-effect
       effect="bspline"
       id="path-effect1259"
       is_visible="true"
       lpeversion="1"
       weight="33.333333"
       steps="2"
       helper_size="0"
       apply_no_weight="true"
       apply_with_weight="true"
       only_selected="false" />
    <inkscape:path-effect
       effect="bspline"
       id="path-effect835"
       is_visible="true"
       lpeversion="1"
       weight="33.333333"
       steps="2"
       helper_size="0"
       apply_no_weight="true"
       apply_with_weight="true"
       only_selected="false" />
    <g
       id="g1541">
      <symbol
         overflow="visible"
         id="symbol2043">
        <path
           style="stroke:none;"
           d=""
           id="path5560" />
      </symbol>
      <symbol
         overflow="visible"
         id="symbol8676">
        <path
           style="stroke:none;"
           d="M 3.328125 -3.015625 C 3.390625 -3.265625 3.625 -4.1875 4.3125 -4.1875 C 4.359375 -4.1875 4.609375 -4.1875 4.8125 -4.0625 C 4.53125 -4 4.34375 -3.765625 4.34375 -3.515625 C 4.34375 -3.359375 4.453125 -3.171875 4.71875 -3.171875 C 4.9375 -3.171875 5.25 -3.34375 5.25 -3.75 C 5.25 -4.265625 4.671875 -4.40625 4.328125 -4.40625 C 3.75 -4.40625 3.40625 -3.875 3.28125 -3.65625 C 3.03125 -4.3125 2.5 -4.40625 2.203125 -4.40625 C 1.171875 -4.40625 0.59375 -3.125 0.59375 -2.875 C 0.59375 -2.765625 0.703125 -2.765625 0.71875 -2.765625 C 0.796875 -2.765625 0.828125 -2.796875 0.84375 -2.875 C 1.1875 -3.9375 1.84375 -4.1875 2.1875 -4.1875 C 2.375 -4.1875 2.71875 -4.09375 2.71875 -3.515625 C 2.71875 -3.203125 2.546875 -2.546875 2.1875 -1.140625 C 2.03125 -0.53125 1.671875 -0.109375 1.234375 -0.109375 C 1.171875 -0.109375 0.953125 -0.109375 0.734375 -0.234375 C 0.984375 -0.296875 1.203125 -0.5 1.203125 -0.78125 C 1.203125 -1.046875 0.984375 -1.125 0.84375 -1.125 C 0.53125 -1.125 0.296875 -0.875 0.296875 -0.546875 C 0.296875 -0.09375 0.78125 0.109375 1.21875 0.109375 C 1.890625 0.109375 2.25 -0.59375 2.265625 -0.640625 C 2.390625 -0.28125 2.75 0.109375 3.34375 0.109375 C 4.375 0.109375 4.9375 -1.171875 4.9375 -1.421875 C 4.9375 -1.53125 4.859375 -1.53125 4.828125 -1.53125 C 4.734375 -1.53125 4.71875 -1.484375 4.6875 -1.421875 C 4.359375 -0.34375 3.6875 -0.109375 3.375 -0.109375 C 2.984375 -0.109375 2.828125 -0.421875 2.828125 -0.765625 C 2.828125 -0.984375 2.875 -1.203125 2.984375 -1.640625 Z M 3.328125 -3.015625 "
           id="path8907" />
      </symbol>
      <symbol
         overflow="visible"
         id="symbol4836">
        <path
           style="stroke:none;"
           d=""
           id="path2486" />
      </symbol>
      <symbol
         overflow="visible"
         id="symbol2391">
        <path
           style="stroke:none;"
           d="M 4.078125 -2.53125 C 4.1875 -2.53125 4.265625 -2.53125 4.328125 -2.578125 C 4.421875 -2.65625 4.453125 -2.765625 4.453125 -2.8125 C 4.453125 -3 4.265625 -3 4.140625 -3 L 2.359375 -3 C 1.25 -3 0.40625 -1.90625 0.40625 -1.0625 C 0.40625 -0.421875 0.890625 0.0625 1.609375 0.0625 C 2.484375 0.0625 3.484375 -0.71875 3.484375 -1.796875 C 3.484375 -1.90625 3.484375 -2.21875 3.28125 -2.53125 Z M 1.609375 -0.125 C 1.234375 -0.125 0.921875 -0.375 0.921875 -0.875 C 0.921875 -1.078125 1.046875 -2.53125 2.25 -2.53125 C 2.59375 -2.53125 2.96875 -2.390625 2.96875 -1.875 C 2.96875 -1.734375 2.90625 -1.109375 2.5625 -0.640625 C 2.265625 -0.265625 1.875 -0.125 1.609375 -0.125 Z M 1.609375 -0.125 "
           id="path4841" />
      </symbol>
      <symbol
         overflow="visible"
         id="symbol7807">
        <path
           style="stroke:none;"
           d=""
           id="path7442" />
      </symbol>
      <symbol
         overflow="visible"
         id="symbol1249">
        <path
           style="stroke:none;"
           d="M 3 -1.59375 C 3 -1.953125 3 -3.3125 1.6875 -3.3125 C 0.390625 -3.3125 0.390625 -1.953125 0.390625 -1.59375 C 0.390625 -1.234375 0.390625 0.109375 1.6875 0.109375 C 3 0.109375 3 -1.234375 3 -1.59375 Z M 1.6875 -0.0625 C 1.515625 -0.0625 1.09375 -0.125 0.96875 -0.625 C 0.890625 -0.890625 0.890625 -1.25 0.890625 -1.65625 C 0.890625 -2.03125 0.890625 -2.375 0.96875 -2.65625 C 1.09375 -3.078125 1.484375 -3.15625 1.6875 -3.15625 C 2.0625 -3.15625 2.328125 -2.96875 2.421875 -2.609375 C 2.5 -2.359375 2.5 -1.953125 2.5 -1.65625 C 2.5 -1.3125 2.5 -0.90625 2.421875 -0.609375 C 2.296875 -0.125 1.890625 -0.0625 1.6875 -0.0625 Z M 1.6875 -0.0625 "
           id="path4812" />
      </symbol>
    </g>
    <g
       id="g2610">
      <symbol
         overflow="visible"
         id="symbol7525">
        <path
           style="stroke:none;"
           d=""
           id="path1070" />
      </symbol>
      <symbol
         overflow="visible"
         id="symbol1891">
        <path
           style="stroke:none;"
           d="M 3.296875 2.390625 C 3.296875 2.359375 3.296875 2.34375 3.125 2.171875 C 1.890625 0.921875 1.5625 -0.96875 1.5625 -2.5 C 1.5625 -4.234375 1.9375 -5.96875 3.171875 -7.203125 C 3.296875 -7.328125 3.296875 -7.34375 3.296875 -7.375 C 3.296875 -7.453125 3.265625 -7.484375 3.203125 -7.484375 C 3.09375 -7.484375 2.203125 -6.796875 1.609375 -5.53125 C 1.109375 -4.4375 0.984375 -3.328125 0.984375 -2.5 C 0.984375 -1.71875 1.09375 -0.515625 1.640625 0.625 C 2.25 1.84375 3.09375 2.5 3.203125 2.5 C 3.265625 2.5 3.296875 2.46875 3.296875 2.390625 Z M 3.296875 2.390625 "
           id="path5073" />
      </symbol>
      <symbol
         overflow="visible"
         id="symbol7376">
        <path
           style="stroke:none;"
           d="M 2.875 -2.5 C 2.875 -3.265625 2.765625 -4.46875 2.21875 -5.609375 C 1.625 -6.828125 0.765625 -7.484375 0.671875 -7.484375 C 0.609375 -7.484375 0.5625 -7.4375 0.5625 -7.375 C 0.5625 -7.34375 0.5625 -7.328125 0.75 -7.140625 C 1.734375 -6.15625 2.296875 -4.578125 2.296875 -2.5 C 2.296875 -0.78125 1.9375 0.96875 0.703125 2.21875 C 0.5625 2.34375 0.5625 2.359375 0.5625 2.390625 C 0.5625 2.453125 0.609375 2.5 0.671875 2.5 C 0.765625 2.5 1.671875 1.8125 2.25 0.546875 C 2.765625 -0.546875 2.875 -1.65625 2.875 -2.5 Z M 2.875 -2.5 "
           id="path7376" />
      </symbol>
      <symbol
         overflow="visible"
         id="symbol1246">
        <path
           style="stroke:none;"
           d=""
           id="path1586" />
      </symbol>
      <symbol
         overflow="visible"
         id="symbol8219">
        <path
           style="stroke:none;"
           d="M 3.328125 -3.015625 C 3.390625 -3.265625 3.625 -4.1875 4.3125 -4.1875 C 4.359375 -4.1875 4.609375 -4.1875 4.8125 -4.0625 C 4.53125 -4 4.34375 -3.765625 4.34375 -3.515625 C 4.34375 -3.359375 4.453125 -3.171875 4.71875 -3.171875 C 4.9375 -3.171875 5.25 -3.34375 5.25 -3.75 C 5.25 -4.265625 4.671875 -4.40625 4.328125 -4.40625 C 3.75 -4.40625 3.40625 -3.875 3.28125 -3.65625 C 3.03125 -4.3125 2.5 -4.40625 2.203125 -4.40625 C 1.171875 -4.40625 0.59375 -3.125 0.59375 -2.875 C 0.59375 -2.765625 0.703125 -2.765625 0.71875 -2.765625 C 0.796875 -2.765625 0.828125 -2.796875 0.84375 -2.875 C 1.1875 -3.9375 1.84375 -4.1875 2.1875 -4.1875 C 2.375 -4.1875 2.71875 -4.09375 2.71875 -3.515625 C 2.71875 -3.203125 2.546875 -2.546875 2.1875 -1.140625 C 2.03125 -0.53125 1.671875 -0.109375 1.234375 -0.109375 C 1.171875 -0.109375 0.953125 -0.109375 0.734375 -0.234375 C 0.984375 -0.296875 1.203125 -0.5 1.203125 -0.78125 C 1.203125 -1.046875 0.984375 -1.125 0.84375 -1.125 C 0.53125 -1.125 0.296875 -0.875 0.296875 -0.546875 C 0.296875 -0.09375 0.78125 0.109375 1.21875 0.109375 C 1.890625 0.109375 2.25 -0.59375 2.265625 -0.640625 C 2.390625 -0.28125 2.75 0.109375 3.34375 0.109375 C 4.375 0.109375 4.9375 -1.171875 4.9375 -1.421875 C 4.9375 -1.53125 4.859375 -1.53125 4.828125 -1.53125 C 4.734375 -1.53125 4.71875 -1.484375 4.6875 -1.421875 C 4.359375 -0.34375 3.6875 -0.109375 3.375 -0.109375 C 2.984375 -0.109375 2.828125 -0.421875 2.828125 -0.765625 C 2.828125 -0.984375 2.875 -1.203125 2.984375 -1.640625 Z M 3.328125 -3.015625 "
           id="path600" />
      </symbol>
      <symbol
         overflow="visible"
         id="symbol3859">
        <path
           style="stroke:none;"
           d=""
           id="path5469" />
      </symbol>
      <symbol
         overflow="visible"
         id="symbol2544">
        <path
           style="stroke:none;"
           d="M 4.078125 -2.53125 C 4.1875 -2.53125 4.265625 -2.53125 4.328125 -2.578125 C 4.421875 -2.65625 4.453125 -2.765625 4.453125 -2.8125 C 4.453125 -3 4.265625 -3 4.140625 -3 L 2.359375 -3 C 1.25 -3 0.40625 -1.90625 0.40625 -1.0625 C 0.40625 -0.421875 0.890625 0.0625 1.609375 0.0625 C 2.484375 0.0625 3.484375 -0.71875 3.484375 -1.796875 C 3.484375 -1.90625 3.484375 -2.21875 3.28125 -2.53125 Z M 1.609375 -0.125 C 1.234375 -0.125 0.921875 -0.375 0.921875 -0.875 C 0.921875 -1.078125 1.046875 -2.53125 2.25 -2.53125 C 2.59375 -2.53125 2.96875 -2.390625 2.96875 -1.875 C 2.96875 -1.734375 2.90625 -1.109375 2.5625 -0.640625 C 2.265625 -0.265625 1.875 -0.125 1.609375 -0.125 Z M 1.609375 -0.125 "
           id="path1378" />
      </symbol>
      <symbol
         overflow="visible"
         id="symbol5332">
        <path
           style="stroke:none;"
           d=""
           id="path5296" />
      </symbol>
      <symbol
         overflow="visible"
         id="symbol2319">
        <path
           style="stroke:none;"
           d="M 3 -1.59375 C 3 -1.953125 3 -3.3125 1.6875 -3.3125 C 0.390625 -3.3125 0.390625 -1.953125 0.390625 -1.59375 C 0.390625 -1.234375 0.390625 0.109375 1.6875 0.109375 C 3 0.109375 3 -1.234375 3 -1.59375 Z M 1.6875 -0.0625 C 1.515625 -0.0625 1.09375 -0.125 0.96875 -0.625 C 0.890625 -0.890625 0.890625 -1.25 0.890625 -1.65625 C 0.890625 -2.03125 0.890625 -2.375 0.96875 -2.65625 C 1.09375 -3.078125 1.484375 -3.15625 1.6875 -3.15625 C 2.0625 -3.15625 2.328125 -2.96875 2.421875 -2.609375 C 2.5 -2.359375 2.5 -1.953125 2.5 -1.65625 C 2.5 -1.3125 2.5 -0.90625 2.421875 -0.609375 C 2.296875 -0.125 1.890625 -0.0625 1.6875 -0.0625 Z M 1.6875 -0.0625 "
           id="path7444" />
      </symbol>
    </g>
  </defs>
  <sodipodi:namedview
     id="base"
     pagecolor="#ffffff"
     bordercolor="#666666"
     borderopacity="1.0"
     inkscape:pageopacity="0.0"
     inkscape:pageshadow="2"
     inkscape:zoom="0.96"
     inkscape:cx="381.51922"
     inkscape:cy="727.03747"
     inkscape:document-units="mm"
     inkscape:current-layer="layer1"
     inkscape:document-rotation="0"
     showgrid="false"
     inkscape:window-width="1694"
     inkscape:window-height="754"
     inkscape:window-x="117"
     inkscape:window-y="120"
     inkscape:window-maximized="0" />
  <metadata
     id="metadata5">
    <rdf:RDF>
      <cc:Work
         rdf:about="">
        <dc:format>image/svg+xml</dc:format>
        <dc:type
           rdf:resource="http://purl.org/dc/dcmitype/StillImage" />
        <dc:title></dc:title>
      </cc:Work>
    </rdf:RDF>
  </metadata>
  <g
     inkscape:label="Layer 1"
     inkscape:groupmode="layer"
     id="layer1">
    <ellipse
       style="fill:#fffcce;fill-opacity:1;fill-rule:evenodd;stroke:#060000;stroke-width:0.264583;stroke-opacity:1"
       id="path1255"
       cx="123.06784"
       cy="172.3035"
       rx="9.6244326"
       ry="7.9454026" />
    <path
       style="fill:none;stroke:#000000;stroke-width:0.346796px;stroke-linecap:butt;stroke-linejoin:miter;stroke-opacity:1"
       d="m 49.651921,190.91686 c 4.616218,-9.10266 9.198032,-18.13749 17.682867,-23.29802 8.484834,-5.16054 20.85455,-6.41273 31.691155,-10.54965 10.836607,-4.13691 20.139747,-11.15815 26.492527,-18.60651 6.35279,-7.44837 9.7729,-15.3648 13.1842,-23.26086"
       id="path833"
       inkscape:path-effect="#path-effect835"
       inkscape:original-d="m 49.651921,190.91686 c 4.637599,-9.09182 9.198501,-18.13725 13.797068,-27.20627 12.370663,-1.25199 24.74038,-2.50418 37.109881,-3.75666 9.30397,-7.02126 18.60711,-14.0425 27.90998,-21.06415 3.4118,-7.87141 6.82299,-15.7917 10.23382,-23.68796" />
    <ellipse
       style="fill:#ff0000;fill-rule:evenodd;stroke-width:0.198198"
       id="path837"
       cx="61.902237"
       cy="144.73842"
       rx="1.5877036"
       ry="1.5980552" />
    <ellipse
       style="fill:#ff0000;fill-rule:evenodd;stroke-width:0.198198"
       id="path837-8"
       cx="96.187912"
       cy="136.32492"
       rx="1.5877036"
       ry="1.5980552" />
    <ellipse
       style="fill:#ff0000;fill-rule:evenodd;stroke-width:0.198198"
       id="path837-8-9"
       cx="74.590286"
       cy="152.44777"
       rx="1.5877036"
       ry="1.5980552" />
    <ellipse
       style="fill:#ff0000;fill-rule:evenodd;stroke-width:0.198198"
       id="path837-8-9-0"
       cx="67.286278"
       cy="157.38147"
       rx="1.5877036"
       ry="1.5980552" />
    <ellipse
       style="fill:#0000ff;fill-rule:evenodd;stroke-width:0.198198"
       id="path837-8-9-6"
       cx="84.70726"
       cy="156.73129"
       rx="1.5877036"
       ry="1.5980552" />
    <ellipse
       style="fill:#ff0000;fill-rule:evenodd;stroke-width:0.198198"
       id="path837-87"
       cx="71.547302"
       cy="133.79027"
       rx="1.5877036"
       ry="1.5980552" />
    <ellipse
       style="fill:#ff0000;fill-rule:evenodd;stroke-width:0.198198"
       id="path837-8-90"
       cx="105.83301"
       cy="125.37672"
       rx="1.5877036"
       ry="1.5980552" />
    <ellipse
       style="fill:#ff0000;fill-rule:evenodd;stroke-width:0.198198"
       id="path837-8-9-3"
       cx="84.235367"
       cy="141.49962"
       rx="1.5877036"
       ry="1.5980552" />
    <ellipse
       style="fill:#ff0000;fill-rule:evenodd;stroke-width:0.198198"
       id="path837-8-9-0-3"
       cx="76.931343"
       cy="146.43332"
       rx="1.5877036"
       ry="1.5980552" />
    <ellipse
       style="fill:#ff0000;fill-rule:evenodd;stroke-width:0.198198"
       id="path837-8-9-6-3"
       cx="94.352371"
       cy="145.78316"
       rx="1.5877036"
       ry="1.5980552" />
    <ellipse
       style="fill:#ff0000;fill-rule:evenodd;stroke-width:0.198198"
       id="path837-87-7"
       cx="164.60959"
       cy="63.422737"
       rx="1.5877036"
       ry="1.5980552"
       transform="matrix(0,1,1,0,0,0)" />
    <ellipse
       style="fill:#ff0000;fill-rule:evenodd;stroke-width:0.198198"
       id="path837-8-90-3"
       cx="130.3239"
       cy="71.836281"
       rx="1.5877036"
       ry="1.5980552"
       transform="matrix(0,1,1,0,0,0)" />
    <ellipse
       style="fill:#ff0000;fill-rule:evenodd;stroke-width:0.198198"
       id="path837-8-9-3-2"
       cx="151.92152"
       cy="55.713387"
       rx="1.5877036"
       ry="1.5980552"
       transform="matrix(0,1,1,0,0,0)" />
    <ellipse
       style="fill:#ff0000;fill-rule:evenodd;stroke-width:0.198198"
       id="path837-8-9-0-3-6"
       cx="159.22556"
       cy="50.779686"
       rx="1.5877036"
       ry="1.5980552"
       transform="matrix(0,1,1,0,0,0)" />
    <ellipse
       style="fill:#ff0000;fill-rule:evenodd;stroke-width:0.198198"
       id="path837-8-9-6-3-5"
       cx="141.80452"
       cy="51.429848"
       rx="1.5877036"
       ry="1.5980552"
       transform="matrix(0,1,1,0,0,0)" />
    <ellipse
       style="fill:#ff0000;fill-rule:evenodd;stroke-width:0.198198"
       id="path837-8-90-7"
       cx="111.69381"
       cy="135.93851"
       rx="1.5877036"
       ry="1.5980552" />
    <ellipse
       style="fill:#ff0000;fill-rule:evenodd;stroke-width:0.198198"
       id="path837-8-90-7-4"
       cx="128.16542"
       cy="125.47327"
       rx="1.5877036"
       ry="1.5980552" />
    <ellipse
       style="fill:#ff0000;fill-rule:evenodd;stroke-width:0.198198"
       id="path837-8-90-7-4-8"
       cx="51.559258"
       cy="175.20898"
       rx="1.5877036"
       ry="1.5980552" />
    <ellipse
       style="fill:#0000ff;fill-rule:evenodd;stroke-width:0.198198"
       id="path837-5"
       cx="-110.34248"
       cy="-182.98021"
       rx="1.5877036"
       ry="1.5980552"
       transform="rotate(172.31829)" />
    <ellipse
       style="fill:#0000ff;fill-rule:evenodd;stroke-width:0.198198"
       id="path837-8-8"
       cx="-76.056801"
       cy="-191.39372"
       rx="1.5877036"
       ry="1.5980552"
       transform="rotate(172.31829)" />
    <ellipse
       style="fill:#0000ff;fill-rule:evenodd;stroke-width:0.198198"
       id="path837-8-9-2"
       cx="-97.654427"
       cy="-175.27087"
       rx="1.5877036"
       ry="1.5980552"
       transform="rotate(172.31829)" />
    <ellipse
       style="fill:#0000ff;fill-rule:evenodd;stroke-width:0.198198"
       id="path837-8-9-0-6"
       cx="-104.95843"
       cy="-170.33717"
       rx="1.5877036"
       ry="1.5980552"
       transform="rotate(172.31829)" />
    <ellipse
       style="fill:#0000ff;fill-rule:evenodd;stroke-width:0.198198"
       id="path837-8-9-6-0"
       cx="-87.537453"
       cy="-170.98735"
       rx="1.5877036"
       ry="1.5980552"
       transform="rotate(172.31829)" />
    <ellipse
       style="fill:#0000ff;fill-rule:evenodd;stroke-width:0.198198"
       id="path837-87-6"
       cx="-100.20502"
       cy="-185.77638"
       rx="1.5877036"
       ry="1.5980552"
       transform="rotate(172.31829)" />
    <ellipse
       style="fill:#ff0000;fill-rule:evenodd;stroke-width:0.198198"
       id="path837-8-90-6"
       cx="-63.938667"
       cy="-175.47987"
       rx="1.5877036"
       ry="1.5980552"
       transform="rotate(172.31829)" />
    <ellipse
       style="fill:#0000ff;fill-rule:evenodd;stroke-width:0.198198"
       id="path837-8-9-3-4"
       cx="-94.438522"
       cy="-186.61478"
       rx="1.5877036"
       ry="1.5980552"
       transform="rotate(172.31829)" />
    <ellipse
       style="fill:#0000ff;fill-rule:evenodd;stroke-width:0.198198"
       id="path837-8-9-0-3-62"
       cx="-95.313362"
       cy="-181.28532"
       rx="1.5877036"
       ry="1.5980552"
       transform="rotate(172.31829)" />
    <ellipse
       style="fill:#0000ff;fill-rule:evenodd;stroke-width:0.198198"
       id="path837-8-9-6-3-8"
       cx="-67.086411"
       cy="-182.54614"
       rx="1.5877036"
       ry="1.5980552"
       transform="rotate(172.31829)" />
    <ellipse
       style="fill:#0000ff;fill-rule:evenodd;stroke-width:0.198198"
       id="path837-87-7-6"
       cx="-163.10904"
       cy="-108.82195"
       rx="1.5877036"
       ry="1.5980552"
       transform="matrix(-0.13366987,-0.99102592,-0.99102592,0.13366987,0,0)" />
    <ellipse
       style="fill:#0000ff;fill-rule:evenodd;stroke-width:0.198198"
       id="path837-8-90-3-0"
       cx="-189.24275"
       cy="-99.916023"
       rx="1.5877036"
       ry="1.5980552"
       transform="matrix(-0.13366987,-0.99102592,-0.99102592,0.13366987,0,0)" />
    <ellipse
       style="fill:#0000ff;fill-rule:evenodd;stroke-width:0.198198"
       id="path837-8-9-3-2-7"
       cx="-175.7971"
       cy="-116.5313"
       rx="1.5877036"
       ry="1.5980552"
       transform="matrix(-0.13366987,-0.99102592,-0.99102592,0.13366987,0,0)" />
    <ellipse
       style="fill:#0000ff;fill-rule:evenodd;stroke-width:0.198198"
       id="path837-8-9-0-3-6-0"
       cx="-168.49307"
       cy="-121.465"
       rx="1.5877036"
       ry="1.5980552"
       transform="matrix(-0.13366987,-0.99102592,-0.99102592,0.13366987,0,0)" />
    <ellipse
       style="fill:#0000ff;fill-rule:evenodd;stroke-width:0.198198"
       id="path837-8-9-6-3-5-1"
       cx="-185.91411"
       cy="-120.81484"
       rx="1.5877036"
       ry="1.5980552"
       transform="matrix(-0.13366987,-0.99102592,-0.99102592,0.13366987,0,0)" />
    <ellipse
       style="fill:#0000ff;fill-rule:evenodd;stroke-width:0.198198"
       id="path837-8-90-7-0"
       cx="-50.481056"
       cy="-180.91344"
       rx="1.5877036"
       ry="1.5980552"
       transform="rotate(172.31829)" />
    <ellipse
       style="fill:#0000ff;fill-rule:evenodd;stroke-width:0.198198"
       id="path837-8-90-7-4-1"
       cx="-41.37632"
       cy="-191.71356"
       rx="1.5877036"
       ry="1.5980552"
       transform="rotate(172.31829)" />
    <ellipse
       style="fill:#0000ff;fill-rule:evenodd;stroke-width:0.198198"
       id="path837-8-90-7-4-8-3"
       cx="-120.68545"
       cy="-152.50966"
       rx="1.5877036"
       ry="1.5980552"
       transform="rotate(172.31829)" />
    <path
       style="fill:none;stroke:#000000;stroke-width:0.465;stroke-linecap:butt;stroke-linejoin:miter;stroke-miterlimit:4;stroke-dasharray:none;stroke-opacity:1;marker-start:url(#Arrow1Lstart)"
       d="m 125.86475,174.85486 c 1.84189,2.60212 3.68356,5.20394 6.93249,7.13435 3.24893,1.9304 8.00746,3.2173 12.71446,4.49027"
       id="path1257"
       inkscape:path-effect="#path-effect1259"
       inkscape:original-d="m 125.86475,174.85486 c 1.84193,2.60209 3.68361,5.20391 5.52502,7.80546 4.6526,1.27335 9.41488,2.54638 14.12193,3.81916" />
    <g
       inkscape:label=""
       transform="translate(54.696453,107.94645)"
       id="g1633">
      <g
         id="g9497">
        <g
           style="fill:#000000;fill-opacity:1"
           id="g7547">
          <use
             xlink:href="#symbol8676"
             x="91.925003"
             y="81.962997"
             id="use7594"
             width="100%"
             height="100%" />
        </g>
        <g
           style="fill:#000000;fill-opacity:1"
           id="g5856">
          <use
             xlink:href="#symbol2391"
             x="97.619003"
             y="78.347"
             id="use7823"
             width="100%"
             height="100%" />
        </g>
        <g
           style="fill:#000000;fill-opacity:1"
           id="g759">
          <use
             xlink:href="#symbol1249"
             x="102.236"
             y="79.344002"
             id="use3695"
             width="100%"
             height="100%" />
        </g>
      </g>
    </g>
    <g
       inkscape:label=""
       transform="translate(16.873829,119.99228)"
       id="g1767">
      <g
         id="g1613">
        <g
           style="fill:#000000;fill-opacity:1"
           id="g4135">
          <use
             xlink:href="#symbol1891"
             x="91.925003"
             y="81.962997"
             id="use7869"
             width="100%"
             height="100%" />
        </g>
        <g
           style="fill:#000000;fill-opacity:1"
           id="g317">
          <use
             xlink:href="#symbol8219"
             x="95.800003"
             y="81.962997"
             id="use6400"
             width="100%"
             height="100%" />
        </g>
        <g
           style="fill:#000000;fill-opacity:1"
           id="g901">
          <use
             xlink:href="#symbol2544"
             x="101.494"
             y="78.347"
             id="use5223"
             width="100%"
             height="100%" />
        </g>
        <g
           style="fill:#000000;fill-opacity:1"
           id="g1683">
          <use
             xlink:href="#symbol2319"
             x="106.11"
             y="79.344002"
             id="use5635"
             width="100%"
             height="100%" />
        </g>
        <g
           style="fill:#000000;fill-opacity:1"
           id="g8226">
          <use
             xlink:href="#symbol7376"
             x="110.497"
             y="81.962997"
             id="use9836"
             width="100%"
             height="100%" />
        </g>
      </g>
    </g>
    <text
       xml:space="preserve"
       style="font-style:normal;font-variant:normal;font-weight:normal;font-stretch:normal;font-size:11.2889px;line-height:1.25;font-family:cmsy10;-inkscape-font-specification:cmsy10;stroke-width:0.264583"
       x="98.400604"
       y="203.02267"
       id="text1814"><tspan
         sodipodi:role="line"
         id="tspan1812"
         x="98.400604"
         y="203.02267"
         style="font-style:normal;font-variant:normal;font-weight:normal;font-stretch:normal;font-family:cmsy10;-inkscape-font-specification:cmsy10;stroke-width:0.264583">N</tspan></text>
    <path
       style="fill:none;stroke:#000000;stroke-width:0.465;stroke-linecap:butt;stroke-linejoin:miter;stroke-opacity:1;marker-start:url(#marker1828);stroke-miterlimit:4;stroke-dasharray:none"
       d="m 119.01456,180.51376 c -1.77308,1.96776 -3.54613,3.9355 -4.54013,6.04065 -0.99399,2.10515 -1.2089,4.34739 -1.42379,6.58945"
       id="path1816"
       inkscape:path-effect="#path-effect1818"
       inkscape:original-d="m 119.01456,180.51376 c -1.7728,1.96801 -3.54585,3.93575 -5.31918,5.90323 -0.21465,2.2426 -0.42956,4.48484 -0.64474,6.72687" />
  </g>
</svg>
