<?xml version="1.0" encoding="UTF-8" standalone="no"?>
<svg
   xmlns:dc="http://purl.org/dc/elements/1.1/"
   xmlns:cc="http://creativecommons.org/ns#"
   xmlns:rdf="http://www.w3.org/1999/02/22-rdf-syntax-ns#"
   xmlns:svg="http://www.w3.org/2000/svg"
   xmlns="http://www.w3.org/2000/svg"
   xmlns:xlink="http://www.w3.org/1999/xlink"
   xmlns:sodipodi="http://sodipodi.sourceforge.net/DTD/sodipodi-0.dtd"
   xmlns:inkscape="http://www.inkscape.org/namespaces/inkscape"
   width="210mm"
   height="297mm"
   viewBox="0 0 210 297"
   version="1.1"
   id="svg8"
   sodipodi:docname="slope-delta.svg"
   inkscape:version="1.0.2 (1.0.2+r75+1)"
   inkscape:export-filename="/home/rrtucci/latex_docs/Bayesuvius/instrumental/slope-delta.png"
   inkscape:export-xdpi="96"
   inkscape:export-ydpi="96">
  <defs
     id="defs2">
    <marker
       style="overflow:visible"
       id="Arrow1Lstart"
       refX="0.0"
       refY="0.0"
       orient="auto"
       inkscape:stockid="Arrow1Lstart"
       inkscape:isstock="true">
      <path
         transform="scale(0.8) translate(12.5,0)"
         style="fill-rule:evenodd;stroke:#000000;stroke-width:1pt;stroke-opacity:1;fill:#000000;fill-opacity:1"
         d="M 0.0,0.0 L 5.0,-5.0 L -12.5,0.0 L 5.0,5.0 L 0.0,0.0 z "
         id="path835" />
    </marker>
    <marker
       style="overflow:visible;"
       id="Arrow1Lend"
       refX="0.0"
       refY="0.0"
       orient="auto"
       inkscape:stockid="Arrow1Lend"
       inkscape:isstock="true">
      <path
         transform="scale(0.8) rotate(180) translate(12.5,0)"
         style="fill-rule:evenodd;stroke:#000000;stroke-width:1pt;stroke-opacity:1;fill:#000000;fill-opacity:1"
         d="M 0.0,0.0 L 5.0,-5.0 L -12.5,0.0 L 5.0,5.0 L 0.0,0.0 z "
         id="path838" />
    </marker>
    <g
       id="g1385">
      <symbol
         overflow="visible"
         id="symbol6628">
        <path
           style="stroke:none;"
           d=""
           id="path5518" />
      </symbol>
      <symbol
         overflow="visible"
         id="symbol5763">
        <path
           style="stroke:none;"
           d="M 3.984375 -4.625 C 3.984375 -4.640625 4 -4.734375 4 -4.734375 C 4 -4.78125 3.984375 -4.84375 3.890625 -4.84375 C 3.75 -4.84375 3.171875 -4.78125 3 -4.765625 C 2.953125 -4.765625 2.84375 -4.75 2.84375 -4.609375 C 2.84375 -4.515625 2.953125 -4.515625 3.03125 -4.515625 C 3.359375 -4.515625 3.359375 -4.453125 3.359375 -4.40625 C 3.359375 -4.359375 3.359375 -4.3125 3.34375 -4.25 L 2.9375 -2.65625 C 2.796875 -2.890625 2.5625 -3.078125 2.21875 -3.078125 C 1.328125 -3.078125 0.421875 -2.09375 0.421875 -1.09375 C 0.421875 -0.40625 0.875 0.0625 1.484375 0.0625 C 1.859375 0.0625 2.1875 -0.140625 2.46875 -0.421875 C 2.59375 0 3 0.0625 3.1875 0.0625 C 3.4375 0.0625 3.609375 -0.078125 3.734375 -0.296875 C 3.890625 -0.578125 3.984375 -0.96875 3.984375 -1 C 3.984375 -1.09375 3.890625 -1.09375 3.875 -1.09375 C 3.765625 -1.09375 3.765625 -1.0625 3.71875 -0.875 C 3.625 -0.53125 3.5 -0.125 3.203125 -0.125 C 3.03125 -0.125 2.96875 -0.28125 2.96875 -0.46875 C 2.96875 -0.59375 2.984375 -0.65625 3.015625 -0.75 Z M 2.5 -0.875 C 2.453125 -0.671875 2.296875 -0.53125 2.140625 -0.40625 C 2.078125 -0.34375 1.796875 -0.125 1.5 -0.125 C 1.234375 -0.125 0.984375 -0.3125 0.984375 -0.796875 C 0.984375 -1.171875 1.1875 -1.9375 1.359375 -2.21875 C 1.671875 -2.78125 2.03125 -2.875 2.21875 -2.875 C 2.703125 -2.875 2.84375 -2.34375 2.84375 -2.265625 C 2.84375 -2.25 2.828125 -2.1875 2.828125 -2.171875 Z M 2.5 -0.875 "
           id="path5072" />
      </symbol>
      <symbol
         overflow="visible"
         id="symbol66">
        <path
           style="stroke:none;"
           d="M 1.4375 -0.84375 C 1.1875 -0.453125 0.96875 -0.28125 0.5625 -0.25 C 0.484375 -0.25 0.390625 -0.25 0.390625 -0.109375 C 0.390625 -0.03125 0.453125 0 0.5 0 C 0.671875 0 0.90625 -0.03125 1.09375 -0.03125 C 1.3125 -0.03125 1.609375 0 1.8125 0 C 1.84375 0 1.953125 0 1.953125 -0.15625 C 1.953125 -0.25 1.859375 -0.25 1.828125 -0.25 C 1.78125 -0.265625 1.53125 -0.265625 1.53125 -0.453125 C 1.53125 -0.546875 1.59375 -0.65625 1.625 -0.71875 L 2.1875 -1.59375 L 4.1875 -1.59375 L 4.34375 -0.4375 C 4.328125 -0.359375 4.28125 -0.25 3.875 -0.25 C 3.78125 -0.25 3.6875 -0.25 3.6875 -0.09375 C 3.6875 -0.0625 3.703125 0 3.796875 0 C 4 0 4.5 -0.03125 4.703125 -0.03125 C 4.828125 -0.03125 4.984375 -0.015625 5.109375 -0.015625 C 5.234375 -0.015625 5.375 0 5.5 0 C 5.59375 0 5.640625 -0.0625 5.640625 -0.140625 C 5.640625 -0.25 5.5625 -0.25 5.453125 -0.25 C 5.046875 -0.25 5.03125 -0.3125 5.015625 -0.46875 L 4.390625 -4.78125 C 4.375 -4.921875 4.359375 -4.96875 4.234375 -4.96875 C 4.09375 -4.96875 4.0625 -4.90625 4 -4.8125 Z M 2.359375 -1.84375 L 3.8125 -4.125 L 4.140625 -1.84375 Z M 2.359375 -1.84375 "
           id="path1211" />
      </symbol>
    </g>
    <g
       id="g3765">
      <symbol
         overflow="visible"
         id="symbol6678">
        <path
           style="stroke:none;"
           d=""
           id="path9547" />
      </symbol>
      <symbol
         overflow="visible"
         id="symbol3597">
        <path
           style="stroke:none;"
           d="M 4.84375 -3.796875 C 4.890625 -3.9375 4.890625 -3.953125 4.890625 -4.03125 C 4.890625 -4.203125 4.75 -4.296875 4.59375 -4.296875 C 4.5 -4.296875 4.34375 -4.234375 4.25 -4.09375 C 4.234375 -4.03125 4.140625 -3.734375 4.109375 -3.546875 C 4.03125 -3.296875 3.96875 -3.015625 3.90625 -2.75 L 3.453125 -0.953125 C 3.421875 -0.8125 2.984375 -0.109375 2.328125 -0.109375 C 1.828125 -0.109375 1.71875 -0.546875 1.71875 -0.921875 C 1.71875 -1.375 1.890625 -2 2.21875 -2.875 C 2.375 -3.28125 2.421875 -3.390625 2.421875 -3.59375 C 2.421875 -4.03125 2.109375 -4.40625 1.609375 -4.40625 C 0.65625 -4.40625 0.296875 -2.953125 0.296875 -2.875 C 0.296875 -2.765625 0.390625 -2.765625 0.40625 -2.765625 C 0.515625 -2.765625 0.515625 -2.796875 0.5625 -2.953125 C 0.84375 -3.890625 1.234375 -4.1875 1.578125 -4.1875 C 1.65625 -4.1875 1.828125 -4.1875 1.828125 -3.875 C 1.828125 -3.625 1.71875 -3.359375 1.65625 -3.171875 C 1.25 -2.109375 1.078125 -1.546875 1.078125 -1.078125 C 1.078125 -0.1875 1.703125 0.109375 2.296875 0.109375 C 2.6875 0.109375 3.015625 -0.0625 3.296875 -0.34375 C 3.171875 0.171875 3.046875 0.671875 2.65625 1.203125 C 2.390625 1.53125 2.015625 1.828125 1.5625 1.828125 C 1.421875 1.828125 0.96875 1.796875 0.796875 1.40625 C 0.953125 1.40625 1.09375 1.40625 1.21875 1.28125 C 1.328125 1.203125 1.421875 1.0625 1.421875 0.875 C 1.421875 0.5625 1.15625 0.53125 1.0625 0.53125 C 0.828125 0.53125 0.5 0.6875 0.5 1.171875 C 0.5 1.671875 0.9375 2.046875 1.5625 2.046875 C 2.578125 2.046875 3.609375 1.140625 3.890625 0.015625 Z M 4.84375 -3.796875 "
           id="path6274" />
      </symbol>
    </g>
    <g
       id="g4242">
      <symbol
         overflow="visible"
         id="symbol4403">
        <path
           style="stroke:none;"
           d=""
           id="path4811" />
      </symbol>
      <symbol
         overflow="visible"
         id="symbol8024">
        <path
           style="stroke:none;"
           d="M 5.140625 -6.8125 C 5.140625 -6.8125 5.140625 -6.921875 5.015625 -6.921875 C 4.859375 -6.921875 3.921875 -6.828125 3.75 -6.8125 C 3.671875 -6.796875 3.609375 -6.75 3.609375 -6.625 C 3.609375 -6.5 3.703125 -6.5 3.84375 -6.5 C 4.328125 -6.5 4.34375 -6.4375 4.34375 -6.328125 L 4.3125 -6.125 L 3.71875 -3.765625 C 3.53125 -4.140625 3.25 -4.40625 2.796875 -4.40625 C 1.640625 -4.40625 0.40625 -2.9375 0.40625 -1.484375 C 0.40625 -0.546875 0.953125 0.109375 1.71875 0.109375 C 1.921875 0.109375 2.421875 0.0625 3.015625 -0.640625 C 3.09375 -0.21875 3.453125 0.109375 3.921875 0.109375 C 4.28125 0.109375 4.5 -0.125 4.671875 -0.4375 C 4.828125 -0.796875 4.96875 -1.40625 4.96875 -1.421875 C 4.96875 -1.53125 4.875 -1.53125 4.84375 -1.53125 C 4.75 -1.53125 4.734375 -1.484375 4.703125 -1.34375 C 4.53125 -0.703125 4.359375 -0.109375 3.953125 -0.109375 C 3.671875 -0.109375 3.65625 -0.375 3.65625 -0.5625 C 3.65625 -0.8125 3.671875 -0.875 3.703125 -1.046875 Z M 3.078125 -1.1875 C 3.015625 -1 3.015625 -0.984375 2.875 -0.8125 C 2.4375 -0.265625 2.03125 -0.109375 1.75 -0.109375 C 1.25 -0.109375 1.109375 -0.65625 1.109375 -1.046875 C 1.109375 -1.546875 1.421875 -2.765625 1.65625 -3.234375 C 1.96875 -3.8125 2.40625 -4.1875 2.8125 -4.1875 C 3.453125 -4.1875 3.59375 -3.375 3.59375 -3.3125 C 3.59375 -3.25 3.578125 -3.1875 3.5625 -3.140625 Z M 3.078125 -1.1875 "
           id="path8483" />
      </symbol>
    </g>
    <g
       id="g2585">
      <symbol
         overflow="visible"
         id="symbol3365">
        <path
           style="stroke:none;"
           d=""
           id="path6178" />
      </symbol>
      <symbol
         overflow="visible"
         id="symbol9801">
        <path
           style="stroke:none;"
           d="M 3.984375 -4.625 C 3.984375 -4.640625 4 -4.734375 4 -4.734375 C 4 -4.78125 3.984375 -4.84375 3.890625 -4.84375 C 3.75 -4.84375 3.171875 -4.78125 3 -4.765625 C 2.953125 -4.765625 2.84375 -4.75 2.84375 -4.609375 C 2.84375 -4.515625 2.953125 -4.515625 3.03125 -4.515625 C 3.359375 -4.515625 3.359375 -4.453125 3.359375 -4.40625 C 3.359375 -4.359375 3.359375 -4.3125 3.34375 -4.25 L 2.9375 -2.65625 C 2.796875 -2.890625 2.5625 -3.078125 2.21875 -3.078125 C 1.328125 -3.078125 0.421875 -2.09375 0.421875 -1.09375 C 0.421875 -0.40625 0.875 0.0625 1.484375 0.0625 C 1.859375 0.0625 2.1875 -0.140625 2.46875 -0.421875 C 2.59375 0 3 0.0625 3.1875 0.0625 C 3.4375 0.0625 3.609375 -0.078125 3.734375 -0.296875 C 3.890625 -0.578125 3.984375 -0.96875 3.984375 -1 C 3.984375 -1.09375 3.890625 -1.09375 3.875 -1.09375 C 3.765625 -1.09375 3.765625 -1.0625 3.71875 -0.875 C 3.625 -0.53125 3.5 -0.125 3.203125 -0.125 C 3.03125 -0.125 2.96875 -0.28125 2.96875 -0.46875 C 2.96875 -0.59375 2.984375 -0.65625 3.015625 -0.75 Z M 2.5 -0.875 C 2.453125 -0.671875 2.296875 -0.53125 2.140625 -0.40625 C 2.078125 -0.34375 1.796875 -0.125 1.5 -0.125 C 1.234375 -0.125 0.984375 -0.3125 0.984375 -0.796875 C 0.984375 -1.171875 1.1875 -1.9375 1.359375 -2.21875 C 1.671875 -2.78125 2.03125 -2.875 2.21875 -2.875 C 2.703125 -2.875 2.84375 -2.34375 2.84375 -2.265625 C 2.84375 -2.25 2.828125 -2.1875 2.828125 -2.171875 Z M 2.5 -0.875 "
           id="path4779" />
      </symbol>
      <symbol
         overflow="visible"
         id="symbol1683">
        <path
           style="stroke:none;"
           d="M 1.4375 -0.84375 C 1.1875 -0.453125 0.96875 -0.28125 0.5625 -0.25 C 0.484375 -0.25 0.390625 -0.25 0.390625 -0.109375 C 0.390625 -0.03125 0.453125 0 0.5 0 C 0.671875 0 0.90625 -0.03125 1.09375 -0.03125 C 1.3125 -0.03125 1.609375 0 1.8125 0 C 1.84375 0 1.953125 0 1.953125 -0.15625 C 1.953125 -0.25 1.859375 -0.25 1.828125 -0.25 C 1.78125 -0.265625 1.53125 -0.265625 1.53125 -0.453125 C 1.53125 -0.546875 1.59375 -0.65625 1.625 -0.71875 L 2.1875 -1.59375 L 4.1875 -1.59375 L 4.34375 -0.4375 C 4.328125 -0.359375 4.28125 -0.25 3.875 -0.25 C 3.78125 -0.25 3.6875 -0.25 3.6875 -0.09375 C 3.6875 -0.0625 3.703125 0 3.796875 0 C 4 0 4.5 -0.03125 4.703125 -0.03125 C 4.828125 -0.03125 4.984375 -0.015625 5.109375 -0.015625 C 5.234375 -0.015625 5.375 0 5.5 0 C 5.59375 0 5.640625 -0.0625 5.640625 -0.140625 C 5.640625 -0.25 5.5625 -0.25 5.453125 -0.25 C 5.046875 -0.25 5.03125 -0.3125 5.015625 -0.46875 L 4.390625 -4.78125 C 4.375 -4.921875 4.359375 -4.96875 4.234375 -4.96875 C 4.09375 -4.96875 4.0625 -4.90625 4 -4.8125 Z M 2.359375 -1.84375 L 3.8125 -4.125 L 4.140625 -1.84375 Z M 2.359375 -1.84375 "
           id="path135" />
      </symbol>
    </g>
    <g
       id="g2577">
      <symbol
         overflow="visible"
         id="symbol6191">
        <path
           style="stroke:none;"
           d=""
           id="path7940" />
      </symbol>
      <symbol
         overflow="visible"
         id="symbol5090">
        <path
           style="stroke:none;"
           d="M 3.984375 -4.625 C 3.984375 -4.640625 4 -4.734375 4 -4.734375 C 4 -4.78125 3.984375 -4.84375 3.890625 -4.84375 C 3.75 -4.84375 3.171875 -4.78125 3 -4.765625 C 2.953125 -4.765625 2.84375 -4.75 2.84375 -4.609375 C 2.84375 -4.515625 2.953125 -4.515625 3.03125 -4.515625 C 3.359375 -4.515625 3.359375 -4.453125 3.359375 -4.40625 C 3.359375 -4.359375 3.359375 -4.3125 3.34375 -4.25 L 2.9375 -2.65625 C 2.796875 -2.890625 2.5625 -3.078125 2.21875 -3.078125 C 1.328125 -3.078125 0.421875 -2.09375 0.421875 -1.09375 C 0.421875 -0.40625 0.875 0.0625 1.484375 0.0625 C 1.859375 0.0625 2.1875 -0.140625 2.46875 -0.421875 C 2.59375 0 3 0.0625 3.1875 0.0625 C 3.4375 0.0625 3.609375 -0.078125 3.734375 -0.296875 C 3.890625 -0.578125 3.984375 -0.96875 3.984375 -1 C 3.984375 -1.09375 3.890625 -1.09375 3.875 -1.09375 C 3.765625 -1.09375 3.765625 -1.0625 3.71875 -0.875 C 3.625 -0.53125 3.5 -0.125 3.203125 -0.125 C 3.03125 -0.125 2.96875 -0.28125 2.96875 -0.46875 C 2.96875 -0.59375 2.984375 -0.65625 3.015625 -0.75 Z M 2.5 -0.875 C 2.453125 -0.671875 2.296875 -0.53125 2.140625 -0.40625 C 2.078125 -0.34375 1.796875 -0.125 1.5 -0.125 C 1.234375 -0.125 0.984375 -0.3125 0.984375 -0.796875 C 0.984375 -1.171875 1.1875 -1.9375 1.359375 -2.21875 C 1.671875 -2.78125 2.03125 -2.875 2.21875 -2.875 C 2.703125 -2.875 2.84375 -2.34375 2.84375 -2.265625 C 2.84375 -2.25 2.828125 -2.1875 2.828125 -2.171875 Z M 2.5 -0.875 "
           id="path1223" />
      </symbol>
      <symbol
         overflow="visible"
         id="symbol5988">
        <path
           style="stroke:none;"
           d="M 1.4375 -0.84375 C 1.1875 -0.453125 0.96875 -0.28125 0.5625 -0.25 C 0.484375 -0.25 0.390625 -0.25 0.390625 -0.109375 C 0.390625 -0.03125 0.453125 0 0.5 0 C 0.671875 0 0.90625 -0.03125 1.09375 -0.03125 C 1.3125 -0.03125 1.609375 0 1.8125 0 C 1.84375 0 1.953125 0 1.953125 -0.15625 C 1.953125 -0.25 1.859375 -0.25 1.828125 -0.25 C 1.78125 -0.265625 1.53125 -0.265625 1.53125 -0.453125 C 1.53125 -0.546875 1.59375 -0.65625 1.625 -0.71875 L 2.1875 -1.59375 L 4.1875 -1.59375 L 4.34375 -0.4375 C 4.328125 -0.359375 4.28125 -0.25 3.875 -0.25 C 3.78125 -0.25 3.6875 -0.25 3.6875 -0.09375 C 3.6875 -0.0625 3.703125 0 3.796875 0 C 4 0 4.5 -0.03125 4.703125 -0.03125 C 4.828125 -0.03125 4.984375 -0.015625 5.109375 -0.015625 C 5.234375 -0.015625 5.375 0 5.5 0 C 5.59375 0 5.640625 -0.0625 5.640625 -0.140625 C 5.640625 -0.25 5.5625 -0.25 5.453125 -0.25 C 5.046875 -0.25 5.03125 -0.3125 5.015625 -0.46875 L 4.390625 -4.78125 C 4.375 -4.921875 4.359375 -4.96875 4.234375 -4.96875 C 4.09375 -4.96875 4.0625 -4.90625 4 -4.8125 Z M 2.359375 -1.84375 L 3.8125 -4.125 L 4.140625 -1.84375 Z M 2.359375 -1.84375 "
           id="path9795" />
      </symbol>
    </g>
    <g
       id="g1791">
      <symbol
         overflow="visible"
         id="symbol630">
        <path
           style="stroke:none;"
           d=""
           id="path2024" />
      </symbol>
      <symbol
         overflow="visible"
         id="symbol943">
        <path
           style="stroke:none;"
           d="M 3.984375 -4.625 C 3.984375 -4.640625 4 -4.734375 4 -4.734375 C 4 -4.78125 3.984375 -4.84375 3.890625 -4.84375 C 3.75 -4.84375 3.171875 -4.78125 3 -4.765625 C 2.953125 -4.765625 2.84375 -4.75 2.84375 -4.609375 C 2.84375 -4.515625 2.953125 -4.515625 3.03125 -4.515625 C 3.359375 -4.515625 3.359375 -4.453125 3.359375 -4.40625 C 3.359375 -4.359375 3.359375 -4.3125 3.34375 -4.25 L 2.9375 -2.65625 C 2.796875 -2.890625 2.5625 -3.078125 2.21875 -3.078125 C 1.328125 -3.078125 0.421875 -2.09375 0.421875 -1.09375 C 0.421875 -0.40625 0.875 0.0625 1.484375 0.0625 C 1.859375 0.0625 2.1875 -0.140625 2.46875 -0.421875 C 2.59375 0 3 0.0625 3.1875 0.0625 C 3.4375 0.0625 3.609375 -0.078125 3.734375 -0.296875 C 3.890625 -0.578125 3.984375 -0.96875 3.984375 -1 C 3.984375 -1.09375 3.890625 -1.09375 3.875 -1.09375 C 3.765625 -1.09375 3.765625 -1.0625 3.71875 -0.875 C 3.625 -0.53125 3.5 -0.125 3.203125 -0.125 C 3.03125 -0.125 2.96875 -0.28125 2.96875 -0.46875 C 2.96875 -0.59375 2.984375 -0.65625 3.015625 -0.75 Z M 2.5 -0.875 C 2.453125 -0.671875 2.296875 -0.53125 2.140625 -0.40625 C 2.078125 -0.34375 1.796875 -0.125 1.5 -0.125 C 1.234375 -0.125 0.984375 -0.3125 0.984375 -0.796875 C 0.984375 -1.171875 1.1875 -1.9375 1.359375 -2.21875 C 1.671875 -2.78125 2.03125 -2.875 2.21875 -2.875 C 2.703125 -2.875 2.84375 -2.34375 2.84375 -2.265625 C 2.84375 -2.25 2.828125 -2.1875 2.828125 -2.171875 Z M 2.5 -0.875 "
           id="path9808" />
      </symbol>
      <symbol
         overflow="visible"
         id="symbol4795">
        <path
           style="stroke:none;"
           d="M 3.875 -2.625 C 3.90625 -2.71875 3.90625 -2.734375 3.90625 -2.78125 C 3.90625 -2.921875 3.796875 -3 3.671875 -3 C 3.59375 -3 3.46875 -2.96875 3.390625 -2.84375 C 3.359375 -2.796875 3.3125 -2.578125 3.28125 -2.4375 L 3.125 -1.859375 C 3.09375 -1.6875 2.875 -0.8125 2.84375 -0.734375 C 2.84375 -0.734375 2.53125 -0.125 2 -0.125 C 1.515625 -0.125 1.515625 -0.578125 1.515625 -0.703125 C 1.515625 -1.078125 1.671875 -1.515625 1.890625 -2.0625 C 1.96875 -2.28125 2 -2.359375 2 -2.484375 C 2 -2.8125 1.71875 -3.078125 1.34375 -3.078125 C 0.640625 -3.078125 0.328125 -2.125 0.328125 -2 C 0.328125 -1.921875 0.421875 -1.921875 0.453125 -1.921875 C 0.546875 -1.921875 0.546875 -1.953125 0.578125 -2.03125 C 0.75 -2.609375 1.046875 -2.875 1.328125 -2.875 C 1.4375 -2.875 1.5 -2.796875 1.5 -2.640625 C 1.5 -2.46875 1.4375 -2.328125 1.40625 -2.234375 C 1.0625 -1.375 1 -1.125 1 -0.8125 C 1 -0.703125 1 -0.375 1.265625 -0.140625 C 1.484375 0.03125 1.78125 0.0625 1.96875 0.0625 C 2.25 0.0625 2.5 -0.03125 2.71875 -0.25 C 2.640625 0.140625 2.5625 0.4375 2.265625 0.78125 C 2.078125 1 1.796875 1.21875 1.421875 1.21875 C 1.375 1.21875 1.046875 1.21875 0.90625 1 C 1.28125 0.953125 1.28125 0.625 1.28125 0.609375 C 1.28125 0.390625 1.078125 0.34375 1.015625 0.34375 C 0.84375 0.34375 0.609375 0.484375 0.609375 0.8125 C 0.609375 1.15625 0.9375 1.421875 1.4375 1.421875 C 2.140625 1.421875 3 0.875 3.21875 0 Z M 3.875 -2.625 "
           id="path2225" />
      </symbol>
      <symbol
         overflow="visible"
         id="symbol7633">
        <path
           style="stroke:none;"
           d="M 1.4375 -0.84375 C 1.1875 -0.453125 0.96875 -0.28125 0.5625 -0.25 C 0.484375 -0.25 0.390625 -0.25 0.390625 -0.109375 C 0.390625 -0.03125 0.453125 0 0.5 0 C 0.671875 0 0.90625 -0.03125 1.09375 -0.03125 C 1.3125 -0.03125 1.609375 0 1.8125 0 C 1.84375 0 1.953125 0 1.953125 -0.15625 C 1.953125 -0.25 1.859375 -0.25 1.828125 -0.25 C 1.78125 -0.265625 1.53125 -0.265625 1.53125 -0.453125 C 1.53125 -0.546875 1.59375 -0.65625 1.625 -0.71875 L 2.1875 -1.59375 L 4.1875 -1.59375 L 4.34375 -0.4375 C 4.328125 -0.359375 4.28125 -0.25 3.875 -0.25 C 3.78125 -0.25 3.6875 -0.25 3.6875 -0.09375 C 3.6875 -0.0625 3.703125 0 3.796875 0 C 4 0 4.5 -0.03125 4.703125 -0.03125 C 4.828125 -0.03125 4.984375 -0.015625 5.109375 -0.015625 C 5.234375 -0.015625 5.375 0 5.5 0 C 5.59375 0 5.640625 -0.0625 5.640625 -0.140625 C 5.640625 -0.25 5.5625 -0.25 5.453125 -0.25 C 5.046875 -0.25 5.03125 -0.3125 5.015625 -0.46875 L 4.390625 -4.78125 C 4.375 -4.921875 4.359375 -4.96875 4.234375 -4.96875 C 4.09375 -4.96875 4.0625 -4.90625 4 -4.8125 Z M 2.359375 -1.84375 L 3.8125 -4.125 L 4.140625 -1.84375 Z M 2.359375 -1.84375 "
           id="path7893" />
      </symbol>
    </g>
    <g
       id="g3856">
      <symbol
         overflow="visible"
         id="symbol9741">
        <path
           style="stroke:none;"
           d=""
           id="path2619" />
      </symbol>
      <symbol
         overflow="visible"
         id="symbol7938">
        <path
           style="stroke:none;"
           d="M 2.078125 -1.9375 C 2.296875 -1.890625 3.109375 -1.734375 3.109375 -1.015625 C 3.109375 -0.515625 2.765625 -0.109375 1.984375 -0.109375 C 1.140625 -0.109375 0.78125 -0.671875 0.59375 -1.53125 C 0.5625 -1.65625 0.5625 -1.6875 0.453125 -1.6875 C 0.328125 -1.6875 0.328125 -1.625 0.328125 -1.453125 L 0.328125 -0.125 C 0.328125 0.046875 0.328125 0.109375 0.4375 0.109375 C 0.484375 0.109375 0.5 0.09375 0.6875 -0.09375 C 0.703125 -0.109375 0.703125 -0.125 0.890625 -0.3125 C 1.328125 0.09375 1.78125 0.109375 1.984375 0.109375 C 3.125 0.109375 3.59375 -0.5625 3.59375 -1.28125 C 3.59375 -1.796875 3.296875 -2.109375 3.171875 -2.21875 C 2.84375 -2.546875 2.453125 -2.625 2.03125 -2.703125 C 1.46875 -2.8125 0.8125 -2.9375 0.8125 -3.515625 C 0.8125 -3.875 1.0625 -4.28125 1.921875 -4.28125 C 3.015625 -4.28125 3.078125 -3.375 3.09375 -3.078125 C 3.09375 -2.984375 3.1875 -2.984375 3.203125 -2.984375 C 3.34375 -2.984375 3.34375 -3.03125 3.34375 -3.21875 L 3.34375 -4.234375 C 3.34375 -4.390625 3.34375 -4.46875 3.234375 -4.46875 C 3.1875 -4.46875 3.15625 -4.46875 3.03125 -4.34375 C 3 -4.3125 2.90625 -4.21875 2.859375 -4.1875 C 2.484375 -4.46875 2.078125 -4.46875 1.921875 -4.46875 C 0.703125 -4.46875 0.328125 -3.796875 0.328125 -3.234375 C 0.328125 -2.890625 0.484375 -2.609375 0.75 -2.390625 C 1.078125 -2.140625 1.359375 -2.078125 2.078125 -1.9375 Z M 2.078125 -1.9375 "
           id="path190" />
      </symbol>
      <symbol
         overflow="visible"
         id="symbol7962">
        <path
           style="stroke:none;"
           d="M 1.765625 -6.921875 L 0.328125 -6.8125 L 0.328125 -6.5 C 1.03125 -6.5 1.109375 -6.4375 1.109375 -5.9375 L 1.109375 -0.75 C 1.109375 -0.3125 1 -0.3125 0.328125 -0.3125 L 0.328125 0 C 0.65625 -0.015625 1.1875 -0.03125 1.4375 -0.03125 C 1.6875 -0.03125 2.171875 -0.015625 2.546875 0 L 2.546875 -0.3125 C 1.875 -0.3125 1.765625 -0.3125 1.765625 -0.75 Z M 1.765625 -6.921875 "
           id="path9695" />
      </symbol>
      <symbol
         overflow="visible"
         id="symbol2895">
        <path
           style="stroke:none;"
           d="M 4.6875 -2.140625 C 4.6875 -3.40625 3.703125 -4.46875 2.5 -4.46875 C 1.25 -4.46875 0.28125 -3.375 0.28125 -2.140625 C 0.28125 -0.84375 1.3125 0.109375 2.484375 0.109375 C 3.6875 0.109375 4.6875 -0.875 4.6875 -2.140625 Z M 2.5 -0.140625 C 2.0625 -0.140625 1.625 -0.34375 1.359375 -0.8125 C 1.109375 -1.25 1.109375 -1.859375 1.109375 -2.21875 C 1.109375 -2.609375 1.109375 -3.140625 1.34375 -3.578125 C 1.609375 -4.03125 2.078125 -4.25 2.484375 -4.25 C 2.921875 -4.25 3.34375 -4.03125 3.609375 -3.59375 C 3.875 -3.171875 3.875 -2.59375 3.875 -2.21875 C 3.875 -1.859375 3.875 -1.3125 3.65625 -0.875 C 3.421875 -0.421875 2.984375 -0.140625 2.5 -0.140625 Z M 2.5 -0.140625 "
           id="path4451" />
      </symbol>
      <symbol
         overflow="visible"
         id="symbol129">
        <path
           style="stroke:none;"
           d="M 1.71875 -3.75 L 1.71875 -4.40625 L 0.28125 -4.296875 L 0.28125 -3.984375 C 0.984375 -3.984375 1.0625 -3.921875 1.0625 -3.484375 L 1.0625 1.171875 C 1.0625 1.625 0.953125 1.625 0.28125 1.625 L 0.28125 1.9375 C 0.625 1.921875 1.140625 1.90625 1.390625 1.90625 C 1.671875 1.90625 2.171875 1.921875 2.515625 1.9375 L 2.515625 1.625 C 1.859375 1.625 1.75 1.625 1.75 1.171875 L 1.75 -0.59375 C 1.796875 -0.421875 2.21875 0.109375 2.96875 0.109375 C 4.15625 0.109375 5.1875 -0.875 5.1875 -2.15625 C 5.1875 -3.421875 4.234375 -4.40625 3.109375 -4.40625 C 2.328125 -4.40625 1.90625 -3.96875 1.71875 -3.75 Z M 1.75 -1.140625 L 1.75 -3.359375 C 2.03125 -3.875 2.515625 -4.15625 3.03125 -4.15625 C 3.765625 -4.15625 4.359375 -3.28125 4.359375 -2.15625 C 4.359375 -0.953125 3.671875 -0.109375 2.9375 -0.109375 C 2.53125 -0.109375 2.15625 -0.3125 1.890625 -0.71875 C 1.75 -0.921875 1.75 -0.9375 1.75 -1.140625 Z M 1.75 -1.140625 "
           id="path7846" />
      </symbol>
      <symbol
         overflow="visible"
         id="symbol1606">
        <path
           style="stroke:none;"
           d="M 1.109375 -2.515625 C 1.171875 -4 2.015625 -4.25 2.359375 -4.25 C 3.375 -4.25 3.484375 -2.90625 3.484375 -2.515625 Z M 1.109375 -2.296875 L 3.890625 -2.296875 C 4.109375 -2.296875 4.140625 -2.296875 4.140625 -2.515625 C 4.140625 -3.5 3.59375 -4.46875 2.359375 -4.46875 C 1.203125 -4.46875 0.28125 -3.4375 0.28125 -2.1875 C 0.28125 -0.859375 1.328125 0.109375 2.46875 0.109375 C 3.6875 0.109375 4.140625 -1 4.140625 -1.1875 C 4.140625 -1.28125 4.0625 -1.3125 4 -1.3125 C 3.921875 -1.3125 3.890625 -1.25 3.875 -1.171875 C 3.53125 -0.140625 2.625 -0.140625 2.53125 -0.140625 C 2.03125 -0.140625 1.640625 -0.4375 1.40625 -0.8125 C 1.109375 -1.28125 1.109375 -1.9375 1.109375 -2.296875 Z M 1.109375 -2.296875 "
           id="path5848" />
      </symbol>
      <symbol
         overflow="visible"
         id="symbol5984">
        <path
           style="stroke:none;"
           d="M 6.84375 -3.265625 C 7 -3.265625 7.1875 -3.265625 7.1875 -3.453125 C 7.1875 -3.65625 7 -3.65625 6.859375 -3.65625 L 0.890625 -3.65625 C 0.75 -3.65625 0.5625 -3.65625 0.5625 -3.453125 C 0.5625 -3.265625 0.75 -3.265625 0.890625 -3.265625 Z M 6.859375 -1.328125 C 7 -1.328125 7.1875 -1.328125 7.1875 -1.53125 C 7.1875 -1.71875 7 -1.71875 6.84375 -1.71875 L 0.890625 -1.71875 C 0.75 -1.71875 0.5625 -1.71875 0.5625 -1.53125 C 0.5625 -1.328125 0.75 -1.328125 0.890625 -1.328125 Z M 6.859375 -1.328125 "
           id="path1593" />
      </symbol>
      <symbol
         overflow="visible"
         id="symbol1798">
        <path
           style="stroke:none;"
           d=""
           id="path5626" />
      </symbol>
      <symbol
         overflow="visible"
         id="symbol1026">
        <path
           style="stroke:none;"
           d="M 2.625 -4.359375 C 1.390625 -4.0625 0.421875 -2.765625 0.421875 -1.5625 C 0.421875 -0.59375 1.0625 0.125 2 0.125 C 3.15625 0.125 3.984375 -1.453125 3.984375 -2.828125 C 3.984375 -3.734375 3.59375 -4.234375 3.25 -4.671875 C 2.890625 -5.125 2.296875 -5.875 2.296875 -6.3125 C 2.296875 -6.53125 2.5 -6.765625 2.84375 -6.765625 C 3.15625 -6.765625 3.34375 -6.640625 3.5625 -6.5 C 3.765625 -6.375 3.953125 -6.25 4.109375 -6.25 C 4.359375 -6.25 4.5 -6.484375 4.5 -6.65625 C 4.5 -6.875 4.34375 -6.890625 3.984375 -6.984375 C 3.46875 -7.09375 3.328125 -7.09375 3.171875 -7.09375 C 2.390625 -7.09375 2.03125 -6.65625 2.03125 -6.0625 C 2.03125 -5.515625 2.328125 -4.96875 2.625 -4.359375 Z M 2.75 -4.140625 C 3 -3.671875 3.296875 -3.140625 3.296875 -2.421875 C 3.296875 -1.765625 2.921875 -0.09375 2 -0.09375 C 1.453125 -0.09375 1.03125 -0.515625 1.03125 -1.28125 C 1.03125 -1.90625 1.40625 -3.78125 2.75 -4.140625 Z M 2.75 -4.140625 "
           id="path8955" />
      </symbol>
    </g>
  </defs>
  <sodipodi:namedview
     id="base"
     pagecolor="#ffffff"
     bordercolor="#666666"
     borderopacity="1.0"
     inkscape:pageopacity="0.0"
     inkscape:pageshadow="2"
     inkscape:zoom="0.62"
     inkscape:cx="400"
     inkscape:cy="769.31226"
     inkscape:document-units="mm"
     inkscape:current-layer="layer1"
     inkscape:document-rotation="0"
     showgrid="false"
     inkscape:window-width="1694"
     inkscape:window-height="754"
     inkscape:window-x="117"
     inkscape:window-y="120"
     inkscape:window-maximized="0" />
  <metadata
     id="metadata5">
    <rdf:RDF>
      <cc:Work
         rdf:about="">
        <dc:format>image/svg+xml</dc:format>
        <dc:type
           rdf:resource="http://purl.org/dc/dcmitype/StillImage" />
        <dc:title></dc:title>
      </cc:Work>
    </rdf:RDF>
  </metadata>
  <g
     inkscape:label="Layer 1"
     inkscape:groupmode="layer"
     id="layer1">
    <path
       style="fill:none;stroke:#000000;stroke-width:0.565;stroke-linecap:butt;stroke-linejoin:miter;stroke-miterlimit:4;stroke-dasharray:none;stroke-opacity:1;marker-start:url(#Arrow1Lstart);marker-end:url(#Arrow1Lend)"
       d="m 74.284845,152.6676 -0.685546,60.87156 72.975171,1.17231"
       id="path833" />
    <path
       style="fill:none;stroke:#000000;stroke-width:0.264583px;stroke-linecap:butt;stroke-linejoin:miter;stroke-opacity:1"
       d="M 73.599298,213.53916 142.88841,181.95871"
       id="path1209" />
    <g
       inkscape:label=""
       transform="matrix(1.431901,0,0,1.4237059,-17.043197,116.5708)"
       id="g1617">
      <g
         id="g4365">
        <g
           style="fill:#000000;fill-opacity:1"
           id="g7609">
          <use
             xlink:href="#symbol5090"
             x="94.042999"
             y="77.181"
             id="use1663"
             width="100%"
             height="100%" />
          <use
             xlink:href="#symbol5090"
             x="98.190315"
             y="77.181"
             id="use6922"
             width="100%"
             height="100%" />
        </g>
        <path
           style="fill:none;stroke:#000000;stroke-width:0.339;stroke-linecap:butt;stroke-linejoin:miter;stroke-miterlimit:10;stroke-opacity:1"
           d="M 0.00140625,-0.0011875 H 4.145938"
           transform="matrix(1,0,0,-1,98.19,78.366)"
           id="path8775" />
        <path
           style="fill:none;stroke:#000000;stroke-width:0.398;stroke-linecap:butt;stroke-linejoin:miter;stroke-miterlimit:10;stroke-opacity:1"
           d="M 9.375e-5,-6.5625e-4 H 10.140719"
           transform="matrix(1,0,0,-1,93.121,79.472)"
           id="path7629" />
        <g
           style="fill:#000000;fill-opacity:1"
           id="g3979">
          <use
             xlink:href="#symbol5090"
             x="93.121002"
             y="85.398003"
             id="use9500"
             width="100%"
             height="100%" />
          <use
             xlink:href="#symbol5988"
             x="97.268318"
             y="85.398003"
             id="use8425"
             width="100%"
             height="100%" />
        </g>
        <path
           style="fill:none;stroke:#000000;stroke-width:0.339;stroke-linecap:butt;stroke-linejoin:miter;stroke-miterlimit:10;stroke-opacity:1"
           d="M 0.00153125,-0.0019375 H 5.989812"
           transform="matrix(1,0,0,-1,97.268,86.584)"
           id="path3212" />
      </g>
    </g>
    <g
       inkscape:label=""
       transform="matrix(1.4268472,0,0,1.4415059,-81.932065,57.997582)"
       id="g1737">
      <g
         id="g2139">
        <g
           style="fill:#000000;fill-opacity:1"
           id="g1057">
          <use
             xlink:href="#symbol943"
             x="93.971001"
             y="76.843002"
             id="use4969"
             width="100%"
             height="100%" />
          <use
             xlink:href="#symbol4795"
             x="98.118317"
             y="76.843002"
             id="use2853"
             width="100%"
             height="100%" />
        </g>
        <path
           style="fill:none;stroke:#000000;stroke-width:0.339;stroke-linecap:butt;stroke-linejoin:miter;stroke-miterlimit:10;stroke-opacity:1"
           d="M -0.0018125,0.0011875 H 4.291156"
           transform="matrix(1,0,0,-1,98.119,79.384)"
           id="path3454" />
        <path
           style="fill:none;stroke:#000000;stroke-width:0.398;stroke-linecap:butt;stroke-linejoin:miter;stroke-miterlimit:10;stroke-opacity:1"
           d="M 9.375e-5,0.00171875 H 10.140719"
           transform="matrix(1,0,0,-1,93.121,80.49)"
           id="path6846" />
        <g
           style="fill:#000000;fill-opacity:1"
           id="g4488">
          <use
             xlink:href="#symbol943"
             x="93.121002"
             y="86.416"
             id="use8308"
             width="100%"
             height="100%" />
          <use
             xlink:href="#symbol7633"
             x="97.268318"
             y="86.416"
             id="use7861"
             width="100%"
             height="100%" />
        </g>
        <path
           style="fill:none;stroke:#000000;stroke-width:0.339;stroke-linecap:butt;stroke-linejoin:miter;stroke-miterlimit:10;stroke-opacity:1"
           d="M 0.00153125,4.375e-4 H 5.989812"
           transform="matrix(1,0,0,-1,97.268,87.602)"
           id="path4171" />
      </g>
    </g>
    <g
       inkscape:label=""
       transform="rotate(-22.986989,379.47961,123.10957)"
       id="g1863">
      <g
         id="g9538">
        <g
           style="fill:#000000;fill-opacity:1"
           id="g7925">
          <use
             xlink:href="#symbol7938"
             x="91.925003"
             y="81.962997"
             id="use7900"
             width="100%"
             height="100%" />
          <use
             xlink:href="#symbol7962"
             x="95.854248"
             y="81.962997"
             id="use9973"
             width="100%"
             height="100%" />
          <use
             xlink:href="#symbol2895"
             x="98.621857"
             y="81.962997"
             id="use8553"
             width="100%"
             height="100%" />
          <use
             xlink:href="#symbol129"
             x="103.60316"
             y="81.962997"
             id="use7578"
             width="100%"
             height="100%" />
        </g>
        <g
           style="fill:#000000;fill-opacity:1"
           id="g9603">
          <use
             xlink:href="#symbol1606"
             x="109.41734"
             y="81.962997"
             id="use7226"
             width="100%"
             height="100%" />
        </g>
        <g
           style="fill:#000000;fill-opacity:1"
           id="g9176">
          <use
             xlink:href="#symbol5984"
             x="117.16225"
             y="81.962997"
             id="use8260"
             width="100%"
             height="100%" />
        </g>
        <g
           style="fill:#000000;fill-opacity:1"
           id="g6266">
          <use
             xlink:href="#symbol1026"
             x="128.23399"
             y="81.962997"
             id="use5997"
             width="100%"
             height="100%" />
        </g>
      </g>
    </g>
  </g>
</svg>
