<?xml version="1.0" encoding="UTF-8" standalone="no"?>
<svg
   xmlns:dc="http://purl.org/dc/elements/1.1/"
   xmlns:cc="http://creativecommons.org/ns#"
   xmlns:rdf="http://www.w3.org/1999/02/22-rdf-syntax-ns#"
   xmlns:svg="http://www.w3.org/2000/svg"
   xmlns="http://www.w3.org/2000/svg"
   xmlns:xlink="http://www.w3.org/1999/xlink"
   xmlns:sodipodi="http://sodipodi.sourceforge.net/DTD/sodipodi-0.dtd"
   xmlns:inkscape="http://www.inkscape.org/namespaces/inkscape"
   inkscape:export-ydpi="96"
   inkscape:export-xdpi="96"
   inkscape:export-filename="/home/rrtucci/latex_docs/Bayesuvius/var-bay/elbo.png"
   sodipodi:docname="elbo.svg"
   inkscape:version="1.0 (1.0+r73+1)"
   width="210mm"
   height="297mm"
   viewBox="0 0 210 297"
   version="1.1"
   id="svg8">
  <defs
     id="defs2">
    <marker
       inkscape:stockid="Arrow1Lstart"
       orient="auto"
       refY="0.0"
       refX="0.0"
       id="marker1537"
       style="overflow:visible"
       inkscape:isstock="true">
      <path
         id="path1535"
         d="M 0.0,0.0 L 5.0,-5.0 L -12.5,0.0 L 5.0,5.0 L 0.0,0.0 z "
         style="fill-rule:evenodd;stroke:#000000;stroke-width:1pt;stroke-opacity:1;fill:#000000;fill-opacity:1"
         transform="scale(0.8) translate(12.5,0)" />
    </marker>
    <marker
       inkscape:stockid="Arrow1Lend"
       orient="auto"
       refY="0.0"
       refX="0.0"
       id="marker1491"
       style="overflow:visible;"
       inkscape:isstock="true">
      <path
         id="path1489"
         d="M 0.0,0.0 L 5.0,-5.0 L -12.5,0.0 L 5.0,5.0 L 0.0,0.0 z "
         style="fill-rule:evenodd;stroke:#000000;stroke-width:1pt;stroke-opacity:1;fill:#000000;fill-opacity:1"
         transform="scale(0.8) rotate(180) translate(12.5,0)" />
    </marker>
    <inkscape:path-effect
       only_selected="false"
       apply_with_weight="true"
       apply_no_weight="true"
       helper_size="0"
       steps="2"
       weight="33.333333"
       lpeversion="1"
       is_visible="true"
       id="path-effect1487"
       effect="bspline" />
    <marker
       inkscape:collect="always"
       inkscape:isstock="true"
       style="overflow:visible;"
       id="Arrow1Lend"
       refX="0.0"
       refY="0.0"
       orient="auto"
       inkscape:stockid="Arrow1Lend">
      <path
         transform="scale(0.8) rotate(180) translate(12.5,0)"
         style="fill-rule:evenodd;stroke:#000000;stroke-width:1pt;stroke-opacity:1;fill:#000000;fill-opacity:1"
         d="M 0.0,0.0 L 5.0,-5.0 L -12.5,0.0 L 5.0,5.0 L 0.0,0.0 z "
         id="path838" />
    </marker>
    <marker
       inkscape:collect="always"
       inkscape:isstock="true"
       style="overflow:visible"
       id="marker1403"
       refX="0.0"
       refY="0.0"
       orient="auto"
       inkscape:stockid="Arrow1Lstart">
      <path
         transform="scale(0.8) translate(12.5,0)"
         style="fill-rule:evenodd;stroke:#000000;stroke-width:1pt;stroke-opacity:1;fill:#000000;fill-opacity:1"
         d="M 0.0,0.0 L 5.0,-5.0 L -12.5,0.0 L 5.0,5.0 L 0.0,0.0 z "
         id="path1401" />
    </marker>
    <inkscape:path-effect
       only_selected="false"
       apply_with_weight="true"
       apply_no_weight="true"
       helper_size="0"
       steps="2"
       weight="33.333333"
       lpeversion="1"
       is_visible="true"
       id="path-effect1399"
       effect="bspline" />
    <inkscape:path-effect
       only_selected="false"
       apply_with_weight="true"
       apply_no_weight="true"
       helper_size="0"
       steps="2"
       weight="33.333333"
       lpeversion="1"
       is_visible="true"
       id="path-effect1217"
       effect="bspline" />
    <inkscape:path-effect
       only_selected="false"
       apply_with_weight="true"
       apply_no_weight="true"
       helper_size="0"
       steps="2"
       weight="33.333333"
       lpeversion="1"
       is_visible="true"
       id="path-effect1201"
       effect="bspline" />
    <inkscape:path-effect
       only_selected="false"
       apply_with_weight="true"
       apply_no_weight="true"
       helper_size="0"
       steps="2"
       weight="33.333333"
       lpeversion="1"
       is_visible="true"
       id="path-effect1195"
       effect="bspline" />
    <marker
       inkscape:collect="always"
       inkscape:stockid="Arrow1Lstart"
       orient="auto"
       refY="0.0"
       refX="0.0"
       id="marker1149"
       style="overflow:visible"
       inkscape:isstock="true">
      <path
         id="path1147"
         d="M 0.0,0.0 L 5.0,-5.0 L -12.5,0.0 L 5.0,5.0 L 0.0,0.0 z "
         style="fill-rule:evenodd;stroke:#000000;stroke-width:1pt;stroke-opacity:1;fill:#000000;fill-opacity:1"
         transform="scale(0.8) translate(12.5,0)" />
    </marker>
    <marker
       inkscape:collect="always"
       inkscape:isstock="true"
       style="overflow:visible"
       id="Arrow1Lstart"
       refX="0.0"
       refY="0.0"
       orient="auto"
       inkscape:stockid="Arrow1Lstart">
      <path
         transform="scale(0.8) translate(12.5,0)"
         style="fill-rule:evenodd;stroke:#000000;stroke-width:1pt;stroke-opacity:1;fill:#000000;fill-opacity:1"
         d="M 0.0,0.0 L 5.0,-5.0 L -12.5,0.0 L 5.0,5.0 L 0.0,0.0 z "
         id="path835" />
    </marker>
    <g
       id="g623">
      <symbol
         id="symbol2410"
         overflow="visible">
        <path
           id="path2536"
           d=""
           style="stroke:none;" />
      </symbol>
      <symbol
         id="symbol9846"
         overflow="visible">
        <path
           id="path9111"
           d="M 1.765625 -6.921875 L 0.328125 -6.8125 L 0.328125 -6.5 C 1.03125 -6.5 1.109375 -6.4375 1.109375 -5.9375 L 1.109375 -0.75 C 1.109375 -0.3125 1 -0.3125 0.328125 -0.3125 L 0.328125 0 C 0.65625 -0.015625 1.1875 -0.03125 1.4375 -0.03125 C 1.6875 -0.03125 2.171875 -0.015625 2.546875 0 L 2.546875 -0.3125 C 1.875 -0.3125 1.765625 -0.3125 1.765625 -0.75 Z M 1.765625 -6.921875 "
           style="stroke:none;" />
      </symbol>
      <symbol
         id="symbol6205"
         overflow="visible">
        <path
           id="path8468"
           d="M 1.09375 -3.421875 L 1.09375 -0.75 C 1.09375 -0.3125 0.984375 -0.3125 0.3125 -0.3125 L 0.3125 0 C 0.671875 -0.015625 1.171875 -0.03125 1.453125 -0.03125 C 1.703125 -0.03125 2.21875 -0.015625 2.5625 0 L 2.5625 -0.3125 C 1.890625 -0.3125 1.78125 -0.3125 1.78125 -0.75 L 1.78125 -2.59375 C 1.78125 -3.625 2.5 -4.1875 3.125 -4.1875 C 3.765625 -4.1875 3.875 -3.65625 3.875 -3.078125 L 3.875 -0.75 C 3.875 -0.3125 3.765625 -0.3125 3.09375 -0.3125 L 3.09375 0 C 3.4375 -0.015625 3.953125 -0.03125 4.21875 -0.03125 C 4.46875 -0.03125 5 -0.015625 5.328125 0 L 5.328125 -0.3125 C 4.8125 -0.3125 4.5625 -0.3125 4.5625 -0.609375 L 4.5625 -2.515625 C 4.5625 -3.375 4.5625 -3.671875 4.25 -4.03125 C 4.109375 -4.203125 3.78125 -4.40625 3.203125 -4.40625 C 2.46875 -4.40625 2 -3.984375 1.71875 -3.359375 L 1.71875 -4.40625 L 0.3125 -4.296875 L 0.3125 -3.984375 C 1.015625 -3.984375 1.09375 -3.921875 1.09375 -3.421875 Z M 1.09375 -3.421875 "
           style="stroke:none;" />
      </symbol>
      <symbol
         id="symbol5778"
         overflow="visible">
        <path
           id="path8863"
           d="M 3.296875 2.390625 C 3.296875 2.359375 3.296875 2.34375 3.125 2.171875 C 1.890625 0.921875 1.5625 -0.96875 1.5625 -2.5 C 1.5625 -4.234375 1.9375 -5.96875 3.171875 -7.203125 C 3.296875 -7.328125 3.296875 -7.34375 3.296875 -7.375 C 3.296875 -7.453125 3.265625 -7.484375 3.203125 -7.484375 C 3.09375 -7.484375 2.203125 -6.796875 1.609375 -5.53125 C 1.109375 -4.4375 0.984375 -3.328125 0.984375 -2.5 C 0.984375 -1.71875 1.09375 -0.515625 1.640625 0.625 C 2.25 1.84375 3.09375 2.5 3.203125 2.5 C 3.265625 2.5 3.296875 2.46875 3.296875 2.390625 Z M 3.296875 2.390625 "
           style="stroke:none;" />
      </symbol>
      <symbol
         id="symbol6100"
         overflow="visible">
        <path
           id="path412"
           d="M 2.875 -2.5 C 2.875 -3.265625 2.765625 -4.46875 2.21875 -5.609375 C 1.625 -6.828125 0.765625 -7.484375 0.671875 -7.484375 C 0.609375 -7.484375 0.5625 -7.4375 0.5625 -7.375 C 0.5625 -7.34375 0.5625 -7.328125 0.75 -7.140625 C 1.734375 -6.15625 2.296875 -4.578125 2.296875 -2.5 C 2.296875 -0.78125 1.9375 0.96875 0.703125 2.21875 C 0.5625 2.34375 0.5625 2.359375 0.5625 2.390625 C 0.5625 2.453125 0.609375 2.5 0.671875 2.5 C 0.765625 2.5 1.671875 1.8125 2.25 0.546875 C 2.765625 -0.546875 2.875 -1.65625 2.875 -2.5 Z M 2.875 -2.5 "
           style="stroke:none;" />
      </symbol>
      <symbol
         id="symbol7888"
         overflow="visible">
        <path
           id="path3240"
           d=""
           style="stroke:none;" />
      </symbol>
      <symbol
         id="symbol7545"
         overflow="visible">
        <path
           id="path1382"
           d="M 3.015625 -3.15625 L 4.71875 -3.15625 C 6.125 -3.15625 7.515625 -4.1875 7.515625 -5.296875 C 7.515625 -6.078125 6.859375 -6.8125 5.546875 -6.8125 L 2.328125 -6.8125 C 2.140625 -6.8125 2.03125 -6.8125 2.03125 -6.625 C 2.03125 -6.5 2.109375 -6.5 2.3125 -6.5 C 2.4375 -6.5 2.625 -6.484375 2.734375 -6.484375 C 2.90625 -6.453125 2.953125 -6.4375 2.953125 -6.3125 C 2.953125 -6.28125 2.953125 -6.25 2.921875 -6.125 L 1.578125 -0.78125 C 1.484375 -0.390625 1.46875 -0.3125 0.671875 -0.3125 C 0.515625 -0.3125 0.40625 -0.3125 0.40625 -0.125 C 0.40625 0 0.515625 0 0.546875 0 C 0.828125 0 1.53125 -0.03125 1.8125 -0.03125 C 2.03125 -0.03125 2.25 -0.015625 2.453125 -0.015625 C 2.671875 -0.015625 2.890625 0 3.09375 0 C 3.171875 0 3.296875 0 3.296875 -0.203125 C 3.296875 -0.3125 3.203125 -0.3125 3.015625 -0.3125 C 2.65625 -0.3125 2.375 -0.3125 2.375 -0.484375 C 2.375 -0.546875 2.390625 -0.59375 2.40625 -0.65625 Z M 3.734375 -6.125 C 3.828125 -6.46875 3.84375 -6.5 4.28125 -6.5 L 5.234375 -6.5 C 6.0625 -6.5 6.59375 -6.234375 6.59375 -5.546875 C 6.59375 -5.15625 6.390625 -4.296875 6 -3.9375 C 5.5 -3.484375 4.90625 -3.40625 4.46875 -3.40625 L 3.0625 -3.40625 Z M 3.734375 -6.125 "
           style="stroke:none;" />
      </symbol>
      <symbol
         id="symbol9034"
         overflow="visible">
        <path
           id="path1210"
           d="M 5.359375 -5.9375 C 5.21875 -5.796875 4.890625 -5.515625 4.890625 -5.34375 C 4.890625 -5.25 4.984375 -5.140625 5.078125 -5.140625 C 5.171875 -5.140625 5.21875 -5.21875 5.28125 -5.28125 C 5.390625 -5.421875 5.625 -5.703125 6.0625 -5.921875 C 6.125 -5.96875 6.234375 -6.015625 6.234375 -6.125 C 6.234375 -6.234375 6.15625 -6.28125 6.09375 -6.328125 C 5.875 -6.484375 5.765625 -6.65625 5.6875 -6.890625 C 5.65625 -6.984375 5.625 -7.125 5.484375 -7.125 C 5.34375 -7.125 5.28125 -6.984375 5.28125 -6.90625 C 5.28125 -6.859375 5.359375 -6.546875 5.515625 -6.328125 L 2.15625 -6.328125 C 2 -6.328125 1.8125 -6.328125 1.8125 -6.125 C 1.8125 -5.9375 2 -5.9375 2.15625 -5.9375 Z M 5.359375 -5.9375 "
           style="stroke:none;" />
      </symbol>
      <symbol
         id="symbol7450"
         overflow="visible">
        <path
           id="path6333"
           d="M 3.328125 -3.015625 C 3.390625 -3.265625 3.625 -4.1875 4.3125 -4.1875 C 4.359375 -4.1875 4.609375 -4.1875 4.8125 -4.0625 C 4.53125 -4 4.34375 -3.765625 4.34375 -3.515625 C 4.34375 -3.359375 4.453125 -3.171875 4.71875 -3.171875 C 4.9375 -3.171875 5.25 -3.34375 5.25 -3.75 C 5.25 -4.265625 4.671875 -4.40625 4.328125 -4.40625 C 3.75 -4.40625 3.40625 -3.875 3.28125 -3.65625 C 3.03125 -4.3125 2.5 -4.40625 2.203125 -4.40625 C 1.171875 -4.40625 0.59375 -3.125 0.59375 -2.875 C 0.59375 -2.765625 0.703125 -2.765625 0.71875 -2.765625 C 0.796875 -2.765625 0.828125 -2.796875 0.84375 -2.875 C 1.1875 -3.9375 1.84375 -4.1875 2.1875 -4.1875 C 2.375 -4.1875 2.71875 -4.09375 2.71875 -3.515625 C 2.71875 -3.203125 2.546875 -2.546875 2.1875 -1.140625 C 2.03125 -0.53125 1.671875 -0.109375 1.234375 -0.109375 C 1.171875 -0.109375 0.953125 -0.109375 0.734375 -0.234375 C 0.984375 -0.296875 1.203125 -0.5 1.203125 -0.78125 C 1.203125 -1.046875 0.984375 -1.125 0.84375 -1.125 C 0.53125 -1.125 0.296875 -0.875 0.296875 -0.546875 C 0.296875 -0.09375 0.78125 0.109375 1.21875 0.109375 C 1.890625 0.109375 2.25 -0.59375 2.265625 -0.640625 C 2.390625 -0.28125 2.75 0.109375 3.34375 0.109375 C 4.375 0.109375 4.9375 -1.171875 4.9375 -1.421875 C 4.9375 -1.53125 4.859375 -1.53125 4.828125 -1.53125 C 4.734375 -1.53125 4.71875 -1.484375 4.6875 -1.421875 C 4.359375 -0.34375 3.6875 -0.109375 3.375 -0.109375 C 2.984375 -0.109375 2.828125 -0.421875 2.828125 -0.765625 C 2.828125 -0.984375 2.875 -1.203125 2.984375 -1.640625 Z M 3.328125 -3.015625 "
           style="stroke:none;" />
      </symbol>
    </g>
    <g
       id="g9080">
      <symbol
         id="symbol8418"
         overflow="visible">
        <path
           id="path1569"
           d=""
           style="stroke:none;" />
      </symbol>
      <symbol
         id="symbol674"
         overflow="visible">
        <path
           id="path9303"
           d="M 1.578125 -0.78125 C 1.484375 -0.390625 1.46875 -0.3125 0.671875 -0.3125 C 0.515625 -0.3125 0.40625 -0.3125 0.40625 -0.125 C 0.40625 0 0.484375 0 0.671875 0 L 3.984375 0 C 6.046875 0 8.015625 -2.109375 8.015625 -4.28125 C 8.015625 -5.6875 7.171875 -6.8125 5.671875 -6.8125 L 2.328125 -6.8125 C 2.140625 -6.8125 2.03125 -6.8125 2.03125 -6.625 C 2.03125 -6.5 2.109375 -6.5 2.3125 -6.5 C 2.4375 -6.5 2.625 -6.484375 2.734375 -6.484375 C 2.90625 -6.453125 2.953125 -6.4375 2.953125 -6.3125 C 2.953125 -6.28125 2.953125 -6.25 2.921875 -6.125 Z M 3.734375 -6.125 C 3.828125 -6.46875 3.84375 -6.5 4.28125 -6.5 L 5.34375 -6.5 C 6.3125 -6.5 7.140625 -5.96875 7.140625 -4.65625 C 7.140625 -4.171875 6.953125 -2.53125 6.09375 -1.4375 C 5.8125 -1.0625 5.03125 -0.3125 3.796875 -0.3125 L 2.671875 -0.3125 C 2.53125 -0.3125 2.515625 -0.3125 2.453125 -0.3125 C 2.359375 -0.328125 2.328125 -0.34375 2.328125 -0.421875 C 2.328125 -0.453125 2.328125 -0.46875 2.375 -0.640625 Z M 3.734375 -6.125 "
           style="stroke:none;" />
      </symbol>
      <symbol
         id="symbol1593"
         overflow="visible">
        <path
           id="path7976"
           d=""
           style="stroke:none;" />
      </symbol>
      <symbol
         id="symbol4570"
         overflow="visible">
        <path
           id="path942"
           d="M 3.984375 -2.796875 C 3.953125 -2.859375 3.9375 -2.875 3.9375 -2.890625 C 3.9375 -2.90625 3.953125 -2.90625 4.109375 -3.015625 L 4.8125 -3.515625 C 5.734375 -4.15625 6.171875 -4.46875 6.65625 -4.515625 C 6.734375 -4.515625 6.828125 -4.515625 6.828125 -4.65625 C 6.828125 -4.71875 6.78125 -4.75 6.734375 -4.75 C 6.578125 -4.75 6.40625 -4.734375 6.25 -4.734375 C 6.0625 -4.734375 5.59375 -4.765625 5.40625 -4.765625 C 5.359375 -4.765625 5.265625 -4.765625 5.265625 -4.609375 C 5.265625 -4.59375 5.265625 -4.515625 5.359375 -4.515625 C 5.453125 -4.5 5.546875 -4.484375 5.546875 -4.40625 C 5.546875 -4.28125 5.328125 -4.125 5.234375 -4.0625 L 2.328125 -2.015625 L 2.875 -4.21875 C 2.9375 -4.453125 2.953125 -4.515625 3.484375 -4.515625 C 3.609375 -4.515625 3.703125 -4.515625 3.703125 -4.65625 C 3.703125 -4.71875 3.65625 -4.765625 3.59375 -4.765625 C 3.390625 -4.765625 2.875 -4.734375 2.671875 -4.734375 C 2.5625 -4.734375 2.3125 -4.734375 2.1875 -4.734375 C 2.0625 -4.75 1.890625 -4.765625 1.75 -4.765625 C 1.71875 -4.765625 1.609375 -4.765625 1.609375 -4.609375 C 1.609375 -4.515625 1.6875 -4.515625 1.84375 -4.515625 C 1.953125 -4.515625 1.984375 -4.515625 2.109375 -4.5 C 2.25 -4.484375 2.265625 -4.46875 2.265625 -4.390625 C 2.265625 -4.390625 2.265625 -4.34375 2.234375 -4.25 L 1.296875 -0.546875 C 1.25 -0.3125 1.234375 -0.25 0.6875 -0.25 C 0.5625 -0.25 0.484375 -0.25 0.484375 -0.09375 C 0.484375 -0.09375 0.484375 0 0.59375 0 C 0.796875 0 1.296875 -0.03125 1.5 -0.03125 C 1.609375 -0.03125 1.859375 -0.03125 1.984375 -0.015625 C 2.125 -0.015625 2.296875 0 2.421875 0 C 2.46875 0 2.578125 0 2.578125 -0.15625 C 2.578125 -0.25 2.484375 -0.25 2.34375 -0.25 C 2.34375 -0.25 2.203125 -0.25 2.078125 -0.265625 C 1.921875 -0.28125 1.921875 -0.296875 1.921875 -0.375 C 1.921875 -0.421875 2 -0.6875 2.25 -1.703125 L 3.40625 -2.515625 L 4.421875 -0.5625 C 4.46875 -0.46875 4.46875 -0.46875 4.46875 -0.4375 C 4.46875 -0.265625 4.265625 -0.25 4.140625 -0.25 C 4.0625 -0.25 3.96875 -0.25 3.96875 -0.09375 C 3.96875 -0.09375 3.96875 0 4.078125 0 C 4.28125 0 4.78125 -0.03125 4.96875 -0.03125 C 5.1875 -0.03125 5.46875 0 5.65625 0 C 5.75 0 5.796875 -0.046875 5.796875 -0.140625 C 5.796875 -0.25 5.703125 -0.25 5.640625 -0.25 C 5.515625 -0.25 5.296875 -0.265625 5.171875 -0.484375 Z M 3.984375 -2.796875 "
           style="stroke:none;" />
      </symbol>
      <symbol
         id="symbol1230"
         overflow="visible">
        <path
           id="path6753"
           d="M 2.875 -4.1875 C 2.9375 -4.4375 2.953125 -4.515625 3.59375 -4.515625 C 3.8125 -4.515625 3.875 -4.515625 3.875 -4.65625 C 3.875 -4.671875 3.875 -4.765625 3.765625 -4.765625 C 3.609375 -4.765625 3.421875 -4.75 3.25 -4.734375 C 3.078125 -4.734375 2.859375 -4.734375 2.6875 -4.734375 C 2.546875 -4.734375 2.359375 -4.734375 2.203125 -4.734375 C 2.0625 -4.734375 1.890625 -4.765625 1.75 -4.765625 C 1.71875 -4.765625 1.609375 -4.765625 1.609375 -4.609375 C 1.609375 -4.515625 1.6875 -4.515625 1.828125 -4.515625 C 1.84375 -4.515625 1.96875 -4.515625 2.09375 -4.5 C 2.25 -4.484375 2.265625 -4.46875 2.265625 -4.390625 C 2.265625 -4.390625 2.265625 -4.34375 2.234375 -4.25 L 1.296875 -0.546875 C 1.234375 -0.3125 1.21875 -0.25 0.6875 -0.25 C 0.578125 -0.25 0.484375 -0.25 0.484375 -0.109375 C 0.484375 0 0.5625 0 0.6875 0 L 4.1875 0 C 4.375 0 4.375 0 4.4375 -0.140625 C 4.5 -0.328125 5.03125 -1.671875 5.03125 -1.734375 C 5.03125 -1.75 5.015625 -1.828125 4.90625 -1.828125 C 4.828125 -1.828125 4.8125 -1.796875 4.765625 -1.6875 C 4.5 -1.03125 4.1875 -0.25 2.921875 -0.25 L 2.125 -0.25 C 1.921875 -0.25 1.90625 -0.265625 1.90625 -0.328125 C 1.90625 -0.328125 1.90625 -0.359375 1.9375 -0.46875 Z M 2.875 -4.1875 "
           style="stroke:none;" />
      </symbol>
    </g>
    <g
       id="g1455">
      <symbol
         id="symbol693"
         overflow="visible">
        <path
           id="path8675"
           d=""
           style="stroke:none;" />
      </symbol>
      <symbol
         id="symbol339"
         overflow="visible">
        <path
           id="path6050"
           d="M 3.015625 -3.15625 L 4.71875 -3.15625 C 6.125 -3.15625 7.515625 -4.1875 7.515625 -5.296875 C 7.515625 -6.078125 6.859375 -6.8125 5.546875 -6.8125 L 2.328125 -6.8125 C 2.140625 -6.8125 2.03125 -6.8125 2.03125 -6.625 C 2.03125 -6.5 2.109375 -6.5 2.3125 -6.5 C 2.4375 -6.5 2.625 -6.484375 2.734375 -6.484375 C 2.90625 -6.453125 2.953125 -6.4375 2.953125 -6.3125 C 2.953125 -6.28125 2.953125 -6.25 2.921875 -6.125 L 1.578125 -0.78125 C 1.484375 -0.390625 1.46875 -0.3125 0.671875 -0.3125 C 0.515625 -0.3125 0.40625 -0.3125 0.40625 -0.125 C 0.40625 0 0.515625 0 0.546875 0 C 0.828125 0 1.53125 -0.03125 1.8125 -0.03125 C 2.03125 -0.03125 2.25 -0.015625 2.453125 -0.015625 C 2.671875 -0.015625 2.890625 0 3.09375 0 C 3.171875 0 3.296875 0 3.296875 -0.203125 C 3.296875 -0.3125 3.203125 -0.3125 3.015625 -0.3125 C 2.65625 -0.3125 2.375 -0.3125 2.375 -0.484375 C 2.375 -0.546875 2.390625 -0.59375 2.40625 -0.65625 Z M 3.734375 -6.125 C 3.828125 -6.46875 3.84375 -6.5 4.28125 -6.5 L 5.234375 -6.5 C 6.0625 -6.5 6.59375 -6.234375 6.59375 -5.546875 C 6.59375 -5.15625 6.390625 -4.296875 6 -3.9375 C 5.5 -3.484375 4.90625 -3.40625 4.46875 -3.40625 L 3.0625 -3.40625 Z M 3.734375 -6.125 "
           style="stroke:none;" />
      </symbol>
      <symbol
         id="symbol681"
         overflow="visible">
        <path
           id="path870"
           d="M 5.359375 -5.9375 C 5.21875 -5.796875 4.890625 -5.515625 4.890625 -5.34375 C 4.890625 -5.25 4.984375 -5.140625 5.078125 -5.140625 C 5.171875 -5.140625 5.21875 -5.21875 5.28125 -5.28125 C 5.390625 -5.421875 5.625 -5.703125 6.0625 -5.921875 C 6.125 -5.96875 6.234375 -6.015625 6.234375 -6.125 C 6.234375 -6.234375 6.15625 -6.28125 6.09375 -6.328125 C 5.875 -6.484375 5.765625 -6.65625 5.6875 -6.890625 C 5.65625 -6.984375 5.625 -7.125 5.484375 -7.125 C 5.34375 -7.125 5.28125 -6.984375 5.28125 -6.90625 C 5.28125 -6.859375 5.359375 -6.546875 5.515625 -6.328125 L 2.15625 -6.328125 C 2 -6.328125 1.8125 -6.328125 1.8125 -6.125 C 1.8125 -5.9375 2 -5.9375 2.15625 -5.9375 Z M 5.359375 -5.9375 "
           style="stroke:none;" />
      </symbol>
      <symbol
         id="symbol6209"
         overflow="visible">
        <path
           id="path7439"
           d="M 3.328125 -3.015625 C 3.390625 -3.265625 3.625 -4.1875 4.3125 -4.1875 C 4.359375 -4.1875 4.609375 -4.1875 4.8125 -4.0625 C 4.53125 -4 4.34375 -3.765625 4.34375 -3.515625 C 4.34375 -3.359375 4.453125 -3.171875 4.71875 -3.171875 C 4.9375 -3.171875 5.25 -3.34375 5.25 -3.75 C 5.25 -4.265625 4.671875 -4.40625 4.328125 -4.40625 C 3.75 -4.40625 3.40625 -3.875 3.28125 -3.65625 C 3.03125 -4.3125 2.5 -4.40625 2.203125 -4.40625 C 1.171875 -4.40625 0.59375 -3.125 0.59375 -2.875 C 0.59375 -2.765625 0.703125 -2.765625 0.71875 -2.765625 C 0.796875 -2.765625 0.828125 -2.796875 0.84375 -2.875 C 1.1875 -3.9375 1.84375 -4.1875 2.1875 -4.1875 C 2.375 -4.1875 2.71875 -4.09375 2.71875 -3.515625 C 2.71875 -3.203125 2.546875 -2.546875 2.1875 -1.140625 C 2.03125 -0.53125 1.671875 -0.109375 1.234375 -0.109375 C 1.171875 -0.109375 0.953125 -0.109375 0.734375 -0.234375 C 0.984375 -0.296875 1.203125 -0.5 1.203125 -0.78125 C 1.203125 -1.046875 0.984375 -1.125 0.84375 -1.125 C 0.53125 -1.125 0.296875 -0.875 0.296875 -0.546875 C 0.296875 -0.09375 0.78125 0.109375 1.21875 0.109375 C 1.890625 0.109375 2.25 -0.59375 2.265625 -0.640625 C 2.390625 -0.28125 2.75 0.109375 3.34375 0.109375 C 4.375 0.109375 4.9375 -1.171875 4.9375 -1.421875 C 4.9375 -1.53125 4.859375 -1.53125 4.828125 -1.53125 C 4.734375 -1.53125 4.71875 -1.484375 4.6875 -1.421875 C 4.359375 -0.34375 3.6875 -0.109375 3.375 -0.109375 C 2.984375 -0.109375 2.828125 -0.421875 2.828125 -0.765625 C 2.828125 -0.984375 2.875 -1.203125 2.984375 -1.640625 Z M 3.328125 -3.015625 "
           style="stroke:none;" />
      </symbol>
      <symbol
         id="symbol3811"
         overflow="visible">
        <path
           id="path6641"
           d=""
           style="stroke:none;" />
      </symbol>
      <symbol
         id="symbol2061"
         overflow="visible">
        <path
           id="path2594"
           d="M 3.296875 2.390625 C 3.296875 2.359375 3.296875 2.34375 3.125 2.171875 C 1.890625 0.921875 1.5625 -0.96875 1.5625 -2.5 C 1.5625 -4.234375 1.9375 -5.96875 3.171875 -7.203125 C 3.296875 -7.328125 3.296875 -7.34375 3.296875 -7.375 C 3.296875 -7.453125 3.265625 -7.484375 3.203125 -7.484375 C 3.09375 -7.484375 2.203125 -6.796875 1.609375 -5.53125 C 1.109375 -4.4375 0.984375 -3.328125 0.984375 -2.5 C 0.984375 -1.71875 1.09375 -0.515625 1.640625 0.625 C 2.25 1.84375 3.09375 2.5 3.203125 2.5 C 3.265625 2.5 3.296875 2.46875 3.296875 2.390625 Z M 3.296875 2.390625 "
           style="stroke:none;" />
      </symbol>
      <symbol
         id="symbol2553"
         overflow="visible">
        <path
           id="path9805"
           d="M 2.875 -2.5 C 2.875 -3.265625 2.765625 -4.46875 2.21875 -5.609375 C 1.625 -6.828125 0.765625 -7.484375 0.671875 -7.484375 C 0.609375 -7.484375 0.5625 -7.4375 0.5625 -7.375 C 0.5625 -7.34375 0.5625 -7.328125 0.75 -7.140625 C 1.734375 -6.15625 2.296875 -4.578125 2.296875 -2.5 C 2.296875 -0.78125 1.9375 0.96875 0.703125 2.21875 C 0.5625 2.34375 0.5625 2.359375 0.5625 2.390625 C 0.5625 2.453125 0.609375 2.5 0.671875 2.5 C 0.765625 2.5 1.671875 1.8125 2.25 0.546875 C 2.765625 -0.546875 2.875 -1.65625 2.875 -2.5 Z M 2.875 -2.5 "
           style="stroke:none;" />
      </symbol>
    </g>
  </defs>
  <sodipodi:namedview
     inkscape:window-maximized="0"
     inkscape:window-y="120"
     inkscape:window-x="117"
     inkscape:window-height="754"
     inkscape:window-width="1694"
     showgrid="false"
     inkscape:document-rotation="0"
     inkscape:current-layer="layer1"
     inkscape:document-units="mm"
     inkscape:cy="404.31351"
     inkscape:cx="337.4652"
     inkscape:zoom="0.5"
     inkscape:pageshadow="2"
     inkscape:pageopacity="0.0"
     borderopacity="1.0"
     bordercolor="#666666"
     pagecolor="#ffffff"
     id="base" />
  <metadata
     id="metadata5">
    <rdf:RDF>
      <cc:Work
         rdf:about="">
        <dc:format>image/svg+xml</dc:format>
        <dc:type
           rdf:resource="http://purl.org/dc/dcmitype/StillImage" />
        <dc:title></dc:title>
      </cc:Work>
    </rdf:RDF>
  </metadata>
  <g
     id="layer1"
     inkscape:groupmode="layer"
     inkscape:label="Layer 1">
    <path
       id="path833"
       d="m 43.404667,98.313878 0.563484,116.325562 0.120128,0.18593"
       style="fill:none;stroke:#000000;stroke-width:0.57431;stroke-linecap:butt;stroke-linejoin:miter;stroke-miterlimit:4;stroke-dasharray:none;stroke-opacity:1;marker-start:url(#Arrow1Lstart)" />
    <path
       id="path1145"
       d="M 159.96029,149.66647 43.767519,148.15738"
       style="fill:none;stroke:#000000;stroke-width:0.565;stroke-linecap:butt;stroke-linejoin:miter;stroke-opacity:1;marker-start:url(#marker1149);stroke-miterlimit:4;stroke-dasharray:none" />
    <path
       inkscape:original-d="m 45.360108,212.54777 c 2.778892,-12.11768 5.557233,-24.2357 8.335022,-36.35411 6.837221,-4.60464 13.831276,-9.20947 20.746085,-13.81476 13.641445,-2.85499 27.401335,-5.71023 41.101185,-8.5659 8.28396,-1.76012 16.56705,-3.52055 24.84975,-5.28138"
       inkscape:path-effect="#path-effect1201"
       id="path1199"
       d="m 45.360108,212.54777 c 2.778291,-12.11782 5.556628,-24.23584 10.376373,-32.57937 4.819746,-8.34353 11.789585,-12.98472 22.069078,-16.70887 10.279493,-3.72414 24.036891,-6.59132 35.028801,-8.89922 10.9919,-2.3079 19.27499,-4.06833 27.55779,-5.82869"
       style="fill:none;stroke:#0060f4;stroke-width:0.937;stroke-linecap:butt;stroke-linejoin:miter;stroke-miterlimit:4;stroke-dasharray:none;stroke-opacity:1" />
    <path
       inkscape:original-d="m 44.041361,117.63997 c 40.245522,-0.0401 80.490779,-0.0805 120.735769,-0.12117"
       inkscape:path-effect="#path-effect1217"
       id="path1215"
       d="m 44.041361,117.63997 c 40.245522,-0.0404 80.490779,-0.0808 120.735769,-0.12117"
       style="fill:#0000ff;stroke:#0e00ff;stroke-width:0.565;stroke-linecap:butt;stroke-linejoin:miter;stroke-opacity:1;stroke-miterlimit:4;stroke-dasharray:0, 0.56499999999999995, 1.12999999999999989, 1.69500000000000006, 2.25999999999999979, 2.82500000000000018, 3.39000000000000012, 3.95500000000000007, 4.51999999999999957, 5.08499999999999996, 5.65000000000000036, 6.21499999999999986, 6.78000000000000025, 7.34499999999999975, 7.91000000000000014;stroke-dashoffset:0" />
    <g
       style="fill:#0000ff"
       inkscape:label=""
       transform="matrix(0.82247921,0,0,0.87236194,15.89463,94.626157)"
       id="g1266">
      <g
         style="fill:#0000ff"
         id="g5085">
        <g
           id="g2890"
           style="fill:#0000ff;fill-opacity:1">
          <use
             style="fill:#0000ff"
             height="100%"
             width="100%"
             id="use321"
             y="81.962997"
             x="91.925003"
             xlink:href="#symbol9846" />
          <use
             style="fill:#0000ff"
             height="100%"
             width="100%"
             id="use7059"
             y="81.962997"
             x="94.692612"
             xlink:href="#symbol6205" />
        </g>
        <g
           id="g1962"
           style="fill:#0000ff;fill-opacity:1">
          <use
             style="fill:#0000ff"
             height="100%"
             width="100%"
             id="use4909"
             y="81.962997"
             x="101.888"
             xlink:href="#symbol7545" />
        </g>
        <g
           id="g2913"
           style="fill:#0000ff;fill-opacity:1">
          <use
             style="fill:#0000ff"
             height="100%"
             width="100%"
             id="use9997"
             y="81.962997"
             x="109.668"
             xlink:href="#symbol5778" />
        </g>
        <g
           id="g7666"
           style="fill:#0000ff;fill-opacity:1">
          <use
             style="fill:#0000ff"
             height="100%"
             width="100%"
             id="use5615"
             y="81.962997"
             x="113.409"
             xlink:href="#symbol9034" />
        </g>
        <g
           id="g5537"
           style="fill:#0000ff;fill-opacity:1">
          <use
             style="fill:#0000ff"
             height="100%"
             width="100%"
             id="use6024"
             y="81.962997"
             x="113.53851"
             xlink:href="#symbol7450" />
        </g>
        <g
           id="g6959"
           style="fill:#0000ff;fill-opacity:1">
          <use
             style="fill:#0000ff"
             height="100%"
             width="100%"
             id="use3602"
             y="81.962997"
             x="119.236"
             xlink:href="#symbol6100" />
        </g>
      </g>
    </g>
    <g
       inkscape:label=""
       transform="matrix(0.88245472,0,0,0.91676803,-1.918139,63.326617)"
       id="g1370">
      <g
         id="g5896">
        <g
           id="g9720"
           style="fill:#000000;fill-opacity:1">
          <use
             height="100%"
             width="100%"
             id="use8700"
             y="81.962997"
             x="91.925003"
             xlink:href="#symbol674" />
        </g>
        <g
           id="g7705"
           style="fill:#000000;fill-opacity:1">
          <use
             height="100%"
             width="100%"
             id="use2866"
             y="83.457001"
             x="100.173"
             xlink:href="#symbol4570" />
        </g>
        <g
           id="g8305"
           style="fill:#000000;fill-opacity:1">
          <use
             height="100%"
             width="100%"
             id="use5824"
             y="83.457001"
             x="107.35532"
             xlink:href="#symbol1230" />
        </g>
      </g>
    </g>
    <text
       transform="scale(0.9636651,1.0377049)"
       id="text1395"
       y="134.36481"
       x="63.24387"
       style="font-style:normal;font-variant:normal;font-weight:normal;font-stretch:normal;font-size:10.236px;line-height:1.25;font-family:cmsy10;-inkscape-font-specification:cmsy10;stroke-width:0.213249"
       xml:space="preserve"><tspan
         style="font-style:normal;font-variant:normal;font-weight:normal;font-stretch:normal;font-size:10.236px;font-family:cmsy10;-inkscape-font-specification:cmsy10;stroke-width:0.213249"
         y="134.36481"
         x="63.24387"
         id="tspan1393"
         sodipodi:role="line">F</tspan></text>
    <path
       inkscape:original-d="m 71.560956,117.767 c 0.04279,16.17081 0.08531,32.34136 0.127561,48.51164"
       inkscape:path-effect="#path-effect1399"
       id="path1397"
       d="m 71.560956,117.767 c 0.04252,16.17081 0.08504,32.34136 0.127561,48.51164"
       style="fill:none;stroke:#000000;stroke-width:0.264583px;stroke-linecap:butt;stroke-linejoin:miter;stroke-opacity:1;marker-start:url(#marker1403);marker-end:url(#Arrow1Lend)" />
    <path
       inkscape:original-d="m 75.98062,117.58156 c 0.03791,10.35803 0.07555,20.7158 0.112937,31.07331"
       inkscape:path-effect="#path-effect1487"
       id="path1485"
       d="m 75.98062,117.58156 c 0.03765,10.35803 0.07529,20.7158 0.112937,31.07331"
       style="fill:none;stroke:#000000;stroke-width:0.264583px;stroke-linecap:butt;stroke-linejoin:miter;stroke-opacity:1;marker-start:url(#marker1537);marker-end:url(#marker1491)" />
    <g
       inkscape:label=""
       transform="translate(71.088564,72.14701)"
       id="g1718">
      <g
         id="g9055">
        <g
           id="g6409"
           style="fill:#000000;fill-opacity:1">
          <use
             height="100%"
             width="100%"
             id="use9182"
             y="81.962997"
             x="91.925003"
             xlink:href="#symbol339" />
        </g>
        <g
           id="g8531"
           style="fill:#000000;fill-opacity:1">
          <use
             height="100%"
             width="100%"
             id="use1857"
             y="81.962997"
             x="99.705002"
             xlink:href="#symbol2061" />
        </g>
        <g
           id="g7587"
           style="fill:#000000;fill-opacity:1">
          <use
             height="100%"
             width="100%"
             id="use2587"
             y="81.962997"
             x="103.446"
             xlink:href="#symbol681" />
        </g>
        <g
           id="g9381"
           style="fill:#000000;fill-opacity:1">
          <use
             height="100%"
             width="100%"
             id="use5970"
             y="81.962997"
             x="103.57552"
             xlink:href="#symbol6209" />
        </g>
        <g
           id="g384"
           style="fill:#000000;fill-opacity:1">
          <use
             height="100%"
             width="100%"
             id="use5512"
             y="81.962997"
             x="109.273"
             xlink:href="#symbol2553" />
        </g>
      </g>
    </g>
  </g>
</svg>
