<?xml version="1.0" encoding="UTF-8" standalone="no"?>
<svg
   xmlns:dc="http://purl.org/dc/elements/1.1/"
   xmlns:cc="http://creativecommons.org/ns#"
   xmlns:rdf="http://www.w3.org/1999/02/22-rdf-syntax-ns#"
   xmlns:svg="http://www.w3.org/2000/svg"
   xmlns="http://www.w3.org/2000/svg"
   xmlns:xlink="http://www.w3.org/1999/xlink"
   xmlns:sodipodi="http://sodipodi.sourceforge.net/DTD/sodipodi-0.dtd"
   xmlns:inkscape="http://www.inkscape.org/namespaces/inkscape"
   inkscape:export-ydpi="96"
   inkscape:export-xdpi="96"
   inkscape:export-filename="/home/rrtucci/latex_docs/Bayesuvius/var-bay/kl-q-support.png"
   id="svg8"
   version="1.1"
   viewBox="0 0 210 297"
   height="297mm"
   width="210mm"
   inkscape:version="1.0 (1.0+r73+1)"
   sodipodi:docname="kl-q-support.svg">
  <defs
     id="defs2">
    <marker
       inkscape:isstock="true"
       style="overflow:visible"
       id="marker1644"
       refX="0.0"
       refY="0.0"
       orient="auto"
       inkscape:stockid="Arrow1Lstart">
      <path
         transform="scale(0.8) translate(12.5,0)"
         style="fill-rule:evenodd;stroke:#000000;stroke-width:1pt;stroke-opacity:1;fill:#000000;fill-opacity:1"
         d="M 0.0,0.0 L 5.0,-5.0 L -12.5,0.0 L 5.0,5.0 L 0.0,0.0 z "
         id="path1642" />
    </marker>
    <marker
       inkscape:collect="always"
       inkscape:stockid="Arrow1Lstart"
       orient="auto"
       refY="0.0"
       refX="0.0"
       id="marker1441"
       style="overflow:visible"
       inkscape:isstock="true">
      <path
         id="path1439"
         d="M 0.0,0.0 L 5.0,-5.0 L -12.5,0.0 L 5.0,5.0 L 0.0,0.0 z "
         style="fill-rule:evenodd;stroke:#000000;stroke-width:1pt;stroke-opacity:1;fill:#000000;fill-opacity:1"
         transform="scale(0.8) translate(12.5,0)" />
    </marker>
    <inkscape:path-effect
       effect="bspline"
       id="path-effect858"
       is_visible="true"
       lpeversion="1"
       weight="33.333333"
       steps="2"
       helper_size="0"
       apply_no_weight="true"
       apply_with_weight="true"
       only_selected="false" />
    <inkscape:path-effect
       only_selected="false"
       apply_with_weight="true"
       apply_no_weight="true"
       helper_size="0"
       steps="2"
       weight="33.333333"
       lpeversion="1"
       is_visible="true"
       id="path-effect839"
       effect="bspline" />
    <inkscape:path-effect
       only_selected="false"
       apply_with_weight="true"
       apply_no_weight="true"
       helper_size="0"
       steps="2"
       weight="33.333333"
       lpeversion="1"
       is_visible="true"
       id="path-effect835"
       effect="bspline" />
    <g
       id="g981">
      <symbol
         id="symbol34"
         overflow="visible">
        <path
           id="path2190"
           d=""
           style="stroke:none;" />
      </symbol>
      <symbol
         id="symbol2453"
         overflow="visible">
        <path
           id="path5313"
           d="M 3.015625 -3.15625 L 4.71875 -3.15625 C 6.125 -3.15625 7.515625 -4.1875 7.515625 -5.296875 C 7.515625 -6.078125 6.859375 -6.8125 5.546875 -6.8125 L 2.328125 -6.8125 C 2.140625 -6.8125 2.03125 -6.8125 2.03125 -6.625 C 2.03125 -6.5 2.109375 -6.5 2.3125 -6.5 C 2.4375 -6.5 2.625 -6.484375 2.734375 -6.484375 C 2.90625 -6.453125 2.953125 -6.4375 2.953125 -6.3125 C 2.953125 -6.28125 2.953125 -6.25 2.921875 -6.125 L 1.578125 -0.78125 C 1.484375 -0.390625 1.46875 -0.3125 0.671875 -0.3125 C 0.515625 -0.3125 0.40625 -0.3125 0.40625 -0.125 C 0.40625 0 0.515625 0 0.546875 0 C 0.828125 0 1.53125 -0.03125 1.8125 -0.03125 C 2.03125 -0.03125 2.25 -0.015625 2.453125 -0.015625 C 2.671875 -0.015625 2.890625 0 3.09375 0 C 3.171875 0 3.296875 0 3.296875 -0.203125 C 3.296875 -0.3125 3.203125 -0.3125 3.015625 -0.3125 C 2.65625 -0.3125 2.375 -0.3125 2.375 -0.484375 C 2.375 -0.546875 2.390625 -0.59375 2.40625 -0.65625 Z M 3.734375 -6.125 C 3.828125 -6.46875 3.84375 -6.5 4.28125 -6.5 L 5.234375 -6.5 C 6.0625 -6.5 6.59375 -6.234375 6.59375 -5.546875 C 6.59375 -5.15625 6.390625 -4.296875 6 -3.9375 C 5.5 -3.484375 4.90625 -3.40625 4.46875 -3.40625 L 3.0625 -3.40625 Z M 3.734375 -6.125 "
           style="stroke:none;" />
      </symbol>
      <symbol
         id="symbol9881"
         overflow="visible">
        <path
           id="path2189"
           d=""
           style="stroke:none;" />
      </symbol>
      <symbol
         id="symbol1632"
         overflow="visible">
        <path
           id="path6657"
           d="M 3.546875 -2.875 C 3.546875 -2.90625 3.5625 -2.9375 3.5625 -2.96875 C 3.5625 -3.015625 3.53125 -3.078125 3.46875 -3.078125 C 3.40625 -3.078125 3.109375 -2.84375 2.96875 -2.609375 C 2.90625 -2.75 2.671875 -3.078125 2.21875 -3.078125 C 1.328125 -3.078125 0.421875 -2.09375 0.421875 -1.09375 C 0.421875 -0.40625 0.875 0.0625 1.484375 0.0625 C 1.875 0.0625 2.203125 -0.1875 2.359375 -0.3125 C 2.34375 -0.296875 2.125 0.578125 2.109375 0.703125 C 2 1.09375 2 1.09375 1.5625 1.09375 C 1.484375 1.09375 1.390625 1.09375 1.390625 1.25 C 1.390625 1.296875 1.421875 1.359375 1.484375 1.359375 C 1.71875 1.359375 1.984375 1.328125 2.21875 1.328125 C 2.453125 1.328125 2.75 1.359375 2.96875 1.359375 C 3.03125 1.359375 3.09375 1.328125 3.09375 1.203125 C 3.09375 1.09375 3 1.09375 2.921875 1.09375 C 2.765625 1.09375 2.578125 1.09375 2.578125 1.015625 C 2.578125 1 2.578125 0.984375 2.609375 0.859375 Z M 2.5 -0.875 C 2.453125 -0.765625 2.453125 -0.75 2.375 -0.640625 C 2.09375 -0.3125 1.765625 -0.125 1.5 -0.125 C 1.234375 -0.125 0.984375 -0.3125 0.984375 -0.796875 C 0.984375 -1.171875 1.1875 -1.9375 1.359375 -2.21875 C 1.671875 -2.78125 2.03125 -2.875 2.21875 -2.875 C 2.703125 -2.875 2.84375 -2.34375 2.84375 -2.265625 C 2.84375 -2.234375 2.828125 -2.1875 2.828125 -2.171875 Z M 2.5 -0.875 "
           style="stroke:none;" />
      </symbol>
    </g>
    <g
       id="g4578">
      <symbol
         id="symbol6442"
         overflow="visible">
        <path
           id="path8574"
           d=""
           style="stroke:none;" />
      </symbol>
      <symbol
         id="symbol528"
         overflow="visible">
        <path
           id="path7601"
           d="M 3.015625 -3.15625 L 4.71875 -3.15625 C 6.125 -3.15625 7.515625 -4.1875 7.515625 -5.296875 C 7.515625 -6.078125 6.859375 -6.8125 5.546875 -6.8125 L 2.328125 -6.8125 C 2.140625 -6.8125 2.03125 -6.8125 2.03125 -6.625 C 2.03125 -6.5 2.109375 -6.5 2.3125 -6.5 C 2.4375 -6.5 2.625 -6.484375 2.734375 -6.484375 C 2.90625 -6.453125 2.953125 -6.4375 2.953125 -6.3125 C 2.953125 -6.28125 2.953125 -6.25 2.921875 -6.125 L 1.578125 -0.78125 C 1.484375 -0.390625 1.46875 -0.3125 0.671875 -0.3125 C 0.515625 -0.3125 0.40625 -0.3125 0.40625 -0.125 C 0.40625 0 0.515625 0 0.546875 0 C 0.828125 0 1.53125 -0.03125 1.8125 -0.03125 C 2.03125 -0.03125 2.25 -0.015625 2.453125 -0.015625 C 2.671875 -0.015625 2.890625 0 3.09375 0 C 3.171875 0 3.296875 0 3.296875 -0.203125 C 3.296875 -0.3125 3.203125 -0.3125 3.015625 -0.3125 C 2.65625 -0.3125 2.375 -0.3125 2.375 -0.484375 C 2.375 -0.546875 2.390625 -0.59375 2.40625 -0.65625 Z M 3.734375 -6.125 C 3.828125 -6.46875 3.84375 -6.5 4.28125 -6.5 L 5.234375 -6.5 C 6.0625 -6.5 6.59375 -6.234375 6.59375 -5.546875 C 6.59375 -5.15625 6.390625 -4.296875 6 -3.9375 C 5.5 -3.484375 4.90625 -3.40625 4.46875 -3.40625 L 3.0625 -3.40625 Z M 3.734375 -6.125 "
           style="stroke:none;" />
      </symbol>
      <symbol
         id="symbol7267"
         overflow="visible">
        <path
           id="path9742"
           d="M 2.859375 -6.8125 C 2.859375 -6.8125 2.859375 -6.921875 2.734375 -6.921875 C 2.5 -6.921875 1.78125 -6.84375 1.515625 -6.8125 C 1.4375 -6.8125 1.328125 -6.796875 1.328125 -6.625 C 1.328125 -6.5 1.421875 -6.5 1.5625 -6.5 C 2.046875 -6.5 2.0625 -6.4375 2.0625 -6.328125 L 2.03125 -6.125 L 0.59375 -0.390625 C 0.546875 -0.25 0.546875 -0.234375 0.546875 -0.171875 C 0.546875 0.0625 0.75 0.109375 0.84375 0.109375 C 1 0.109375 1.15625 -0.015625 1.203125 -0.15625 L 1.390625 -0.90625 L 1.609375 -1.796875 C 1.671875 -2.03125 1.734375 -2.25 1.78125 -2.46875 C 1.796875 -2.53125 1.890625 -2.859375 1.890625 -2.921875 C 1.921875 -3.015625 2.234375 -3.5625 2.578125 -3.84375 C 2.796875 -4 3.09375 -4.1875 3.53125 -4.1875 C 3.953125 -4.1875 4.0625 -3.84375 4.0625 -3.484375 C 4.0625 -2.953125 3.6875 -1.859375 3.453125 -1.25 C 3.375 -1.03125 3.3125 -0.90625 3.3125 -0.703125 C 3.3125 -0.234375 3.671875 0.109375 4.140625 0.109375 C 5.078125 0.109375 5.4375 -1.34375 5.4375 -1.421875 C 5.4375 -1.53125 5.359375 -1.53125 5.328125 -1.53125 C 5.21875 -1.53125 5.21875 -1.5 5.171875 -1.34375 C 5.03125 -0.8125 4.703125 -0.109375 4.15625 -0.109375 C 3.984375 -0.109375 3.921875 -0.203125 3.921875 -0.4375 C 3.921875 -0.6875 4 -0.921875 4.09375 -1.140625 C 4.25 -1.578125 4.703125 -2.765625 4.703125 -3.34375 C 4.703125 -3.984375 4.3125 -4.40625 3.5625 -4.40625 C 2.9375 -4.40625 2.453125 -4.09375 2.078125 -3.640625 Z M 2.859375 -6.8125 "
           style="stroke:none;" />
      </symbol>
      <symbol
         id="symbol5953"
         overflow="visible">
        <path
           id="path5851"
           d=""
           style="stroke:none;" />
      </symbol>
      <symbol
         id="symbol3496"
         overflow="visible">
        <path
           id="path9957"
           d="M 3.546875 -2.875 C 3.546875 -2.90625 3.5625 -2.9375 3.5625 -2.96875 C 3.5625 -3.015625 3.53125 -3.078125 3.46875 -3.078125 C 3.40625 -3.078125 3.109375 -2.84375 2.96875 -2.609375 C 2.90625 -2.75 2.671875 -3.078125 2.21875 -3.078125 C 1.328125 -3.078125 0.421875 -2.09375 0.421875 -1.09375 C 0.421875 -0.40625 0.875 0.0625 1.484375 0.0625 C 1.875 0.0625 2.203125 -0.1875 2.359375 -0.3125 C 2.34375 -0.296875 2.125 0.578125 2.109375 0.703125 C 2 1.09375 2 1.09375 1.5625 1.09375 C 1.484375 1.09375 1.390625 1.09375 1.390625 1.25 C 1.390625 1.296875 1.421875 1.359375 1.484375 1.359375 C 1.71875 1.359375 1.984375 1.328125 2.21875 1.328125 C 2.453125 1.328125 2.75 1.359375 2.96875 1.359375 C 3.03125 1.359375 3.09375 1.328125 3.09375 1.203125 C 3.09375 1.09375 3 1.09375 2.921875 1.09375 C 2.765625 1.09375 2.578125 1.09375 2.578125 1.015625 C 2.578125 1 2.578125 0.984375 2.609375 0.859375 Z M 2.5 -0.875 C 2.453125 -0.765625 2.453125 -0.75 2.375 -0.640625 C 2.09375 -0.3125 1.765625 -0.125 1.5 -0.125 C 1.234375 -0.125 0.984375 -0.3125 0.984375 -0.796875 C 0.984375 -1.171875 1.1875 -1.9375 1.359375 -2.21875 C 1.671875 -2.78125 2.03125 -2.875 2.21875 -2.875 C 2.703125 -2.875 2.84375 -2.34375 2.84375 -2.265625 C 2.84375 -2.234375 2.828125 -2.1875 2.828125 -2.171875 Z M 2.5 -0.875 "
           style="stroke:none;" />
      </symbol>
      <symbol
         id="symbol7321"
         overflow="visible">
        <path
           id="path3670"
           d=""
           style="stroke:none;" />
      </symbol>
      <symbol
         id="symbol6387"
         overflow="visible">
        <path
           id="path818"
           d="M 3.296875 2.390625 C 3.296875 2.359375 3.296875 2.34375 3.125 2.171875 C 1.890625 0.921875 1.5625 -0.96875 1.5625 -2.5 C 1.5625 -4.234375 1.9375 -5.96875 3.171875 -7.203125 C 3.296875 -7.328125 3.296875 -7.34375 3.296875 -7.375 C 3.296875 -7.453125 3.265625 -7.484375 3.203125 -7.484375 C 3.09375 -7.484375 2.203125 -6.796875 1.609375 -5.53125 C 1.109375 -4.4375 0.984375 -3.328125 0.984375 -2.5 C 0.984375 -1.71875 1.09375 -0.515625 1.640625 0.625 C 2.25 1.84375 3.09375 2.5 3.203125 2.5 C 3.265625 2.5 3.296875 2.46875 3.296875 2.390625 Z M 3.296875 2.390625 "
           style="stroke:none;" />
      </symbol>
      <symbol
         id="symbol3099"
         overflow="visible">
        <path
           id="path6041"
           d="M 2.875 -2.5 C 2.875 -3.265625 2.765625 -4.46875 2.21875 -5.609375 C 1.625 -6.828125 0.765625 -7.484375 0.671875 -7.484375 C 0.609375 -7.484375 0.5625 -7.4375 0.5625 -7.375 C 0.5625 -7.34375 0.5625 -7.328125 0.75 -7.140625 C 1.734375 -6.15625 2.296875 -4.578125 2.296875 -2.5 C 2.296875 -0.78125 1.9375 0.96875 0.703125 2.21875 C 0.5625 2.34375 0.5625 2.359375 0.5625 2.390625 C 0.5625 2.453125 0.609375 2.5 0.671875 2.5 C 0.765625 2.5 1.671875 1.8125 2.25 0.546875 C 2.765625 -0.546875 2.875 -1.65625 2.875 -2.5 Z M 2.875 -2.5 "
           style="stroke:none;" />
      </symbol>
    </g>
    <g
       id="g1289">
      <symbol
         id="symbol980"
         overflow="visible">
        <path
           id="path59"
           d=""
           style="stroke:none;" />
      </symbol>
      <symbol
         id="symbol6330"
         overflow="visible">
        <path
           id="path7492"
           d="M 3.015625 -3.15625 L 4.71875 -3.15625 C 6.125 -3.15625 7.515625 -4.1875 7.515625 -5.296875 C 7.515625 -6.078125 6.859375 -6.8125 5.546875 -6.8125 L 2.328125 -6.8125 C 2.140625 -6.8125 2.03125 -6.8125 2.03125 -6.625 C 2.03125 -6.5 2.109375 -6.5 2.3125 -6.5 C 2.4375 -6.5 2.625 -6.484375 2.734375 -6.484375 C 2.90625 -6.453125 2.953125 -6.4375 2.953125 -6.3125 C 2.953125 -6.28125 2.953125 -6.25 2.921875 -6.125 L 1.578125 -0.78125 C 1.484375 -0.390625 1.46875 -0.3125 0.671875 -0.3125 C 0.515625 -0.3125 0.40625 -0.3125 0.40625 -0.125 C 0.40625 0 0.515625 0 0.546875 0 C 0.828125 0 1.53125 -0.03125 1.8125 -0.03125 C 2.03125 -0.03125 2.25 -0.015625 2.453125 -0.015625 C 2.671875 -0.015625 2.890625 0 3.09375 0 C 3.171875 0 3.296875 0 3.296875 -0.203125 C 3.296875 -0.3125 3.203125 -0.3125 3.015625 -0.3125 C 2.65625 -0.3125 2.375 -0.3125 2.375 -0.484375 C 2.375 -0.546875 2.390625 -0.59375 2.40625 -0.65625 Z M 3.734375 -6.125 C 3.828125 -6.46875 3.84375 -6.5 4.28125 -6.5 L 5.234375 -6.5 C 6.0625 -6.5 6.59375 -6.234375 6.59375 -5.546875 C 6.59375 -5.15625 6.390625 -4.296875 6 -3.9375 C 5.5 -3.484375 4.90625 -3.40625 4.46875 -3.40625 L 3.0625 -3.40625 Z M 3.734375 -6.125 "
           style="stroke:none;" />
      </symbol>
      <symbol
         id="symbol5735"
         overflow="visible">
        <path
           id="path8830"
           d="M 2.859375 -6.8125 C 2.859375 -6.8125 2.859375 -6.921875 2.734375 -6.921875 C 2.5 -6.921875 1.78125 -6.84375 1.515625 -6.8125 C 1.4375 -6.8125 1.328125 -6.796875 1.328125 -6.625 C 1.328125 -6.5 1.421875 -6.5 1.5625 -6.5 C 2.046875 -6.5 2.0625 -6.4375 2.0625 -6.328125 L 2.03125 -6.125 L 0.59375 -0.390625 C 0.546875 -0.25 0.546875 -0.234375 0.546875 -0.171875 C 0.546875 0.0625 0.75 0.109375 0.84375 0.109375 C 1 0.109375 1.15625 -0.015625 1.203125 -0.15625 L 1.390625 -0.90625 L 1.609375 -1.796875 C 1.671875 -2.03125 1.734375 -2.25 1.78125 -2.46875 C 1.796875 -2.53125 1.890625 -2.859375 1.890625 -2.921875 C 1.921875 -3.015625 2.234375 -3.5625 2.578125 -3.84375 C 2.796875 -4 3.09375 -4.1875 3.53125 -4.1875 C 3.953125 -4.1875 4.0625 -3.84375 4.0625 -3.484375 C 4.0625 -2.953125 3.6875 -1.859375 3.453125 -1.25 C 3.375 -1.03125 3.3125 -0.90625 3.3125 -0.703125 C 3.3125 -0.234375 3.671875 0.109375 4.140625 0.109375 C 5.078125 0.109375 5.4375 -1.34375 5.4375 -1.421875 C 5.4375 -1.53125 5.359375 -1.53125 5.328125 -1.53125 C 5.21875 -1.53125 5.21875 -1.5 5.171875 -1.34375 C 5.03125 -0.8125 4.703125 -0.109375 4.15625 -0.109375 C 3.984375 -0.109375 3.921875 -0.203125 3.921875 -0.4375 C 3.921875 -0.6875 4 -0.921875 4.09375 -1.140625 C 4.25 -1.578125 4.703125 -2.765625 4.703125 -3.34375 C 4.703125 -3.984375 4.3125 -4.40625 3.5625 -4.40625 C 2.9375 -4.40625 2.453125 -4.09375 2.078125 -3.640625 Z M 2.859375 -6.8125 "
           style="stroke:none;" />
      </symbol>
      <symbol
         id="symbol2682"
         overflow="visible">
        <path
           id="path1095"
           d=""
           style="stroke:none;" />
      </symbol>
      <symbol
         id="symbol9644"
         overflow="visible">
        <path
           id="path8551"
           d="M 2.1875 -4.625 C 2.1875 -4.640625 2.203125 -4.734375 2.203125 -4.734375 C 2.203125 -4.78125 2.1875 -4.84375 2.09375 -4.84375 C 1.953125 -4.84375 1.375 -4.78125 1.203125 -4.765625 C 1.15625 -4.765625 1.046875 -4.75 1.046875 -4.609375 C 1.046875 -4.515625 1.15625 -4.515625 1.234375 -4.515625 C 1.5625 -4.515625 1.5625 -4.453125 1.5625 -4.40625 C 1.5625 -4.359375 1.546875 -4.3125 1.546875 -4.25 L 0.5625 -0.3125 C 0.515625 -0.1875 0.515625 -0.171875 0.515625 -0.15625 C 0.515625 -0.046875 0.609375 0.0625 0.765625 0.0625 C 0.84375 0.0625 0.96875 0.03125 1.046875 -0.109375 C 1.0625 -0.15625 1.125 -0.40625 1.15625 -0.546875 L 1.328125 -1.171875 C 1.34375 -1.28125 1.421875 -1.546875 1.4375 -1.640625 C 1.5 -1.90625 1.5 -1.921875 1.640625 -2.140625 C 1.875 -2.484375 2.21875 -2.875 2.765625 -2.875 C 3.15625 -2.875 3.171875 -2.5625 3.171875 -2.390625 C 3.171875 -1.96875 2.875 -1.203125 2.765625 -0.90625 C 2.6875 -0.703125 2.65625 -0.640625 2.65625 -0.53125 C 2.65625 -0.15625 2.96875 0.0625 3.3125 0.0625 C 4.015625 0.0625 4.328125 -0.890625 4.328125 -1 C 4.328125 -1.09375 4.234375 -1.09375 4.203125 -1.09375 C 4.109375 -1.09375 4.109375 -1.046875 4.078125 -0.96875 C 3.921875 -0.40625 3.609375 -0.125 3.34375 -0.125 C 3.1875 -0.125 3.15625 -0.21875 3.15625 -0.375 C 3.15625 -0.53125 3.203125 -0.625 3.328125 -0.9375 C 3.40625 -1.15625 3.6875 -1.890625 3.6875 -2.28125 C 3.6875 -2.390625 3.6875 -2.6875 3.4375 -2.890625 C 3.3125 -2.96875 3.109375 -3.078125 2.78125 -3.078125 C 2.28125 -3.078125 1.90625 -2.796875 1.65625 -2.5 Z M 2.1875 -4.625 "
           style="stroke:none;" />
      </symbol>
      <symbol
         id="symbol7526"
         overflow="visible">
        <path
           id="path3452"
           d=""
           style="stroke:none;" />
      </symbol>
      <symbol
         id="symbol899"
         overflow="visible">
        <path
           id="path119"
           d="M 3.296875 2.390625 C 3.296875 2.359375 3.296875 2.34375 3.125 2.171875 C 1.890625 0.921875 1.5625 -0.96875 1.5625 -2.5 C 1.5625 -4.234375 1.9375 -5.96875 3.171875 -7.203125 C 3.296875 -7.328125 3.296875 -7.34375 3.296875 -7.375 C 3.296875 -7.453125 3.265625 -7.484375 3.203125 -7.484375 C 3.09375 -7.484375 2.203125 -6.796875 1.609375 -5.53125 C 1.109375 -4.4375 0.984375 -3.328125 0.984375 -2.5 C 0.984375 -1.71875 1.09375 -0.515625 1.640625 0.625 C 2.25 1.84375 3.09375 2.5 3.203125 2.5 C 3.265625 2.5 3.296875 2.46875 3.296875 2.390625 Z M 3.296875 2.390625 "
           style="stroke:none;" />
      </symbol>
      <symbol
         id="symbol5793"
         overflow="visible">
        <path
           id="path7451"
           d="M 2.875 -2.5 C 2.875 -3.265625 2.765625 -4.46875 2.21875 -5.609375 C 1.625 -6.828125 0.765625 -7.484375 0.671875 -7.484375 C 0.609375 -7.484375 0.5625 -7.4375 0.5625 -7.375 C 0.5625 -7.34375 0.5625 -7.328125 0.75 -7.140625 C 1.734375 -6.15625 2.296875 -4.578125 2.296875 -2.5 C 2.296875 -0.78125 1.9375 0.96875 0.703125 2.21875 C 0.5625 2.34375 0.5625 2.359375 0.5625 2.390625 C 0.5625 2.453125 0.609375 2.5 0.671875 2.5 C 0.765625 2.5 1.671875 1.8125 2.25 0.546875 C 2.765625 -0.546875 2.875 -1.65625 2.875 -2.5 Z M 2.875 -2.5 "
           style="stroke:none;" />
      </symbol>
    </g>
    <g
       id="g3335">
      <symbol
         id="symbol4415"
         overflow="visible">
        <path
           id="path9977"
           d=""
           style="stroke:none;" />
      </symbol>
      <symbol
         id="symbol5389"
         overflow="visible">
        <path
           id="path829"
           d="M 2.859375 -6.8125 C 2.859375 -6.8125 2.859375 -6.921875 2.734375 -6.921875 C 2.5 -6.921875 1.78125 -6.84375 1.515625 -6.8125 C 1.4375 -6.8125 1.328125 -6.796875 1.328125 -6.625 C 1.328125 -6.5 1.421875 -6.5 1.5625 -6.5 C 2.046875 -6.5 2.0625 -6.4375 2.0625 -6.328125 L 2.03125 -6.125 L 0.59375 -0.390625 C 0.546875 -0.25 0.546875 -0.234375 0.546875 -0.171875 C 0.546875 0.0625 0.75 0.109375 0.84375 0.109375 C 1 0.109375 1.15625 -0.015625 1.203125 -0.15625 L 1.390625 -0.90625 L 1.609375 -1.796875 C 1.671875 -2.03125 1.734375 -2.25 1.78125 -2.46875 C 1.796875 -2.53125 1.890625 -2.859375 1.890625 -2.921875 C 1.921875 -3.015625 2.234375 -3.5625 2.578125 -3.84375 C 2.796875 -4 3.09375 -4.1875 3.53125 -4.1875 C 3.953125 -4.1875 4.0625 -3.84375 4.0625 -3.484375 C 4.0625 -2.953125 3.6875 -1.859375 3.453125 -1.25 C 3.375 -1.03125 3.3125 -0.90625 3.3125 -0.703125 C 3.3125 -0.234375 3.671875 0.109375 4.140625 0.109375 C 5.078125 0.109375 5.4375 -1.34375 5.4375 -1.421875 C 5.4375 -1.53125 5.359375 -1.53125 5.328125 -1.53125 C 5.21875 -1.53125 5.21875 -1.5 5.171875 -1.34375 C 5.03125 -0.8125 4.703125 -0.109375 4.15625 -0.109375 C 3.984375 -0.109375 3.921875 -0.203125 3.921875 -0.4375 C 3.921875 -0.6875 4 -0.921875 4.09375 -1.140625 C 4.25 -1.578125 4.703125 -2.765625 4.703125 -3.34375 C 4.703125 -3.984375 4.3125 -4.40625 3.5625 -4.40625 C 2.9375 -4.40625 2.453125 -4.09375 2.078125 -3.640625 Z M 2.859375 -6.8125 "
           style="stroke:none;" />
      </symbol>
    </g>
  </defs>
  <sodipodi:namedview
     inkscape:window-maximized="0"
     inkscape:window-y="120"
     inkscape:window-x="117"
     inkscape:window-height="754"
     inkscape:window-width="1694"
     showgrid="false"
     inkscape:document-rotation="0"
     inkscape:current-layer="layer1"
     inkscape:document-units="mm"
     inkscape:cy="463.92226"
     inkscape:cx="356.40957"
     inkscape:zoom="0.88"
     inkscape:pageshadow="2"
     inkscape:pageopacity="0.0"
     borderopacity="1.0"
     bordercolor="#666666"
     pagecolor="#ffffff"
     id="base" />
  <metadata
     id="metadata5">
    <rdf:RDF>
      <cc:Work
         rdf:about="">
        <dc:format>image/svg+xml</dc:format>
        <dc:type
           rdf:resource="http://purl.org/dc/dcmitype/StillImage" />
        <dc:title />
      </cc:Work>
    </rdf:RDF>
  </metadata>
  <g
     id="layer1"
     inkscape:groupmode="layer"
     inkscape:label="Layer 1">
    <path
       inkscape:original-d="m 25.395955,171.08175 c 4.677674,-4.31031 9.355115,-8.62087 14.032321,-12.93171 2.816662,-3.5202 5.632978,-7.04052 8.449117,-10.56117 3.636263,-0.61968 7.272145,-1.23961 10.907867,-1.85979 3.360628,4.21468 6.720886,8.42893 10.080976,12.64301 1.737682,1.39576 3.47506,2.7912 5.212241,4.1864 7.499668,-7.36665 14.998804,-14.82161 22.497857,-22.23281 2.687805,-2.115 5.375276,-4.23019 8.062556,-6.34568 2.43647,0.18993 4.87261,0.37958 7.30855,0.56897 0.23692,10.28061 0.4736,20.56055 0.71004,30.84042 3.00211,1.85189 6.00386,3.70342 9.00544,5.55474"
       inkscape:path-effect="#path-effect835"
       id="path833"
       d="m 25.395955,171.08175 c 4.677437,-4.31057 9.354873,-8.62113 13.101793,-12.53663 3.746921,-3.9155 6.563237,-7.43582 9.789547,-9.50602 3.226311,-2.0702 6.862195,-2.69012 10.360385,-0.89272 3.49819,1.79739 6.858447,6.01164 9.407362,8.81653 2.548914,2.80489 4.286293,4.20033 8.893533,1.20333 4.607239,-2.997 12.128459,-10.42961 17.221902,-15.19272 5.093442,-4.76312 7.780913,-6.87831 10.342913,-7.84107 2.56199,-0.96277 4.99813,-0.77312 6.33444,4.46201 1.3363,5.23513 1.57298,15.51507 3.1924,21.5809 1.61942,6.06583 4.62116,7.91737 7.62269,9.76877"
       style="fill:none;stroke:#000000;stroke-width:0.24893px;stroke-linecap:butt;stroke-linejoin:miter;stroke-opacity:1" />
    <g
       transform="matrix(1.2644897,0,0,0.99660944,-42.454412,-27.819001)"
       style="fill:none;stroke:#f70000;stroke-width:1.1;stroke-miterlimit:4;stroke-dasharray:none;stroke-opacity:1"
       id="g862">
      <path
         style="fill:none;stroke:#f70000;stroke-width:1.1;stroke-linecap:butt;stroke-linejoin:miter;stroke-miterlimit:4;stroke-dasharray:none;stroke-opacity:1"
         d="m 54.076782,199.57743 c 2.942951,-1.16532 5.885766,-2.3306 7.852284,-4.44191 1.966518,-2.11131 2.956893,-5.16876 4.179231,-8.00895 1.222339,-2.8402 2.718074,-5.53776 4.109963,-7.30738 1.391889,-1.76961 2.700498,-2.64849 3.673406,-3.09316 0.972908,-0.44466 1.609866,-0.45513 2.246574,-0.46559"
         id="path837"
         inkscape:path-effect="#path-effect839"
         inkscape:original-d="m 54.076782,199.57743 c 2.943076,-1.16501 5.885891,-2.33028 8.828439,-3.49581 0.990679,-3.05731 1.981054,-6.11476 2.971183,-9.17253 1.387026,-2.65998 2.950282,-5.32011 4.425024,-7.98056 1.308926,-0.87865 2.617534,-1.75753 3.925904,-2.63669 0.637246,-0.0102 1.274204,-0.0207 1.910908,-0.0314" />
      <path
         inkscape:original-d="m 98.199699,199.57743 c -2.943076,-1.16501 -5.885891,-2.33028 -8.828439,-3.49581 -0.990679,-3.05731 -1.981055,-6.11476 -2.971184,-9.17253 -1.387026,-2.65998 -2.950282,-5.32011 -4.425024,-7.98056 -1.308926,-0.87865 -2.617534,-1.75753 -3.925903,-2.63669 -0.637247,-0.0102 -1.274205,-0.0207 -1.910909,-0.0314"
         inkscape:path-effect="#path-effect858"
         id="path837-9"
         d="m 98.199699,199.57743 c -2.942951,-1.16532 -5.885766,-2.3306 -7.852284,-4.44191 -1.966518,-2.11131 -2.956893,-5.16876 -4.179232,-8.00895 -1.222339,-2.8402 -2.718074,-5.53776 -4.109963,-7.30738 -1.391889,-1.76961 -2.700498,-2.64849 -3.673406,-3.09316 -0.972908,-0.44466 -1.609866,-0.45513 -2.246574,-0.46559"
         style="fill:none;stroke:#f70000;stroke-width:1.1;stroke-linecap:butt;stroke-linejoin:miter;stroke-miterlimit:4;stroke-dasharray:none;stroke-opacity:1" />
    </g>
    <g
       transform="translate(-44.498704,58.668816)"
       id="g604"
       style="fill:#ff0000">
      <g
         style="fill:#ff0000;fill-opacity:1"
         id="g4292">
        <use
           xlink:href="#symbol528"
           x="91.925003"
           y="81.962997"
           id="use5407"
           width="100%"
           height="100%"
           style="fill:#ff0000" />
      </g>
      <g
         style="fill:#ff0000;fill-opacity:1"
         id="g7578">
        <use
           xlink:href="#symbol3496"
           x="98.320999"
           y="83.457001"
           id="use7297"
           width="100%"
           height="100%"
           style="fill:#ff0000" />
      </g>
      <path
         style="fill:#ff0000;stroke:#000000;stroke-width:0.339;stroke-linecap:butt;stroke-linejoin:miter;stroke-miterlimit:10;stroke-opacity:1"
         d="M -6.875e-4,-0.001 H 4.401656"
         transform="matrix(1,0,0,-1,98.321,85.999)"
         id="path5452" />
      <g
         style="fill:#ff0000;fill-opacity:1"
         id="g2188">
        <use
           xlink:href="#symbol6387"
           x="102.721"
           y="81.962997"
           id="use1835"
           width="100%"
           height="100%"
           style="fill:#ff0000" />
      </g>
      <g
         style="fill:#ff0000;fill-opacity:1"
         id="g1638">
        <use
           xlink:href="#symbol7267"
           x="106.596"
           y="81.962997"
           id="use9677"
           width="100%"
           height="100%"
           style="fill:#ff0000" />
      </g>
      <g
         style="fill:#ff0000;fill-opacity:1"
         id="g7024">
        <use
           xlink:href="#symbol3099"
           x="112.336"
           y="81.962997"
           id="use4064"
           width="100%"
           height="100%"
           style="fill:#ff0000" />
      </g>
    </g>
    <g
       inkscape:label=""
       transform="translate(23.264521,52.019373)"
       id="g1083">
      <g
         id="g9987">
        <g
           id="g5762"
           style="fill:#000000;fill-opacity:1">
          <use
             height="100%"
             width="100%"
             id="use7192"
             y="81.962997"
             x="91.925003"
             xlink:href="#symbol6330" />
        </g>
        <g
           id="g7253"
           style="fill:#000000;fill-opacity:1">
          <use
             height="100%"
             width="100%"
             id="use1916"
             y="83.457001"
             x="98.320999"
             xlink:href="#symbol9644" />
        </g>
        <path
           id="path6280"
           transform="matrix(1,0,0,-1,98.321,84.643)"
           d="M -6.875e-4,-0.00153125 H 5.163375"
           style="fill:none;stroke:#000000;stroke-width:0.339;stroke-linecap:butt;stroke-linejoin:miter;stroke-miterlimit:10;stroke-opacity:1" />
        <g
           id="g6261"
           style="fill:#000000;fill-opacity:1">
          <use
             height="100%"
             width="100%"
             id="use5914"
             y="81.962997"
             x="103.484"
             xlink:href="#symbol899" />
        </g>
        <g
           id="g1824"
           style="fill:#000000;fill-opacity:1">
          <use
             height="100%"
             width="100%"
             id="use4060"
             y="81.962997"
             x="107.358"
             xlink:href="#symbol5735" />
        </g>
        <g
           id="g7981"
           style="fill:#000000;fill-opacity:1">
          <use
             height="100%"
             width="100%"
             id="use217"
             y="81.962997"
             x="113.098"
             xlink:href="#symbol5793" />
        </g>
      </g>
    </g>
    <path
       id="path1437"
       d="m 16.298397,117.18276 0.146757,59.90581 v 0"
       style="fill:none;stroke:#000000;stroke-width:0.430408;stroke-linecap:butt;stroke-linejoin:miter;stroke-miterlimit:4;stroke-dasharray:none;stroke-opacity:1;marker-start:url(#marker1441)" />
    <g
       inkscape:label=""
       transform="translate(61.034454,100.00994)"
       id="g1577">
      <g
         id="g4000">
        <g
           id="g3127"
           style="fill:#000000;fill-opacity:1">
          <use
             height="100%"
             width="100%"
             id="use6675"
             y="81.962997"
             x="91.925003"
             xlink:href="#symbol5389" />
        </g>
      </g>
    </g>
    <path
       id="path1640"
       d="M 146.53621,174.49704 16.445154,177.08857"
       style="fill:none;stroke:#000000;stroke-width:0.465;stroke-linecap:butt;stroke-linejoin:miter;stroke-miterlimit:4;stroke-dasharray:none;stroke-opacity:1;marker-start:url(#marker1644)" />
  </g>
</svg>
