<?xml version="1.0" encoding="UTF-8" standalone="no"?>
<!-- Created with Inkscape (http://www.inkscape.org/) -->

<svg
   xmlns:dc="http://purl.org/dc/elements/1.1/"
   xmlns:cc="http://creativecommons.org/ns#"
   xmlns:rdf="http://www.w3.org/1999/02/22-rdf-syntax-ns#"
   xmlns:svg="http://www.w3.org/2000/svg"
   xmlns="http://www.w3.org/2000/svg"
   xmlns:xlink="http://www.w3.org/1999/xlink"
   xmlns:sodipodi="http://sodipodi.sourceforge.net/DTD/sodipodi-0.dtd"
   xmlns:inkscape="http://www.inkscape.org/namespaces/inkscape"
   version="1.1"
   id="svg815"
   width="11in"
   height="8.5in"
   viewBox="0 0 1056 816"
   sodipodi:docname="flagelumm.svg"
   inkscape:version="0.92.4 (5da689c313, 2019-01-14)"
   inkscape:export-filename="C:\Users\rrtuc\Desktop\backed-up\latex-projects\Bayesuvius\autoregulons\flagellum.png"
   inkscape:export-xdpi="300"
   inkscape:export-ydpi="300">
  <metadata
     id="metadata821">
    <rdf:RDF>
      <cc:Work
         rdf:about="">
        <dc:format>image/svg+xml</dc:format>
        <dc:type
           rdf:resource="http://purl.org/dc/dcmitype/StillImage" />
        <dc:title></dc:title>
      </cc:Work>
    </rdf:RDF>
  </metadata>
  <defs
     id="defs819">
    <marker
       inkscape:stockid="Arrow1Lend"
       orient="auto"
       refY="0.0"
       refX="0.0"
       id="Arrow1Lend"
       style="overflow:visible;"
       inkscape:isstock="true">
      <path
         id="path1045"
         d="M 0.0,0.0 L 5.0,-5.0 L -12.5,0.0 L 5.0,5.0 L 0.0,0.0 z "
         style="fill-rule:evenodd;stroke:#000000;stroke-width:1pt;stroke-opacity:1;fill:#000000;fill-opacity:1"
         transform="scale(0.8) rotate(180) translate(12.5,0)" />
    </marker>
    <marker
       inkscape:stockid="Arrow1Lstart"
       orient="auto"
       refY="0.0"
       refX="0.0"
       id="Arrow1Lstart"
       style="overflow:visible"
       inkscape:isstock="true">
      <path
         id="path1042"
         d="M 0.0,0.0 L 5.0,-5.0 L -12.5,0.0 L 5.0,5.0 L 0.0,0.0 z "
         style="fill-rule:evenodd;stroke:#000000;stroke-width:1pt;stroke-opacity:1;fill:#000000;fill-opacity:1"
         transform="scale(0.8) translate(12.5,0)" />
    </marker>
    <inkscape:path-effect
       vertical="false"
       scale_y_rel="false"
       prop_scale="1"
       bendpath="m 11.792126,784.55433 v 19.85008 0"
       is_visible="true"
       id="path-effect1038"
       effect="bend_path" />
    <inkscape:path-effect
       effect="bend_path"
       id="path-effect1034"
       is_visible="true"
       bendpath="m 11.792126,784.55433 v 19.85008 0"
       prop_scale="1"
       scale_y_rel="false"
       vertical="false" />
    <inkscape:path-effect
       vertical="false"
       scale_y_rel="false"
       prop_scale="1"
       bendpath="m 11.399055,724.80756 v 22.01197 H 123.42425"
       is_visible="true"
       id="path-effect1022"
       effect="bend_path" />
    <inkscape:path-effect
       effect="bend_path"
       id="path-effect1018"
       is_visible="true"
       bendpath="m 11.399055,724.80756 v 22.01197 H 123.42425"
       prop_scale="1"
       scale_y_rel="false"
       vertical="false" />
    <inkscape:path-effect
       vertical="false"
       scale_y_rel="false"
       prop_scale="1"
       bendpath="m 11.988661,725.0041 v 21.22582 H 124.01385"
       is_visible="true"
       id="path-effect1004"
       effect="bend_path" />
    <inkscape:path-effect
       effect="bend_path"
       id="path-effect1000"
       is_visible="true"
       bendpath="m 11.988661,725.0041 v 21.22582 H 124.01385"
       prop_scale="1"
       scale_y_rel="false"
       vertical="false" />
    <inkscape:path-effect
       vertical="false"
       scale_y_rel="false"
       prop_scale="1"
       bendpath="M 11.988661,746.62299 V 726.18331 H 123.42425 v 20.24315 H 11.988661 Z"
       is_visible="true"
       id="path-effect988"
       effect="bend_path" />
    <inkscape:path-effect
       effect="bend_path"
       id="path-effect984"
       is_visible="true"
       bendpath="M 11.988661,746.62299 V 726.18331 H 123.42425 v 20.24315 H 11.988661 Z"
       prop_scale="1"
       scale_y_rel="false"
       vertical="false" />
    <inkscape:path-effect
       effect="bspline"
       id="path-effect889"
       is_visible="true"
       weight="33.333333"
       steps="2"
       helper_size="0"
       apply_no_weight="true"
       apply_with_weight="true"
       only_selected="false" />
    <inkscape:path-effect
       effect="bspline"
       id="path-effect885"
       is_visible="true"
       weight="33.333333"
       steps="2"
       helper_size="0"
       apply_no_weight="true"
       apply_with_weight="true"
       only_selected="false" />
    <inkscape:path-effect
       effect="bspline"
       id="path-effect881"
       is_visible="true"
       weight="33.333333"
       steps="2"
       helper_size="0"
       apply_no_weight="true"
       apply_with_weight="true"
       only_selected="false" />
    <inkscape:path-effect
       effect="bspline"
       id="path-effect877"
       is_visible="true"
       weight="33.333333"
       steps="2"
       helper_size="0"
       apply_no_weight="true"
       apply_with_weight="true"
       only_selected="false" />
    <inkscape:path-effect
       effect="bspline"
       id="path-effect873"
       is_visible="true"
       weight="33.333333"
       steps="2"
       helper_size="0"
       apply_no_weight="true"
       apply_with_weight="true"
       only_selected="false" />
    <inkscape:path-effect
       effect="bspline"
       id="path-effect869"
       is_visible="true"
       weight="33.333333"
       steps="2"
       helper_size="0"
       apply_no_weight="true"
       apply_with_weight="true"
       only_selected="false" />
    <inkscape:path-effect
       effect="bspline"
       id="path-effect865"
       is_visible="true"
       weight="33.333333"
       steps="2"
       helper_size="0"
       apply_no_weight="true"
       apply_with_weight="true"
       only_selected="false" />
    <inkscape:path-effect
       effect="bspline"
       id="path-effect861"
       is_visible="true"
       weight="33.333333"
       steps="2"
       helper_size="0"
       apply_no_weight="true"
       apply_with_weight="true"
       only_selected="false" />
    <inkscape:path-effect
       effect="bspline"
       id="path-effect857"
       is_visible="true"
       weight="33.333333"
       steps="2"
       helper_size="0"
       apply_no_weight="true"
       apply_with_weight="true"
       only_selected="false" />
    <inkscape:path-effect
       effect="bspline"
       id="path-effect853"
       is_visible="true"
       weight="33.333333"
       steps="2"
       helper_size="0"
       apply_no_weight="true"
       apply_with_weight="true"
       only_selected="false" />
    <inkscape:path-effect
       effect="bspline"
       id="path-effect831"
       is_visible="true"
       weight="33.333333"
       steps="2"
       helper_size="0"
       apply_no_weight="true"
       apply_with_weight="true"
       only_selected="false" />
    <inkscape:path-effect
       effect="bspline"
       id="path-effect827"
       is_visible="true"
       weight="33.333333"
       steps="2"
       helper_size="0"
       apply_no_weight="true"
       apply_with_weight="true"
       only_selected="false" />
    <marker
       inkscape:stockid="Arrow1Lstart"
       orient="auto"
       refY="0"
       refX="0"
       id="Arrow1Lstart-1"
       style="overflow:visible"
       inkscape:isstock="true">
      <path
         inkscape:connector-curvature="0"
         id="path1042-2"
         d="M 0,0 5,-5 -12.5,0 5,5 Z"
         style="fill:#000000;fill-opacity:1;fill-rule:evenodd;stroke:#000000;stroke-width:1.00000003pt;stroke-opacity:1"
         transform="matrix(0.8,0,0,0.8,10,0)" />
    </marker>
    <marker
       inkscape:stockid="Arrow1Lend"
       orient="auto"
       refY="0"
       refX="0"
       id="Arrow1Lend-6"
       style="overflow:visible"
       inkscape:isstock="true">
      <path
         inkscape:connector-curvature="0"
         id="path1045-5"
         d="M 0,0 5,-5 -12.5,0 5,5 Z"
         style="fill:#000000;fill-opacity:1;fill-rule:evenodd;stroke:#000000;stroke-width:1.00000003pt;stroke-opacity:1"
         transform="matrix(-0.8,0,0,-0.8,-10,0)" />
    </marker>
    <marker
       inkscape:stockid="Arrow1Lstart"
       orient="auto"
       refY="0"
       refX="0"
       id="Arrow1Lstart-1-8"
       style="overflow:visible"
       inkscape:isstock="true">
      <path
         inkscape:connector-curvature="0"
         id="path1042-2-1"
         d="M 0,0 5,-5 -12.5,0 5,5 Z"
         style="fill:#000000;fill-opacity:1;fill-rule:evenodd;stroke:#000000;stroke-width:1.00000003pt;stroke-opacity:1"
         transform="matrix(0.8,0,0,0.8,10,0)" />
    </marker>
    <marker
       inkscape:stockid="Arrow1Lend"
       orient="auto"
       refY="0"
       refX="0"
       id="Arrow1Lend-6-7"
       style="overflow:visible"
       inkscape:isstock="true">
      <path
         inkscape:connector-curvature="0"
         id="path1045-5-9"
         d="M 0,0 5,-5 -12.5,0 5,5 Z"
         style="fill:#000000;fill-opacity:1;fill-rule:evenodd;stroke:#000000;stroke-width:1.00000003pt;stroke-opacity:1"
         transform="matrix(-0.8,0,0,-0.8,-10,0)" />
    </marker>
    <g
       id="g2013">
      <symbol
         style="overflow:visible"
         id="lx-text1951-glyph0-0"
         overflow="visible">
        <path
           inkscape:connector-curvature="0"
           id="path2007"
           d=""
           style="stroke:none" />
      </symbol>
      <symbol
         style="overflow:visible"
         id="lx-text1951-glyph0-1"
         overflow="visible">
        <path
           inkscape:connector-curvature="0"
           id="path2010"
           d="M 3.328125,-3.015625 C 3.390625,-3.265625 3.625,-4.1875 4.3125,-4.1875 c 0.046875,0 0.296875,0 0.5,0.125 C 4.53125,-4 4.34375,-3.765625 4.34375,-3.515625 c 0,0.15625 0.109375,0.34375 0.375,0.34375 0.21875,0 0.53125,-0.171875 0.53125,-0.578125 0,-0.515625 -0.578125,-0.65625 -0.921875,-0.65625 -0.578125,0 -0.921875,0.53125 -1.046875,0.75 -0.25,-0.65625 -0.78125,-0.75 -1.078125,-0.75 -1.03125,0 -1.609375,1.28125 -1.609375,1.53125 0,0.109375 0.109375,0.109375 0.125,0.109375 0.078125,0 0.109375,-0.03125 0.125,-0.109375 0.34375,-1.0625 1,-1.3125 1.34375,-1.3125 0.1875,0 0.53125,0.09375 0.53125,0.671875 0,0.3125 -0.171875,0.96875 -0.53125,2.375 -0.15625,0.609375 -0.515625,1.03125 -0.953125,1.03125 -0.0625,0 -0.28125,0 -0.5,-0.125 0.25,-0.0625 0.46875,-0.265625 0.46875,-0.546875 0,-0.265625 -0.21875,-0.34375 -0.359375,-0.34375 -0.3125,0 -0.546875,0.25 -0.546875,0.578125 0,0.453125 0.484375,0.65625 0.921875,0.65625 0.671875,0 1.03125,-0.703125 1.046875,-0.75 0.125,0.359375 0.484375,0.75 1.078125,0.75 1.03125,0 1.59375,-1.28125 1.59375,-1.53125 0,-0.109375 -0.078125,-0.109375 -0.109375,-0.109375 -0.09375,0 -0.109375,0.046875 -0.140625,0.109375 -0.328125,1.078125 -1,1.3125 -1.3125,1.3125 -0.390625,0 -0.546875,-0.3125 -0.546875,-0.65625 0,-0.21875 0.046875,-0.4375 0.15625,-0.875 z m 0,0"
           style="stroke:none" />
      </symbol>
    </g>
    <g
       id="g2029">
      <symbol
         style="overflow:visible"
         id="lx-text1955-glyph0-0"
         overflow="visible">
        <path
           inkscape:connector-curvature="0"
           id="path2023"
           d=""
           style="stroke:none" />
      </symbol>
      <symbol
         style="overflow:visible"
         id="lx-text1955-glyph0-1"
         overflow="visible">
        <path
           inkscape:connector-curvature="0"
           id="path2026"
           d="m 4.84375,-3.796875 c 0.046875,-0.140625 0.046875,-0.15625 0.046875,-0.234375 0,-0.171875 -0.140625,-0.265625 -0.296875,-0.265625 -0.09375,0 -0.25,0.0625 -0.34375,0.203125 -0.015625,0.0625 -0.109375,0.359375 -0.140625,0.546875 -0.078125,0.25 -0.140625,0.53125 -0.203125,0.796875 l -0.453125,1.796875 c -0.03125,0.140625 -0.46875,0.84375 -1.125,0.84375 -0.5,0 -0.609375,-0.4375 -0.609375,-0.8125 C 1.71875,-1.375 1.890625,-2 2.21875,-2.875 2.375,-3.28125 2.421875,-3.390625 2.421875,-3.59375 c 0,-0.4375 -0.3125,-0.8125 -0.8125,-0.8125 -0.953125,0 -1.3125,1.453125 -1.3125,1.53125 0,0.109375 0.09375,0.109375 0.109375,0.109375 0.109375,0 0.109375,-0.03125 0.15625,-0.1875 0.28125,-0.9375 0.671875,-1.234375 1.015625,-1.234375 0.078125,0 0.25,0 0.25,0.3125 0,0.25 -0.109375,0.515625 -0.171875,0.703125 -0.40625,1.0625 -0.578125,1.625 -0.578125,2.09375 0,0.890625 0.625,1.1875 1.21875,1.1875 0.390625,0 0.71875,-0.171875 1,-0.453125 -0.125,0.515625 -0.25,1.015625 -0.640625,1.546875 -0.265625,0.328125 -0.640625,0.625 -1.09375,0.625 -0.140625,0 -0.59375,-0.03125 -0.765625,-0.421875 0.15625,0 0.296875,0 0.421875,-0.125 C 1.328125,1.203125 1.421875,1.0625 1.421875,0.875 1.421875,0.5625 1.15625,0.53125 1.0625,0.53125 0.828125,0.53125 0.5,0.6875 0.5,1.171875 c 0,0.5 0.4375,0.875 1.0625,0.875 1.015625,0 2.046875,-0.90625 2.328125,-2.03125 z m 0,0"
           style="stroke:none" />
      </symbol>
    </g>
    <g
       id="g2051">
      <symbol
         style="overflow:visible"
         id="lx-text1959-glyph0-0"
         overflow="visible">
        <path
           inkscape:connector-curvature="0"
           id="path2039"
           d=""
           style="stroke:none" />
      </symbol>
      <symbol
         style="overflow:visible"
         id="lx-text1959-glyph0-1"
         overflow="visible">
        <path
           inkscape:connector-curvature="0"
           id="path2042"
           d="m 1.328125,-0.828125 c 0.53125,-0.578125 0.828125,-0.828125 1.1875,-1.140625 0,0 0.609375,-0.53125 0.96875,-0.890625 C 4.4375,-3.78125 4.65625,-4.265625 4.65625,-4.3125 c 0,-0.09375 -0.09375,-0.09375 -0.109375,-0.09375 -0.078125,0 -0.09375,0.015625 -0.15625,0.109375 -0.296875,0.484375 -0.5,0.640625 -0.734375,0.640625 -0.25,0 -0.359375,-0.15625 -0.515625,-0.328125 -0.1875,-0.21875 -0.359375,-0.421875 -0.6875,-0.421875 -0.75,0 -1.203125,0.921875 -1.203125,1.140625 0,0.046875 0.03125,0.109375 0.109375,0.109375 0.09375,0 0.109375,-0.046875 0.140625,-0.109375 0.1875,-0.46875 0.765625,-0.46875 0.84375,-0.46875 0.203125,0 0.390625,0.0625 0.625,0.140625 0.40625,0.15625 0.515625,0.15625 0.765625,0.15625 -0.359375,0.421875 -1.1875,1.140625 -1.375,1.296875 l -0.90625,0.84375 C 0.78125,-0.625 0.421875,-0.0625 0.421875,0.015625 c 0,0.09375 0.109375,0.09375 0.125,0.09375 0.078125,0 0.09375,-0.015625 0.15625,-0.125 0.234375,-0.359375 0.53125,-0.625 0.859375,-0.625 0.21875,0 0.328125,0.09375 0.578125,0.375 0.15625,0.21875 0.34375,0.375 0.625,0.375 1,0 1.578125,-1.265625 1.578125,-1.53125 0,-0.046875 -0.046875,-0.109375 -0.125,-0.109375 -0.09375,0 -0.109375,0.0625 -0.140625,0.140625 C 3.84375,-0.75 3.203125,-0.5625 2.875,-0.5625 c -0.1875,0 -0.375,-0.0625 -0.578125,-0.125 -0.34375,-0.125 -0.5,-0.171875 -0.703125,-0.171875 -0.015625,0 -0.171875,0 -0.265625,0.03125 z m 0,0"
           style="stroke:none" />
      </symbol>
      <symbol
         style="overflow:visible"
         id="lx-text1959-glyph1-0"
         overflow="visible">
        <path
           inkscape:connector-curvature="0"
           id="path2045"
           d=""
           style="stroke:none" />
      </symbol>
      <symbol
         style="overflow:visible"
         id="lx-text1959-glyph1-1"
         overflow="visible">
        <path
           inkscape:connector-curvature="0"
           id="path2048"
           d="m 2.328125,-4.4375 c 0,-0.1875 0,-0.1875 -0.203125,-0.1875 -0.453125,0.4375 -1.078125,0.4375 -1.359375,0.4375 v 0.25 c 0.15625,0 0.625,0 1,-0.1875 v 3.546875 c 0,0.234375 0,0.328125 -0.6875,0.328125 H 0.8125 V 0 c 0.125,0 0.984375,-0.03125 1.234375,-0.03125 0.21875,0 1.09375,0.03125 1.25,0.03125 V -0.25 H 3.03125 c -0.703125,0 -0.703125,-0.09375 -0.703125,-0.328125 z m 0,0"
           style="stroke:none" />
      </symbol>
    </g>
    <g
       id="g2077">
      <symbol
         style="overflow:visible"
         id="lx-text1963-glyph0-0"
         overflow="visible">
        <path
           inkscape:connector-curvature="0"
           id="path2065"
           d=""
           style="stroke:none" />
      </symbol>
      <symbol
         style="overflow:visible"
         id="lx-text1963-glyph0-1"
         overflow="visible">
        <path
           inkscape:connector-curvature="0"
           id="path2068"
           d="m 1.328125,-0.828125 c 0.53125,-0.578125 0.828125,-0.828125 1.1875,-1.140625 0,0 0.609375,-0.53125 0.96875,-0.890625 C 4.4375,-3.78125 4.65625,-4.265625 4.65625,-4.3125 c 0,-0.09375 -0.09375,-0.09375 -0.109375,-0.09375 -0.078125,0 -0.09375,0.015625 -0.15625,0.109375 -0.296875,0.484375 -0.5,0.640625 -0.734375,0.640625 -0.25,0 -0.359375,-0.15625 -0.515625,-0.328125 -0.1875,-0.21875 -0.359375,-0.421875 -0.6875,-0.421875 -0.75,0 -1.203125,0.921875 -1.203125,1.140625 0,0.046875 0.03125,0.109375 0.109375,0.109375 0.09375,0 0.109375,-0.046875 0.140625,-0.109375 0.1875,-0.46875 0.765625,-0.46875 0.84375,-0.46875 0.203125,0 0.390625,0.0625 0.625,0.140625 0.40625,0.15625 0.515625,0.15625 0.765625,0.15625 -0.359375,0.421875 -1.1875,1.140625 -1.375,1.296875 l -0.90625,0.84375 C 0.78125,-0.625 0.421875,-0.0625 0.421875,0.015625 c 0,0.09375 0.109375,0.09375 0.125,0.09375 0.078125,0 0.09375,-0.015625 0.15625,-0.125 0.234375,-0.359375 0.53125,-0.625 0.859375,-0.625 0.21875,0 0.328125,0.09375 0.578125,0.375 0.15625,0.21875 0.34375,0.375 0.625,0.375 1,0 1.578125,-1.265625 1.578125,-1.53125 0,-0.046875 -0.046875,-0.109375 -0.125,-0.109375 -0.09375,0 -0.109375,0.0625 -0.140625,0.140625 C 3.84375,-0.75 3.203125,-0.5625 2.875,-0.5625 c -0.1875,0 -0.375,-0.0625 -0.578125,-0.125 -0.34375,-0.125 -0.5,-0.171875 -0.703125,-0.171875 -0.015625,0 -0.171875,0 -0.265625,0.03125 z m 0,0"
           style="stroke:none" />
      </symbol>
      <symbol
         style="overflow:visible"
         id="lx-text1963-glyph1-0"
         overflow="visible">
        <path
           inkscape:connector-curvature="0"
           id="path2071"
           d=""
           style="stroke:none" />
      </symbol>
      <symbol
         style="overflow:visible"
         id="lx-text1963-glyph1-1"
         overflow="visible">
        <path
           inkscape:connector-curvature="0"
           id="path2074"
           d="M 3.515625,-1.265625 H 3.28125 c -0.015625,0.15625 -0.09375,0.5625 -0.1875,0.625 C 3.046875,-0.59375 2.515625,-0.59375 2.40625,-0.59375 H 1.125 c 0.734375,-0.640625 0.984375,-0.84375 1.390625,-1.171875 0.515625,-0.40625 1,-0.84375 1,-1.5 0,-0.84375 -0.734375,-1.359375 -1.625,-1.359375 -0.859375,0 -1.453125,0.609375 -1.453125,1.25 0,0.34375 0.296875,0.390625 0.375,0.390625 0.15625,0 0.359375,-0.125 0.359375,-0.375 0,-0.125 -0.046875,-0.375 -0.40625,-0.375 C 0.984375,-4.21875 1.453125,-4.375 1.78125,-4.375 c 0.703125,0 1.0625,0.546875 1.0625,1.109375 0,0.609375 -0.4375,1.078125 -0.65625,1.328125 L 0.515625,-0.265625 C 0.4375,-0.203125 0.4375,-0.1875 0.4375,0 h 2.875 z m 0,0"
           style="stroke:none" />
      </symbol>
    </g>
    <g
       id="g2097">
      <symbol
         style="overflow:visible"
         id="lx-text1967-glyph0-0"
         overflow="visible">
        <path
           inkscape:connector-curvature="0"
           id="path2091"
           d=""
           style="stroke:none" />
      </symbol>
      <symbol
         style="overflow:visible"
         id="lx-text1967-glyph0-1"
         overflow="visible">
        <path
           inkscape:connector-curvature="0"
           id="path2094"
           d="m 2.046875,-3.984375 h 0.9375 c 0.203125,0 0.3125,0 0.3125,-0.203125 0,-0.109375 -0.109375,-0.109375 -0.28125,-0.109375 h -0.875 C 2.5,-5.71875 2.546875,-5.90625 2.546875,-5.96875 c 0,-0.171875 -0.125,-0.265625 -0.296875,-0.265625 -0.03125,0 -0.3125,0 -0.390625,0.359375 L 1.46875,-4.296875 h -0.9375 c -0.203125,0 -0.296875,0 -0.296875,0.1875 0,0.125 0.078125,0.125 0.28125,0.125 h 0.875 C 0.671875,-1.15625 0.625,-0.984375 0.625,-0.8125 0.625,-0.265625 1,0.109375 1.546875,0.109375 2.5625,0.109375 3.125,-1.34375 3.125,-1.421875 3.125,-1.53125 3.046875,-1.53125 3.015625,-1.53125 2.921875,-1.53125 2.90625,-1.5 2.859375,-1.390625 2.4375,-0.34375 1.90625,-0.109375 1.5625,-0.109375 c -0.203125,0 -0.3125,-0.125 -0.3125,-0.453125 0,-0.25 0.03125,-0.3125 0.0625,-0.484375 z m 0,0"
           style="stroke:none" />
      </symbol>
    </g>
    <g
       id="g2119">
      <symbol
         style="overflow:visible"
         id="lx-text1971-glyph0-0"
         overflow="visible">
        <path
           inkscape:connector-curvature="0"
           id="path2107"
           d=""
           style="stroke:none" />
      </symbol>
      <symbol
         style="overflow:visible"
         id="lx-text1971-glyph0-1"
         overflow="visible">
        <path
           inkscape:connector-curvature="0"
           id="path2110"
           d="M 5.078125,-4.03125 C 5.0625,-4.0625 5.03125,-4.140625 5.03125,-4.171875 c 0,0 0.171875,-0.140625 0.28125,-0.21875 l 1.75,-1.34375 C 8,-6.4375 8.390625,-6.46875 8.6875,-6.5 8.765625,-6.515625 8.859375,-6.515625 8.859375,-6.703125 8.859375,-6.734375 8.828125,-6.8125 8.75,-6.8125 c -0.21875,0 -0.46875,0.03125 -0.703125,0.03125 -0.359375,0 -0.75,-0.03125 -1.109375,-0.03125 -0.0625,0 -0.1875,0 -0.1875,0.203125 0,0.0625 0.046875,0.09375 0.125,0.109375 0.21875,0.015625 0.296875,0.0625 0.296875,0.203125 0,0.1875 -0.296875,0.421875 -0.359375,0.46875 L 2.9375,-2.84375 3.734375,-6.046875 C 3.8125,-6.40625 3.84375,-6.5 4.5625,-6.5 c 0.25,0 0.34375,0 0.34375,-0.203125 0,-0.078125 -0.078125,-0.109375 -0.140625,-0.109375 -0.28125,0 -1,0.03125 -1.28125,0.03125 C 3.203125,-6.78125 2.5,-6.8125 2.203125,-6.8125 2.140625,-6.8125 2,-6.8125 2,-6.625 2,-6.5 2.09375,-6.5 2.296875,-6.5 c 0.125,0 0.3125,0.015625 0.421875,0.015625 0.15625,0.03125 0.21875,0.046875 0.21875,0.171875 0,0.03125 0,0.0625 -0.03125,0.1875 L 1.5625,-0.78125 c -0.09375,0.390625 -0.109375,0.46875 -0.90625,0.46875 -0.171875,0 -0.28125,0 -0.28125,0.1875 C 0.375,0 0.5,0 0.53125,0 0.8125,0 1.515625,-0.03125 1.796875,-0.03125 2,-0.03125 2.21875,-0.015625 2.4375,-0.015625 2.65625,-0.015625 2.875,0 3.078125,0 3.15625,0 3.28125,0 3.28125,-0.203125 3.28125,-0.3125 3.1875,-0.3125 3,-0.3125 c -0.375,0 -0.640625,0 -0.640625,-0.171875 0,-0.078125 0.046875,-0.296875 0.078125,-0.4375 C 2.578125,-1.453125 2.71875,-1.96875 2.84375,-2.5 l 1.484375,-1.15625 1.15625,2.6875 c 0.125,0.265625 0.125,0.296875 0.125,0.34375 0,0.3125 -0.4375,0.3125 -0.53125,0.3125 -0.109375,0 -0.21875,0 -0.21875,0.203125 C 4.859375,0 4.984375,0 5,0 5.40625,0 5.828125,-0.03125 6.21875,-0.03125 6.4375,-0.03125 6.984375,0 7.203125,0 7.25,0 7.375,0 7.375,-0.203125 7.375,-0.3125 7.265625,-0.3125 7.171875,-0.3125 c -0.40625,0 -0.53125,-0.09375 -0.6875,-0.4375 z m 0,0"
           style="stroke:none" />
      </symbol>
      <symbol
         style="overflow:visible"
         id="lx-text1971-glyph1-0"
         overflow="visible">
        <path
           inkscape:connector-curvature="0"
           id="path2113"
           d=""
           style="stroke:none" />
      </symbol>
      <symbol
         style="overflow:visible"
         id="lx-text1971-glyph1-1"
         overflow="visible">
        <path
           inkscape:connector-curvature="0"
           id="path2116"
           d="m 2.328125,-4.4375 c 0,-0.1875 0,-0.1875 -0.203125,-0.1875 -0.453125,0.4375 -1.078125,0.4375 -1.359375,0.4375 v 0.25 c 0.15625,0 0.625,0 1,-0.1875 v 3.546875 c 0,0.234375 0,0.328125 -0.6875,0.328125 H 0.8125 V 0 c 0.125,0 0.984375,-0.03125 1.234375,-0.03125 0.21875,0 1.09375,0.03125 1.25,0.03125 V -0.25 H 3.03125 c -0.703125,0 -0.703125,-0.09375 -0.703125,-0.328125 z m 0,0"
           style="stroke:none" />
      </symbol>
    </g>
    <g
       id="g2145">
      <symbol
         style="overflow:visible"
         id="lx-text1975-glyph0-0"
         overflow="visible">
        <path
           inkscape:connector-curvature="0"
           id="path2133"
           d=""
           style="stroke:none" />
      </symbol>
      <symbol
         style="overflow:visible"
         id="lx-text1975-glyph0-1"
         overflow="visible">
        <path
           inkscape:connector-curvature="0"
           id="path2136"
           d="M 5.078125,-4.03125 C 5.0625,-4.0625 5.03125,-4.140625 5.03125,-4.171875 c 0,0 0.171875,-0.140625 0.28125,-0.21875 l 1.75,-1.34375 C 8,-6.4375 8.390625,-6.46875 8.6875,-6.5 8.765625,-6.515625 8.859375,-6.515625 8.859375,-6.703125 8.859375,-6.734375 8.828125,-6.8125 8.75,-6.8125 c -0.21875,0 -0.46875,0.03125 -0.703125,0.03125 -0.359375,0 -0.75,-0.03125 -1.109375,-0.03125 -0.0625,0 -0.1875,0 -0.1875,0.203125 0,0.0625 0.046875,0.09375 0.125,0.109375 0.21875,0.015625 0.296875,0.0625 0.296875,0.203125 0,0.1875 -0.296875,0.421875 -0.359375,0.46875 L 2.9375,-2.84375 3.734375,-6.046875 C 3.8125,-6.40625 3.84375,-6.5 4.5625,-6.5 c 0.25,0 0.34375,0 0.34375,-0.203125 0,-0.078125 -0.078125,-0.109375 -0.140625,-0.109375 -0.28125,0 -1,0.03125 -1.28125,0.03125 C 3.203125,-6.78125 2.5,-6.8125 2.203125,-6.8125 2.140625,-6.8125 2,-6.8125 2,-6.625 2,-6.5 2.09375,-6.5 2.296875,-6.5 c 0.125,0 0.3125,0.015625 0.421875,0.015625 0.15625,0.03125 0.21875,0.046875 0.21875,0.171875 0,0.03125 0,0.0625 -0.03125,0.1875 L 1.5625,-0.78125 c -0.09375,0.390625 -0.109375,0.46875 -0.90625,0.46875 -0.171875,0 -0.28125,0 -0.28125,0.1875 C 0.375,0 0.5,0 0.53125,0 0.8125,0 1.515625,-0.03125 1.796875,-0.03125 2,-0.03125 2.21875,-0.015625 2.4375,-0.015625 2.65625,-0.015625 2.875,0 3.078125,0 3.15625,0 3.28125,0 3.28125,-0.203125 3.28125,-0.3125 3.1875,-0.3125 3,-0.3125 c -0.375,0 -0.640625,0 -0.640625,-0.171875 0,-0.078125 0.046875,-0.296875 0.078125,-0.4375 C 2.578125,-1.453125 2.71875,-1.96875 2.84375,-2.5 l 1.484375,-1.15625 1.15625,2.6875 c 0.125,0.265625 0.125,0.296875 0.125,0.34375 0,0.3125 -0.4375,0.3125 -0.53125,0.3125 -0.109375,0 -0.21875,0 -0.21875,0.203125 C 4.859375,0 4.984375,0 5,0 5.40625,0 5.828125,-0.03125 6.21875,-0.03125 6.4375,-0.03125 6.984375,0 7.203125,0 7.25,0 7.375,0 7.375,-0.203125 7.375,-0.3125 7.265625,-0.3125 7.171875,-0.3125 c -0.40625,0 -0.53125,-0.09375 -0.6875,-0.4375 z m 0,0"
           style="stroke:none" />
      </symbol>
      <symbol
         style="overflow:visible"
         id="lx-text1975-glyph1-0"
         overflow="visible">
        <path
           inkscape:connector-curvature="0"
           id="path2139"
           d=""
           style="stroke:none" />
      </symbol>
      <symbol
         style="overflow:visible"
         id="lx-text1975-glyph1-1"
         overflow="visible">
        <path
           inkscape:connector-curvature="0"
           id="path2142"
           d="M 3.515625,-1.265625 H 3.28125 c -0.015625,0.15625 -0.09375,0.5625 -0.1875,0.625 C 3.046875,-0.59375 2.515625,-0.59375 2.40625,-0.59375 H 1.125 c 0.734375,-0.640625 0.984375,-0.84375 1.390625,-1.171875 0.515625,-0.40625 1,-0.84375 1,-1.5 0,-0.84375 -0.734375,-1.359375 -1.625,-1.359375 -0.859375,0 -1.453125,0.609375 -1.453125,1.25 0,0.34375 0.296875,0.390625 0.375,0.390625 0.15625,0 0.359375,-0.125 0.359375,-0.375 0,-0.125 -0.046875,-0.375 -0.40625,-0.375 C 0.984375,-4.21875 1.453125,-4.375 1.78125,-4.375 c 0.703125,0 1.0625,0.546875 1.0625,1.109375 0,0.609375 -0.4375,1.078125 -0.65625,1.328125 L 0.515625,-0.265625 C 0.4375,-0.203125 0.4375,-0.1875 0.4375,0 h 2.875 z m 0,0"
           style="stroke:none" />
      </symbol>
    </g>
    <g
       id="g2177">
      <symbol
         style="overflow:visible"
         id="lx-text1979-glyph0-0"
         overflow="visible">
        <path
           inkscape:connector-curvature="0"
           id="path2159"
           d=""
           style="stroke:none" />
      </symbol>
      <symbol
         style="overflow:visible"
         id="lx-text1979-glyph0-1"
         overflow="visible">
        <path
           inkscape:connector-curvature="0"
           id="path2162"
           d="M 5.078125,-4.03125 C 5.0625,-4.0625 5.03125,-4.140625 5.03125,-4.171875 c 0,0 0.171875,-0.140625 0.28125,-0.21875 l 1.75,-1.34375 C 8,-6.4375 8.390625,-6.46875 8.6875,-6.5 8.765625,-6.515625 8.859375,-6.515625 8.859375,-6.703125 8.859375,-6.734375 8.828125,-6.8125 8.75,-6.8125 c -0.21875,0 -0.46875,0.03125 -0.703125,0.03125 -0.359375,0 -0.75,-0.03125 -1.109375,-0.03125 -0.0625,0 -0.1875,0 -0.1875,0.203125 0,0.0625 0.046875,0.09375 0.125,0.109375 0.21875,0.015625 0.296875,0.0625 0.296875,0.203125 0,0.1875 -0.296875,0.421875 -0.359375,0.46875 L 2.9375,-2.84375 3.734375,-6.046875 C 3.8125,-6.40625 3.84375,-6.5 4.5625,-6.5 c 0.25,0 0.34375,0 0.34375,-0.203125 0,-0.078125 -0.078125,-0.109375 -0.140625,-0.109375 -0.28125,0 -1,0.03125 -1.28125,0.03125 C 3.203125,-6.78125 2.5,-6.8125 2.203125,-6.8125 2.140625,-6.8125 2,-6.8125 2,-6.625 2,-6.5 2.09375,-6.5 2.296875,-6.5 c 0.125,0 0.3125,0.015625 0.421875,0.015625 0.15625,0.03125 0.21875,0.046875 0.21875,0.171875 0,0.03125 0,0.0625 -0.03125,0.1875 L 1.5625,-0.78125 c -0.09375,0.390625 -0.109375,0.46875 -0.90625,0.46875 -0.171875,0 -0.28125,0 -0.28125,0.1875 C 0.375,0 0.5,0 0.53125,0 0.8125,0 1.515625,-0.03125 1.796875,-0.03125 2,-0.03125 2.21875,-0.015625 2.4375,-0.015625 2.65625,-0.015625 2.875,0 3.078125,0 3.15625,0 3.28125,0 3.28125,-0.203125 3.28125,-0.3125 3.1875,-0.3125 3,-0.3125 c -0.375,0 -0.640625,0 -0.640625,-0.171875 0,-0.078125 0.046875,-0.296875 0.078125,-0.4375 C 2.578125,-1.453125 2.71875,-1.96875 2.84375,-2.5 l 1.484375,-1.15625 1.15625,2.6875 c 0.125,0.265625 0.125,0.296875 0.125,0.34375 0,0.3125 -0.4375,0.3125 -0.53125,0.3125 -0.109375,0 -0.21875,0 -0.21875,0.203125 C 4.859375,0 4.984375,0 5,0 5.40625,0 5.828125,-0.03125 6.21875,-0.03125 6.4375,-0.03125 6.984375,0 7.203125,0 7.25,0 7.375,0 7.375,-0.203125 7.375,-0.3125 7.265625,-0.3125 7.171875,-0.3125 c -0.40625,0 -0.53125,-0.09375 -0.6875,-0.4375 z m 0,0"
           style="stroke:none" />
      </symbol>
      <symbol
         style="overflow:visible"
         id="lx-text1979-glyph1-0"
         overflow="visible">
        <path
           inkscape:connector-curvature="0"
           id="path2165"
           d=""
           style="stroke:none" />
      </symbol>
      <symbol
         style="overflow:visible"
         id="lx-text1979-glyph1-1"
         overflow="visible">
        <path
           inkscape:connector-curvature="0"
           id="path2168"
           d="m 2.015625,-3.296875 c 0.0625,-0.109375 0.0625,-0.171875 0.0625,-0.21875 0,-0.21875 -0.1875,-0.375 -0.40625,-0.375 -0.265625,0 -0.34375,0.21875 -0.375,0.328125 L 0.375,-0.546875 c -0.015625,0.015625 -0.046875,0.09375 -0.046875,0.109375 0,0.078125 0.21875,0.15625 0.28125,0.15625 0.046875,0 0.046875,-0.015625 0.09375,-0.125 z m 0,0"
           style="stroke:none" />
      </symbol>
      <symbol
         style="overflow:visible"
         id="lx-text1979-glyph2-0"
         overflow="visible">
        <path
           inkscape:connector-curvature="0"
           id="path2171"
           d=""
           style="stroke:none" />
      </symbol>
      <symbol
         style="overflow:visible"
         id="lx-text1979-glyph2-1"
         overflow="visible">
        <path
           inkscape:connector-curvature="0"
           id="path2174"
           d="m 2.328125,-4.4375 c 0,-0.1875 0,-0.1875 -0.203125,-0.1875 -0.453125,0.4375 -1.078125,0.4375 -1.359375,0.4375 v 0.25 c 0.15625,0 0.625,0 1,-0.1875 v 3.546875 c 0,0.234375 0,0.328125 -0.6875,0.328125 H 0.8125 V 0 c 0.125,0 0.984375,-0.03125 1.234375,-0.03125 0.21875,0 1.09375,0.03125 1.25,0.03125 V -0.25 H 3.03125 c -0.703125,0 -0.703125,-0.09375 -0.703125,-0.328125 z m 0,0"
           style="stroke:none" />
      </symbol>
    </g>
    <g
       id="g2213">
      <symbol
         style="overflow:visible"
         id="lx-text1983-glyph0-0"
         overflow="visible">
        <path
           inkscape:connector-curvature="0"
           id="path2195"
           d=""
           style="stroke:none" />
      </symbol>
      <symbol
         style="overflow:visible"
         id="lx-text1983-glyph0-1"
         overflow="visible">
        <path
           inkscape:connector-curvature="0"
           id="path2198"
           d="M 5.078125,-4.03125 C 5.0625,-4.0625 5.03125,-4.140625 5.03125,-4.171875 c 0,0 0.171875,-0.140625 0.28125,-0.21875 l 1.75,-1.34375 C 8,-6.4375 8.390625,-6.46875 8.6875,-6.5 8.765625,-6.515625 8.859375,-6.515625 8.859375,-6.703125 8.859375,-6.734375 8.828125,-6.8125 8.75,-6.8125 c -0.21875,0 -0.46875,0.03125 -0.703125,0.03125 -0.359375,0 -0.75,-0.03125 -1.109375,-0.03125 -0.0625,0 -0.1875,0 -0.1875,0.203125 0,0.0625 0.046875,0.09375 0.125,0.109375 0.21875,0.015625 0.296875,0.0625 0.296875,0.203125 0,0.1875 -0.296875,0.421875 -0.359375,0.46875 L 2.9375,-2.84375 3.734375,-6.046875 C 3.8125,-6.40625 3.84375,-6.5 4.5625,-6.5 c 0.25,0 0.34375,0 0.34375,-0.203125 0,-0.078125 -0.078125,-0.109375 -0.140625,-0.109375 -0.28125,0 -1,0.03125 -1.28125,0.03125 C 3.203125,-6.78125 2.5,-6.8125 2.203125,-6.8125 2.140625,-6.8125 2,-6.8125 2,-6.625 2,-6.5 2.09375,-6.5 2.296875,-6.5 c 0.125,0 0.3125,0.015625 0.421875,0.015625 0.15625,0.03125 0.21875,0.046875 0.21875,0.171875 0,0.03125 0,0.0625 -0.03125,0.1875 L 1.5625,-0.78125 c -0.09375,0.390625 -0.109375,0.46875 -0.90625,0.46875 -0.171875,0 -0.28125,0 -0.28125,0.1875 C 0.375,0 0.5,0 0.53125,0 0.8125,0 1.515625,-0.03125 1.796875,-0.03125 2,-0.03125 2.21875,-0.015625 2.4375,-0.015625 2.65625,-0.015625 2.875,0 3.078125,0 3.15625,0 3.28125,0 3.28125,-0.203125 3.28125,-0.3125 3.1875,-0.3125 3,-0.3125 c -0.375,0 -0.640625,0 -0.640625,-0.171875 0,-0.078125 0.046875,-0.296875 0.078125,-0.4375 C 2.578125,-1.453125 2.71875,-1.96875 2.84375,-2.5 l 1.484375,-1.15625 1.15625,2.6875 c 0.125,0.265625 0.125,0.296875 0.125,0.34375 0,0.3125 -0.4375,0.3125 -0.53125,0.3125 -0.109375,0 -0.21875,0 -0.21875,0.203125 C 4.859375,0 4.984375,0 5,0 5.40625,0 5.828125,-0.03125 6.21875,-0.03125 6.4375,-0.03125 6.984375,0 7.203125,0 7.25,0 7.375,0 7.375,-0.203125 7.375,-0.3125 7.265625,-0.3125 7.171875,-0.3125 c -0.40625,0 -0.53125,-0.09375 -0.6875,-0.4375 z m 0,0"
           style="stroke:none" />
      </symbol>
      <symbol
         style="overflow:visible"
         id="lx-text1983-glyph1-0"
         overflow="visible">
        <path
           inkscape:connector-curvature="0"
           id="path2201"
           d=""
           style="stroke:none" />
      </symbol>
      <symbol
         style="overflow:visible"
         id="lx-text1983-glyph1-1"
         overflow="visible">
        <path
           inkscape:connector-curvature="0"
           id="path2204"
           d="m 2.015625,-3.296875 c 0.0625,-0.109375 0.0625,-0.171875 0.0625,-0.21875 0,-0.21875 -0.1875,-0.375 -0.40625,-0.375 -0.265625,0 -0.34375,0.21875 -0.375,0.328125 L 0.375,-0.546875 c -0.015625,0.015625 -0.046875,0.09375 -0.046875,0.109375 0,0.078125 0.21875,0.15625 0.28125,0.15625 0.046875,0 0.046875,-0.015625 0.09375,-0.125 z m 0,0"
           style="stroke:none" />
      </symbol>
      <symbol
         style="overflow:visible"
         id="lx-text1983-glyph2-0"
         overflow="visible">
        <path
           inkscape:connector-curvature="0"
           id="path2207"
           d=""
           style="stroke:none" />
      </symbol>
      <symbol
         style="overflow:visible"
         id="lx-text1983-glyph2-1"
         overflow="visible">
        <path
           inkscape:connector-curvature="0"
           id="path2210"
           d="M 3.515625,-1.265625 H 3.28125 c -0.015625,0.15625 -0.09375,0.5625 -0.1875,0.625 C 3.046875,-0.59375 2.515625,-0.59375 2.40625,-0.59375 H 1.125 c 0.734375,-0.640625 0.984375,-0.84375 1.390625,-1.171875 0.515625,-0.40625 1,-0.84375 1,-1.5 0,-0.84375 -0.734375,-1.359375 -1.625,-1.359375 -0.859375,0 -1.453125,0.609375 -1.453125,1.25 0,0.34375 0.296875,0.390625 0.375,0.390625 0.15625,0 0.359375,-0.125 0.359375,-0.375 0,-0.125 -0.046875,-0.375 -0.40625,-0.375 C 0.984375,-4.21875 1.453125,-4.375 1.78125,-4.375 c 0.703125,0 1.0625,0.546875 1.0625,1.109375 0,0.609375 -0.4375,1.078125 -0.65625,1.328125 L 0.515625,-0.265625 C 0.4375,-0.203125 0.4375,-0.1875 0.4375,0 h 2.875 z m 0,0"
           style="stroke:none" />
      </symbol>
    </g>
  </defs>
  <sodipodi:namedview
     pagecolor="#ffffff"
     bordercolor="#666666"
     borderopacity="1"
     objecttolerance="10"
     gridtolerance="10"
     guidetolerance="10"
     inkscape:pageopacity="0"
     inkscape:pageshadow="2"
     inkscape:window-width="1366"
     inkscape:window-height="701"
     id="namedview817"
     showgrid="false"
     units="in"
     inkscape:zoom="0.53588673"
     inkscape:cx="322.4198"
     inkscape:cy="491.07766"
     inkscape:window-x="-9"
     inkscape:window-y="-9"
     inkscape:window-maximized="1"
     inkscape:current-layer="svg815" />
  <g
     id="g849"
     transform="matrix(7.9995907,0,0,7.9995907,-2.8197042,-5725.651)">
    <path
       inkscape:original-d="m 11.988661,746.62299 c 1.180213,-2.29391 2.359425,-4.58682 3.537638,-6.87874 2.554626,-2.22723 5.110921,-4.4558 7.664881,-6.6822 3.537165,-1.57263 7.076276,-3.14557 10.612913,-4.71685 3.995858,-0.39394 7.993441,-0.78714 11.988661,-1.17921 4.258109,-0.45946 8.517535,-0.91817 12.774803,-1.37575 6.681486,-0.001 13.365409,-0.001 20.046613,0"
       inkscape:path-effect="#path-effect827"
       inkscape:connector-curvature="0"
       id="path825"
       d="m 11.988661,746.62299 c 1.179827,-2.29411 2.359038,-4.58702 4.225681,-6.84646 1.866643,-2.25944 4.422941,-4.48801 7.468575,-6.38733 3.045635,-1.89932 6.584746,-3.47225 10.350934,-4.45465 3.766188,-0.98239 7.763771,-1.3756 11.890439,-1.80137 4.126668,-0.42577 8.386094,-0.88447 13.855424,-1.11371 5.469329,-0.22923 12.153252,-0.22923 18.834456,-0.22923"
       style="fill:none;stroke:#000b00;stroke-width:1px;stroke-linecap:butt;stroke-linejoin:miter;stroke-opacity:1" />
    <path
       inkscape:original-d="m 78.61417,725.79024 c 1.835331,2.61947 3.669662,5.23994 5.502992,7.86142 2.29409,2.09554 4.586827,4.19175 6.87874,6.28913 3.145503,1.17819 6.290134,2.35743 9.433698,3.53764 4.38953,0.5885 8.77958,1.17821 13.16788,1.76882 3.27595,0.19549 6.55218,0.39207 9.82677,0.5896"
       inkscape:path-effect="#path-effect831"
       inkscape:connector-curvature="0"
       id="path829"
       d="m 78.61417,725.79024 c 1.834188,2.62027 3.668517,5.24074 5.732324,7.59937 2.063806,2.35863 4.35654,4.45484 7.075499,6.09271 2.71896,1.63787 5.863592,2.8171 9.630287,3.70142 3.7667,0.88431 8.15675,1.47402 11.98892,1.86704 3.83217,0.39302 7.1084,0.58959 10.38305,0.78607"
       style="fill:none;stroke:#000b00;stroke-width:1px;stroke-linecap:butt;stroke-linejoin:miter;stroke-opacity:1" />
  </g>
  <path
     style="fill:none;stroke:#000300;stroke-width:1px;stroke-linecap:butt;stroke-linejoin:miter;stroke-opacity:1"
     d="m 22.405039,776.10331 c 1.966182,-2.68712 3.931535,-5.3731 6.191286,-7.76372 2.259752,-2.39062 4.815785,-4.48788 7.37026,-6.0925 2.554475,-1.60462 5.110526,-2.7188 8.188703,-3.63564 3.078178,-0.91685 6.683029,-1.63782 10.383761,-1.99802 3.700732,-0.3602 7.501634,-0.3602 12.512489,-0.49121 5.010854,-0.13101 11.236113,-0.39313 17.458695,-0.65513"
     id="path851"
     inkscape:connector-curvature="0"
     inkscape:path-effect="#path-effect853"
     inkscape:original-d="m 22.405039,776.10331 c 1.966354,-2.68699 3.931708,-5.37297 5.896062,-8.05795 2.554888,-2.0965 5.110921,-4.19376 7.664882,-6.28914 2.554873,-1.11422 5.110921,-2.2284 7.664882,-3.3411 3.602447,-0.72129 7.207298,-1.44226 10.809448,-2.16189 3.799468,-10e-4 7.60037,-10e-4 11.399055,0 6.222984,-0.26298 12.448243,-0.52509 18.670865,-0.78614"
     transform="matrix(7.9995907,0,0,7.9995907,-2.8197042,-5725.651)" />
  <path
     style="fill:none;stroke:#000400;stroke-width:1px;stroke-linecap:butt;stroke-linejoin:miter;stroke-opacity:1"
     d="m 84.510233,755.46709 c 2.030735,2.81683 4.061598,5.63383 5.89604,7.89412 1.834442,2.2603 3.472133,3.9635 5.809208,5.40922 2.337074,1.44573 5.328349,2.61623 8.210739,3.50057 2.88239,0.88433 5.63437,1.47404 8.74597,1.89738 3.1116,0.42333 6.71534,0.69027 10.25206,0.95225"
     id="path855"
     inkscape:connector-curvature="0"
     inkscape:path-effect="#path-effect857"
     inkscape:original-d="m 84.510233,755.46709 c 2.031866,2.81601 4.062732,5.63301 6.092598,8.45102 1.638902,1.70242 3.276591,3.40562 4.913386,5.10992 3.014579,1.24374 6.028083,2.35743 9.040633,3.53764 2.75201,0.5885 5.50399,1.17821 8.25448,1.76882 3.47218,0.26098 7.07628,0.52309 10.61292,0.78614"
     transform="matrix(7.9995907,0,0,7.9995907,-2.8197042,-5725.651)" />
  <path
     style="fill:none;stroke:#001100;stroke-width:1px;stroke-linecap:butt;stroke-linejoin:miter;stroke-opacity:1"
     d="m 11.59559,775.90677 c 3.604131,0.0655 7.207281,0.13104 10.809449,0.19654"
     id="path859"
     inkscape:connector-curvature="0"
     inkscape:path-effect="#path-effect861"
     inkscape:original-d="m 11.59559,775.90677 c 3.60415,0.0645 7.207299,0.13003 10.809449,0.19654"
     transform="matrix(7.9995907,0,0,7.9995907,-2.8197042,-5725.651)" />
  <path
     style="fill:none;stroke:#00ee00;stroke-width:1px;stroke-linecap:butt;stroke-linejoin:miter;stroke-opacity:1"
     d="m 19.063936,805.19055 c 1.70414,-2.29403 3.40745,-4.58695 5.798006,-6.9774 2.390557,-2.39045 5.471122,-4.88112 8.189496,-6.7151 2.718374,-1.83398 5.077636,-3.01361 8.155676,-3.83216 3.07804,-0.81854 6.879659,-1.27736 10.809747,-1.60485 3.930089,-0.32749 7.993002,-0.52408 12.152438,-0.65508 4.159436,-0.131 8.4188,-0.19653 12.250837,-0.26203 3.832036,-0.0655 7.239463,-0.13104 10.645058,-0.19653"
     id="path863"
     inkscape:connector-curvature="0"
     inkscape:path-effect="#path-effect865"
     inkscape:original-d="m 19.063936,805.19055 c 1.704307,-2.29391 3.407614,-4.58683 5.109921,-6.87874 3.078547,-2.48923 6.15911,-4.9799 9.237165,-7.46834 2.358588,-1.1798 4.717851,-2.35943 7.075276,-3.53764 3.798751,-0.45935 7.60037,-0.91817 11.399054,-1.37575 4.061552,-0.19748 8.124465,-0.39407 12.185197,-0.58961 4.258171,-0.0665 8.517535,-0.13202 12.774803,-0.19653 3.406801,-0.0665 6.814228,-0.13203 10.219842,-0.19654"
     transform="matrix(7.9995907,0,0,7.9995907,-2.8197042,-5725.651)" />
  <path
     style="fill:none;stroke:#00f500;stroke-width:1px;stroke-linecap:butt;stroke-linejoin:miter;stroke-opacity:1"
     d="m 87.065194,784.9474 c 1.506669,1.89971 3.013444,3.79956 4.91342,5.86333 1.899976,2.06376 4.192736,4.29101 6.637383,5.9889 2.444643,1.69788 5.089653,2.88813 7.808253,3.87073 2.7186,0.9826 5.5361,1.76888 8.35734,2.35903 2.82125,0.59016 5.62995,0.98207 8.44612,1.37502"
     id="path871"
     inkscape:connector-curvature="0"
     inkscape:path-effect="#path-effect873"
     inkscape:original-d="m 87.065194,784.9474 c 1.507771,1.89884 3.014543,3.79869 4.520314,5.69953 2.294067,2.22655 4.586827,4.4538 6.87874,6.6822 2.621452,1.1127 5.241942,2.35743 7.861422,3.53764 2.81751,0.78501 5.63501,1.57129 8.45102,2.35843 2.81734,0.45747 5.63501,0.78514 8.45102,1.17921"
     transform="matrix(7.9995907,0,0,7.9995907,-2.8197042,-5725.651)" />
  <path
     style="fill:none;stroke:#e90000;stroke-width:1px;stroke-linecap:butt;stroke-linejoin:miter;stroke-opacity:1"
     d="m 11.792126,805.19055 c 5.307468,-0.0655 10.613925,-0.13103 15.919369,-0.19653"
     id="path875"
     inkscape:connector-curvature="0"
     inkscape:path-effect="#path-effect877"
     inkscape:original-d="m 11.792126,805.19055 c 5.307456,-0.0665 10.613913,-0.13202 15.919369,-0.19653"
     transform="matrix(7.9995907,0,0,7.9995907,-2.8197042,-5725.651)" />
  <path
     style="fill:none;stroke:#07f90b;stroke-width:1px;stroke-linecap:butt;stroke-linejoin:miter;stroke-opacity:1"
     d="m 88.440942,786.71622 c 1.572189,1.96524 3.14447,3.93059 5.142782,5.83061 1.998311,1.90002 4.422098,3.73424 7.337406,5.43754 2.91531,1.7033 6.32214,3.27568 9.13924,4.16001 2.81709,0.88434 5.04478,1.0809 7.14071,1.3429 2.09593,0.26201 4.06209,0.58971 6.02663,0.91713"
     id="path883"
     inkscape:connector-curvature="0"
     inkscape:path-effect="#path-effect885"
     inkscape:original-d="m 88.440942,786.71622 c 1.573283,1.96436 3.145566,3.92971 4.71685,5.89606 2.425087,1.83345 4.848874,3.66767 7.271808,5.503 3.4074,1.57118 6.81423,3.14356 10.21984,4.71685 2.22812,0.19551 4.45581,0.39207 6.68221,0.5896 1.96555,0.32643 3.93171,0.65412 5.89606,0.98268"
     transform="matrix(7.9995907,0,0,7.9995907,-2.8197042,-5725.651)" />
  <path
     style="fill:none;stroke:#00f700;stroke-width:1px;stroke-linecap:butt;stroke-linejoin:miter;stroke-opacity:1"
     d="m 11.792126,805.19055 c 2.424936,0 4.848873,0 7.27181,0"
     id="path867"
     inkscape:connector-curvature="0"
     inkscape:path-effect="#path-effect869"
     inkscape:original-d="m 11.792126,805.19055 c 2.424936,-10e-4 4.848873,-10e-4 7.27181,0"
     transform="matrix(7.9995907,0,0,7.9995907,-2.8197042,-5725.651)" />
  <path
     style="fill:none;stroke:#f70000;stroke-width:1px;stroke-linecap:butt;stroke-linejoin:miter;stroke-opacity:1"
     d="m 27.711495,804.99402 c 1.179901,-2.03205 2.35911,-4.06291 2.948374,-5.07776 0.589264,-1.01484 7.074933,-7.50051 8.385167,-8.05736 1.310235,-0.55685 3.931917,-1.67106 6.843536,-2.72828 2.911619,-1.05721 5.997978,-2.0217 13.824174,-2.67658 7.826197,-0.65488 20.343709,-0.98257 32.85544,-1.3101"
     id="path879"
     inkscape:connector-curvature="0"
     inkscape:path-effect="#path-effect881"
     inkscape:original-d="m 27.711495,804.99402 c 1.180213,-2.03187 2.359425,-4.06273 3.537638,-6.0926 l 6.485669,-6.48567 c 2.62026,-1.11419 5.241944,-2.2284 7.861417,-3.3411 3.2096,-0.98323 6.290133,-1.96636 9.4337,-2.94803 12.508998,-0.32844 25.026511,-0.65612 37.538267,-0.98268"
     sodipodi:nodetypes="cccccc"
     transform="matrix(7.9995907,0,0,7.9995907,-2.8197042,-5725.651)" />
  <path
     style="fill:none;stroke:#e30000;stroke-width:1px;stroke-linecap:butt;stroke-linejoin:miter;stroke-opacity:1"
     d="m 123.22771,804.40441 c -4.25758,-1.11352 -8.51584,-2.22722 -12.28322,-3.73414 -3.76739,-1.50693 -7.04245,-3.40647 -9.63044,-5.43756 -2.587997,-2.0311 -4.487657,-4.19278 -5.830688,-5.89616 -1.343032,-1.70338 -2.129202,-2.94815 -2.915176,-4.19261"
     id="path887"
     inkscape:connector-curvature="0"
     inkscape:path-effect="#path-effect889"
     inkscape:original-d="m 123.22771,804.40441 c -4.25727,-1.1147 -8.51553,-2.2284 -12.7748,-3.3411 -3.27512,-1.90115 -6.55018,-3.80069 -9.82677,-5.69953 -1.899027,-2.1631 -3.798687,-4.32478 -5.699529,-6.48567 -0.785117,-1.24568 -1.571283,-2.49045 -2.358425,-3.73417"
     transform="matrix(7.9995907,0,0,7.9995907,-2.8197042,-5725.651)" />
  <path
     style="fill:none;stroke:#00f900;stroke-width:3.0234673;stroke-linecap:butt;stroke-linejoin:miter;stroke-miterlimit:4;stroke-dasharray:18.14080414, 18.14080414;stroke-dashoffset:0;stroke-opacity:1"
     d="M 152.27408,169.98935 V 702.96616"
     id="path891"
     inkscape:connector-curvature="0" />
  <path
     style="fill:none;stroke:#00ed00;stroke-width:3.0234673;stroke-linecap:butt;stroke-linejoin:miter;stroke-miterlimit:4;stroke-dasharray:18.14080414, 18.14080414;stroke-dashoffset:0;stroke-opacity:1"
     d="M 701.52723,360.22602 V 710.82728"
     id="path893"
     inkscape:connector-curvature="0" />
  <path
     style="fill:none;stroke:#00ea00;stroke-width:3.0234673;stroke-linecap:butt;stroke-linejoin:miter;stroke-miterlimit:4;stroke-dasharray:24.18773875, 24.18773875;stroke-dashoffset:0;stroke-opacity:1"
     d="M 93.084677,358.65378 H 696.81062"
     id="path895"
     inkscape:connector-curvature="0" />
  <path
     style="fill:none;stroke:#00e600;stroke-width:3.0234673;stroke-linecap:butt;stroke-linejoin:miter;stroke-miterlimit:4;stroke-dasharray:18.14080414, 18.14080414;stroke-dashoffset:0;stroke-opacity:1"
     d="M 91.512477,163.70063 H 152.82839"
     id="path897"
     inkscape:connector-curvature="0" />
  <path
     style="fill:none;stroke:#ed0000;stroke-width:3.0234673;stroke-linecap:butt;stroke-linejoin:miter;stroke-miterlimit:4;stroke-dasharray:18.14080414, 18.14080414;stroke-dashoffset:0;stroke-opacity:1"
     d="M 212.5721,127.53992 V 712.39944"
     id="path899"
     inkscape:connector-curvature="0" />
  <path
     style="fill:none;stroke:#ed0000;stroke-width:3.0234673;stroke-linecap:butt;stroke-linejoin:miter;stroke-miterlimit:4;stroke-dasharray:24.18773883, 24.18773883;stroke-dashoffset:0;stroke-opacity:1"
     d="M 737.6879,723.40487 V 399.53104"
     id="path903"
     inkscape:connector-curvature="0" />
  <path
     style="fill:#ff0000;stroke:#f50000;stroke-width:3.0234673;stroke-linecap:butt;stroke-linejoin:miter;stroke-miterlimit:4;stroke-dasharray:18.14080406, 18.14080406;stroke-dashoffset:0;stroke-opacity:1"
     d="M 89.94027,119.67896 H 222.00532"
     id="path905"
     inkscape:connector-curvature="0" />
  <path
     style="fill:none;stroke:#00f300;stroke-width:7.99959087px;stroke-linecap:butt;stroke-linejoin:miter;stroke-opacity:1"
     d="M 865.03637,574.04556 H 920.0634"
     id="path907"
     inkscape:connector-curvature="0" />
  <path
     style="fill:none;stroke:#e70000;stroke-width:8.57250118px;stroke-linecap:butt;stroke-linejoin:miter;stroke-opacity:1"
     d="M 868.18077,629.35066 H 925.9555"
     id="path909"
     inkscape:connector-curvature="0" />
  <path
     style="opacity:1;fill:#ff0806;fill-opacity:1;fill-rule:nonzero;stroke:#e70000;stroke-width:3.20760202;stroke-linecap:square;stroke-miterlimit:4;stroke-dasharray:none;stroke-dashoffset:0;stroke-opacity:1"
     id="path911"
     sodipodi:type="arc"
     sodipodi:cx="212.5721"
     sodipodi:cy="127.53976"
     sodipodi:rx="12.386741"
     sodipodi:ry="12.577623"
     sodipodi:start="0"
     sodipodi:end="6.2636027"
     d="m 224.95884,127.53976 a 12.386741,12.577623 0 0 1 -12.3261,12.57747 12.386741,12.577623 0 0 1 -12.44679,-12.45432 12.386741,12.577623 0 0 1 12.20423,-12.69942 12.386741,12.577623 0 0 1 12.56628,12.32998 l -12.38436,0.24629 z" />
  <path
     style="opacity:1;fill:#ff0806;fill-opacity:1;fill-rule:nonzero;stroke:#e70000;stroke-width:3.20760202;stroke-linecap:square;stroke-miterlimit:4;stroke-dasharray:none;stroke-dashoffset:0;stroke-opacity:1"
     id="path911-8"
     sodipodi:type="arc"
     sodipodi:cx="737.68787"
     sodipodi:cy="399.53122"
     sodipodi:rx="12.386741"
     sodipodi:ry="12.577623"
     sodipodi:start="0"
     sodipodi:end="6.2636027"
     d="m 750.07461,399.53122 a 12.386741,12.577623 0 0 1 -12.3261,12.57747 12.386741,12.577623 0 0 1 -12.44679,-12.45432 12.386741,12.577623 0 0 1 12.20423,-12.69942 12.386741,12.577623 0 0 1 12.56628,12.32998 l -12.38436,0.24629 z" />
  <path
     style="opacity:1;fill:#12f000;fill-opacity:1;fill-rule:nonzero;stroke:#0ef400;stroke-width:3.20760202;stroke-linecap:square;stroke-miterlimit:4;stroke-dasharray:none;stroke-dashoffset:0;stroke-opacity:1"
     id="path911-4"
     sodipodi:type="arc"
     sodipodi:cx="148.09767"
     sodipodi:cy="164.532"
     sodipodi:rx="12.386741"
     sodipodi:ry="12.577623"
     sodipodi:start="0"
     sodipodi:end="6.2636027"
     d="m 160.48441,164.532 a 12.386741,12.577623 0 0 1 -12.3261,12.57747 12.386741,12.577623 0 0 1 -12.44679,-12.45432 12.386741,12.577623 0 0 1 12.20423,-12.69942 12.386741,12.577623 0 0 1 12.56629,12.32998 l -12.38437,0.24629 z" />
  <path
     style="opacity:1;fill:#12f000;fill-opacity:1;fill-rule:nonzero;stroke:#0ef400;stroke-width:3.20760202;stroke-linecap:square;stroke-miterlimit:4;stroke-dasharray:none;stroke-dashoffset:0;stroke-opacity:1"
     id="path911-4-9"
     sodipodi:type="arc"
     sodipodi:cx="696.81061"
     sodipodi:cy="358.6539"
     sodipodi:rx="12.386741"
     sodipodi:ry="12.577623"
     sodipodi:start="0"
     sodipodi:end="6.2636027"
     d="m 709.19735,358.6539 a 12.386741,12.577623 0 0 1 -12.3261,12.57747 12.386741,12.577623 0 0 1 -12.44679,-12.45432 12.386741,12.577623 0 0 1 12.20423,-12.69942 12.386741,12.577623 0 0 1 12.56628,12.32998 l -12.38436,0.24629 z"
     inkscape:transform-center-x="1.1809769"
     inkscape:transform-center-y="-2.7514948" />
  <path
     style="opacity:1;fill:#12f000;fill-opacity:1;fill-rule:nonzero;stroke:#0ef400;stroke-width:3.20760202;stroke-linecap:square;stroke-miterlimit:4;stroke-dasharray:none;stroke-dashoffset:0;stroke-opacity:1"
     id="path911-4-0"
     sodipodi:type="arc"
     sodipodi:cx="148.09767"
     sodipodi:cy="164.532"
     sodipodi:rx="12.386741"
     sodipodi:ry="12.577623"
     sodipodi:start="0"
     sodipodi:end="6.2636027"
     d="m 160.48441,164.532 a 12.386741,12.577623 0 0 1 -12.3261,12.57747 12.386741,12.577623 0 0 1 -12.44679,-12.45432 12.386741,12.577623 0 0 1 12.20423,-12.69942 12.386741,12.577623 0 0 1 12.56629,12.32998 l -12.38437,0.24629 z" />
  <path
     style="opacity:1;fill:#12f000;fill-opacity:1;fill-rule:nonzero;stroke:#0ef400;stroke-width:3.20760202;stroke-linecap:square;stroke-miterlimit:4;stroke-dasharray:none;stroke-dashoffset:0;stroke-opacity:1"
     id="path911-4-1"
     sodipodi:type="arc"
     sodipodi:cx="148.09767"
     sodipodi:cy="164.532"
     sodipodi:rx="12.386741"
     sodipodi:ry="12.577623"
     sodipodi:start="0"
     sodipodi:end="6.2636027"
     d="m 160.48441,164.532 a 12.386741,12.577623 0 0 1 -12.3261,12.57747 12.386741,12.577623 0 0 1 -12.44679,-12.45432 12.386741,12.577623 0 0 1 12.20423,-12.69942 12.386741,12.577623 0 0 1 12.56629,12.32998 l -12.38437,0.24629 z" />
  <path
     style="opacity:1;fill:#12f000;fill-opacity:1;fill-rule:nonzero;stroke:#0ef400;stroke-width:3.20760202;stroke-linecap:square;stroke-miterlimit:4;stroke-dasharray:none;stroke-dashoffset:0;stroke-opacity:1"
     id="path911-4-6"
     sodipodi:type="arc"
     sodipodi:cx="148.09767"
     sodipodi:cy="164.532"
     sodipodi:rx="12.386741"
     sodipodi:ry="12.577623"
     sodipodi:start="0"
     sodipodi:end="6.2636027"
     d="m 160.48441,164.532 a 12.386741,12.577623 0 0 1 -12.3261,12.57747 12.386741,12.577623 0 0 1 -12.44679,-12.45432 12.386741,12.577623 0 0 1 12.20423,-12.69942 12.386741,12.577623 0 0 1 12.56629,12.32998 l -12.38437,0.24629 z" />
  <path
     style="opacity:1;fill:#12f000;fill-opacity:1;fill-rule:nonzero;stroke:#0ef400;stroke-width:3.20760202;stroke-linecap:square;stroke-miterlimit:4;stroke-dasharray:none;stroke-dashoffset:0;stroke-opacity:1"
     id="path911-4-7"
     sodipodi:type="arc"
     sodipodi:cx="148.09767"
     sodipodi:cy="164.532"
     sodipodi:rx="12.386741"
     sodipodi:ry="12.577623"
     sodipodi:start="0"
     sodipodi:end="6.2636027"
     d="m 160.48441,164.532 a 12.386741,12.577623 0 0 1 -12.3261,12.57747 12.386741,12.577623 0 0 1 -12.44679,-12.45432 12.386741,12.577623 0 0 1 12.20423,-12.69942 12.386741,12.577623 0 0 1 12.56629,12.32998 l -12.38437,0.24629 z" />
  <path
     style="fill:none;stroke:#000000;stroke-width:3.38260937;stroke-linecap:butt;stroke-linejoin:miter;stroke-miterlimit:4;stroke-dasharray:none;stroke-opacity:1;marker-start:url(#Arrow1Lstart);marker-end:url(#Arrow1Lend)"
     d="M 85.223663,36.066921 V 248.59957 H 989.24034"
     id="path1040"
     inkscape:connector-curvature="0" />
  <path
     style="fill:none;stroke:#000000;stroke-width:3.46707296;stroke-linecap:butt;stroke-linejoin:miter;stroke-miterlimit:4;stroke-dasharray:none;stroke-opacity:1;marker-start:url(#Arrow1Lstart-1);marker-end:url(#Arrow1Lend-6)"
     d="M 84.926702,259.55333 V 482.8323 H 988.94339"
     id="path1040-9"
     inkscape:connector-curvature="0" />
  <path
     style="fill:none;stroke:#000000;stroke-width:3.5944593;stroke-linecap:butt;stroke-linejoin:miter;stroke-miterlimit:4;stroke-dasharray:none;stroke-opacity:1;marker-start:url(#Arrow1Lstart-1-8);marker-end:url(#Arrow1Lend-6-7)"
     d="M 84.926702,482.8323 V 722.82002 H 988.94339"
     id="path1040-9-6"
     inkscape:connector-curvature="0" />
  <g
     id="lx-text1951"
     transform="matrix(6.6339894,0,0,6.6339894,28.75543,62.61589)">
    <defs
       id="defs2015">
      <g
         id="g2891">
        <symbol
           style="overflow:visible"
           id="symbol2885"
           overflow="visible">
          <path
             inkscape:connector-curvature="0"
             id="path2883"
             d=""
             style="stroke:none" />
        </symbol>
        <symbol
           style="overflow:visible"
           id="symbol2889"
           overflow="visible">
          <path
             inkscape:connector-curvature="0"
             id="path2887"
             d="M 3.328125,-3.015625 C 3.390625,-3.265625 3.625,-4.1875 4.3125,-4.1875 c 0.046875,0 0.296875,0 0.5,0.125 C 4.53125,-4 4.34375,-3.765625 4.34375,-3.515625 c 0,0.15625 0.109375,0.34375 0.375,0.34375 0.21875,0 0.53125,-0.171875 0.53125,-0.578125 0,-0.515625 -0.578125,-0.65625 -0.921875,-0.65625 -0.578125,0 -0.921875,0.53125 -1.046875,0.75 -0.25,-0.65625 -0.78125,-0.75 -1.078125,-0.75 -1.03125,0 -1.609375,1.28125 -1.609375,1.53125 0,0.109375 0.109375,0.109375 0.125,0.109375 0.078125,0 0.109375,-0.03125 0.125,-0.109375 0.34375,-1.0625 1,-1.3125 1.34375,-1.3125 0.1875,0 0.53125,0.09375 0.53125,0.671875 0,0.3125 -0.171875,0.96875 -0.53125,2.375 -0.15625,0.609375 -0.515625,1.03125 -0.953125,1.03125 -0.0625,0 -0.28125,0 -0.5,-0.125 0.25,-0.0625 0.46875,-0.265625 0.46875,-0.546875 0,-0.265625 -0.21875,-0.34375 -0.359375,-0.34375 -0.3125,0 -0.546875,0.25 -0.546875,0.578125 0,0.453125 0.484375,0.65625 0.921875,0.65625 0.671875,0 1.03125,-0.703125 1.046875,-0.75 0.125,0.359375 0.484375,0.75 1.078125,0.75 1.03125,0 1.59375,-1.28125 1.59375,-1.53125 0,-0.109375 -0.078125,-0.109375 -0.109375,-0.109375 -0.09375,0 -0.109375,0.046875 -0.140625,0.109375 -0.328125,1.078125 -1,1.3125 -1.3125,1.3125 -0.390625,0 -0.546875,-0.3125 -0.546875,-0.65625 0,-0.21875 0.046875,-0.4375 0.15625,-0.875 z m 0,0"
             style="stroke:none" />
        </symbol>
      </g>
    </defs>
    <g
       id="lx-text1951-surface1">
      <g
         id="g2019"
         style="fill:#000000;fill-opacity:1">
        <use
           height="100%"
           width="100%"
           id="use2017"
           y="0"
           x="0"
           xlink:href="#lx-text1951-glyph0-1" />
      </g>
    </g>
  </g>
  <g
     id="lx-text1955"
     transform="matrix(6.6339894,0,0,6.6339894,36.930187,290.79762)">
    <defs
       id="defs2031">
      <g
         id="g2906">
        <symbol
           style="overflow:visible"
           id="symbol2900"
           overflow="visible">
          <path
             inkscape:connector-curvature="0"
             id="path2898"
             d=""
             style="stroke:none" />
        </symbol>
        <symbol
           style="overflow:visible"
           id="symbol2904"
           overflow="visible">
          <path
             inkscape:connector-curvature="0"
             id="path2902"
             d="m 4.84375,-3.796875 c 0.046875,-0.140625 0.046875,-0.15625 0.046875,-0.234375 0,-0.171875 -0.140625,-0.265625 -0.296875,-0.265625 -0.09375,0 -0.25,0.0625 -0.34375,0.203125 -0.015625,0.0625 -0.109375,0.359375 -0.140625,0.546875 -0.078125,0.25 -0.140625,0.53125 -0.203125,0.796875 l -0.453125,1.796875 c -0.03125,0.140625 -0.46875,0.84375 -1.125,0.84375 -0.5,0 -0.609375,-0.4375 -0.609375,-0.8125 C 1.71875,-1.375 1.890625,-2 2.21875,-2.875 2.375,-3.28125 2.421875,-3.390625 2.421875,-3.59375 c 0,-0.4375 -0.3125,-0.8125 -0.8125,-0.8125 -0.953125,0 -1.3125,1.453125 -1.3125,1.53125 0,0.109375 0.09375,0.109375 0.109375,0.109375 0.109375,0 0.109375,-0.03125 0.15625,-0.1875 0.28125,-0.9375 0.671875,-1.234375 1.015625,-1.234375 0.078125,0 0.25,0 0.25,0.3125 0,0.25 -0.109375,0.515625 -0.171875,0.703125 -0.40625,1.0625 -0.578125,1.625 -0.578125,2.09375 0,0.890625 0.625,1.1875 1.21875,1.1875 0.390625,0 0.71875,-0.171875 1,-0.453125 -0.125,0.515625 -0.25,1.015625 -0.640625,1.546875 -0.265625,0.328125 -0.640625,0.625 -1.09375,0.625 -0.140625,0 -0.59375,-0.03125 -0.765625,-0.421875 0.15625,0 0.296875,0 0.421875,-0.125 C 1.328125,1.203125 1.421875,1.0625 1.421875,0.875 1.421875,0.5625 1.15625,0.53125 1.0625,0.53125 0.828125,0.53125 0.5,0.6875 0.5,1.171875 c 0,0.5 0.4375,0.875 1.0625,0.875 1.015625,0 2.046875,-0.90625 2.328125,-2.03125 z m 0,0"
             style="stroke:none" />
        </symbol>
      </g>
    </defs>
    <g
       id="lx-text1955-surface1">
      <g
         id="g2035"
         style="fill:#000000;fill-opacity:1">
        <use
           height="100%"
           width="100%"
           id="use2033"
           y="0"
           x="0"
           xlink:href="#lx-text1955-glyph0-1" />
      </g>
    </g>
  </g>
  <g
     id="lx-text1959"
     transform="matrix(6.6339894,0,0,6.6339894,922.67328,575.70405)"
     style="fill:#00ff00">
    <defs
       id="defs2053">
      <g
         id="g2929">
        <symbol
           style="overflow:visible"
           id="symbol2915"
           overflow="visible">
          <path
             inkscape:connector-curvature="0"
             id="path2913"
             d=""
             style="stroke:none" />
        </symbol>
        <symbol
           style="overflow:visible"
           id="symbol2919"
           overflow="visible">
          <path
             inkscape:connector-curvature="0"
             id="path2917"
             d="m 1.328125,-0.828125 c 0.53125,-0.578125 0.828125,-0.828125 1.1875,-1.140625 0,0 0.609375,-0.53125 0.96875,-0.890625 C 4.4375,-3.78125 4.65625,-4.265625 4.65625,-4.3125 c 0,-0.09375 -0.09375,-0.09375 -0.109375,-0.09375 -0.078125,0 -0.09375,0.015625 -0.15625,0.109375 -0.296875,0.484375 -0.5,0.640625 -0.734375,0.640625 -0.25,0 -0.359375,-0.15625 -0.515625,-0.328125 -0.1875,-0.21875 -0.359375,-0.421875 -0.6875,-0.421875 -0.75,0 -1.203125,0.921875 -1.203125,1.140625 0,0.046875 0.03125,0.109375 0.109375,0.109375 0.09375,0 0.109375,-0.046875 0.140625,-0.109375 0.1875,-0.46875 0.765625,-0.46875 0.84375,-0.46875 0.203125,0 0.390625,0.0625 0.625,0.140625 0.40625,0.15625 0.515625,0.15625 0.765625,0.15625 -0.359375,0.421875 -1.1875,1.140625 -1.375,1.296875 l -0.90625,0.84375 C 0.78125,-0.625 0.421875,-0.0625 0.421875,0.015625 c 0,0.09375 0.109375,0.09375 0.125,0.09375 0.078125,0 0.09375,-0.015625 0.15625,-0.125 0.234375,-0.359375 0.53125,-0.625 0.859375,-0.625 0.21875,0 0.328125,0.09375 0.578125,0.375 0.15625,0.21875 0.34375,0.375 0.625,0.375 1,0 1.578125,-1.265625 1.578125,-1.53125 0,-0.046875 -0.046875,-0.109375 -0.125,-0.109375 -0.09375,0 -0.109375,0.0625 -0.140625,0.140625 C 3.84375,-0.75 3.203125,-0.5625 2.875,-0.5625 c -0.1875,0 -0.375,-0.0625 -0.578125,-0.125 -0.34375,-0.125 -0.5,-0.171875 -0.703125,-0.171875 -0.015625,0 -0.171875,0 -0.265625,0.03125 z m 0,0"
             style="stroke:none" />
        </symbol>
        <symbol
           style="overflow:visible"
           id="symbol2923"
           overflow="visible">
          <path
             inkscape:connector-curvature="0"
             id="path2921"
             d=""
             style="stroke:none" />
        </symbol>
        <symbol
           style="overflow:visible"
           id="symbol2927"
           overflow="visible">
          <path
             inkscape:connector-curvature="0"
             id="path2925"
             d="m 2.328125,-4.4375 c 0,-0.1875 0,-0.1875 -0.203125,-0.1875 -0.453125,0.4375 -1.078125,0.4375 -1.359375,0.4375 v 0.25 c 0.15625,0 0.625,0 1,-0.1875 v 3.546875 c 0,0.234375 0,0.328125 -0.6875,0.328125 H 0.8125 V 0 c 0.125,0 0.984375,-0.03125 1.234375,-0.03125 0.21875,0 1.09375,0.03125 1.25,0.03125 V -0.25 H 3.03125 c -0.703125,0 -0.703125,-0.09375 -0.703125,-0.328125 z m 0,0"
             style="stroke:none" />
        </symbol>
      </g>
    </defs>
    <g
       id="lx-text1959-surface1"
       style="fill:#00ff00">
      <g
         id="g2057"
         style="fill:#00ff00;fill-opacity:1">
        <use
           height="100%"
           width="100%"
           id="use2055"
           y="0"
           x="0"
           xlink:href="#lx-text1959-glyph0-1"
           style="fill:#00ff00" />
      </g>
      <g
         id="g2061"
         style="fill:#00ff00;fill-opacity:1">
        <use
           height="100%"
           width="100%"
           id="use2059"
           y="1.495"
           x="4.6329999"
           xlink:href="#lx-text1959-glyph1-1"
           style="fill:#00ff00" />
      </g>
    </g>
  </g>
  <g
     id="lx-text1963"
     transform="matrix(6.691177,0,0,6.3749616,927.48926,632.64221)"
     style="fill:#ff0000">
    <defs
       id="defs2079">
      <g
         id="g2954">
        <symbol
           style="overflow:visible"
           id="symbol2940"
           overflow="visible">
          <path
             inkscape:connector-curvature="0"
             id="path2938"
             d=""
             style="stroke:none" />
        </symbol>
        <symbol
           style="overflow:visible"
           id="symbol2944"
           overflow="visible">
          <path
             inkscape:connector-curvature="0"
             id="path2942"
             d="m 1.328125,-0.828125 c 0.53125,-0.578125 0.828125,-0.828125 1.1875,-1.140625 0,0 0.609375,-0.53125 0.96875,-0.890625 C 4.4375,-3.78125 4.65625,-4.265625 4.65625,-4.3125 c 0,-0.09375 -0.09375,-0.09375 -0.109375,-0.09375 -0.078125,0 -0.09375,0.015625 -0.15625,0.109375 -0.296875,0.484375 -0.5,0.640625 -0.734375,0.640625 -0.25,0 -0.359375,-0.15625 -0.515625,-0.328125 -0.1875,-0.21875 -0.359375,-0.421875 -0.6875,-0.421875 -0.75,0 -1.203125,0.921875 -1.203125,1.140625 0,0.046875 0.03125,0.109375 0.109375,0.109375 0.09375,0 0.109375,-0.046875 0.140625,-0.109375 0.1875,-0.46875 0.765625,-0.46875 0.84375,-0.46875 0.203125,0 0.390625,0.0625 0.625,0.140625 0.40625,0.15625 0.515625,0.15625 0.765625,0.15625 -0.359375,0.421875 -1.1875,1.140625 -1.375,1.296875 l -0.90625,0.84375 C 0.78125,-0.625 0.421875,-0.0625 0.421875,0.015625 c 0,0.09375 0.109375,0.09375 0.125,0.09375 0.078125,0 0.09375,-0.015625 0.15625,-0.125 0.234375,-0.359375 0.53125,-0.625 0.859375,-0.625 0.21875,0 0.328125,0.09375 0.578125,0.375 0.15625,0.21875 0.34375,0.375 0.625,0.375 1,0 1.578125,-1.265625 1.578125,-1.53125 0,-0.046875 -0.046875,-0.109375 -0.125,-0.109375 -0.09375,0 -0.109375,0.0625 -0.140625,0.140625 C 3.84375,-0.75 3.203125,-0.5625 2.875,-0.5625 c -0.1875,0 -0.375,-0.0625 -0.578125,-0.125 -0.34375,-0.125 -0.5,-0.171875 -0.703125,-0.171875 -0.015625,0 -0.171875,0 -0.265625,0.03125 z m 0,0"
             style="stroke:none" />
        </symbol>
        <symbol
           style="overflow:visible"
           id="symbol2948"
           overflow="visible">
          <path
             inkscape:connector-curvature="0"
             id="path2946"
             d=""
             style="stroke:none" />
        </symbol>
        <symbol
           style="overflow:visible"
           id="symbol2952"
           overflow="visible">
          <path
             inkscape:connector-curvature="0"
             id="path2950"
             d="M 3.515625,-1.265625 H 3.28125 c -0.015625,0.15625 -0.09375,0.5625 -0.1875,0.625 C 3.046875,-0.59375 2.515625,-0.59375 2.40625,-0.59375 H 1.125 c 0.734375,-0.640625 0.984375,-0.84375 1.390625,-1.171875 0.515625,-0.40625 1,-0.84375 1,-1.5 0,-0.84375 -0.734375,-1.359375 -1.625,-1.359375 -0.859375,0 -1.453125,0.609375 -1.453125,1.25 0,0.34375 0.296875,0.390625 0.375,0.390625 0.15625,0 0.359375,-0.125 0.359375,-0.375 0,-0.125 -0.046875,-0.375 -0.40625,-0.375 C 0.984375,-4.21875 1.453125,-4.375 1.78125,-4.375 c 0.703125,0 1.0625,0.546875 1.0625,1.109375 0,0.609375 -0.4375,1.078125 -0.65625,1.328125 L 0.515625,-0.265625 C 0.4375,-0.203125 0.4375,-0.1875 0.4375,0 h 2.875 z m 0,0"
             style="stroke:none" />
        </symbol>
      </g>
    </defs>
    <g
       id="lx-text1963-surface1"
       style="fill:#ff0000">
      <g
         id="g2083"
         style="fill:#ff0000;fill-opacity:1">
        <use
           height="100%"
           width="100%"
           id="use2081"
           y="0"
           x="0"
           xlink:href="#lx-text1963-glyph0-1"
           style="fill:#ff0000" />
      </g>
      <g
         id="g2087"
         style="fill:#ff0000;fill-opacity:1">
        <use
           height="100%"
           width="100%"
           id="use2085"
           y="1.495"
           x="4.6329999"
           xlink:href="#lx-text1963-glyph1-1"
           style="fill:#ff0000" />
      </g>
    </g>
  </g>
  <g
     id="lx-text1967"
     transform="matrix(6.6339894,0,0,6.6339894,919.71374,778.58938)">
    <defs
       id="defs2099">
      <g
         id="g2971">
        <symbol
           style="overflow:visible"
           id="symbol2965"
           overflow="visible">
          <path
             inkscape:connector-curvature="0"
             id="path2963"
             d=""
             style="stroke:none" />
        </symbol>
        <symbol
           style="overflow:visible"
           id="symbol2969"
           overflow="visible">
          <path
             inkscape:connector-curvature="0"
             id="path2967"
             d="m 2.046875,-3.984375 h 0.9375 c 0.203125,0 0.3125,0 0.3125,-0.203125 0,-0.109375 -0.109375,-0.109375 -0.28125,-0.109375 h -0.875 C 2.5,-5.71875 2.546875,-5.90625 2.546875,-5.96875 c 0,-0.171875 -0.125,-0.265625 -0.296875,-0.265625 -0.03125,0 -0.3125,0 -0.390625,0.359375 L 1.46875,-4.296875 h -0.9375 c -0.203125,0 -0.296875,0 -0.296875,0.1875 0,0.125 0.078125,0.125 0.28125,0.125 h 0.875 C 0.671875,-1.15625 0.625,-0.984375 0.625,-0.8125 0.625,-0.265625 1,0.109375 1.546875,0.109375 2.5625,0.109375 3.125,-1.34375 3.125,-1.421875 3.125,-1.53125 3.046875,-1.53125 3.015625,-1.53125 2.921875,-1.53125 2.90625,-1.5 2.859375,-1.390625 2.4375,-0.34375 1.90625,-0.109375 1.5625,-0.109375 c -0.203125,0 -0.3125,-0.125 -0.3125,-0.453125 0,-0.25 0.03125,-0.3125 0.0625,-0.484375 z m 0,0"
             style="stroke:none" />
        </symbol>
      </g>
    </defs>
    <g
       id="lx-text1967-surface1">
      <g
         id="g2103"
         style="fill:#000000;fill-opacity:1">
        <use
           height="100%"
           width="100%"
           id="use2101"
           y="0"
           x="0"
           xlink:href="#lx-text1967-glyph0-1" />
      </g>
    </g>
  </g>
  <g
     id="lx-text1971"
     transform="matrix(3.8452386,0,0,3.8452386,31.539376,166.12667)"
     style="fill:#00ff00">
    <defs
       id="defs2121">
      <g
         id="g2994">
        <symbol
           style="overflow:visible"
           id="symbol2980"
           overflow="visible">
          <path
             inkscape:connector-curvature="0"
             id="path2978"
             d=""
             style="stroke:none" />
        </symbol>
        <symbol
           style="overflow:visible"
           id="symbol2984"
           overflow="visible">
          <path
             inkscape:connector-curvature="0"
             id="path2982"
             d="M 5.078125,-4.03125 C 5.0625,-4.0625 5.03125,-4.140625 5.03125,-4.171875 c 0,0 0.171875,-0.140625 0.28125,-0.21875 l 1.75,-1.34375 C 8,-6.4375 8.390625,-6.46875 8.6875,-6.5 8.765625,-6.515625 8.859375,-6.515625 8.859375,-6.703125 8.859375,-6.734375 8.828125,-6.8125 8.75,-6.8125 c -0.21875,0 -0.46875,0.03125 -0.703125,0.03125 -0.359375,0 -0.75,-0.03125 -1.109375,-0.03125 -0.0625,0 -0.1875,0 -0.1875,0.203125 0,0.0625 0.046875,0.09375 0.125,0.109375 0.21875,0.015625 0.296875,0.0625 0.296875,0.203125 0,0.1875 -0.296875,0.421875 -0.359375,0.46875 L 2.9375,-2.84375 3.734375,-6.046875 C 3.8125,-6.40625 3.84375,-6.5 4.5625,-6.5 c 0.25,0 0.34375,0 0.34375,-0.203125 0,-0.078125 -0.078125,-0.109375 -0.140625,-0.109375 -0.28125,0 -1,0.03125 -1.28125,0.03125 C 3.203125,-6.78125 2.5,-6.8125 2.203125,-6.8125 2.140625,-6.8125 2,-6.8125 2,-6.625 2,-6.5 2.09375,-6.5 2.296875,-6.5 c 0.125,0 0.3125,0.015625 0.421875,0.015625 0.15625,0.03125 0.21875,0.046875 0.21875,0.171875 0,0.03125 0,0.0625 -0.03125,0.1875 L 1.5625,-0.78125 c -0.09375,0.390625 -0.109375,0.46875 -0.90625,0.46875 -0.171875,0 -0.28125,0 -0.28125,0.1875 C 0.375,0 0.5,0 0.53125,0 0.8125,0 1.515625,-0.03125 1.796875,-0.03125 2,-0.03125 2.21875,-0.015625 2.4375,-0.015625 2.65625,-0.015625 2.875,0 3.078125,0 3.15625,0 3.28125,0 3.28125,-0.203125 3.28125,-0.3125 3.1875,-0.3125 3,-0.3125 c -0.375,0 -0.640625,0 -0.640625,-0.171875 0,-0.078125 0.046875,-0.296875 0.078125,-0.4375 C 2.578125,-1.453125 2.71875,-1.96875 2.84375,-2.5 l 1.484375,-1.15625 1.15625,2.6875 c 0.125,0.265625 0.125,0.296875 0.125,0.34375 0,0.3125 -0.4375,0.3125 -0.53125,0.3125 -0.109375,0 -0.21875,0 -0.21875,0.203125 C 4.859375,0 4.984375,0 5,0 5.40625,0 5.828125,-0.03125 6.21875,-0.03125 6.4375,-0.03125 6.984375,0 7.203125,0 7.25,0 7.375,0 7.375,-0.203125 7.375,-0.3125 7.265625,-0.3125 7.171875,-0.3125 c -0.40625,0 -0.53125,-0.09375 -0.6875,-0.4375 z m 0,0"
             style="stroke:none" />
        </symbol>
        <symbol
           style="overflow:visible"
           id="symbol2988"
           overflow="visible">
          <path
             inkscape:connector-curvature="0"
             id="path2986"
             d=""
             style="stroke:none" />
        </symbol>
        <symbol
           style="overflow:visible"
           id="symbol2992"
           overflow="visible">
          <path
             inkscape:connector-curvature="0"
             id="path2990"
             d="m 2.328125,-4.4375 c 0,-0.1875 0,-0.1875 -0.203125,-0.1875 -0.453125,0.4375 -1.078125,0.4375 -1.359375,0.4375 v 0.25 c 0.15625,0 0.625,0 1,-0.1875 v 3.546875 c 0,0.234375 0,0.328125 -0.6875,0.328125 H 0.8125 V 0 c 0.125,0 0.984375,-0.03125 1.234375,-0.03125 0.21875,0 1.09375,0.03125 1.25,0.03125 V -0.25 H 3.03125 c -0.703125,0 -0.703125,-0.09375 -0.703125,-0.328125 z m 0,0"
             style="stroke:none" />
        </symbol>
      </g>
    </defs>
    <g
       id="lx-text1971-surface1"
       style="fill:#00ff00">
      <g
         id="g2125"
         style="fill:#00ff00;fill-opacity:1">
        <use
           height="100%"
           width="100%"
           id="use2123"
           y="0"
           x="0"
           xlink:href="#lx-text1971-glyph0-1"
           style="fill:#00ff00" />
      </g>
      <g
         id="g2129"
         style="fill:#00ff00;fill-opacity:1">
        <use
           height="100%"
           width="100%"
           id="use2127"
           y="1.495"
           x="8.4619999"
           xlink:href="#lx-text1971-glyph1-1"
           style="fill:#00ff00" />
      </g>
    </g>
  </g>
  <g
     id="lx-text1975"
     transform="matrix(3.8452386,0,0,3.8452386,29.917119,119.62884)"
     inkscape:transform-center-x="-292.97236"
     inkscape:transform-center-y="222.06185"
     style="fill:#ff0000">
    <defs
       id="defs2147">
      <g
         id="g3019">
        <symbol
           style="overflow:visible"
           id="symbol3005"
           overflow="visible">
          <path
             inkscape:connector-curvature="0"
             id="path3003"
             d=""
             style="stroke:none" />
        </symbol>
        <symbol
           style="overflow:visible"
           id="symbol3009"
           overflow="visible">
          <path
             inkscape:connector-curvature="0"
             id="path3007"
             d="M 5.078125,-4.03125 C 5.0625,-4.0625 5.03125,-4.140625 5.03125,-4.171875 c 0,0 0.171875,-0.140625 0.28125,-0.21875 l 1.75,-1.34375 C 8,-6.4375 8.390625,-6.46875 8.6875,-6.5 8.765625,-6.515625 8.859375,-6.515625 8.859375,-6.703125 8.859375,-6.734375 8.828125,-6.8125 8.75,-6.8125 c -0.21875,0 -0.46875,0.03125 -0.703125,0.03125 -0.359375,0 -0.75,-0.03125 -1.109375,-0.03125 -0.0625,0 -0.1875,0 -0.1875,0.203125 0,0.0625 0.046875,0.09375 0.125,0.109375 0.21875,0.015625 0.296875,0.0625 0.296875,0.203125 0,0.1875 -0.296875,0.421875 -0.359375,0.46875 L 2.9375,-2.84375 3.734375,-6.046875 C 3.8125,-6.40625 3.84375,-6.5 4.5625,-6.5 c 0.25,0 0.34375,0 0.34375,-0.203125 0,-0.078125 -0.078125,-0.109375 -0.140625,-0.109375 -0.28125,0 -1,0.03125 -1.28125,0.03125 C 3.203125,-6.78125 2.5,-6.8125 2.203125,-6.8125 2.140625,-6.8125 2,-6.8125 2,-6.625 2,-6.5 2.09375,-6.5 2.296875,-6.5 c 0.125,0 0.3125,0.015625 0.421875,0.015625 0.15625,0.03125 0.21875,0.046875 0.21875,0.171875 0,0.03125 0,0.0625 -0.03125,0.1875 L 1.5625,-0.78125 c -0.09375,0.390625 -0.109375,0.46875 -0.90625,0.46875 -0.171875,0 -0.28125,0 -0.28125,0.1875 C 0.375,0 0.5,0 0.53125,0 0.8125,0 1.515625,-0.03125 1.796875,-0.03125 2,-0.03125 2.21875,-0.015625 2.4375,-0.015625 2.65625,-0.015625 2.875,0 3.078125,0 3.15625,0 3.28125,0 3.28125,-0.203125 3.28125,-0.3125 3.1875,-0.3125 3,-0.3125 c -0.375,0 -0.640625,0 -0.640625,-0.171875 0,-0.078125 0.046875,-0.296875 0.078125,-0.4375 C 2.578125,-1.453125 2.71875,-1.96875 2.84375,-2.5 l 1.484375,-1.15625 1.15625,2.6875 c 0.125,0.265625 0.125,0.296875 0.125,0.34375 0,0.3125 -0.4375,0.3125 -0.53125,0.3125 -0.109375,0 -0.21875,0 -0.21875,0.203125 C 4.859375,0 4.984375,0 5,0 5.40625,0 5.828125,-0.03125 6.21875,-0.03125 6.4375,-0.03125 6.984375,0 7.203125,0 7.25,0 7.375,0 7.375,-0.203125 7.375,-0.3125 7.265625,-0.3125 7.171875,-0.3125 c -0.40625,0 -0.53125,-0.09375 -0.6875,-0.4375 z m 0,0"
             style="stroke:none" />
        </symbol>
        <symbol
           style="overflow:visible"
           id="symbol3013"
           overflow="visible">
          <path
             inkscape:connector-curvature="0"
             id="path3011"
             d=""
             style="stroke:none" />
        </symbol>
        <symbol
           style="overflow:visible"
           id="symbol3017"
           overflow="visible">
          <path
             inkscape:connector-curvature="0"
             id="path3015"
             d="M 3.515625,-1.265625 H 3.28125 c -0.015625,0.15625 -0.09375,0.5625 -0.1875,0.625 C 3.046875,-0.59375 2.515625,-0.59375 2.40625,-0.59375 H 1.125 c 0.734375,-0.640625 0.984375,-0.84375 1.390625,-1.171875 0.515625,-0.40625 1,-0.84375 1,-1.5 0,-0.84375 -0.734375,-1.359375 -1.625,-1.359375 -0.859375,0 -1.453125,0.609375 -1.453125,1.25 0,0.34375 0.296875,0.390625 0.375,0.390625 0.15625,0 0.359375,-0.125 0.359375,-0.375 0,-0.125 -0.046875,-0.375 -0.40625,-0.375 C 0.984375,-4.21875 1.453125,-4.375 1.78125,-4.375 c 0.703125,0 1.0625,0.546875 1.0625,1.109375 0,0.609375 -0.4375,1.078125 -0.65625,1.328125 L 0.515625,-0.265625 C 0.4375,-0.203125 0.4375,-0.1875 0.4375,0 h 2.875 z m 0,0"
             style="stroke:none" />
        </symbol>
      </g>
    </defs>
    <g
       id="lx-text1975-surface1"
       style="fill:#ff0000">
      <g
         id="g2151"
         style="fill:#ff0000;fill-opacity:1">
        <use
           height="100%"
           width="100%"
           id="use2149"
           y="0"
           x="0"
           xlink:href="#lx-text1975-glyph0-1"
           style="fill:#ff0000" />
      </g>
      <g
         id="g2155"
         style="fill:#ff0000;fill-opacity:1">
        <use
           height="100%"
           width="100%"
           id="use2153"
           y="1.495"
           x="8.4619999"
           xlink:href="#lx-text1975-glyph1-1"
           style="fill:#ff0000" />
      </g>
    </g>
  </g>
  <g
     id="lx-text1979"
     transform="matrix(3.8452386,0,0,3.8452386,34.412455,365.55845)"
     style="fill:#00ff00">
    <defs
       id="defs2179">
      <g
         id="g3052">
        <symbol
           style="overflow:visible"
           id="symbol3030"
           overflow="visible">
          <path
             inkscape:connector-curvature="0"
             id="path3028"
             d=""
             style="stroke:none" />
        </symbol>
        <symbol
           style="overflow:visible"
           id="symbol3034"
           overflow="visible">
          <path
             inkscape:connector-curvature="0"
             id="path3032"
             d="M 5.078125,-4.03125 C 5.0625,-4.0625 5.03125,-4.140625 5.03125,-4.171875 c 0,0 0.171875,-0.140625 0.28125,-0.21875 l 1.75,-1.34375 C 8,-6.4375 8.390625,-6.46875 8.6875,-6.5 8.765625,-6.515625 8.859375,-6.515625 8.859375,-6.703125 8.859375,-6.734375 8.828125,-6.8125 8.75,-6.8125 c -0.21875,0 -0.46875,0.03125 -0.703125,0.03125 -0.359375,0 -0.75,-0.03125 -1.109375,-0.03125 -0.0625,0 -0.1875,0 -0.1875,0.203125 0,0.0625 0.046875,0.09375 0.125,0.109375 0.21875,0.015625 0.296875,0.0625 0.296875,0.203125 0,0.1875 -0.296875,0.421875 -0.359375,0.46875 L 2.9375,-2.84375 3.734375,-6.046875 C 3.8125,-6.40625 3.84375,-6.5 4.5625,-6.5 c 0.25,0 0.34375,0 0.34375,-0.203125 0,-0.078125 -0.078125,-0.109375 -0.140625,-0.109375 -0.28125,0 -1,0.03125 -1.28125,0.03125 C 3.203125,-6.78125 2.5,-6.8125 2.203125,-6.8125 2.140625,-6.8125 2,-6.8125 2,-6.625 2,-6.5 2.09375,-6.5 2.296875,-6.5 c 0.125,0 0.3125,0.015625 0.421875,0.015625 0.15625,0.03125 0.21875,0.046875 0.21875,0.171875 0,0.03125 0,0.0625 -0.03125,0.1875 L 1.5625,-0.78125 c -0.09375,0.390625 -0.109375,0.46875 -0.90625,0.46875 -0.171875,0 -0.28125,0 -0.28125,0.1875 C 0.375,0 0.5,0 0.53125,0 0.8125,0 1.515625,-0.03125 1.796875,-0.03125 2,-0.03125 2.21875,-0.015625 2.4375,-0.015625 2.65625,-0.015625 2.875,0 3.078125,0 3.15625,0 3.28125,0 3.28125,-0.203125 3.28125,-0.3125 3.1875,-0.3125 3,-0.3125 c -0.375,0 -0.640625,0 -0.640625,-0.171875 0,-0.078125 0.046875,-0.296875 0.078125,-0.4375 C 2.578125,-1.453125 2.71875,-1.96875 2.84375,-2.5 l 1.484375,-1.15625 1.15625,2.6875 c 0.125,0.265625 0.125,0.296875 0.125,0.34375 0,0.3125 -0.4375,0.3125 -0.53125,0.3125 -0.109375,0 -0.21875,0 -0.21875,0.203125 C 4.859375,0 4.984375,0 5,0 5.40625,0 5.828125,-0.03125 6.21875,-0.03125 6.4375,-0.03125 6.984375,0 7.203125,0 7.25,0 7.375,0 7.375,-0.203125 7.375,-0.3125 7.265625,-0.3125 7.171875,-0.3125 c -0.40625,0 -0.53125,-0.09375 -0.6875,-0.4375 z m 0,0"
             style="stroke:none" />
        </symbol>
        <symbol
           style="overflow:visible"
           id="symbol3038"
           overflow="visible">
          <path
             inkscape:connector-curvature="0"
             id="path3036"
             d=""
             style="stroke:none" />
        </symbol>
        <symbol
           style="overflow:visible"
           id="symbol3042"
           overflow="visible">
          <path
             inkscape:connector-curvature="0"
             id="path3040"
             d="m 2.015625,-3.296875 c 0.0625,-0.109375 0.0625,-0.171875 0.0625,-0.21875 0,-0.21875 -0.1875,-0.375 -0.40625,-0.375 -0.265625,0 -0.34375,0.21875 -0.375,0.328125 L 0.375,-0.546875 c -0.015625,0.015625 -0.046875,0.09375 -0.046875,0.109375 0,0.078125 0.21875,0.15625 0.28125,0.15625 0.046875,0 0.046875,-0.015625 0.09375,-0.125 z m 0,0"
             style="stroke:none" />
        </symbol>
        <symbol
           style="overflow:visible"
           id="symbol3046"
           overflow="visible">
          <path
             inkscape:connector-curvature="0"
             id="path3044"
             d=""
             style="stroke:none" />
        </symbol>
        <symbol
           style="overflow:visible"
           id="symbol3050"
           overflow="visible">
          <path
             inkscape:connector-curvature="0"
             id="path3048"
             d="m 2.328125,-4.4375 c 0,-0.1875 0,-0.1875 -0.203125,-0.1875 -0.453125,0.4375 -1.078125,0.4375 -1.359375,0.4375 v 0.25 c 0.15625,0 0.625,0 1,-0.1875 v 3.546875 c 0,0.234375 0,0.328125 -0.6875,0.328125 H 0.8125 V 0 c 0.125,0 0.984375,-0.03125 1.234375,-0.03125 0.21875,0 1.09375,0.03125 1.25,0.03125 V -0.25 H 3.03125 c -0.703125,0 -0.703125,-0.09375 -0.703125,-0.328125 z m 0,0"
             style="stroke:none" />
        </symbol>
      </g>
    </defs>
    <g
       id="lx-text1979-surface1"
       style="fill:#00ff00">
      <g
         id="g2183"
         style="fill:#00ff00;fill-opacity:1">
        <use
           height="100%"
           width="100%"
           id="use2181"
           y="0"
           x="0"
           xlink:href="#lx-text1979-glyph0-1"
           style="fill:#00ff00" />
      </g>
      <g
         id="g2187"
         style="fill:#00ff00;fill-opacity:1">
        <use
           height="100%"
           width="100%"
           id="use2185"
           y="-3.615"
           x="9.1739998"
           xlink:href="#lx-text1979-glyph1-1"
           style="fill:#00ff00" />
      </g>
      <g
         id="g2191"
         style="fill:#00ff00;fill-opacity:1">
        <use
           height="100%"
           width="100%"
           id="use2189"
           y="2.473"
           x="8.4619999"
           xlink:href="#lx-text1979-glyph2-1"
           style="fill:#00ff00" />
      </g>
    </g>
  </g>
  <g
     id="lx-text1983"
     transform="matrix(3.8452386,0,0,3.8452386,32.078393,416.30775)"
     style="fill:#ff0000">
    <defs
       id="defs2215">
      <g
         id="g3087">
        <symbol
           style="overflow:visible"
           id="symbol3065"
           overflow="visible">
          <path
             inkscape:connector-curvature="0"
             id="path3063"
             d=""
             style="stroke:none" />
        </symbol>
        <symbol
           style="overflow:visible"
           id="symbol3069"
           overflow="visible">
          <path
             inkscape:connector-curvature="0"
             id="path3067"
             d="M 5.078125,-4.03125 C 5.0625,-4.0625 5.03125,-4.140625 5.03125,-4.171875 c 0,0 0.171875,-0.140625 0.28125,-0.21875 l 1.75,-1.34375 C 8,-6.4375 8.390625,-6.46875 8.6875,-6.5 8.765625,-6.515625 8.859375,-6.515625 8.859375,-6.703125 8.859375,-6.734375 8.828125,-6.8125 8.75,-6.8125 c -0.21875,0 -0.46875,0.03125 -0.703125,0.03125 -0.359375,0 -0.75,-0.03125 -1.109375,-0.03125 -0.0625,0 -0.1875,0 -0.1875,0.203125 0,0.0625 0.046875,0.09375 0.125,0.109375 0.21875,0.015625 0.296875,0.0625 0.296875,0.203125 0,0.1875 -0.296875,0.421875 -0.359375,0.46875 L 2.9375,-2.84375 3.734375,-6.046875 C 3.8125,-6.40625 3.84375,-6.5 4.5625,-6.5 c 0.25,0 0.34375,0 0.34375,-0.203125 0,-0.078125 -0.078125,-0.109375 -0.140625,-0.109375 -0.28125,0 -1,0.03125 -1.28125,0.03125 C 3.203125,-6.78125 2.5,-6.8125 2.203125,-6.8125 2.140625,-6.8125 2,-6.8125 2,-6.625 2,-6.5 2.09375,-6.5 2.296875,-6.5 c 0.125,0 0.3125,0.015625 0.421875,0.015625 0.15625,0.03125 0.21875,0.046875 0.21875,0.171875 0,0.03125 0,0.0625 -0.03125,0.1875 L 1.5625,-0.78125 c -0.09375,0.390625 -0.109375,0.46875 -0.90625,0.46875 -0.171875,0 -0.28125,0 -0.28125,0.1875 C 0.375,0 0.5,0 0.53125,0 0.8125,0 1.515625,-0.03125 1.796875,-0.03125 2,-0.03125 2.21875,-0.015625 2.4375,-0.015625 2.65625,-0.015625 2.875,0 3.078125,0 3.15625,0 3.28125,0 3.28125,-0.203125 3.28125,-0.3125 3.1875,-0.3125 3,-0.3125 c -0.375,0 -0.640625,0 -0.640625,-0.171875 0,-0.078125 0.046875,-0.296875 0.078125,-0.4375 C 2.578125,-1.453125 2.71875,-1.96875 2.84375,-2.5 l 1.484375,-1.15625 1.15625,2.6875 c 0.125,0.265625 0.125,0.296875 0.125,0.34375 0,0.3125 -0.4375,0.3125 -0.53125,0.3125 -0.109375,0 -0.21875,0 -0.21875,0.203125 C 4.859375,0 4.984375,0 5,0 5.40625,0 5.828125,-0.03125 6.21875,-0.03125 6.4375,-0.03125 6.984375,0 7.203125,0 7.25,0 7.375,0 7.375,-0.203125 7.375,-0.3125 7.265625,-0.3125 7.171875,-0.3125 c -0.40625,0 -0.53125,-0.09375 -0.6875,-0.4375 z m 0,0"
             style="stroke:none" />
        </symbol>
        <symbol
           style="overflow:visible"
           id="symbol3073"
           overflow="visible">
          <path
             inkscape:connector-curvature="0"
             id="path3071"
             d=""
             style="stroke:none" />
        </symbol>
        <symbol
           style="overflow:visible"
           id="symbol3077"
           overflow="visible">
          <path
             inkscape:connector-curvature="0"
             id="path3075"
             d="m 2.015625,-3.296875 c 0.0625,-0.109375 0.0625,-0.171875 0.0625,-0.21875 0,-0.21875 -0.1875,-0.375 -0.40625,-0.375 -0.265625,0 -0.34375,0.21875 -0.375,0.328125 L 0.375,-0.546875 c -0.015625,0.015625 -0.046875,0.09375 -0.046875,0.109375 0,0.078125 0.21875,0.15625 0.28125,0.15625 0.046875,0 0.046875,-0.015625 0.09375,-0.125 z m 0,0"
             style="stroke:none" />
        </symbol>
        <symbol
           style="overflow:visible"
           id="symbol3081"
           overflow="visible">
          <path
             inkscape:connector-curvature="0"
             id="path3079"
             d=""
             style="stroke:none" />
        </symbol>
        <symbol
           style="overflow:visible"
           id="symbol3085"
           overflow="visible">
          <path
             inkscape:connector-curvature="0"
             id="path3083"
             d="M 3.515625,-1.265625 H 3.28125 c -0.015625,0.15625 -0.09375,0.5625 -0.1875,0.625 C 3.046875,-0.59375 2.515625,-0.59375 2.40625,-0.59375 H 1.125 c 0.734375,-0.640625 0.984375,-0.84375 1.390625,-1.171875 0.515625,-0.40625 1,-0.84375 1,-1.5 0,-0.84375 -0.734375,-1.359375 -1.625,-1.359375 -0.859375,0 -1.453125,0.609375 -1.453125,1.25 0,0.34375 0.296875,0.390625 0.375,0.390625 0.15625,0 0.359375,-0.125 0.359375,-0.375 0,-0.125 -0.046875,-0.375 -0.40625,-0.375 C 0.984375,-4.21875 1.453125,-4.375 1.78125,-4.375 c 0.703125,0 1.0625,0.546875 1.0625,1.109375 0,0.609375 -0.4375,1.078125 -0.65625,1.328125 L 0.515625,-0.265625 C 0.4375,-0.203125 0.4375,-0.1875 0.4375,0 h 2.875 z m 0,0"
             style="stroke:none" />
        </symbol>
      </g>
    </defs>
    <g
       id="lx-text1983-surface1"
       style="fill:#ff0000">
      <g
         id="g2219"
         style="fill:#ff0000;fill-opacity:1">
        <use
           height="100%"
           width="100%"
           id="use2217"
           y="0"
           x="0"
           xlink:href="#lx-text1983-glyph0-1"
           style="fill:#ff0000" />
      </g>
      <g
         id="g2223"
         style="fill:#ff0000;fill-opacity:1">
        <use
           height="100%"
           width="100%"
           id="use2221"
           y="-3.615"
           x="9.1739998"
           xlink:href="#lx-text1983-glyph1-1"
           style="fill:#ff0000" />
      </g>
      <g
         id="g2227"
         style="fill:#ff0000;fill-opacity:1">
        <use
           height="100%"
           width="100%"
           id="use2225"
           y="2.473"
           x="8.4619999"
           xlink:href="#lx-text1983-glyph2-1"
           style="fill:#ff0000" />
      </g>
    </g>
  </g>
  <path
     style="fill:none;stroke:#fd0000;stroke-width:2;stroke-linecap:butt;stroke-linejoin:miter;stroke-miterlimit:4;stroke-dasharray:24, 24;stroke-dashoffset:0;stroke-opacity:1"
     d="M 85.839035,401.73335 H 731.49787"
     id="path4019"
     inkscape:connector-curvature="0" />
</svg>
