<?xml version="1.0" encoding="UTF-8" standalone="no"?>
<!-- Created with Inkscape (http://www.inkscape.org/) -->

<svg
   xmlns:dc="http://purl.org/dc/elements/1.1/"
   xmlns:cc="http://creativecommons.org/ns#"
   xmlns:rdf="http://www.w3.org/1999/02/22-rdf-syntax-ns#"
   xmlns:svg="http://www.w3.org/2000/svg"
   xmlns="http://www.w3.org/2000/svg"
   xmlns:xlink="http://www.w3.org/1999/xlink"
   xmlns:sodipodi="http://sodipodi.sourceforge.net/DTD/sodipodi-0.dtd"
   xmlns:inkscape="http://www.inkscape.org/namespaces/inkscape"
   width="210mm"
   height="297mm"
   viewBox="0 0 210 297"
   version="1.1"
   id="svg4662"
   inkscape:version="0.92.4 (5da689c313, 2019-01-14)"
   sodipodi:docname="interlaced-3.svg"
   inkscape:export-filename="C:\Users\rrtuc\Desktop\backed-up\latex-projects\Bayesuvius\autoregulons\interlaced-3.png"
   inkscape:export-xdpi="300"
   inkscape:export-ydpi="300">
  <defs
     id="defs4656">
    <marker
       inkscape:stockid="Arrow1Lstart"
       orient="auto"
       refY="0"
       refX="0"
       id="Arrow1Lstart"
       style="overflow:visible"
       inkscape:isstock="true">
      <path
         inkscape:connector-curvature="0"
         id="path4371"
         d="M 0,0 5,-5 -12.5,0 5,5 Z"
         style="fill:#000000;fill-opacity:1;fill-rule:evenodd;stroke:#000000;stroke-width:1.00000003pt;stroke-opacity:1"
         transform="matrix(0.8,0,0,0.8,10,0)" />
    </marker>
    <marker
       inkscape:stockid="Arrow1Lend"
       orient="auto"
       refY="0"
       refX="0"
       id="Arrow1Lend"
       style="overflow:visible"
       inkscape:isstock="true">
      <path
         inkscape:connector-curvature="0"
         id="path4374"
         d="M 0,0 5,-5 -12.5,0 5,5 Z"
         style="fill:#000000;fill-opacity:1;fill-rule:evenodd;stroke:#000000;stroke-width:1.00000003pt;stroke-opacity:1"
         transform="matrix(-0.8,0,0,-0.8,-10,0)" />
    </marker>
    <inkscape:path-effect
       effect="bspline"
       id="path-effect4367"
       is_visible="true"
       weight="33.333333"
       steps="2"
       helper_size="0"
       apply_no_weight="true"
       apply_with_weight="true"
       only_selected="false" />
    <inkscape:path-effect
       effect="bspline"
       id="path-effect4363"
       is_visible="true"
       weight="33.333333"
       steps="2"
       helper_size="0"
       apply_no_weight="true"
       apply_with_weight="true"
       only_selected="false" />
    <inkscape:path-effect
       effect="bspline"
       id="path-effect4359"
       is_visible="true"
       weight="33.333333"
       steps="2"
       helper_size="0"
       apply_no_weight="true"
       apply_with_weight="true"
       only_selected="false" />
    <g
       id="g5317">
      <symbol
         id="lx-text3267-glyph0-0"
         overflow="visible"
         style="overflow:visible">
        <path
           id="path5311"
           d=""
           style="stroke:none"
           inkscape:connector-curvature="0" />
      </symbol>
      <symbol
         id="lx-text3267-glyph0-1"
         overflow="visible"
         style="overflow:visible">
        <path
           id="path5314"
           d="m 5.734375,-5.671875 c 0,-0.75 -0.546875,-1.359375 -1.359375,-1.359375 -0.578125,0 -0.859375,0.15625 -1.203125,0.40625 C 2.625,-6.21875 2.078125,-5.25 1.890625,-4.5 L 0.296875,1.828125 C 0.296875,1.875 0.34375,1.9375 0.421875,1.9375 0.5,1.9375 0.53125,1.90625 0.53125,1.890625 L 1.234375,-0.875 c 0.1875,0.609375 0.625,0.96875 1.359375,0.96875 C 3.3125,0.09375 4.0625,-0.25 4.515625,-0.6875 5,-1.140625 5.3125,-1.78125 5.3125,-2.515625 c 0,-0.71875 -0.375,-1.25 -0.734375,-1.484375 0.578125,-0.34375 1.15625,-0.953125 1.15625,-1.671875 z M 3.9375,-4.015625 c -0.125,0.046875 -0.234375,0.0625 -0.484375,0.0625 -0.140625,0 -0.328125,0.015625 -0.4375,-0.03125 0.03125,-0.109375 0.390625,-0.078125 0.5,-0.078125 0.203125,0 0.296875,0 0.421875,0.046875 z M 5.171875,-5.90625 c 0,0.703125 -0.375,1.421875 -0.890625,1.734375 C 4,-4.28125 3.8125,-4.296875 3.515625,-4.296875 c -0.21875,0 -0.78125,-0.015625 -0.78125,0.3125 0,0.28125 0.515625,0.25 0.6875,0.25 0.375,0 0.53125,0 0.828125,-0.125 0.375,0.359375 0.421875,0.671875 0.4375,1.125 0.015625,0.578125 -0.21875,1.328125 -0.5,1.71875 C 3.796875,-0.484375 3.125,-0.125 2.5625,-0.125 c -0.765625,0 -1.140625,-0.578125 -1.140625,-1.28125 0,-0.09375 0,-0.25 0.046875,-0.4375 L 2.109375,-4.359375 C 2.328125,-5.21875 3.046875,-6.8125 4.25,-6.8125 c 0.578125,0 0.921875,0.3125 0.921875,0.90625 z m 0,0"
           style="stroke:none"
           inkscape:connector-curvature="0" />
      </symbol>
    </g>
    <g
       id="g5333">
      <symbol
         id="lx-text3271-glyph0-0"
         overflow="visible"
         style="overflow:visible">
        <path
           id="path5327"
           d=""
           style="stroke:none"
           inkscape:connector-curvature="0" />
      </symbol>
      <symbol
         id="lx-text3271-glyph0-1"
         overflow="visible"
         style="overflow:visible">
        <path
           id="path5330"
           d="m 2.046875,-3.984375 h 0.9375 c 0.203125,0 0.3125,0 0.3125,-0.203125 0,-0.109375 -0.109375,-0.109375 -0.28125,-0.109375 h -0.875 C 2.5,-5.71875 2.546875,-5.90625 2.546875,-5.96875 c 0,-0.171875 -0.125,-0.265625 -0.296875,-0.265625 -0.03125,0 -0.3125,0 -0.390625,0.359375 L 1.46875,-4.296875 h -0.9375 c -0.203125,0 -0.296875,0 -0.296875,0.1875 0,0.125 0.078125,0.125 0.28125,0.125 h 0.875 C 0.671875,-1.15625 0.625,-0.984375 0.625,-0.8125 0.625,-0.265625 1,0.109375 1.546875,0.109375 2.5625,0.109375 3.125,-1.34375 3.125,-1.421875 3.125,-1.53125 3.046875,-1.53125 3.015625,-1.53125 2.921875,-1.53125 2.90625,-1.5 2.859375,-1.390625 2.4375,-0.34375 1.90625,-0.109375 1.5625,-0.109375 c -0.203125,0 -0.3125,-0.125 -0.3125,-0.453125 0,-0.25 0.03125,-0.3125 0.0625,-0.484375 z m 0,0"
           style="stroke:none"
           inkscape:connector-curvature="0" />
      </symbol>
    </g>
    <g
       id="g5349">
      <symbol
         id="lx-text3275-glyph0-0"
         overflow="visible"
         style="overflow:visible">
        <path
           id="path5343"
           d=""
           style="stroke:none"
           inkscape:connector-curvature="0" />
      </symbol>
      <symbol
         id="lx-text3275-glyph0-1"
         overflow="visible"
         style="overflow:visible">
        <path
           id="path5346"
           d="m 2.859375,-6.8125 c 0,0 0,-0.109375 -0.125,-0.109375 -0.234375,0 -0.953125,0.078125 -1.21875,0.109375 -0.078125,0 -0.1875,0.015625 -0.1875,0.1875 0,0.125 0.09375,0.125 0.234375,0.125 0.484375,0 0.5,0.0625 0.5,0.171875 L 2.03125,-6.125 0.59375,-0.390625 c -0.046875,0.140625 -0.046875,0.15625 -0.046875,0.21875 0,0.234375 0.203125,0.28125 0.296875,0.28125 0.15625,0 0.3125,-0.125 0.359375,-0.265625 l 0.1875,-0.75 0.21875,-0.890625 C 1.671875,-2.03125 1.734375,-2.25 1.78125,-2.46875 1.796875,-2.53125 1.890625,-2.859375 1.890625,-2.921875 1.921875,-3.015625 2.234375,-3.5625 2.578125,-3.84375 2.796875,-4 3.09375,-4.1875 3.53125,-4.1875 c 0.421875,0 0.53125,0.34375 0.53125,0.703125 0,0.53125 -0.375,1.625 -0.609375,2.234375 C 3.375,-1.03125 3.3125,-0.90625 3.3125,-0.703125 c 0,0.46875 0.359375,0.8125 0.828125,0.8125 0.9375,0 1.296875,-1.453125 1.296875,-1.53125 0,-0.109375 -0.078125,-0.109375 -0.109375,-0.109375 -0.109375,0 -0.109375,0.03125 -0.15625,0.1875 -0.140625,0.53125 -0.46875,1.234375 -1.015625,1.234375 -0.171875,0 -0.234375,-0.09375 -0.234375,-0.328125 0,-0.25 0.078125,-0.484375 0.171875,-0.703125 0.15625,-0.4375 0.609375,-1.625 0.609375,-2.203125 0,-0.640625 -0.390625,-1.0625 -1.140625,-1.0625 -0.625,0 -1.109375,0.3125 -1.484375,0.765625 z m 0,0"
           style="stroke:none"
           inkscape:connector-curvature="0" />
      </symbol>
    </g>
    <g
       id="g5365">
      <symbol
         id="lx-text3279-glyph0-0"
         overflow="visible"
         style="overflow:visible">
        <path
           id="path5359"
           d=""
           style="stroke:none"
           inkscape:connector-curvature="0" />
      </symbol>
      <symbol
         id="lx-text3279-glyph0-1"
         overflow="visible"
         style="overflow:visible">
        <path
           id="path5362"
           d="M 3.328125,-3.015625 C 3.390625,-3.265625 3.625,-4.1875 4.3125,-4.1875 c 0.046875,0 0.296875,0 0.5,0.125 C 4.53125,-4 4.34375,-3.765625 4.34375,-3.515625 c 0,0.15625 0.109375,0.34375 0.375,0.34375 0.21875,0 0.53125,-0.171875 0.53125,-0.578125 0,-0.515625 -0.578125,-0.65625 -0.921875,-0.65625 -0.578125,0 -0.921875,0.53125 -1.046875,0.75 -0.25,-0.65625 -0.78125,-0.75 -1.078125,-0.75 -1.03125,0 -1.609375,1.28125 -1.609375,1.53125 0,0.109375 0.109375,0.109375 0.125,0.109375 0.078125,0 0.109375,-0.03125 0.125,-0.109375 0.34375,-1.0625 1,-1.3125 1.34375,-1.3125 0.1875,0 0.53125,0.09375 0.53125,0.671875 0,0.3125 -0.171875,0.96875 -0.53125,2.375 -0.15625,0.609375 -0.515625,1.03125 -0.953125,1.03125 -0.0625,0 -0.28125,0 -0.5,-0.125 0.25,-0.0625 0.46875,-0.265625 0.46875,-0.546875 0,-0.265625 -0.21875,-0.34375 -0.359375,-0.34375 -0.3125,0 -0.546875,0.25 -0.546875,0.578125 0,0.453125 0.484375,0.65625 0.921875,0.65625 0.671875,0 1.03125,-0.703125 1.046875,-0.75 0.125,0.359375 0.484375,0.75 1.078125,0.75 1.03125,0 1.59375,-1.28125 1.59375,-1.53125 0,-0.109375 -0.078125,-0.109375 -0.109375,-0.109375 -0.09375,0 -0.109375,0.046875 -0.140625,0.109375 -0.328125,1.078125 -1,1.3125 -1.3125,1.3125 -0.390625,0 -0.546875,-0.3125 -0.546875,-0.65625 0,-0.21875 0.046875,-0.4375 0.15625,-0.875 z m 0,0"
           style="stroke:none"
           inkscape:connector-curvature="0" />
      </symbol>
    </g>
    <g
       id="g5387">
      <symbol
         id="lx-text5283-glyph0-0"
         overflow="visible"
         style="overflow:visible">
        <path
           id="path5375"
           d=""
           style="stroke:none"
           inkscape:connector-curvature="0" />
      </symbol>
      <symbol
         id="lx-text5283-glyph0-1"
         overflow="visible"
         style="overflow:visible">
        <path
           id="path5378"
           d="m 4.84375,-3.796875 c 0.046875,-0.140625 0.046875,-0.15625 0.046875,-0.234375 0,-0.171875 -0.140625,-0.265625 -0.296875,-0.265625 -0.09375,0 -0.25,0.0625 -0.34375,0.203125 -0.015625,0.0625 -0.109375,0.359375 -0.140625,0.546875 -0.078125,0.25 -0.140625,0.53125 -0.203125,0.796875 l -0.453125,1.796875 c -0.03125,0.140625 -0.46875,0.84375 -1.125,0.84375 -0.5,0 -0.609375,-0.4375 -0.609375,-0.8125 C 1.71875,-1.375 1.890625,-2 2.21875,-2.875 2.375,-3.28125 2.421875,-3.390625 2.421875,-3.59375 c 0,-0.4375 -0.3125,-0.8125 -0.8125,-0.8125 -0.953125,0 -1.3125,1.453125 -1.3125,1.53125 0,0.109375 0.09375,0.109375 0.109375,0.109375 0.109375,0 0.109375,-0.03125 0.15625,-0.1875 0.28125,-0.9375 0.671875,-1.234375 1.015625,-1.234375 0.078125,0 0.25,0 0.25,0.3125 0,0.25 -0.109375,0.515625 -0.171875,0.703125 -0.40625,1.0625 -0.578125,1.625 -0.578125,2.09375 0,0.890625 0.625,1.1875 1.21875,1.1875 0.390625,0 0.71875,-0.171875 1,-0.453125 -0.125,0.515625 -0.25,1.015625 -0.640625,1.546875 -0.265625,0.328125 -0.640625,0.625 -1.09375,0.625 -0.140625,0 -0.59375,-0.03125 -0.765625,-0.421875 0.15625,0 0.296875,0 0.421875,-0.125 C 1.328125,1.203125 1.421875,1.0625 1.421875,0.875 1.421875,0.5625 1.15625,0.53125 1.0625,0.53125 0.828125,0.53125 0.5,0.6875 0.5,1.171875 c 0,0.5 0.4375,0.875 1.0625,0.875 1.015625,0 2.046875,-0.90625 2.328125,-2.03125 z m 0,0"
           style="stroke:none"
           inkscape:connector-curvature="0" />
      </symbol>
      <symbol
         id="lx-text5283-glyph1-0"
         overflow="visible"
         style="overflow:visible">
        <path
           id="path5381"
           d=""
           style="stroke:none"
           inkscape:connector-curvature="0" />
      </symbol>
      <symbol
         id="lx-text5283-glyph1-1"
         overflow="visible"
         style="overflow:visible">
        <path
           id="path5384"
           d="m 2.328125,-4.4375 c 0,-0.1875 0,-0.1875 -0.203125,-0.1875 -0.453125,0.4375 -1.078125,0.4375 -1.359375,0.4375 v 0.25 c 0.15625,0 0.625,0 1,-0.1875 v 3.546875 c 0,0.234375 0,0.328125 -0.6875,0.328125 H 0.8125 V 0 c 0.125,0 0.984375,-0.03125 1.234375,-0.03125 0.21875,0 1.09375,0.03125 1.25,0.03125 V -0.25 H 3.03125 c -0.703125,0 -0.703125,-0.09375 -0.703125,-0.328125 z m 0,0"
           style="stroke:none"
           inkscape:connector-curvature="0" />
      </symbol>
    </g>
    <g
       id="g5413">
      <symbol
         id="lx-text5287-glyph0-0"
         overflow="visible"
         style="overflow:visible">
        <path
           id="path5401"
           d=""
           style="stroke:none"
           inkscape:connector-curvature="0" />
      </symbol>
      <symbol
         id="lx-text5287-glyph0-1"
         overflow="visible"
         style="overflow:visible">
        <path
           id="path5404"
           d="m 4.84375,-3.796875 c 0.046875,-0.140625 0.046875,-0.15625 0.046875,-0.234375 0,-0.171875 -0.140625,-0.265625 -0.296875,-0.265625 -0.09375,0 -0.25,0.0625 -0.34375,0.203125 -0.015625,0.0625 -0.109375,0.359375 -0.140625,0.546875 -0.078125,0.25 -0.140625,0.53125 -0.203125,0.796875 l -0.453125,1.796875 c -0.03125,0.140625 -0.46875,0.84375 -1.125,0.84375 -0.5,0 -0.609375,-0.4375 -0.609375,-0.8125 C 1.71875,-1.375 1.890625,-2 2.21875,-2.875 2.375,-3.28125 2.421875,-3.390625 2.421875,-3.59375 c 0,-0.4375 -0.3125,-0.8125 -0.8125,-0.8125 -0.953125,0 -1.3125,1.453125 -1.3125,1.53125 0,0.109375 0.09375,0.109375 0.109375,0.109375 0.109375,0 0.109375,-0.03125 0.15625,-0.1875 0.28125,-0.9375 0.671875,-1.234375 1.015625,-1.234375 0.078125,0 0.25,0 0.25,0.3125 0,0.25 -0.109375,0.515625 -0.171875,0.703125 -0.40625,1.0625 -0.578125,1.625 -0.578125,2.09375 0,0.890625 0.625,1.1875 1.21875,1.1875 0.390625,0 0.71875,-0.171875 1,-0.453125 -0.125,0.515625 -0.25,1.015625 -0.640625,1.546875 -0.265625,0.328125 -0.640625,0.625 -1.09375,0.625 -0.140625,0 -0.59375,-0.03125 -0.765625,-0.421875 0.15625,0 0.296875,0 0.421875,-0.125 C 1.328125,1.203125 1.421875,1.0625 1.421875,0.875 1.421875,0.5625 1.15625,0.53125 1.0625,0.53125 0.828125,0.53125 0.5,0.6875 0.5,1.171875 c 0,0.5 0.4375,0.875 1.0625,0.875 1.015625,0 2.046875,-0.90625 2.328125,-2.03125 z m 0,0"
           style="stroke:none"
           inkscape:connector-curvature="0" />
      </symbol>
      <symbol
         id="lx-text5287-glyph1-0"
         overflow="visible"
         style="overflow:visible">
        <path
           id="path5407"
           d=""
           style="stroke:none"
           inkscape:connector-curvature="0" />
      </symbol>
      <symbol
         id="lx-text5287-glyph1-1"
         overflow="visible"
         style="overflow:visible">
        <path
           id="path5410"
           d="M 3.515625,-1.265625 H 3.28125 c -0.015625,0.15625 -0.09375,0.5625 -0.1875,0.625 C 3.046875,-0.59375 2.515625,-0.59375 2.40625,-0.59375 H 1.125 c 0.734375,-0.640625 0.984375,-0.84375 1.390625,-1.171875 0.515625,-0.40625 1,-0.84375 1,-1.5 0,-0.84375 -0.734375,-1.359375 -1.625,-1.359375 -0.859375,0 -1.453125,0.609375 -1.453125,1.25 0,0.34375 0.296875,0.390625 0.375,0.390625 0.15625,0 0.359375,-0.125 0.359375,-0.375 0,-0.125 -0.046875,-0.375 -0.40625,-0.375 C 0.984375,-4.21875 1.453125,-4.375 1.78125,-4.375 c 0.703125,0 1.0625,0.546875 1.0625,1.109375 0,0.609375 -0.4375,1.078125 -0.65625,1.328125 L 0.515625,-0.265625 C 0.4375,-0.203125 0.4375,-0.1875 0.4375,0 h 2.875 z m 0,0"
           style="stroke:none"
           inkscape:connector-curvature="0" />
      </symbol>
    </g>
    <g
       id="g5439">
      <symbol
         id="lx-text5291-glyph0-0"
         overflow="visible"
         style="overflow:visible">
        <path
           id="path5427"
           d=""
           style="stroke:none"
           inkscape:connector-curvature="0" />
      </symbol>
      <symbol
         id="lx-text5291-glyph0-1"
         overflow="visible"
         style="overflow:visible">
        <path
           id="path5430"
           d="m 4.84375,-3.796875 c 0.046875,-0.140625 0.046875,-0.15625 0.046875,-0.234375 0,-0.171875 -0.140625,-0.265625 -0.296875,-0.265625 -0.09375,0 -0.25,0.0625 -0.34375,0.203125 -0.015625,0.0625 -0.109375,0.359375 -0.140625,0.546875 -0.078125,0.25 -0.140625,0.53125 -0.203125,0.796875 l -0.453125,1.796875 c -0.03125,0.140625 -0.46875,0.84375 -1.125,0.84375 -0.5,0 -0.609375,-0.4375 -0.609375,-0.8125 C 1.71875,-1.375 1.890625,-2 2.21875,-2.875 2.375,-3.28125 2.421875,-3.390625 2.421875,-3.59375 c 0,-0.4375 -0.3125,-0.8125 -0.8125,-0.8125 -0.953125,0 -1.3125,1.453125 -1.3125,1.53125 0,0.109375 0.09375,0.109375 0.109375,0.109375 0.109375,0 0.109375,-0.03125 0.15625,-0.1875 0.28125,-0.9375 0.671875,-1.234375 1.015625,-1.234375 0.078125,0 0.25,0 0.25,0.3125 0,0.25 -0.109375,0.515625 -0.171875,0.703125 -0.40625,1.0625 -0.578125,1.625 -0.578125,2.09375 0,0.890625 0.625,1.1875 1.21875,1.1875 0.390625,0 0.71875,-0.171875 1,-0.453125 -0.125,0.515625 -0.25,1.015625 -0.640625,1.546875 -0.265625,0.328125 -0.640625,0.625 -1.09375,0.625 -0.140625,0 -0.59375,-0.03125 -0.765625,-0.421875 0.15625,0 0.296875,0 0.421875,-0.125 C 1.328125,1.203125 1.421875,1.0625 1.421875,0.875 1.421875,0.5625 1.15625,0.53125 1.0625,0.53125 0.828125,0.53125 0.5,0.6875 0.5,1.171875 c 0,0.5 0.4375,0.875 1.0625,0.875 1.015625,0 2.046875,-0.90625 2.328125,-2.03125 z m 0,0"
           style="stroke:none"
           inkscape:connector-curvature="0" />
      </symbol>
      <symbol
         id="lx-text5291-glyph1-0"
         overflow="visible"
         style="overflow:visible">
        <path
           id="path5433"
           d=""
           style="stroke:none"
           inkscape:connector-curvature="0" />
      </symbol>
      <symbol
         id="lx-text5291-glyph1-1"
         overflow="visible"
         style="overflow:visible">
        <path
           id="path5436"
           d="m 1.90625,-2.328125 c 0.546875,0 0.9375,0.375 0.9375,1.125 0,0.859375 -0.515625,1.125 -0.90625,1.125 -0.28125,0 -0.90625,-0.078125 -1.1875,-0.5 0.328125,0 0.40625,-0.234375 0.40625,-0.390625 0,-0.21875 -0.171875,-0.375 -0.390625,-0.375 -0.1875,0 -0.390625,0.125 -0.390625,0.40625 0,0.65625 0.71875,1.078125 1.5625,1.078125 0.96875,0 1.640625,-0.65625 1.640625,-1.34375 0,-0.546875 -0.4375,-1.09375 -1.203125,-1.25 0.71875,-0.265625 0.984375,-0.78125 0.984375,-1.21875 0,-0.546875 -0.625,-0.953125 -1.40625,-0.953125 -0.765625,0 -1.359375,0.375 -1.359375,0.9375 0,0.234375 0.15625,0.359375 0.359375,0.359375 0.21875,0 0.359375,-0.15625 0.359375,-0.34375 0,-0.203125 -0.140625,-0.359375 -0.359375,-0.375 0.25,-0.296875 0.71875,-0.375 0.984375,-0.375 0.3125,0 0.75,0.15625 0.75,0.75 0,0.296875 -0.09375,0.625 -0.28125,0.828125 -0.21875,0.265625 -0.421875,0.28125 -0.765625,0.3125 -0.171875,0.015625 -0.1875,0.015625 -0.21875,0.015625 -0.015625,0 -0.078125,0.015625 -0.078125,0.09375 0,0.09375 0.0625,0.09375 0.1875,0.09375 z m 0,0"
           style="stroke:none"
           inkscape:connector-curvature="0" />
      </symbol>
    </g>
  </defs>
  <sodipodi:namedview
     id="base"
     pagecolor="#ffffff"
     bordercolor="#666666"
     borderopacity="1.0"
     inkscape:pageopacity="0.0"
     inkscape:pageshadow="2"
     inkscape:zoom="0.77382812"
     inkscape:cx="477.47129"
     inkscape:cy="560"
     inkscape:document-units="mm"
     inkscape:current-layer="layer1"
     showgrid="false"
     inkscape:window-width="1366"
     inkscape:window-height="739"
     inkscape:window-x="-9"
     inkscape:window-y="-9"
     inkscape:window-maximized="1" />
  <metadata
     id="metadata4659">
    <rdf:RDF>
      <cc:Work
         rdf:about="">
        <dc:format>image/svg+xml</dc:format>
        <dc:type
           rdf:resource="http://purl.org/dc/dcmitype/StillImage" />
        <dc:title></dc:title>
      </cc:Work>
    </rdf:RDF>
  </metadata>
  <g
     inkscape:label="Layer 1"
     inkscape:groupmode="layer"
     id="layer1">
    <path
       transform="matrix(1.8460878,0,0,1.8460878,1.2548194,94.239885)"
       style="fill:none;stroke:#fb0000;stroke-width:1px;stroke-linecap:butt;stroke-linejoin:miter;stroke-opacity:1"
       d="m 4.5240855,19.979854 c 0.9425441,0.895417 1.885062,1.790809 2.819325,3.396036 0.934263,1.605227 1.8930569,4.002212 3.1656315,7.042259 1.272575,3.040047 2.874504,6.762175 4.282275,9.650318 1.407771,2.888144 2.645084,4.982058 4.294763,6.938096 1.649679,1.956039 3.722915,3.79368 6.152895,5.223462 2.429981,1.429783 5.29916,2.481815 8.362193,3.141486 3.063032,0.659671 6.362496,0.942482 9.590223,1.107385 3.227728,0.164903 6.386031,0.212042 8.865237,0.02221 2.479205,-0.189834 4.259983,-0.611597 5.814695,-1.271318 1.554712,-0.659721 2.8751,-1.555699 4.19386,-2.992363 1.31876,-1.436665 2.639435,-3.417677 4.076188,-6.267734 1.436754,-2.850058 2.992816,-6.575174 4.312107,-10.109069 1.319291,-3.533895 2.403538,-6.880918 3.463875,-9.331164 1.060337,-2.450245 2.097479,-4.005957 2.945651,-5.065961 0.848171,-1.060005 1.508424,-1.625935 2.237705,-1.531822 0.729282,0.09411 1.531722,0.849352 2.426976,2.521986 0.895254,1.672634 1.884936,4.264658 3.416744,7.87031 1.531807,3.605652 3.604915,8.223028 5.254433,11.310015 1.649518,3.086987 2.87467,4.641987 4.406384,6.362221 1.531714,1.720234 3.369469,3.605111 5.537624,4.87761 2.16815,1.272499 4.6658,1.932256 6.86196,2.475272 2.19617,0.543017 4.07164,0.964997 5.95593,1.388963"
       id="path4357"
       inkscape:connector-curvature="0"
       inkscape:path-effect="#path-effect4359"
       inkscape:original-d="m 4.5240855,19.979854 c 0.9435178,0.894392 1.8860357,1.789784 2.8275535,2.686176 0.9434916,2.308104 1.8860357,4.711589 2.827553,7.068884 1.603633,3.722762 3.205561,7.44489 4.806841,11.168836 1.1793,2.072807 2.451547,4.146078 3.67582,6.220617 2.074842,1.837179 4.148078,3.67482 6.220618,5.51373 2.781342,1.035737 5.656106,2.072539 8.48266,3.110308 3.299161,0.2817 6.598625,0.564511 9.896437,0.848266 3.157566,0.04611 6.315869,0.09325 9.472304,0.141378 1.791225,-0.472112 3.582568,-0.849266 5.372352,-1.272399 1.319662,-0.895806 2.64005,-1.791784 3.958575,-2.686176 1.319375,-1.978563 2.640049,-3.959575 3.958574,-5.937862 1.555248,-3.721775 3.111309,-7.446891 4.665464,-11.168836 1.084544,-3.345854 2.168791,-6.692877 3.251686,-10.037815 1.037398,-1.555597 2.074539,-3.111309 3.110309,-4.665463 0.660273,-0.566091 1.320525,-1.132022 1.979287,-1.696532 0.800841,0.75179 1.603281,1.507028 2.403421,2.262042 0.990605,2.590824 1.980287,5.182848 2.968931,7.775773 2.074971,4.618298 4.148078,9.235674 6.220618,13.855011 1.226394,1.554309 2.451546,3.109309 3.675819,4.665464 1.839065,1.884194 3.67682,3.769071 5.513729,5.655107 2.498693,0.658767 4.996343,1.318525 7.493013,1.979287 1.88552,0.470129 3.77108,0.847266 5.65511,1.272399" />
    <path
       transform="matrix(1.8460878,0,0,1.8460878,1.2548194,94.239885)"
       style="fill:none;stroke:#00e500;stroke-width:1px;stroke-linecap:butt;stroke-linejoin:miter;stroke-opacity:1"
       d="m 6.2206176,54.900139 c 1.5087345,0.377184 3.0167631,0.754191 4.9013344,1.107531 1.884571,0.35334 4.147673,0.683375 6.692046,0.801129 2.544373,0.117754 5.372972,0.02347 7.634757,-0.165062 2.261785,-0.188529 3.958936,-0.471388 5.560742,-1.01329 1.601805,-0.541903 3.110842,-1.343578 4.265082,-2.026764 1.154239,-0.683186 1.956014,-1.249145 2.921142,-2.285002 0.965127,-1.035856 2.097756,-2.546027 3.672837,-6.11806 1.575081,-3.572033 3.608358,-9.246294 5.163405,-13.53444 1.555047,-4.288145 2.639173,-7.210572 3.676062,-9.07172 1.036888,-1.861147 2.02694,-2.662618 2.968431,-2.639068 0.941491,0.02355 1.837872,0.872753 2.756695,2.427611 0.918822,1.554858 1.861369,3.816971 3.384604,7.379235 1.523235,3.562264 3.660613,8.501983 5.47508,11.942433 1.814466,3.44045 3.322347,5.419544 5.113348,7.18696 1.791,1.767416 3.864381,3.322451 6.150143,4.45348 2.285761,1.131028 4.783626,1.837971 7.257525,2.309147 2.4739,0.471177 4.925098,0.706869 8.03477,0.82464 3.109672,0.117772 6.881119,0.117772 9.467729,-0.04604 2.5866,-0.163816 4.01119,-0.496219 5.23605,-0.873162 1.22487,-0.376943 2.26249,-0.801424 3.3456,-1.625687 1.08312,-0.824263 2.21545,-2.050958 3.34552,-3.275196"
       id="path4361"
       inkscape:connector-curvature="0"
       inkscape:path-effect="#path-effect4363"
       inkscape:original-d="m 6.2206176,54.900139 c 1.5090285,0.376008 3.0170571,0.753015 4.5240854,1.131022 2.261984,0.328727 4.525086,0.658762 6.786128,0.989643 2.827508,-0.09522 5.656107,-0.189503 8.482661,-0.282755 1.696913,-0.283652 3.394064,-0.566511 5.089596,-0.848266 1.50802,-0.801604 3.017057,-1.60328 4.524086,-2.40342 0.801505,-0.566063 1.60328,-1.132022 2.40342,-1.696532 1.130414,-1.506886 2.263043,-3.017057 3.393064,-4.524086 1.978818,-5.651907 4.053827,-11.311214 6.07924,-16.965321 1.084665,-2.922183 2.168791,-5.84461 3.251687,-8.765416 0.990235,-0.801809 1.980287,-1.60328 2.968931,-2.40342 0.895403,0.846329 1.791784,1.695532 2.686176,2.544798 0.943488,2.260973 1.886035,4.523086 2.827553,6.786128 2.122131,4.854034 4.24233,9.801186 6.361995,14.703278 1.509176,1.978481 3.017057,3.957575 4.524086,5.937863 2.074697,1.554273 4.148078,3.109309 6.220618,4.665463 2.498479,0.705834 4.996344,1.412777 7.493016,2.120665 2.450895,0.234567 4.902093,0.470259 7.351639,0.706888 3.769694,-10e-4 7.541141,-10e-4 11.310211,0 1.4144,-0.28368 2.82856,-0.660762 4.24133,-0.989643 1.03692,-0.424782 2.07454,-0.849266 3.11031,-1.272399 1.13071,-1.224847 2.26304,-2.451547 3.39307,-3.67582" />
    <path
       transform="matrix(1.8460878,0,0,1.8460878,1.2548194,94.239885)"
       style="fill:none;stroke:#0000ef;stroke-width:1px;stroke-linecap:butt;stroke-linejoin:miter;stroke-opacity:1"
       d="m 5.6551069,56.455294 c 1.4149838,-0.565993 2.8287606,-1.131504 4.194736,-2.097269 1.3659751,-0.965765 2.6866261,-2.333582 3.9584331,-4.029439 1.271807,-1.695857 2.497992,-3.723778 3.67569,-6.197056 1.177698,-2.473278 2.309375,-5.396777 3.510829,-8.459299 1.201454,-3.062522 2.474378,-6.268406 3.346079,-8.577305 0.871701,-2.308899 1.343137,-3.723208 1.861484,-4.830296 0.518346,-1.107087 1.084337,-1.908907 1.790591,-2.214708 0.706254,-0.305801 1.555726,-0.117029 2.332532,0.589083 0.776806,0.706111 1.484312,1.932455 2.568386,4.454074 1.084073,2.52162 2.544597,6.337828 4.00077,9.674525 1.456172,3.336697 2.926542,6.230006 4.364022,8.586549 1.437479,2.356542 2.851064,4.194202 3.947486,5.525618 1.096422,1.331416 1.919718,2.203142 3.192385,3.027976 1.272666,0.824834 3.016263,1.625947 4.99538,2.332747 1.979117,0.7068 4.194601,1.319594 6.715637,1.718534 2.521036,0.398941 5.443498,0.590578 8.270645,0.661236 2.827147,0.07066 5.608474,0.02352 7.799597,-0.141465 2.191123,-0.164981 3.793989,-0.44784 5.263447,-0.899672 1.469458,-0.451833 2.771936,-1.056554 4.19434,-2.292797 1.422405,-1.236242 2.912866,-3.052742 4.184806,-5.031458 1.271939,-1.978717 2.309323,-4.100638 3.275051,-6.454866 0.965728,-2.354228 1.874738,-4.982944 2.756686,-7.673937 0.881947,-2.690993 1.791099,-5.60985 2.826881,-7.941748 1.035782,-2.331899 2.21163,-4.121145 3.39122,-4.97165 1.17959,-0.850505 2.35892,-0.758853 3.58338,0.746146 1.22446,1.504998 2.49767,4.428665 3.13419,5.890315 0.63653,1.461649 0.63653,1.461649 1.03708,2.616177 0.40055,1.154527 1.20153,3.463226 2.00287,5.772977"
       id="path4365"
       inkscape:connector-curvature="0"
       inkscape:path-effect="#path-effect4367"
       inkscape:original-d="m 5.6551069,56.455294 c 1.4147768,-0.566511 2.8285535,-1.132022 4.2413302,-1.696532 1.3193989,-1.366485 2.6400499,-2.734302 3.9585749,-4.099953 1.225361,-2.025905 2.451546,-4.053826 3.675819,-6.07924 1.131366,-2.921111 2.263043,-5.84461 3.393065,-8.765416 1.272873,-3.204237 2.545798,-6.410121 3.817197,-9.613681 0.472081,-1.414245 0.943518,-2.828554 1.413777,-4.241331 0.56603,-0.80146 1.132021,-1.60328 1.696532,-2.40342 0.84806,0.187236 1.697532,0.376007 2.544798,0.565511 0.70727,1.223202 1.414776,2.449546 2.120665,3.675819 1.462281,3.817186 2.922805,7.633395 4.382708,11.451592 1.414976,2.874085 2.922805,5.748358 4.382708,8.624038 1.414969,1.837159 2.828553,3.674819 4.24133,5.513729 0.755074,0.847333 1.60328,1.695532 2.40342,2.544798 1.744719,0.800168 3.488316,1.601281 5.230974,2.403421 2.21535,0.611479 4.430834,1.224273 6.644751,1.837909 2.827695,0.187447 5.750359,0.376008 8.624038,0.565511 2.780528,-0.04811 5.561855,-0.09525 8.341283,-0.141378 1.602694,-0.283652 3.20556,-0.56651 4.80684,-0.848266 1.319586,-0.660292 2.64005,-1.226273 3.958575,-1.837909 1.554735,-1.837232 3.017057,-3.67682 4.524086,-5.51373 1.037156,-2.120409 2.074539,-4.24233 3.110309,-6.361995 0.895358,-2.588964 1.804368,-5.21768 2.686175,-7.767999 0.882094,-2.831668 1.791246,-5.750525 2.686176,-8.624038 1.176578,-1.790289 2.352422,-3.579536 3.530562,-5.372351 1.18102,0.09163 2.36035,0.183281 3.53832,0.274982 1.27111,2.918376 2.54432,5.842043 3.8172,8.765416 1.4e-4,-1.43e-4 1.4e-4,-1.43e-4 0,0 0.8023,2.308639 1.60328,4.617337 2.40342,6.927505"
       sodipodi:nodetypes="ccccccccccccccccccccccccccccc" />
    <path
       style="fill:none;stroke:#000000;stroke-width:0.529;stroke-linecap:butt;stroke-linejoin:miter;stroke-miterlimit:4;stroke-dasharray:none;stroke-opacity:1;marker-start:url(#Arrow1Lstart);marker-end:url(#Arrow1Lend)"
       d="M 10.389671,99.282988 V 207.33516 H 210.83429"
       id="path4369"
       inkscape:connector-curvature="0" />
    <g
       style="display:inline"
       id="lx-text3271"
       transform="matrix(1.5462317,0,0,1.5462317,192.48359,219.30875)">
      <defs
         id="defs5335">
        <g
           id="g5793">
          <symbol
             id="symbol5787"
             overflow="visible"
             style="overflow:visible">
            <path
               id="path5785"
               d=""
               style="stroke:none"
               inkscape:connector-curvature="0" />
          </symbol>
          <symbol
             id="symbol5791"
             overflow="visible"
             style="overflow:visible">
            <path
               id="path5789"
               d="m 2.046875,-3.984375 h 0.9375 c 0.203125,0 0.3125,0 0.3125,-0.203125 0,-0.109375 -0.109375,-0.109375 -0.28125,-0.109375 h -0.875 C 2.5,-5.71875 2.546875,-5.90625 2.546875,-5.96875 c 0,-0.171875 -0.125,-0.265625 -0.296875,-0.265625 -0.03125,0 -0.3125,0 -0.390625,0.359375 L 1.46875,-4.296875 h -0.9375 c -0.203125,0 -0.296875,0 -0.296875,0.1875 0,0.125 0.078125,0.125 0.28125,0.125 h 0.875 C 0.671875,-1.15625 0.625,-0.984375 0.625,-0.8125 0.625,-0.265625 1,0.109375 1.546875,0.109375 2.5625,0.109375 3.125,-1.34375 3.125,-1.421875 3.125,-1.53125 3.046875,-1.53125 3.015625,-1.53125 2.921875,-1.53125 2.90625,-1.5 2.859375,-1.390625 2.4375,-0.34375 1.90625,-0.109375 1.5625,-0.109375 c -0.203125,0 -0.3125,-0.125 -0.3125,-0.453125 0,-0.25 0.03125,-0.3125 0.0625,-0.484375 z m 0,0"
               style="stroke:none"
               inkscape:connector-curvature="0" />
          </symbol>
        </g>
      </defs>
      <g
         id="lx-text3271-surface1">
        <g
           id="g5339"
           style="fill:#000000;fill-opacity:1">
          <use
             id="use5337"
             y="0"
             x="0"
             xlink:href="#lx-text3271-glyph0-1"
             width="100%"
             height="100%" />
        </g>
      </g>
    </g>
    <g
       style="display:inline;fill:#0000ff"
       id="lx-text5283"
       transform="matrix(1.2817989,0,0,1.2817989,49.990163,125.68655)">
      <defs
         id="defs5389">
        <g
           id="g5846">
          <symbol
             id="symbol5832"
             overflow="visible"
             style="overflow:visible">
            <path
               id="path5830"
               d=""
               style="stroke:none"
               inkscape:connector-curvature="0" />
          </symbol>
          <symbol
             id="symbol5836"
             overflow="visible"
             style="overflow:visible">
            <path
               id="path5834"
               d="m 4.84375,-3.796875 c 0.046875,-0.140625 0.046875,-0.15625 0.046875,-0.234375 0,-0.171875 -0.140625,-0.265625 -0.296875,-0.265625 -0.09375,0 -0.25,0.0625 -0.34375,0.203125 -0.015625,0.0625 -0.109375,0.359375 -0.140625,0.546875 -0.078125,0.25 -0.140625,0.53125 -0.203125,0.796875 l -0.453125,1.796875 c -0.03125,0.140625 -0.46875,0.84375 -1.125,0.84375 -0.5,0 -0.609375,-0.4375 -0.609375,-0.8125 C 1.71875,-1.375 1.890625,-2 2.21875,-2.875 2.375,-3.28125 2.421875,-3.390625 2.421875,-3.59375 c 0,-0.4375 -0.3125,-0.8125 -0.8125,-0.8125 -0.953125,0 -1.3125,1.453125 -1.3125,1.53125 0,0.109375 0.09375,0.109375 0.109375,0.109375 0.109375,0 0.109375,-0.03125 0.15625,-0.1875 0.28125,-0.9375 0.671875,-1.234375 1.015625,-1.234375 0.078125,0 0.25,0 0.25,0.3125 0,0.25 -0.109375,0.515625 -0.171875,0.703125 -0.40625,1.0625 -0.578125,1.625 -0.578125,2.09375 0,0.890625 0.625,1.1875 1.21875,1.1875 0.390625,0 0.71875,-0.171875 1,-0.453125 -0.125,0.515625 -0.25,1.015625 -0.640625,1.546875 -0.265625,0.328125 -0.640625,0.625 -1.09375,0.625 -0.140625,0 -0.59375,-0.03125 -0.765625,-0.421875 0.15625,0 0.296875,0 0.421875,-0.125 C 1.328125,1.203125 1.421875,1.0625 1.421875,0.875 1.421875,0.5625 1.15625,0.53125 1.0625,0.53125 0.828125,0.53125 0.5,0.6875 0.5,1.171875 c 0,0.5 0.4375,0.875 1.0625,0.875 1.015625,0 2.046875,-0.90625 2.328125,-2.03125 z m 0,0"
               style="stroke:none"
               inkscape:connector-curvature="0" />
          </symbol>
          <symbol
             id="symbol5840"
             overflow="visible"
             style="overflow:visible">
            <path
               id="path5838"
               d=""
               style="stroke:none"
               inkscape:connector-curvature="0" />
          </symbol>
          <symbol
             id="symbol5844"
             overflow="visible"
             style="overflow:visible">
            <path
               id="path5842"
               d="m 2.328125,-4.4375 c 0,-0.1875 0,-0.1875 -0.203125,-0.1875 -0.453125,0.4375 -1.078125,0.4375 -1.359375,0.4375 v 0.25 c 0.15625,0 0.625,0 1,-0.1875 v 3.546875 c 0,0.234375 0,0.328125 -0.6875,0.328125 H 0.8125 V 0 c 0.125,0 0.984375,-0.03125 1.234375,-0.03125 0.21875,0 1.09375,0.03125 1.25,0.03125 V -0.25 H 3.03125 c -0.703125,0 -0.703125,-0.09375 -0.703125,-0.328125 z m 0,0"
               style="stroke:none"
               inkscape:connector-curvature="0" />
          </symbol>
        </g>
      </defs>
      <g
         id="lx-text5283-surface1"
         style="fill:#0000ff">
        <g
           id="g5393"
           style="fill:#0000ff;fill-opacity:1">
          <use
             id="use5391"
             y="0"
             x="0"
             xlink:href="#lx-text5283-glyph0-1"
             width="100%"
             height="100%"
             style="fill:#0000ff" />
        </g>
        <g
           id="g5397"
           style="fill:#0000ff;fill-opacity:1">
          <use
             id="use5395"
             y="1.495"
             x="4.8850002"
             xlink:href="#lx-text5283-glyph1-1"
             width="100%"
             height="100%"
             style="fill:#0000ff" />
        </g>
      </g>
    </g>
    <g
       style="display:inline;fill:#00ff00"
       id="lx-text5287"
       transform="matrix(1.2817989,0,0,1.2817989,94.86809,125.89331)">
      <defs
         id="defs5415">
        <g
           id="g5871">
          <symbol
             id="symbol5857"
             overflow="visible"
             style="overflow:visible">
            <path
               id="path5855"
               d=""
               style="stroke:none"
               inkscape:connector-curvature="0" />
          </symbol>
          <symbol
             id="symbol5861"
             overflow="visible"
             style="overflow:visible">
            <path
               id="path5859"
               d="m 4.84375,-3.796875 c 0.046875,-0.140625 0.046875,-0.15625 0.046875,-0.234375 0,-0.171875 -0.140625,-0.265625 -0.296875,-0.265625 -0.09375,0 -0.25,0.0625 -0.34375,0.203125 -0.015625,0.0625 -0.109375,0.359375 -0.140625,0.546875 -0.078125,0.25 -0.140625,0.53125 -0.203125,0.796875 l -0.453125,1.796875 c -0.03125,0.140625 -0.46875,0.84375 -1.125,0.84375 -0.5,0 -0.609375,-0.4375 -0.609375,-0.8125 C 1.71875,-1.375 1.890625,-2 2.21875,-2.875 2.375,-3.28125 2.421875,-3.390625 2.421875,-3.59375 c 0,-0.4375 -0.3125,-0.8125 -0.8125,-0.8125 -0.953125,0 -1.3125,1.453125 -1.3125,1.53125 0,0.109375 0.09375,0.109375 0.109375,0.109375 0.109375,0 0.109375,-0.03125 0.15625,-0.1875 0.28125,-0.9375 0.671875,-1.234375 1.015625,-1.234375 0.078125,0 0.25,0 0.25,0.3125 0,0.25 -0.109375,0.515625 -0.171875,0.703125 -0.40625,1.0625 -0.578125,1.625 -0.578125,2.09375 0,0.890625 0.625,1.1875 1.21875,1.1875 0.390625,0 0.71875,-0.171875 1,-0.453125 -0.125,0.515625 -0.25,1.015625 -0.640625,1.546875 -0.265625,0.328125 -0.640625,0.625 -1.09375,0.625 -0.140625,0 -0.59375,-0.03125 -0.765625,-0.421875 0.15625,0 0.296875,0 0.421875,-0.125 C 1.328125,1.203125 1.421875,1.0625 1.421875,0.875 1.421875,0.5625 1.15625,0.53125 1.0625,0.53125 0.828125,0.53125 0.5,0.6875 0.5,1.171875 c 0,0.5 0.4375,0.875 1.0625,0.875 1.015625,0 2.046875,-0.90625 2.328125,-2.03125 z m 0,0"
               style="stroke:none"
               inkscape:connector-curvature="0" />
          </symbol>
          <symbol
             id="symbol5865"
             overflow="visible"
             style="overflow:visible">
            <path
               id="path5863"
               d=""
               style="stroke:none"
               inkscape:connector-curvature="0" />
          </symbol>
          <symbol
             id="symbol5869"
             overflow="visible"
             style="overflow:visible">
            <path
               id="path5867"
               d="M 3.515625,-1.265625 H 3.28125 c -0.015625,0.15625 -0.09375,0.5625 -0.1875,0.625 C 3.046875,-0.59375 2.515625,-0.59375 2.40625,-0.59375 H 1.125 c 0.734375,-0.640625 0.984375,-0.84375 1.390625,-1.171875 0.515625,-0.40625 1,-0.84375 1,-1.5 0,-0.84375 -0.734375,-1.359375 -1.625,-1.359375 -0.859375,0 -1.453125,0.609375 -1.453125,1.25 0,0.34375 0.296875,0.390625 0.375,0.390625 0.15625,0 0.359375,-0.125 0.359375,-0.375 0,-0.125 -0.046875,-0.375 -0.40625,-0.375 C 0.984375,-4.21875 1.453125,-4.375 1.78125,-4.375 c 0.703125,0 1.0625,0.546875 1.0625,1.109375 0,0.609375 -0.4375,1.078125 -0.65625,1.328125 L 0.515625,-0.265625 C 0.4375,-0.203125 0.4375,-0.1875 0.4375,0 h 2.875 z m 0,0"
               style="stroke:none"
               inkscape:connector-curvature="0" />
          </symbol>
        </g>
      </defs>
      <g
         id="lx-text5287-surface1"
         style="fill:#00ff00">
        <g
           id="g5419"
           style="fill:#00ff00;fill-opacity:1">
          <use
             id="use5417"
             y="0"
             x="0"
             xlink:href="#lx-text5287-glyph0-1"
             width="100%"
             height="100%"
             style="fill:#00ff00" />
        </g>
        <g
           id="g5423"
           style="fill:#00ff00;fill-opacity:1">
          <use
             id="use5421"
             y="1.495"
             x="4.8850002"
             xlink:href="#lx-text5287-glyph1-1"
             width="100%"
             height="100%"
             style="fill:#00ff00" />
        </g>
      </g>
    </g>
    <g
       style="display:inline;fill:#ff0000"
       id="lx-text5291"
       transform="matrix(1.2817989,0,0,1.2817989,141.76207,125.69729)">
      <defs
         id="defs5441">
        <g
           id="g5896">
          <symbol
             id="symbol5882"
             overflow="visible"
             style="overflow:visible">
            <path
               id="path5880"
               d=""
               style="stroke:none"
               inkscape:connector-curvature="0" />
          </symbol>
          <symbol
             id="symbol5886"
             overflow="visible"
             style="overflow:visible">
            <path
               id="path5884"
               d="m 4.84375,-3.796875 c 0.046875,-0.140625 0.046875,-0.15625 0.046875,-0.234375 0,-0.171875 -0.140625,-0.265625 -0.296875,-0.265625 -0.09375,0 -0.25,0.0625 -0.34375,0.203125 -0.015625,0.0625 -0.109375,0.359375 -0.140625,0.546875 -0.078125,0.25 -0.140625,0.53125 -0.203125,0.796875 l -0.453125,1.796875 c -0.03125,0.140625 -0.46875,0.84375 -1.125,0.84375 -0.5,0 -0.609375,-0.4375 -0.609375,-0.8125 C 1.71875,-1.375 1.890625,-2 2.21875,-2.875 2.375,-3.28125 2.421875,-3.390625 2.421875,-3.59375 c 0,-0.4375 -0.3125,-0.8125 -0.8125,-0.8125 -0.953125,0 -1.3125,1.453125 -1.3125,1.53125 0,0.109375 0.09375,0.109375 0.109375,0.109375 0.109375,0 0.109375,-0.03125 0.15625,-0.1875 0.28125,-0.9375 0.671875,-1.234375 1.015625,-1.234375 0.078125,0 0.25,0 0.25,0.3125 0,0.25 -0.109375,0.515625 -0.171875,0.703125 -0.40625,1.0625 -0.578125,1.625 -0.578125,2.09375 0,0.890625 0.625,1.1875 1.21875,1.1875 0.390625,0 0.71875,-0.171875 1,-0.453125 -0.125,0.515625 -0.25,1.015625 -0.640625,1.546875 -0.265625,0.328125 -0.640625,0.625 -1.09375,0.625 -0.140625,0 -0.59375,-0.03125 -0.765625,-0.421875 0.15625,0 0.296875,0 0.421875,-0.125 C 1.328125,1.203125 1.421875,1.0625 1.421875,0.875 1.421875,0.5625 1.15625,0.53125 1.0625,0.53125 0.828125,0.53125 0.5,0.6875 0.5,1.171875 c 0,0.5 0.4375,0.875 1.0625,0.875 1.015625,0 2.046875,-0.90625 2.328125,-2.03125 z m 0,0"
               style="stroke:none"
               inkscape:connector-curvature="0" />
          </symbol>
          <symbol
             id="symbol5890"
             overflow="visible"
             style="overflow:visible">
            <path
               id="path5888"
               d=""
               style="stroke:none"
               inkscape:connector-curvature="0" />
          </symbol>
          <symbol
             id="symbol5894"
             overflow="visible"
             style="overflow:visible">
            <path
               id="path5892"
               d="m 1.90625,-2.328125 c 0.546875,0 0.9375,0.375 0.9375,1.125 0,0.859375 -0.515625,1.125 -0.90625,1.125 -0.28125,0 -0.90625,-0.078125 -1.1875,-0.5 0.328125,0 0.40625,-0.234375 0.40625,-0.390625 0,-0.21875 -0.171875,-0.375 -0.390625,-0.375 -0.1875,0 -0.390625,0.125 -0.390625,0.40625 0,0.65625 0.71875,1.078125 1.5625,1.078125 0.96875,0 1.640625,-0.65625 1.640625,-1.34375 0,-0.546875 -0.4375,-1.09375 -1.203125,-1.25 0.71875,-0.265625 0.984375,-0.78125 0.984375,-1.21875 0,-0.546875 -0.625,-0.953125 -1.40625,-0.953125 -0.765625,0 -1.359375,0.375 -1.359375,0.9375 0,0.234375 0.15625,0.359375 0.359375,0.359375 0.21875,0 0.359375,-0.15625 0.359375,-0.34375 0,-0.203125 -0.140625,-0.359375 -0.359375,-0.375 0.25,-0.296875 0.71875,-0.375 0.984375,-0.375 0.3125,0 0.75,0.15625 0.75,0.75 0,0.296875 -0.09375,0.625 -0.28125,0.828125 -0.21875,0.265625 -0.421875,0.28125 -0.765625,0.3125 -0.171875,0.015625 -0.1875,0.015625 -0.21875,0.015625 -0.015625,0 -0.078125,0.015625 -0.078125,0.09375 0,0.09375 0.0625,0.09375 0.1875,0.09375 z m 0,0"
               style="stroke:none"
               inkscape:connector-curvature="0" />
          </symbol>
        </g>
      </defs>
      <g
         id="lx-text5291-surface1"
         style="fill:#ff0000">
        <g
           id="g5445"
           style="fill:#ff0000;fill-opacity:1">
          <use
             id="use5443"
             y="0"
             x="0"
             xlink:href="#lx-text5291-glyph0-1"
             width="100%"
             height="100%"
             style="fill:#ff0000" />
        </g>
        <g
           id="g5449"
           style="fill:#ff0000;fill-opacity:1">
          <use
             id="use5447"
             y="1.495"
             x="4.8850002"
             xlink:href="#lx-text5291-glyph1-1"
             width="100%"
             height="100%"
             style="fill:#ff0000" />
        </g>
      </g>
    </g>
  </g>
</svg>
