<?xml version="1.0" encoding="UTF-8" standalone="no"?>
<svg
   xmlns:dc="http://purl.org/dc/elements/1.1/"
   xmlns:cc="http://creativecommons.org/ns#"
   xmlns:rdf="http://www.w3.org/1999/02/22-rdf-syntax-ns#"
   xmlns:svg="http://www.w3.org/2000/svg"
   xmlns="http://www.w3.org/2000/svg"
   xmlns:xlink="http://www.w3.org/1999/xlink"
   xmlns:sodipodi="http://sodipodi.sourceforge.net/DTD/sodipodi-0.dtd"
   xmlns:inkscape="http://www.inkscape.org/namespaces/inkscape"
   width="278pt"
   height="188pt"
   viewBox="0.00 0.00 278.00 188.00"
   version="1.1"
   id="svg4825"
   sodipodi:docname="line-segment.svg"
   inkscape:version="0.92.4 (5da689c313, 2019-01-14)">
  <metadata
     id="metadata4831">
    <rdf:RDF>
      <cc:Work
         rdf:about="">
        <dc:format>image/svg+xml</dc:format>
        <dc:type
           rdf:resource="http://purl.org/dc/dcmitype/StillImage" />
      </cc:Work>
    </rdf:RDF>
  </metadata>
  <defs
     id="defs4829">
    <g
       id="g5582">
      <symbol
         style="overflow:visible"
         id="lx-text5556-glyph0-0"
         overflow="visible">
        <path
           inkscape:connector-curvature="0"
           id="path5576"
           d=""
           style="stroke:none" />
      </symbol>
      <symbol
         style="overflow:visible"
         id="lx-text5556-glyph0-1"
         overflow="visible">
        <path
           inkscape:connector-curvature="0"
           id="path5579"
           d="m 2.9375,-6.375 c 0,-0.25 0,-0.265625 -0.234375,-0.265625 C 2.078125,-6 1.203125,-6 0.890625,-6 v 0.3125 c 0.203125,0 0.78125,0 1.296875,-0.265625 v 5.171875 c 0,0.359375 -0.03125,0.46875 -0.921875,0.46875 h -0.3125 V 0 c 0.34375,-0.03125 1.203125,-0.03125 1.609375,-0.03125 0.390625,0 1.265625,0 1.609375,0.03125 v -0.3125 h -0.3125 c -0.90625,0 -0.921875,-0.109375 -0.921875,-0.46875 z m 0,0"
           style="stroke:none" />
      </symbol>
    </g>
    <g
       id="g5601">
      <symbol
         style="overflow:visible"
         id="lx-text5560-glyph0-0"
         overflow="visible">
        <path
           inkscape:connector-curvature="0"
           id="path5592"
           d=""
           style="stroke:none" />
      </symbol>
      <symbol
         style="overflow:visible"
         id="lx-text5560-glyph0-1"
         overflow="visible">
        <path
           inkscape:connector-curvature="0"
           id="path5595"
           d="m 2.328125,-4.4375 c 0,-0.1875 0,-0.1875 -0.203125,-0.1875 -0.453125,0.4375 -1.078125,0.4375 -1.359375,0.4375 v 0.25 c 0.15625,0 0.625,0 1,-0.1875 v 3.546875 c 0,0.234375 0,0.328125 -0.6875,0.328125 H 0.8125 V 0 c 0.125,0 0.984375,-0.03125 1.234375,-0.03125 0.21875,0 1.09375,0.03125 1.25,0.03125 V -0.25 H 3.03125 c -0.703125,0 -0.703125,-0.09375 -0.703125,-0.328125 z m 0,0"
           style="stroke:none" />
      </symbol>
      <symbol
         style="overflow:visible"
         id="lx-text5560-glyph0-2"
         overflow="visible">
        <path
           inkscape:connector-curvature="0"
           id="path5598"
           d="M 3.515625,-1.265625 H 3.28125 c -0.015625,0.15625 -0.09375,0.5625 -0.1875,0.625 C 3.046875,-0.59375 2.515625,-0.59375 2.40625,-0.59375 H 1.125 c 0.734375,-0.640625 0.984375,-0.84375 1.390625,-1.171875 0.515625,-0.40625 1,-0.84375 1,-1.5 0,-0.84375 -0.734375,-1.359375 -1.625,-1.359375 -0.859375,0 -1.453125,0.609375 -1.453125,1.25 0,0.34375 0.296875,0.390625 0.375,0.390625 0.15625,0 0.359375,-0.125 0.359375,-0.375 0,-0.125 -0.046875,-0.375 -0.40625,-0.375 C 0.984375,-4.21875 1.453125,-4.375 1.78125,-4.375 c 0.703125,0 1.0625,0.546875 1.0625,1.109375 0,0.609375 -0.4375,1.078125 -0.65625,1.328125 L 0.515625,-0.265625 C 0.4375,-0.203125 0.4375,-0.1875 0.4375,0 h 2.875 z m 0,0"
           style="stroke:none" />
      </symbol>
    </g>
    <g
       id="g5626">
      <symbol
         style="overflow:visible"
         id="lx-text5564-glyph0-0"
         overflow="visible">
        <path
           inkscape:connector-curvature="0"
           id="path5617"
           d=""
           style="stroke:none" />
      </symbol>
      <symbol
         style="overflow:visible"
         id="lx-text5564-glyph0-1"
         overflow="visible">
        <path
           inkscape:connector-curvature="0"
           id="path5620"
           d="m 2.328125,-4.4375 c 0,-0.1875 0,-0.1875 -0.203125,-0.1875 -0.453125,0.4375 -1.078125,0.4375 -1.359375,0.4375 v 0.25 c 0.15625,0 0.625,0 1,-0.1875 v 3.546875 c 0,0.234375 0,0.328125 -0.6875,0.328125 H 0.8125 V 0 c 0.125,0 0.984375,-0.03125 1.234375,-0.03125 0.21875,0 1.09375,0.03125 1.25,0.03125 V -0.25 H 3.03125 c -0.703125,0 -0.703125,-0.09375 -0.703125,-0.328125 z m 0,0"
           style="stroke:none" />
      </symbol>
      <symbol
         style="overflow:visible"
         id="lx-text5564-glyph0-2"
         overflow="visible">
        <path
           inkscape:connector-curvature="0"
           id="path5623"
           d="m 3.6875,-1.140625 v -0.25 H 2.90625 V -4.5 c 0,-0.140625 0,-0.203125 -0.140625,-0.203125 -0.09375,0 -0.125,0 -0.1875,0.109375 l -2.3125,3.203125 v 0.25 h 2.0625 v 0.5625 c 0,0.25 0,0.328125 -0.578125,0.328125 H 1.5625 V 0 C 1.921875,-0.015625 2.359375,-0.03125 2.609375,-0.03125 2.875,-0.03125 3.3125,-0.015625 3.671875,0 v -0.25 h -0.1875 C 2.90625,-0.25 2.90625,-0.328125 2.90625,-0.578125 v -0.5625 z M 2.375,-3.9375 v 2.546875 H 0.53125 Z m 0,0"
           style="stroke:none" />
      </symbol>
    </g>
    <g
       id="g5941-2">
      <symbol
         style="overflow:visible"
         id="symbol5931-1"
         overflow="visible">
        <path
           inkscape:connector-curvature="0"
           id="path5929-8"
           d=""
           style="stroke:none" />
      </symbol>
      <symbol
         style="overflow:visible"
         id="symbol5935-1"
         overflow="visible">
        <path
           inkscape:connector-curvature="0"
           id="path5933-6"
           d="m 2.328125,-4.4375 c 0,-0.1875 0,-0.1875 -0.203125,-0.1875 -0.453125,0.4375 -1.078125,0.4375 -1.359375,0.4375 v 0.25 c 0.15625,0 0.625,0 1,-0.1875 v 3.546875 c 0,0.234375 0,0.328125 -0.6875,0.328125 H 0.8125 V 0 c 0.125,0 0.984375,-0.03125 1.234375,-0.03125 0.21875,0 1.09375,0.03125 1.25,0.03125 V -0.25 H 3.03125 c -0.703125,0 -0.703125,-0.09375 -0.703125,-0.328125 z m 0,0"
           style="stroke:none" />
      </symbol>
      <symbol
         style="overflow:visible"
         id="symbol5939-0"
         overflow="visible">
        <path
           inkscape:connector-curvature="0"
           id="path5937-2"
           d="m 3.6875,-1.140625 v -0.25 H 2.90625 V -4.5 c 0,-0.140625 0,-0.203125 -0.140625,-0.203125 -0.09375,0 -0.125,0 -0.1875,0.109375 l -2.3125,3.203125 v 0.25 h 2.0625 v 0.5625 c 0,0.25 0,0.328125 -0.578125,0.328125 H 1.5625 V 0 C 1.921875,-0.015625 2.359375,-0.03125 2.609375,-0.03125 2.875,-0.03125 3.3125,-0.015625 3.671875,0 v -0.25 h -0.1875 C 2.90625,-0.25 2.90625,-0.328125 2.90625,-0.578125 v -0.5625 z M 2.375,-3.9375 v 2.546875 H 0.53125 Z m 0,0"
           style="stroke:none" />
      </symbol>
    </g>
    <g
       id="g6042-4">
      <symbol
         style="overflow:visible"
         id="symbol6032-0"
         overflow="visible">
        <path
           inkscape:connector-curvature="0"
           id="path6030-4"
           d=""
           style="stroke:none" />
      </symbol>
      <symbol
         style="overflow:visible"
         id="symbol6036-4"
         overflow="visible">
        <path
           inkscape:connector-curvature="0"
           id="path6034-1"
           d="m 2.328125,-4.4375 c 0,-0.1875 0,-0.1875 -0.203125,-0.1875 -0.453125,0.4375 -1.078125,0.4375 -1.359375,0.4375 v 0.25 c 0.15625,0 0.625,0 1,-0.1875 v 3.546875 c 0,0.234375 0,0.328125 -0.6875,0.328125 H 0.8125 V 0 c 0.125,0 0.984375,-0.03125 1.234375,-0.03125 0.21875,0 1.09375,0.03125 1.25,0.03125 V -0.25 H 3.03125 c -0.703125,0 -0.703125,-0.09375 -0.703125,-0.328125 z m 0,0"
           style="stroke:none" />
      </symbol>
      <symbol
         style="overflow:visible"
         id="symbol6040-6"
         overflow="visible">
        <path
           inkscape:connector-curvature="0"
           id="path6038-9"
           d="m 3.6875,-1.140625 v -0.25 H 2.90625 V -4.5 c 0,-0.140625 0,-0.203125 -0.140625,-0.203125 -0.09375,0 -0.125,0 -0.1875,0.109375 l -2.3125,3.203125 v 0.25 h 2.0625 v 0.5625 c 0,0.25 0,0.328125 -0.578125,0.328125 H 1.5625 V 0 C 1.921875,-0.015625 2.359375,-0.03125 2.609375,-0.03125 2.875,-0.03125 3.3125,-0.015625 3.671875,0 v -0.25 h -0.1875 C 2.90625,-0.25 2.90625,-0.328125 2.90625,-0.578125 v -0.5625 z M 2.375,-3.9375 v 2.546875 H 0.53125 Z m 0,0"
           style="stroke:none" />
      </symbol>
    </g>
    <g
       id="g6113-6">
      <symbol
         style="overflow:visible"
         id="symbol6103-7"
         overflow="visible">
        <path
           inkscape:connector-curvature="0"
           id="path6101-1"
           d=""
           style="stroke:none" />
      </symbol>
      <symbol
         style="overflow:visible"
         id="symbol6107-7"
         overflow="visible">
        <path
           inkscape:connector-curvature="0"
           id="path6105-8"
           d="m 2.328125,-4.4375 c 0,-0.1875 0,-0.1875 -0.203125,-0.1875 -0.453125,0.4375 -1.078125,0.4375 -1.359375,0.4375 v 0.25 c 0.15625,0 0.625,0 1,-0.1875 v 3.546875 c 0,0.234375 0,0.328125 -0.6875,0.328125 H 0.8125 V 0 c 0.125,0 0.984375,-0.03125 1.234375,-0.03125 0.21875,0 1.09375,0.03125 1.25,0.03125 V -0.25 H 3.03125 c -0.703125,0 -0.703125,-0.09375 -0.703125,-0.328125 z m 0,0"
           style="stroke:none" />
      </symbol>
      <symbol
         style="overflow:visible"
         id="symbol6111-5"
         overflow="visible">
        <path
           inkscape:connector-curvature="0"
           id="path6109-4"
           d="m 3.6875,-1.140625 v -0.25 H 2.90625 V -4.5 c 0,-0.140625 0,-0.203125 -0.140625,-0.203125 -0.09375,0 -0.125,0 -0.1875,0.109375 l -2.3125,3.203125 v 0.25 h 2.0625 v 0.5625 c 0,0.25 0,0.328125 -0.578125,0.328125 H 1.5625 V 0 C 1.921875,-0.015625 2.359375,-0.03125 2.609375,-0.03125 2.875,-0.03125 3.3125,-0.015625 3.671875,0 v -0.25 h -0.1875 C 2.90625,-0.25 2.90625,-0.328125 2.90625,-0.578125 v -0.5625 z M 2.375,-3.9375 v 2.546875 H 0.53125 Z m 0,0"
           style="stroke:none" />
      </symbol>
    </g>
  </defs>
  <sodipodi:namedview
     pagecolor="#ffffff"
     bordercolor="#666666"
     borderopacity="1"
     objecttolerance="10"
     gridtolerance="10"
     guidetolerance="10"
     inkscape:pageopacity="0"
     inkscape:pageshadow="2"
     inkscape:window-width="1366"
     inkscape:window-height="739"
     id="namedview4827"
     showgrid="false"
     showguides="false"
     inkscape:zoom="1.6970563"
     inkscape:cx="59.810493"
     inkscape:cy="179.17687"
     inkscape:window-x="-9"
     inkscape:window-y="-9"
     inkscape:window-maximized="1"
     inkscape:current-layer="svg4825" />
  <g
     id="g4931"
     transform="translate(-0.52447557,-1.5734267)">
    <ellipse
       style="fill:none;stroke:#000000"
       id="ellipse4735"
       ry="18"
       rx="27"
       cy="22"
       cx="139" />
    <ellipse
       style="fill:none;stroke:#000000"
       id="ellipse4742"
       ry="18"
       rx="27"
       cy="94"
       cx="103" />
    <path
       style="fill:none;stroke:#000000"
       inkscape:connector-curvature="0"
       id="path4749"
       d="m 130.65,39.24 c -4.23,8.21 -9.46,18.39 -14.23,27.67" />
    <polygon
       transform="translate(4,184)"
       style="fill:#000000;stroke:#000000"
       id="polygon4751"
       points="115.68,-115.79 108,-108.49 109.46,-118.99 " />
    <ellipse
       style="fill:none;stroke:#000000"
       id="ellipse4756"
       ry="18"
       rx="27"
       cy="94"
       cx="175" />
    <path
       style="fill:none;stroke:#000000"
       inkscape:connector-curvature="0"
       id="path4763"
       d="m 147.35,39.24 c 4.23,8.21 9.46,18.39 14.23,27.67" />
    <polygon
       transform="translate(4,184)"
       style="fill:#000000;stroke:#000000"
       id="polygon4765"
       points="160.54,-118.99 162,-108.49 154.32,-115.79 " />
    <ellipse
       style="fill:none;stroke:#000000"
       id="ellipse4770"
       ry="18"
       rx="27"
       cy="166"
       cx="31" />
    <path
       style="fill:none;stroke:#000000"
       inkscape:connector-curvature="0"
       id="path4777"
       d="m 88.08,109.5 c -9.85,9.58 -22.94,22.31 -34.11,33.16" />
    <polygon
       transform="translate(4,184)"
       style="fill:#000000;stroke:#000000"
       id="polygon4779"
       points="52.59,-39 42.98,-34.54 47.71,-44.02 " />
    <ellipse
       style="fill:none;stroke:#000000"
       id="ellipse4784"
       ry="18"
       rx="27"
       cy="166"
       cx="103" />
    <path
       style="fill:none;stroke:#000000"
       inkscape:connector-curvature="0"
       id="path4791"
       d="m 103,112.3 c 0,7.29 0,15.97 0,24.16" />
    <polygon
       transform="translate(4,184)"
       style="fill:#000000;stroke:#000000"
       id="polygon4793"
       points="102.5,-47.62 99,-37.62 95.5,-47.62 " />
    <ellipse
       style="fill:none;stroke:#000000"
       id="ellipse4798"
       ry="18"
       rx="27"
       cy="166"
       cx="175" />
    <path
       style="fill:none;stroke:#000000"
       inkscape:connector-curvature="0"
       id="path4805"
       d="m 175,112.3 c 0,7.29 0,15.97 0,24.16" />
    <polygon
       transform="translate(4,184)"
       style="fill:#000000;stroke:#000000"
       id="polygon4807"
       points="174.5,-47.62 171,-37.62 167.5,-47.62 " />
    <ellipse
       style="fill:none;stroke:#000000"
       id="ellipse4812"
       ry="18"
       rx="27"
       cy="166"
       cx="247" />
    <path
       style="fill:none;stroke:#000000"
       inkscape:connector-curvature="0"
       id="path4819"
       d="m 189.92,109.5 c 9.85,9.58 22.94,22.31 34.11,33.16" />
    <polygon
       transform="translate(4,184)"
       style="fill:#000000;stroke:#000000"
       id="polygon4821"
       points="222.29,-44.02 227.02,-34.54 217.41,-39 " />
  </g>
  <path
     style="fill:#ff0000;stroke:#ea0000;stroke-width:1.88503933;stroke-linecap:butt;stroke-linejoin:miter;stroke-miterlimit:4;stroke-dasharray:none;stroke-opacity:1"
     d="M 116.43357,21.216783 H 160.4895"
     id="path4933"
     inkscape:connector-curvature="0" />
  <path
     style="fill:#ff0000;stroke:#ea0000;stroke-width:1.88503933;stroke-linecap:butt;stroke-linejoin:miter;stroke-miterlimit:4;stroke-dasharray:none;stroke-opacity:1"
     d="M 91.258741,92.545454 H 113.28672"
     id="path4937"
     inkscape:connector-curvature="0" />
  <path
     style="fill:#ff0000;stroke:#ea0000;stroke-width:1.88503933;stroke-linecap:butt;stroke-linejoin:miter;stroke-miterlimit:4;stroke-dasharray:none;stroke-opacity:1"
     d="m 24.650349,164.3986 h 8.916085"
     id="path4941"
     inkscape:connector-curvature="0" />
  <path
     style="fill:#ff0000;stroke:#ea0000;stroke-width:1.88503933;stroke-linecap:butt;stroke-linejoin:miter;stroke-miterlimit:4;stroke-dasharray:none;stroke-opacity:1"
     d="m 163.02797,92.020979 h 22.02798"
     id="path4937-5"
     inkscape:connector-curvature="0" />
  <path
     style="fill:#ff0000;stroke:#ea0000;stroke-width:1.88503933;stroke-linecap:butt;stroke-linejoin:miter;stroke-miterlimit:4;stroke-dasharray:none;stroke-opacity:1"
     d="M 97.888112,163.34965 H 106.8042"
     id="path4941-6"
     inkscape:connector-curvature="0" />
  <path
     style="fill:#ff0000;stroke:#ea0000;stroke-width:1.88503933;stroke-linecap:butt;stroke-linejoin:miter;stroke-miterlimit:4;stroke-dasharray:none;stroke-opacity:1"
     d="m 169.88811,163.34965 h 8.91609"
     id="path4941-6-8"
     inkscape:connector-curvature="0" />
  <path
     style="fill:#ff0000;stroke:#ea0000;stroke-width:1.88503933;stroke-linecap:butt;stroke-linejoin:miter;stroke-miterlimit:4;stroke-dasharray:none;stroke-opacity:1"
     d="m 240.38811,163.34965 h 8.91609"
     id="path4941-6-8-8"
     inkscape:connector-curvature="0" />
  <g
     id="lx-text5556"
     transform="matrix(1.2855318,0,0,1.2855318,134.40502,32.186943)">
    <defs
       id="defs5584">
      <g
         id="g5900">
        <symbol
           style="overflow:visible"
           id="symbol5894"
           overflow="visible">
          <path
             inkscape:connector-curvature="0"
             id="path5892"
             d=""
             style="stroke:none" />
        </symbol>
        <symbol
           style="overflow:visible"
           id="symbol5898"
           overflow="visible">
          <path
             inkscape:connector-curvature="0"
             id="path5896"
             d="m 2.9375,-6.375 c 0,-0.25 0,-0.265625 -0.234375,-0.265625 C 2.078125,-6 1.203125,-6 0.890625,-6 v 0.3125 c 0.203125,0 0.78125,0 1.296875,-0.265625 v 5.171875 c 0,0.359375 -0.03125,0.46875 -0.921875,0.46875 h -0.3125 V 0 c 0.34375,-0.03125 1.203125,-0.03125 1.609375,-0.03125 0.390625,0 1.265625,0 1.609375,0.03125 v -0.3125 h -0.3125 c -0.90625,0 -0.921875,-0.109375 -0.921875,-0.46875 z m 0,0"
             style="stroke:none" />
        </symbol>
      </g>
    </defs>
    <g
       id="lx-text5556-surface1">
      <g
         id="g5588"
         style="fill:#000000;fill-opacity:1">
        <use
           height="100%"
           width="100%"
           id="use5586"
           y="0"
           x="0"
           xlink:href="#lx-text5556-glyph0-1" />
      </g>
    </g>
  </g>
  <g
     id="lx-text5560"
     transform="matrix(1.1092851,0,0,1.1092851,-122.29924,120.99059)">
    <defs
       id="defs5603">
      <g
         id="g5919">
        <symbol
           style="overflow:visible"
           id="symbol5909"
           overflow="visible">
          <path
             inkscape:connector-curvature="0"
             id="path5907"
             d=""
             style="stroke:none" />
        </symbol>
        <symbol
           style="overflow:visible"
           id="symbol5913"
           overflow="visible">
          <path
             inkscape:connector-curvature="0"
             id="path5911"
             d="m 2.328125,-4.4375 c 0,-0.1875 0,-0.1875 -0.203125,-0.1875 -0.453125,0.4375 -1.078125,0.4375 -1.359375,0.4375 v 0.25 c 0.15625,0 0.625,0 1,-0.1875 v 3.546875 c 0,0.234375 0,0.328125 -0.6875,0.328125 H 0.8125 V 0 c 0.125,0 0.984375,-0.03125 1.234375,-0.03125 0.21875,0 1.09375,0.03125 1.25,0.03125 V -0.25 H 3.03125 c -0.703125,0 -0.703125,-0.09375 -0.703125,-0.328125 z m 0,0"
             style="stroke:none" />
        </symbol>
        <symbol
           style="overflow:visible"
           id="symbol5917"
           overflow="visible">
          <path
             inkscape:connector-curvature="0"
             id="path5915"
             d="M 3.515625,-1.265625 H 3.28125 c -0.015625,0.15625 -0.09375,0.5625 -0.1875,0.625 C 3.046875,-0.59375 2.515625,-0.59375 2.40625,-0.59375 H 1.125 c 0.734375,-0.640625 0.984375,-0.84375 1.390625,-1.171875 0.515625,-0.40625 1,-0.84375 1,-1.5 0,-0.84375 -0.734375,-1.359375 -1.625,-1.359375 -0.859375,0 -1.453125,0.609375 -1.453125,1.25 0,0.34375 0.296875,0.390625 0.375,0.390625 0.15625,0 0.359375,-0.125 0.359375,-0.375 0,-0.125 -0.046875,-0.375 -0.40625,-0.375 C 0.984375,-4.21875 1.453125,-4.375 1.78125,-4.375 c 0.703125,0 1.0625,0.546875 1.0625,1.109375 0,0.609375 -0.4375,1.078125 -0.65625,1.328125 L 0.515625,-0.265625 C 0.4375,-0.203125 0.4375,-0.1875 0.4375,0 h 2.875 z m 0,0"
             style="stroke:none" />
        </symbol>
      </g>
    </defs>
    <g
       id="lx-text5560-surface1"
       transform="translate(200.94212,-18.439394)">
      <g
         id="g5607"
         style="fill:#000000;fill-opacity:1">
        <use
           height="100%"
           width="100%"
           id="use5605"
           y="0"
           x="0"
           xlink:href="#lx-text5560-glyph0-1" />
      </g>
      <path
         inkscape:connector-curvature="0"
         id="path5609"
         transform="matrix(1,0,0,-1,0,1.432)"
         d="M -9.375e-4,-0.00178125 H 3.971719"
         style="fill:none;stroke:#000000;stroke-width:0.398;stroke-linecap:butt;stroke-linejoin:miter;stroke-miterlimit:10;stroke-opacity:1" />
      <g
         id="g5613"
         style="fill:#000000;fill-opacity:1">
        <use
           height="100%"
           width="100%"
           id="use5611"
           y="7.3579998"
           x="0"
           xlink:href="#lx-text5560-glyph0-2" />
      </g>
    </g>
    <g
       id="lx-text5560-surface1-5"
       transform="translate(265.78469,-18.498773)">
      <g
         id="g5607-4"
         style="fill:#000000;fill-opacity:1">
        <use
           height="100%"
           width="100%"
           id="use5605-1"
           y="0"
           x="0"
           xlink:href="#lx-text5560-glyph0-1" />
      </g>
      <path
         inkscape:connector-curvature="0"
         id="path5609-3"
         transform="matrix(1,0,0,-1,0,1.432)"
         d="M -9.375e-4,-0.00178125 H 3.971719"
         style="fill:none;stroke:#000000;stroke-width:0.398;stroke-linecap:butt;stroke-linejoin:miter;stroke-miterlimit:10;stroke-opacity:1" />
      <g
         id="g5613-1"
         style="fill:#000000;fill-opacity:1">
        <use
           height="100%"
           width="100%"
           id="use5611-3"
           y="7.3579998"
           x="0"
           xlink:href="#lx-text5560-glyph0-2" />
      </g>
    </g>
  </g>
  <g
     id="lx-text5564"
     transform="matrix(1.1092851,0,0,1.1092851,26.0762,172.81019)">
    <defs
       id="defs5628">
      <g
         id="g5941">
        <symbol
           style="overflow:visible"
           id="symbol5931"
           overflow="visible">
          <path
             inkscape:connector-curvature="0"
             id="path5929"
             d=""
             style="stroke:none" />
        </symbol>
        <symbol
           style="overflow:visible"
           id="symbol5935"
           overflow="visible">
          <path
             inkscape:connector-curvature="0"
             id="path5933"
             d="m 2.328125,-4.4375 c 0,-0.1875 0,-0.1875 -0.203125,-0.1875 -0.453125,0.4375 -1.078125,0.4375 -1.359375,0.4375 v 0.25 c 0.15625,0 0.625,0 1,-0.1875 v 3.546875 c 0,0.234375 0,0.328125 -0.6875,0.328125 H 0.8125 V 0 c 0.125,0 0.984375,-0.03125 1.234375,-0.03125 0.21875,0 1.09375,0.03125 1.25,0.03125 V -0.25 H 3.03125 c -0.703125,0 -0.703125,-0.09375 -0.703125,-0.328125 z m 0,0"
             style="stroke:none" />
        </symbol>
        <symbol
           style="overflow:visible"
           id="symbol5939"
           overflow="visible">
          <path
             inkscape:connector-curvature="0"
             id="path5937"
             d="m 3.6875,-1.140625 v -0.25 H 2.90625 V -4.5 c 0,-0.140625 0,-0.203125 -0.140625,-0.203125 -0.09375,0 -0.125,0 -0.1875,0.109375 l -2.3125,3.203125 v 0.25 h 2.0625 v 0.5625 c 0,0.25 0,0.328125 -0.578125,0.328125 H 1.5625 V 0 C 1.921875,-0.015625 2.359375,-0.03125 2.609375,-0.03125 2.875,-0.03125 3.3125,-0.015625 3.671875,0 v -0.25 h -0.1875 C 2.90625,-0.25 2.90625,-0.328125 2.90625,-0.578125 v -0.5625 z M 2.375,-3.9375 v 2.546875 H 0.53125 Z m 0,0"
             style="stroke:none" />
        </symbol>
      </g>
    </defs>
    <g
       id="lx-text5564-surface1">
      <g
         id="g5632"
         style="fill:#000000;fill-opacity:1">
        <use
           height="100%"
           width="100%"
           id="use5630"
           y="0"
           x="0"
           xlink:href="#lx-text5564-glyph0-1" />
      </g>
      <path
         inkscape:connector-curvature="0"
         id="path5634"
         transform="matrix(1,0,0,-1,0,1.432)"
         d="M -9.375e-4,-0.00178125 H 3.971719"
         style="fill:none;stroke:#000000;stroke-width:0.398;stroke-linecap:butt;stroke-linejoin:miter;stroke-miterlimit:10;stroke-opacity:1" />
      <g
         id="g5638"
         style="fill:#000000;fill-opacity:1">
        <use
           height="100%"
           width="100%"
           id="use5636"
           y="7.3579998"
           x="0"
           xlink:href="#lx-text5564-glyph0-2" />
      </g>
    </g>
  </g>
  <g
     id="lx-text5564-3"
     transform="matrix(1.1092851,0,0,1.1092851,100.64729,170.54011)">
    <defs
       id="defs5628-1">
      <g
         id="g6042">
        <symbol
           style="overflow:visible"
           id="symbol6032"
           overflow="visible">
          <path
             inkscape:connector-curvature="0"
             id="path6030"
             d=""
             style="stroke:none" />
        </symbol>
        <symbol
           style="overflow:visible"
           id="symbol6036"
           overflow="visible">
          <path
             inkscape:connector-curvature="0"
             id="path6034"
             d="m 2.328125,-4.4375 c 0,-0.1875 0,-0.1875 -0.203125,-0.1875 -0.453125,0.4375 -1.078125,0.4375 -1.359375,0.4375 v 0.25 c 0.15625,0 0.625,0 1,-0.1875 v 3.546875 c 0,0.234375 0,0.328125 -0.6875,0.328125 H 0.8125 V 0 c 0.125,0 0.984375,-0.03125 1.234375,-0.03125 0.21875,0 1.09375,0.03125 1.25,0.03125 V -0.25 H 3.03125 c -0.703125,0 -0.703125,-0.09375 -0.703125,-0.328125 z m 0,0"
             style="stroke:none" />
        </symbol>
        <symbol
           style="overflow:visible"
           id="symbol6040"
           overflow="visible">
          <path
             inkscape:connector-curvature="0"
             id="path6038"
             d="m 3.6875,-1.140625 v -0.25 H 2.90625 V -4.5 c 0,-0.140625 0,-0.203125 -0.140625,-0.203125 -0.09375,0 -0.125,0 -0.1875,0.109375 l -2.3125,3.203125 v 0.25 h 2.0625 v 0.5625 c 0,0.25 0,0.328125 -0.578125,0.328125 H 1.5625 V 0 C 1.921875,-0.015625 2.359375,-0.03125 2.609375,-0.03125 2.875,-0.03125 3.3125,-0.015625 3.671875,0 v -0.25 h -0.1875 C 2.90625,-0.25 2.90625,-0.328125 2.90625,-0.578125 v -0.5625 z M 2.375,-3.9375 v 2.546875 H 0.53125 Z m 0,0"
             style="stroke:none" />
        </symbol>
      </g>
    </defs>
    <g
       id="lx-text5564-surface1-3">
      <g
         id="g5632-3"
         style="fill:#000000;fill-opacity:1">
        <use
           height="100%"
           width="100%"
           id="use5630-6"
           y="0"
           x="0"
           xlink:href="#lx-text5564-glyph0-1" />
      </g>
      <path
         inkscape:connector-curvature="0"
         id="path5634-3"
         transform="matrix(1,0,0,-1,0,1.432)"
         d="M -9.375e-4,-0.00178125 H 3.971719"
         style="fill:none;stroke:#000000;stroke-width:0.398;stroke-linecap:butt;stroke-linejoin:miter;stroke-miterlimit:10;stroke-opacity:1" />
      <g
         id="g5638-4"
         style="fill:#000000;fill-opacity:1">
        <use
           height="100%"
           width="100%"
           id="use5636-1"
           y="7.3579998"
           x="0"
           xlink:href="#lx-text5564-glyph0-2" />
      </g>
    </g>
  </g>
  <g
     id="lx-text5564-3-3"
     transform="matrix(1.1092851,0,0,1.1092851,172.64729,170.54011)">
    <defs
       id="defs5628-1-4">
      <g
         id="g6113">
        <symbol
           style="overflow:visible"
           id="symbol6103"
           overflow="visible">
          <path
             inkscape:connector-curvature="0"
             id="path6101"
             d=""
             style="stroke:none" />
        </symbol>
        <symbol
           style="overflow:visible"
           id="symbol6107"
           overflow="visible">
          <path
             inkscape:connector-curvature="0"
             id="path6105"
             d="m 2.328125,-4.4375 c 0,-0.1875 0,-0.1875 -0.203125,-0.1875 -0.453125,0.4375 -1.078125,0.4375 -1.359375,0.4375 v 0.25 c 0.15625,0 0.625,0 1,-0.1875 v 3.546875 c 0,0.234375 0,0.328125 -0.6875,0.328125 H 0.8125 V 0 c 0.125,0 0.984375,-0.03125 1.234375,-0.03125 0.21875,0 1.09375,0.03125 1.25,0.03125 V -0.25 H 3.03125 c -0.703125,0 -0.703125,-0.09375 -0.703125,-0.328125 z m 0,0"
             style="stroke:none" />
        </symbol>
        <symbol
           style="overflow:visible"
           id="symbol6111"
           overflow="visible">
          <path
             inkscape:connector-curvature="0"
             id="path6109"
             d="m 3.6875,-1.140625 v -0.25 H 2.90625 V -4.5 c 0,-0.140625 0,-0.203125 -0.140625,-0.203125 -0.09375,0 -0.125,0 -0.1875,0.109375 l -2.3125,3.203125 v 0.25 h 2.0625 v 0.5625 c 0,0.25 0,0.328125 -0.578125,0.328125 H 1.5625 V 0 C 1.921875,-0.015625 2.359375,-0.03125 2.609375,-0.03125 2.875,-0.03125 3.3125,-0.015625 3.671875,0 v -0.25 h -0.1875 C 2.90625,-0.25 2.90625,-0.328125 2.90625,-0.578125 v -0.5625 z M 2.375,-3.9375 v 2.546875 H 0.53125 Z m 0,0"
             style="stroke:none" />
        </symbol>
      </g>
    </defs>
    <g
       id="lx-text5564-surface1-3-0">
      <g
         id="g5632-3-3"
         style="fill:#000000;fill-opacity:1">
        <use
           height="100%"
           width="100%"
           id="use5630-6-6"
           y="0"
           x="0"
           xlink:href="#lx-text5564-glyph0-1" />
      </g>
      <path
         inkscape:connector-curvature="0"
         id="path5634-3-5"
         transform="matrix(1,0,0,-1,0,1.432)"
         d="M -9.375e-4,-0.00178125 H 3.971719"
         style="fill:none;stroke:#000000;stroke-width:0.398;stroke-linecap:butt;stroke-linejoin:miter;stroke-miterlimit:10;stroke-opacity:1" />
      <g
         id="g5638-4-3"
         style="fill:#000000;fill-opacity:1">
        <use
           height="100%"
           width="100%"
           id="use5636-1-6"
           y="7.3579998"
           x="0"
           xlink:href="#lx-text5564-glyph0-2" />
      </g>
    </g>
  </g>
  <g
     id="lx-text5564-3-3-4"
     transform="matrix(1.1092851,0,0,1.1092851,242.41003,170.48416)">
    <defs
       id="defs5628-1-4-8">
      <g
         id="g6184">
        <symbol
           style="overflow:visible"
           id="symbol6174"
           overflow="visible">
          <path
             inkscape:connector-curvature="0"
             id="path6172"
             d=""
             style="stroke:none" />
        </symbol>
        <symbol
           style="overflow:visible"
           id="symbol6178"
           overflow="visible">
          <path
             inkscape:connector-curvature="0"
             id="path6176"
             d="m 2.328125,-4.4375 c 0,-0.1875 0,-0.1875 -0.203125,-0.1875 -0.453125,0.4375 -1.078125,0.4375 -1.359375,0.4375 v 0.25 c 0.15625,0 0.625,0 1,-0.1875 v 3.546875 c 0,0.234375 0,0.328125 -0.6875,0.328125 H 0.8125 V 0 c 0.125,0 0.984375,-0.03125 1.234375,-0.03125 0.21875,0 1.09375,0.03125 1.25,0.03125 V -0.25 H 3.03125 c -0.703125,0 -0.703125,-0.09375 -0.703125,-0.328125 z m 0,0"
             style="stroke:none" />
        </symbol>
        <symbol
           style="overflow:visible"
           id="symbol6182"
           overflow="visible">
          <path
             inkscape:connector-curvature="0"
             id="path6180"
             d="m 3.6875,-1.140625 v -0.25 H 2.90625 V -4.5 c 0,-0.140625 0,-0.203125 -0.140625,-0.203125 -0.09375,0 -0.125,0 -0.1875,0.109375 l -2.3125,3.203125 v 0.25 h 2.0625 v 0.5625 c 0,0.25 0,0.328125 -0.578125,0.328125 H 1.5625 V 0 C 1.921875,-0.015625 2.359375,-0.03125 2.609375,-0.03125 2.875,-0.03125 3.3125,-0.015625 3.671875,0 v -0.25 h -0.1875 C 2.90625,-0.25 2.90625,-0.328125 2.90625,-0.578125 v -0.5625 z M 2.375,-3.9375 v 2.546875 H 0.53125 Z m 0,0"
             style="stroke:none" />
        </symbol>
      </g>
    </defs>
    <g
       id="lx-text5564-surface1-3-0-3">
      <g
         id="g5632-3-3-9"
         style="fill:#000000;fill-opacity:1">
        <use
           height="100%"
           width="100%"
           id="use5630-6-6-7"
           y="0"
           x="0"
           xlink:href="#lx-text5564-glyph0-1" />
      </g>
      <path
         inkscape:connector-curvature="0"
         id="path5634-3-5-3"
         transform="matrix(1,0,0,-1,0,1.432)"
         d="M -9.375e-4,-0.00178125 H 3.971719"
         style="fill:none;stroke:#000000;stroke-width:0.398;stroke-linecap:butt;stroke-linejoin:miter;stroke-miterlimit:10;stroke-opacity:1" />
      <g
         id="g5638-4-3-8"
         style="fill:#000000;fill-opacity:1">
        <use
           height="100%"
           width="100%"
           id="use5636-1-6-3"
           y="7.3579998"
           x="0"
           xlink:href="#lx-text5564-glyph0-2" />
      </g>
    </g>
  </g>
  <g
     id="g10344"
     transform="translate(25.5,94.5)"
     style="stroke:#ee0000;stroke-width:1.22475004;stroke-miterlimit:4;stroke-dasharray:none;stroke-opacity:1">
    <path
       inkscape:connector-curvature="0"
       id="path10249"
       d="M -110.39321,-24.573976 H 1.4180632"
       style="fill:none;stroke:#ee0000;stroke-width:1.22475004;stroke-linecap:butt;stroke-linejoin:miter;stroke-miterlimit:4;stroke-dasharray:none;stroke-opacity:1" />
    <path
       inkscape:connector-curvature="0"
       id="path10249-6"
       d="M -110.39321,-4.7203925 H 1.418064"
       style="fill:none;stroke:#ee0000;stroke-width:1.22475004;stroke-linecap:butt;stroke-linejoin:miter;stroke-miterlimit:4;stroke-dasharray:none;stroke-opacity:1" />
    <path
       inkscape:connector-curvature="0"
       id="path10249-6-5"
       d="M -110.39321,15.133207 H 1.418064"
       style="fill:none;stroke:#ee0000;stroke-width:1.22475004;stroke-linecap:butt;stroke-linejoin:miter;stroke-miterlimit:4;stroke-dasharray:none;stroke-opacity:1" />
    <path
       inkscape:connector-curvature="0"
       id="path10281"
       d="M -54.852817,-8.0479567 V 0.34893601"
       style="fill:none;stroke:#ee0000;stroke-width:1.22475004;stroke-linecap:butt;stroke-linejoin:miter;stroke-miterlimit:4;stroke-dasharray:none;stroke-opacity:1" />
    <path
       inkscape:connector-curvature="0"
       id="path10281-0"
       d="m -55.64213,10.418903 v 8.396893"
       style="fill:none;stroke:#ee0000;stroke-width:1.22475004;stroke-linecap:butt;stroke-linejoin:miter;stroke-miterlimit:4;stroke-dasharray:none;stroke-opacity:1" />
    <path
       inkscape:connector-curvature="0"
       id="path10281-0-8"
       d="M -84.184659,19.305635 V 10.908742"
       style="fill:none;stroke:#ee0000;stroke-width:1.22475004;stroke-linecap:butt;stroke-linejoin:miter;stroke-miterlimit:4;stroke-dasharray:none;stroke-opacity:1" />
    <path
       inkscape:connector-curvature="0"
       id="path10281-0-8-9"
       d="M -27.184659,19.305635 V 10.908742"
       style="fill:none;stroke:#ee0000;stroke-width:1.22475004;stroke-linecap:butt;stroke-linejoin:miter;stroke-miterlimit:4;stroke-dasharray:none;stroke-opacity:1" />
  </g>
</svg>
